<?xml version="1.0" encoding="UTF-8"?>
<svg id="Layer_2" data-name="Layer 2" xmlns="http://www.w3.org/2000/svg" viewBox="0 0 171.02 172.1">
  <defs>
    <style>
      .cls-1 {
        fill: #68bfdd;
      }

      .cls-2 {
        fill: #e4d83f;
      }

      .cls-3 {
        fill: #fff;
      }

      .cls-4 {
        fill: #9987bc;
      }

      .cls-5 {
        fill: #9987bb;
      }

      .cls-6 {
        fill: #9886ba;
      }

      .cls-7 {
        fill: #9886bb;
      }

      .cls-8 {
        fill: #9786ba;
      }

      .cls-9 {
        fill: #9785b9;
      }

      .cls-10 {
        fill: #9c8ac1;
      }

      .cls-11 {
        fill: #9c8ac0;
      }

      .cls-12 {
        fill: #9282b4;
      }

      .cls-13 {
        fill: #9281b4;
      }

      .cls-14 {
        fill: #8779a9;
      }

      .cls-15 {
        fill: #8a7bac;
      }

      .cls-16 {
        fill: #9d8ac1;
      }

      .cls-17 {
        fill: #8d7daf;
      }

      .cls-18 {
        fill: #9080b2;
      }

      .cls-19 {
        fill: #9382b5;
      }

      .cls-20 {
        fill: #9181b3;
      }

      .cls-21 {
        fill: #9180b3;
      }

      .cls-22 {
        fill: #8c7dae;
      }

      .cls-23 {
        fill: #8c7cae;
      }

      .cls-24 {
        fill: #8e7eb0;
      }

      .cls-25 {
        fill: #8f7fb1;
      }

      .cls-26 {
        fill: #8d7eaf;
      }

      .cls-27 {
        fill: #8577a7;
      }

      .cls-28 {
        fill: #bde5ee;
      }

      .cls-29 {
        fill: #413956;
      }

      .cls-30 {
        fill: #9483b6;
      }

      .cls-31 {
        fill: #9483b7;
      }

      .cls-32 {
        fill: #9b88be;
      }

      .cls-33 {
        fill: #9b89bf;
      }

      .cls-34 {
        fill: #9b89be;
      }

      .cls-35 {
        fill: #9584b7;
      }

      .cls-36 {
        fill: #9684b8;
      }

      .cls-37 {
        fill: #9685b8;
      }

      .cls-38 {
        fill: #9685b9;
      }

      .cls-39 {
        fill: #8b7cad;
      }

      .cls-40 {
        fill: #897aab;
      }

      .cls-41 {
        fill: #9a88bd;
      }

      .cls-42 {
        fill: #887aaa;
      }

      .cls-43 {
        fill: #887aab;
      }

      .cls-44 {
        fill: #8879aa;
      }

      .cls-45 {
        fill: #897bab;
      }

      .cls-46 {
        fill: #8678a9;
      }

      .cls-47 {
        fill: #8678a8;
      }

      .cls-48 {
        fill: #8477a6;
      }

      .cls-49 {
        fill: #8477a7;
      }

      .cls-50 {
        fill: #8476a6;
      }

      .cls-51 {
        fill: #4e4563;
      }
    </style>
  </defs>
  <g id="Layer_3" data-name="Layer 3">
    <g>
      <polygon class="cls-2" points="77.86 8.68 78.58 12.97 78.91 17.61 83.87 17.4 83.69 12.37 82.86 7.06 77.86 8.68"/>
      <polygon class="cls-2" points="83.74 7.81 78.72 10.35 72.79 6.87 71.75 6.43 76.81 1.81 81.99 0 85.42 3.37 88.38 3.38 83.74 7.81"/>
      <polygon class="cls-2" points="92.49 9.6 91.48 17.45 97.98 18.47 96.25 11.77 92.49 9.6"/>
      <polygon class="cls-2" points="97.55 11.43 93.66 11.55 92.25 8.13 90.39 7.35 94.5 6.58 98.69 4.69 101.8 9.28 100.32 9.49 97.55 11.43"/>
      <polygon class="cls-2" points="107.8 9.42 107.13 15.41 105.08 19.83 109.97 22.15 111.18 17.06 112.01 13.12 107.8 9.42"/>
      <polygon class="cls-2" points="114 12.73 108.13 12.74 107.15 7.16 107.48 6.58 111.97 3.1 116.05 7.59 120.15 11.63 119.59 12.11 114 12.73"/>
      <polygon class="cls-2" points="123.8 20.08 120.14 21.77 122.04 25.61 121.02 25.18 124.73 24.12 124.55 20.32 123.8 20.08"/>
      <polygon class="cls-2" points="124.08 23.76 121.29 22.71 120.7 16.9 122.82 18.1 124.52 16.89 126.83 18.85 129.44 21.59 129.6 21.68 124.08 23.76"/>
      <polygon class="cls-2" points="136 26.56 133.8 30.69 128.99 33.97 133.55 34.95 134.91 31.72 136.8 29.71 136 26.56"/>
      <polygon class="cls-2" points="137.39 32.37 133.44 28.61 134.58 21.61 135.35 21.43 142.06 19.36 144.53 24.7 144.95 30.37 143.44 29.86 137.39 32.37"/>
      <polygon class="cls-2" points="147.58 37.74 145.38 41.08 141.51 43.19 142.92 47.52 145.32 41.28 152.88 39.61 147.58 37.74"/>
      <polygon class="cls-2" points="151.77 40.35 147.61 39.5 147.03 35.48 147.04 32.84 147.12 29.97 146.51 28.06 150.78 26.55 153.29 29.93 157.79 30.47 160.26 32.81 161.34 37.93 157.47 40.4 158.98 43.33 154.16 40.74 151.77 40.35"/>
      <polygon class="cls-2" points="153.2 52.65 147.51 55.39 149.35 60.46 153.37 53.66 153.2 52.65"/>
      <polygon class="cls-2" points="152.13 56.65 150.35 53.42 153.74 48.33 152.51 46.31 156.87 49.51 160.69 51.59 158.4 56.66 157.46 55.11 152.13 56.65"/>
      <polygon class="cls-2" points="162.22 64.37 157.32 69.79 153.5 69.1 152.19 74 156.98 68.96 159.78 69.05 162.22 64.37"/>
      <polygon class="cls-2" points="160.87 71.64 162.24 65.81 163.08 63.12 163.37 61.23 165.62 65.14 168.55 70.11 165.84 73.69 165.68 76.23 160.87 71.64"/>
      <polygon class="cls-2" points="160.63 87.57 154.71 86.36 155.33 90.56 160.07 90.04 160.63 87.57"/>
      <polygon class="cls-2" points="158.44 90.94 158.97 87.92 161.85 88.23 162.22 87.96 164.85 88.08 165.09 91.12 162.12 91.61 161.71 93.17 158.44 90.94"/>
      <polygon class="cls-2" points="163.64 101.76 157.93 104.02 154.84 101.99 153.46 104.37 157.73 104.23 161.3 105.67 163.64 101.76"/>
      <polygon class="cls-2" points="161.9 107.49 159.53 101.35 166.1 99.49 167.25 97.42 171.02 103.99 166.06 108.44 163.64 113.12 163.24 111.93 161.9 107.49"/>
      <polygon class="cls-2" points="154.24 118.65 149.33 118.05 148.08 118.78 153.45 122.84 154.24 118.65"/>
      <polygon class="cls-2" points="152.34 121.06 152.89 117.44 158.03 114.62 156.73 118.72 159.76 120.4 158.72 123.8 155.11 122.51 152.99 126.35 152.34 121.06"/>
      <polygon class="cls-2" points="149.13 133.86 143.76 132.79 141.81 129.65 138.44 131.34 142.62 133.89 145.71 135.74 149.13 133.86"/>
      <polygon class="cls-2" points="145.31 137.94 147.47 132.57 151.95 134.06 152.27 134.68 153.51 137.94 152.05 143.94 146.39 141.3 145.62 141.18 145.31 137.94"/>
      <polygon class="cls-2" points="136.48 145.78 129.5 142.21 125.95 143.03 132.44 145.9 136.48 145.78"/>
      <polygon class="cls-2" points="129.58 146.11 133.15 144.97 137.65 146.35 139.7 144.99 137.94 151.92 132.89 151.11 131.57 151.11 130.87 151.58 129.58 146.11"/>
      <polygon class="cls-2" points="121.45 157.22 120.29 152.6 116.63 151.07 112.4 149.52 117.49 153.55 117.47 157.64 121.45 157.22"/>
      <polygon class="cls-2" points="116.02 158.37 120.79 155.54 127.7 157.45 126.3 158.64 123.37 162.73 118.71 165.9 112.3 163.65 111.81 163.13 116.02 158.37"/>
      <polygon class="cls-2" points="100.48 163.34 99.57 159.97 98.2 157.4 96.27 156.49 96 160.58 97.78 164.39 100.48 163.34"/>
      <polygon class="cls-2" points="96.38 164.22 101.35 161.18 108.41 165.39 107.63 166.21 103.45 172.1 97.87 171.97 93.51 168.93 93.51 168.26 96.38 164.22"/>
      <polygon class="cls-2" points="82.73 161.52 82.74 157.29 82.25 157.09 83.25 161.68 82.73 161.52"/>
      <polygon class="cls-2" points="80.94 160.18 84.36 162.63 85.36 163.72 88.98 164.05 84.41 164.66 81.06 165.52 77.81 164.29 80.07 163.84 80.94 160.18"/>
      <polygon class="cls-2" points="63.42 161.37 64.21 158.42 66.35 155.23 63.33 152.8 63.3 157.92 59.38 161.9 63.42 161.37"/>
      <polygon class="cls-2" points="60.61 158.42 64.87 162.44 66.47 166.85 65.75 167.27 61.49 170.83 57.14 167.04 56.28 163.45 57.27 163.15 60.61 158.42"/>
      <polygon class="cls-2" points="48.04 153.72 51.35 152.43 52.55 148.64 49.33 146.58 49.1 150.84 45.38 152.66 48.04 153.72"/>
      <polygon class="cls-2" points="45.26 151.68 47.56 155.88 48.52 157.25 50.14 159 44.81 159.84 40.72 158.22 42.74 153.87 42.4 153.01 45.26 151.68"/>
      <polygon class="cls-2" points="32.08 147.08 35.29 142.62 38.65 138.98 35.11 138.47 31.83 139.31 26.7 142.69 32.08 147.08"/>
      <polygon class="cls-2" points="27.84 142.41 33.46 144.4 32.13 149.33 32.39 150.49 28.1 150.07 25.08 145.33 23.05 141.64 25.47 143.03 27.84 142.41"/>
      <polygon class="cls-2" points="23.25 129.44 27.73 127.29 26.94 125.36 21.79 128.47 23.25 129.44"/>
      <polygon class="cls-2" points="20.44 129.14 25.57 130.01 24.2 136.02 23.5 135.05 19.44 134.22 16.33 132.14 19.78 128.62 18.71 127.12 20.44 129.14"/>
      <polygon class="cls-2" points="12.41 121.16 18.13 121.03 24.35 117.8 20.05 113.33 14.42 112.77 11.73 117.67 12.41 121.16"/>
      <polygon class="cls-2" points="9.7 115.95 15.22 120.66 14.59 125.16 11.65 128.02 11 128.5 6.91 128.41 5.54 124.96 1.45 119.61 1.62 115.8 5.15 115.34 6 115.3 8.77 112.22 9.7 115.95"/>
      <polygon class="cls-2" points="8.46 107.74 13.9 106.39 17.27 104.08 17.36 100.96 12.95 100.17 10.3 103.31 8.46 107.74"/>
      <polygon class="cls-2" points="7.41 101.4 12.96 106.07 7.38 110.52 6.72 110.55 2.48 107.66 2.25 102.18 4.49 95.8 5.46 97.83 7.41 101.4"/>
      <polygon class="cls-2" points="8.78 91.26 16.47 90.46 16.2 84.94 10.31 87.2 8.78 91.26"/>
      <polygon class="cls-2" points="7.67 85.33 8.22 90.12 7.31 95.05 7.24 93.21 3.53 90.31 4.3 85.5 7.06 82.43 7.07 82.68 7.67 85.33"/>
      <polygon class="cls-2" points="6.61 74.54 12.12 75.31 17.36 76.22 15.8 72.35 13.59 67.95 7.8 67.89 6.61 74.54"/>
      <polygon class="cls-2" points="8.23 68.35 9.72 74.21 5.07 74.53 3.93 76.87 3.16 72.88 0 66.67 6.15 65.93 6.69 66.54 8.23 68.35"/>
      <polygon class="cls-2" points="13.09 58.39 20.23 59.76 20.52 57.89 15.9 56.94 13.09 58.39"/>
      <polygon class="cls-2" points="17.97 54.96 13.06 56.85 10.9 59.6 11.62 58.02 7.46 54.28 9.12 51.02 14.87 50.24 14.9 50.18 17.97 54.96"/>
      <polygon class="cls-2" points="19.34 43.27 23.04 45.36 26.87 50.18 26.88 45.23 24.23 43.78 21.2 37.91 19.34 43.27"/>
      <polygon class="cls-2" points="21.14 38.44 18.48 43.23 15.42 44.08 13.07 46.36 13.64 39.93 15.16 34.38 21.41 34.13 23.01 32.94 21.14 38.44"/>
      <polygon class="cls-2" points="28.54 30.32 32.28 33.27 35.02 35.49 37.3 34.32 36.67 29.62 32.35 26.1 28.54 30.32"/>
      <polygon class="cls-2" points="32.5 26.53 28.59 30.35 22.83 32.06 22.54 31.44 22.8 23.47 28.32 21.56 33.76 22.01 32.98 23.52 32.5 26.53"/>
      <polygon class="cls-2" points="42.89 23.46 45.36 27.41 48.41 26.99 45.12 20.96 42.89 23.46"/>
      <polygon class="cls-2" points="44.87 22.59 42.69 25.96 39.24 22.95 36.19 24.26 39.79 21.07 42.77 19.05 45.02 19.03 44.85 19.64 44.87 22.59"/>
      <polygon class="cls-2" points="51.69 13.84 57.87 17.26 57.41 23.43 60.34 20.19 59.39 16.66 56.87 14.52 51.69 13.84"/>
      <polygon class="cls-2" points="57.55 10.96 52.62 13.28 48.15 13.52 47.8 12.97 49.23 6.31 55.84 7.44 61.21 6.44 58.91 8.29 57.55 10.96"/>
      <polygon class="cls-2" points="66.24 11.78 67.97 18.15 69.35 16.89 69.17 11.76 66.24 11.78"/>
      <polygon class="cls-2" points="70 10.98 66.4 12.34 65.21 9.92 63.9 9.74 65.1 6.53 68.42 3.92 71.43 8.06 73.97 7.96 70 10.98"/>
      <g>
        <polygon class="cls-50" points="157 87.26 153.51 91.57 157.08 96.35 152.17 100.08 152.53 104.59 154.45 109.79 151.35 113.5 150 117.79 148.33 122 143.57 124.37 143.32 129.52 139.44 132.17 137.29 136.18 134.59 139.82 130.34 141.79 125.51 142.71 122.94 146.59 118.55 147.73 114.61 149.48 111.11 152.25 108.13 157.08 102.75 154.64 98.68 156.38 94.16 155.61 89.94 156.72 85.6 157.54 81.27 156.67 76.59 159.12 72.14 158.35 68.1 155.96 64.59 152.52 59.11 154.65 56.66 149.33 50.94 150.77 48.8 145.77 45.12 143.46 41.78 140.69 38.92 137.41 33.22 136.81 32.07 131.91 28.5 129.07 25.97 125.39 24.8 120.96 22.93 116.99 18.86 113.88 21.2 108.38 17.54 104.87 18.01 100.27 14.27 96.34 15.9 91.68 16.61 87.26 16.76 82.89 16.81 78.49 16.63 73.99 19.2 70.06 20.56 65.93 20.92 61.43 20.25 56.28 23.34 52.77 27.18 49.86 29.38 46.07 31.61 42.23 35.96 40.22 38.11 36.25 40.71 32.55 43.1 28.33 48.28 27.96 50.8 23.5 55.96 23.73 59.93 21.87 63.3 18.11 67.93 17.9 72.78 19.45 77.03 18.84 81.15 16.04 85.6 15.83 90.13 14.81 94.14 19.12 99.09 16.06 102.77 19.84 106.64 21.93 112.35 19.24 114.95 24.35 120.02 24.18 123.29 27.4 127.99 28.49 129.66 33.54 135.17 34.1 135.55 39.94 138.55 43.08 141.84 46.06 143.88 49.96 148.09 52.65 150.04 56.71 149.18 61.86 150.35 66.03 151.6 70.16 152.91 74.3 156.66 78.22 156.89 82.74 157 87.26"/>
        <polygon class="cls-48" points="153.46 87.19 154.58 91.57 152.66 95.75 155.22 100.58 153.89 104.87 150.73 108.55 148.33 112.28 147.19 116.46 147.05 121.27 143.74 124.44 142.97 129.23 139.78 132.42 137.48 136.33 131.79 136.9 130.02 141.4 126.41 143.91 123.42 147.34 118.3 147.32 115.88 152.15 112.18 154.96 107.26 154.56 103.4 157.26 99.19 159.26 94.65 159.82 90.01 158.82 85.54 156.49 81.1 158.38 77.01 155.27 72.58 155.68 67.96 156.19 63.64 155.1 59.32 153.92 56.05 150.38 52.02 148.66 49.23 144.93 44.57 144.04 41.26 141.16 36.86 139.42 35.98 134.15 31.53 132.22 27.46 129.69 27.06 124.61 23.48 121.56 22.97 116.88 21.11 112.91 21.23 108.27 19.59 104.27 18.38 100.11 16.8 95.95 17.08 91.53 17.14 87.19 15.68 82.75 16.16 78.35 16.11 73.83 18.32 69.78 18.79 65.32 19.94 61 21.91 57 24.33 53.26 28.42 50.6 30.08 46.54 32.99 43.32 33.98 38.39 38.39 36.53 42.31 34.45 43.11 28.36 47.46 26.71 50.54 23.08 55.13 22.07 59.62 21.19 64.57 22.04 68.21 19.13 72.75 19.57 76.98 18.81 81.03 15.02 85.54 14.66 90.11 14.04 94.64 14.62 98.88 16.74 102.99 18.7 107.33 19.61 111.03 22.26 114.52 25.03 119.02 25.78 122.91 27.81 127.71 28.71 128.93 34.26 132.93 36.29 138.36 37.23 138.8 42.75 143.06 45.08 143.26 50.23 145 54.2 149.39 56.9 148.23 62.13 151.41 65.6 152.69 69.8 156.14 73.62 155.14 78.32 157.35 82.64 153.46 87.19"/>
        <polygon class="cls-49" points="154.17 87.11 155.01 91.52 153.75 95.81 155.92 100.65 151.2 104.14 150.65 108.47 148.86 112.43 149.53 117.49 146.69 121.04 145.68 125.61 141.57 128.21 139.75 132.36 138.05 136.84 131.66 136.75 131.1 142.67 127.52 145.41 122.03 145.23 119.72 149.87 115.7 151.84 110.98 152.06 106.62 152.76 102.4 153.62 98.48 155.84 94.31 157.58 89.76 155.74 85.48 160.24 80.99 159.03 76.41 159.45 72.17 157.4 67.63 157.12 63.34 155.75 58.8 154.98 54.69 153.01 51.42 149.55 48.38 146.07 44.71 143.7 40.85 141.5 38.43 137.65 34.5 135.37 32.62 131.22 29.1 128.4 25.24 125.63 24.43 120.95 23.78 116.4 22.08 112.44 19.01 108.88 17.67 104.66 18.43 100.02 15.75 95.99 16.25 91.5 18.06 87.11 15.53 82.67 14.09 78.03 16.49 73.84 19.22 69.95 21 65.97 21.6 61.6 22.76 57.35 24.99 53.58 27.77 50.16 29.81 46.31 30.06 40.93 33.89 38.29 38.49 36.63 41.22 33.16 44.68 30.48 47.37 26.6 51.79 25.32 55.56 23.01 59.85 21.84 63.68 19.5 68.56 20.61 72.78 19.93 76.82 18.03 81.1 17 85.48 15.98 89.9 16.26 94.22 17.39 98.3 19.33 102.46 20.41 107.56 18.65 110.99 22.14 115.32 23.18 118.23 26.99 123.36 26.96 128.03 28.13 128.74 34.34 132.61 36.49 134.66 40.51 140.69 41.1 144.04 44.27 143.28 50.11 146.38 53.36 150.42 56.33 151.15 60.91 154.04 64.68 153.84 69.42 153.91 73.95 152.2 78.6 155.98 82.64 154.17 87.11"/>
        <polygon class="cls-27" points="154.58 87.04 154.32 91.41 154.64 95.86 151.44 99.76 154.25 104.85 151.87 108.81 149.96 112.81 149.62 117.48 148.29 121.86 145.94 125.73 143.48 129.53 138.05 130.97 136.11 135.03 133.28 138.43 131.49 143.12 128.04 146.12 122.81 146.45 119.23 149.03 114.81 150.03 111.17 152.61 106.49 152.48 102.53 154.27 98.93 158.4 94.28 157.72 89.92 159.13 85.42 156.25 81.16 155.31 76.57 157.62 72.58 154.9 68.49 153.57 64.18 152.96 60.52 150.52 55.97 150.16 50.77 150.52 48.75 145.33 44.29 144.11 41.24 140.89 36.17 139.86 32.64 136.94 30.86 132.52 28.17 128.95 25.32 125.47 24.84 120.62 21.98 117.13 22.27 112.26 19.45 108.65 20 103.99 19.33 99.77 16.03 95.88 17.49 91.35 15.21 87.04 16.64 82.67 14.9 78.06 17.1 73.89 19.93 70.06 21.5 66.07 20.83 61.25 21.05 56.52 24.86 53.46 28.59 50.64 27.12 44.37 31.4 41.99 34.4 38.74 37.84 35.95 40.25 32.02 43.77 29.26 47.55 26.9 52.04 25.81 56.47 24.95 60.12 22.59 63.14 17.97 67.67 17.4 72.29 17.65 76.9 18.99 81.11 18 85.42 16.03 89.73 17.9 93.95 18.91 98.13 19.82 102.98 18.13 106.67 21.08 111.27 21.22 114.23 25.25 119 25.46 123.16 27.1 126.01 30.69 130.47 32.16 134.6 34.29 137.4 37.87 140.55 41.1 143.14 44.79 143.75 49.71 147.44 52.68 150.39 56.25 151.24 60.78 151.93 65.25 155.11 69.02 154.26 73.8 154.54 78.23 156.66 82.52 154.58 87.04"/>
        <polygon class="cls-27" points="153.32 86.96 153.03 91.44 155.76 96.3 154.94 100.91 154.59 105.65 153.17 110.15 148.04 113.16 148.35 118.27 145.75 122.12 143.37 126.04 142.69 131.27 138.76 134.16 134.86 136.86 130.33 138.71 129.03 144.3 122.93 143.72 119.32 146.34 116.9 151.4 113 154.17 108.02 154.24 103.3 154.48 98.75 154.86 94.73 158.65 89.95 157.49 85.36 158.55 80.87 156.01 76.01 158.48 71.5 157.16 67.65 153.62 62.43 155 57.59 154.46 54.73 149.6 51.05 146.9 47.08 144.74 43.45 142.04 39.98 139.16 37.42 135.33 33.8 132.57 30.85 129.14 25.97 126.94 26.83 121.06 24.06 117.45 19.36 114.5 20.79 109.08 19.65 104.73 14.92 101.07 14.16 96.4 15.69 91.57 17.68 86.96 17.08 82.45 18.64 78.09 19.32 73.7 19.53 69.16 20.49 64.75 19.08 59.31 22.63 55.78 26.31 52.57 26.96 47.63 31.86 45.53 34.12 41.62 35.62 36.83 40.25 35.07 42.98 31.28 47.62 29.97 50.33 25.8 53.6 22.1 59.02 22.82 63.21 21.15 67.27 18.91 72.13 19.86 76.03 15.59 80.93 18.78 85.36 17.34 89.87 17.63 94.28 18.64 99.03 17.67 103.79 17.65 108.46 18.43 112.97 19.83 116.81 22.7 120.22 26.09 124.06 28.57 126.41 32.96 130.75 34.76 134.56 37.36 138 40.43 141.41 43.62 144.22 47.34 145.63 51.88 149.04 55.32 147.7 60.91 152.86 63.88 151.38 69.12 154.29 73.14 155.09 77.71 157.14 82.23 153.32 86.96"/>
        <polygon class="cls-47" points="153.28 86.89 155.52 91.53 152.42 95.81 153.99 100.67 152.73 105.11 150.05 109.06 149.44 113.68 147.93 118.03 145.77 122.09 142.42 125.39 138.89 128.39 135.88 131.67 136.23 138.19 129.66 137.95 127.84 142.78 123.01 143.85 119.91 147.35 116.21 150.09 111.61 150.97 107.39 152.52 103.42 155.05 99.02 156.44 94.44 156.88 90.03 159.62 85.3 157.32 80.62 158.75 76.23 156.34 71.48 156.91 67.1 155.33 62.17 155.51 57.71 153.97 53.96 150.93 50.43 147.77 45.36 147.08 43.3 142.09 40.61 138.31 35.62 136.96 31.34 134.55 31.35 128.65 26.83 126.26 25.36 121.78 21.43 118.62 19.07 114.52 21.28 108.82 18.72 104.88 19.28 100.15 16.91 95.97 13.96 91.6 15.68 86.89 15.4 82.27 14.95 77.56 16.22 73.04 19.53 69.11 20.33 64.65 21.3 60.16 20.89 54.9 27.14 53 26.24 47.13 30.33 44.36 32.07 39.85 36.43 37.6 37.99 32.55 41.65 29.58 45.65 27.11 51.54 27.87 54.88 24.67 59.06 22.99 63.55 22.22 66.97 17.96 71.53 17.16 76.35 18.34 80.56 14.15 85.3 14.52 89.78 17.95 94.67 15.22 98.61 19.4 102.78 21.07 108.32 18.58 111.55 22.97 117.09 21.96 119 27.97 122.75 30.31 127.74 31.13 130.99 34.35 134.06 37.71 135.92 42.09 140.2 44.41 141.41 49.06 146.41 51.33 147.67 55.88 149.35 60.14 149.1 65.03 152.09 68.84 151.29 73.64 154.08 77.76 156.25 82.21 153.28 86.89"/>
        <polygon class="cls-47" points="156.7 86.82 155.2 91.44 152.62 95.77 151.59 100.14 152.72 105.05 152.16 109.71 150.68 114.13 146.46 117.27 143.79 120.93 142.48 125.39 140.39 129.49 138.89 134.22 135.75 137.7 131.53 140.02 127.95 142.93 123.2 144.14 119.6 146.86 115.99 149.69 112.24 152.51 108.11 154.71 103.04 153.82 99.04 156.76 94.16 155.17 89.83 157.49 85.24 156.57 80.66 157.26 76.18 156.13 71.6 155.9 66.71 156.47 62.15 155.33 59.21 150.22 54.53 149.6 50 148.33 46.79 144.83 43.22 142.03 38.15 140.9 36.29 136.17 32.99 133.01 28.56 130.62 27.17 125.93 22.94 123.04 22.28 118.11 21.82 113.31 20.02 109.14 17.89 105.01 15.12 100.87 18.83 95.65 14.11 91.51 13.54 86.82 13.82 82.1 15.94 77.62 15.6 72.86 19.83 69.13 19.56 64.34 19.41 59.35 22.71 55.73 26.17 52.41 25.66 46.72 30.11 44.16 31.49 39.33 36.28 37.45 39.39 34.1 41.71 29.67 45.96 27.58 49.06 23.72 53.92 22.82 57.6 19.63 62.17 18.36 66.64 16.93 72.05 19.93 76.19 17.56 80.57 15.05 85.24 15.81 89.98 13.93 94.32 17.3 99.27 15.78 103.41 18.45 107.97 19.34 111.95 21.8 116.51 22.91 119.53 26.91 122.63 30.33 127.86 30.83 131.47 33.68 133.71 37.93 136.4 41.56 142.16 42.82 141.44 48.93 147.27 50.75 148.27 55.49 148.63 60.33 151.47 64.15 150.08 69.28 153.77 73.07 152.26 77.91 152.31 82.38 156.7 86.82"/>
        <polygon class="cls-46" points="153.51 86.74 155.04 91.36 153.42 95.81 151.63 100.09 154.14 105.36 152.41 109.74 149.97 113.8 145.53 116.78 146.98 122.69 143.44 125.98 139.72 128.96 136.34 132.01 134.11 136.09 132.63 141.24 126.19 140.7 122.57 143.24 119.84 147.29 115.35 148.47 111.18 150.08 107.61 153.38 103.14 154.32 98.57 154.66 94.27 156.36 89.77 157.31 85.18 154.91 80.48 158.97 76.32 154.58 71.76 154.75 67.1 154.75 62.73 153.4 59.32 149.75 54.04 150.38 49.38 149.18 46.78 144.69 43.8 141.15 39.07 139.74 37.4 134.96 31.04 134.55 28.4 130.63 26.4 126.31 24.76 121.9 22.07 118.1 20.49 113.75 20.51 108.89 17.89 104.92 19.4 99.95 15.6 95.98 13.85 91.45 17.67 86.74 14.12 82.05 14.11 77.32 18.88 73.43 18.5 68.73 21.5 64.93 20.47 59.73 23.47 56.06 23.9 51.1 27.22 47.7 28.21 42.71 34.61 41.99 34.52 35.72 40.06 34.85 42.16 30.24 46.15 27.87 49.8 24.99 53.75 22.54 58.13 20.93 63.42 22.07 67.32 19.56 71.13 15.6 75.95 16.1 80.63 16.88 85.18 16.4 89.82 15.35 94.52 15.23 98.58 18.82 103.74 16.96 107.52 20.39 111.81 21.93 115.6 24.52 118.93 27.75 122.75 30 126.53 32.36 132.16 32.77 133.67 37.84 138.8 39.37 140.81 43.72 143.52 47.46 144.01 52.48 148.83 55.12 150.88 59.33 149.01 64.88 154.23 68.11 151.14 73.5 155.73 77.39 153.47 82.23 153.51 86.74"/>
        <polygon class="cls-14" points="156.29 86.67 152.54 91.13 155.77 96.04 153.84 100.45 151.85 104.7 150.35 109 151.46 114.35 145.21 116.58 147.4 122.89 144.79 126.83 140.55 129.55 136.35 132 135.72 137.64 131.02 139.44 126.41 140.97 124.9 146.64 120.86 149.03 115.44 148.71 112.13 152.4 106.86 151.31 103.41 155.46 98.78 155.91 94 154.72 89.8 158.6 85.12 158.63 80.62 155.88 75.9 157.22 71.67 154.83 67.53 152.86 61.98 155.3 58.62 151.17 55.37 147.56 49.43 148.92 46.65 144.72 43.19 141.77 39.25 139.4 36.82 135.39 31.41 134.11 31.65 128.06 25.4 126.85 25.03 121.64 21.21 118.41 22.85 112.69 20.72 108.72 19.25 104.47 17.68 100.2 16.37 95.8 17.62 91.14 16.84 86.67 13.58 81.95 17.89 77.74 16.89 72.99 18.34 68.63 18.05 63.73 21 59.89 24.59 56.55 22.9 50.49 29.12 48.91 30.53 44.43 31.71 39.48 37.54 38.65 37.64 32.14 44.21 32.86 47.62 30.03 49.08 23.81 55.37 25.79 58.68 22.3 63.19 21.51 67.35 19.82 71.77 19.02 75.8 15.4 80.57 16.79 85.12 13.83 89.61 17.52 94.44 15.32 99.22 15.29 103.15 18.82 107.76 19.45 111.23 23.08 116.39 22.77 120.78 24.45 124.74 26.94 129.04 29.03 130.22 34.8 134.23 37.15 136.44 41.27 138.8 45.11 141.21 48.85 143.46 52.68 146.93 55.93 151.14 59.12 150.47 64.3 154.24 68.02 154.4 72.78 152.16 77.76 156.16 81.98 156.29 86.67"/>
        <polygon class="cls-14" points="155.26 86.6 154.69 91.2 154.55 95.82 153.8 100.38 150.56 104.31 152.22 109.57 151.33 114.25 148.49 118.12 143.8 120.81 141.48 124.63 141.65 130.34 136.26 131.9 134.36 136.3 129.43 137.67 127.15 141.91 124.49 146.07 119.15 146.18 114.97 147.82 112.51 153.35 107.06 151.99 103.59 156.26 98.25 153.54 94.1 155.86 89.78 159.16 85.06 156.69 80.64 154.5 75.64 158.61 71.88 153.4 67.24 153.64 62.22 154.37 59.11 149.8 53.14 151.76 49.63 148.41 45.17 146.71 43.33 141.44 40.76 137.58 35.88 136.17 34.69 131.17 30 129.18 26.46 126.05 24.33 121.93 25.02 116.48 19.16 114.09 17.93 109.55 17.55 104.83 18.01 100.05 14.04 96.01 16.57 91.12 17.13 86.6 14.95 81.97 16.96 77.55 19.32 73.39 17.13 68.25 18.18 63.72 20.81 59.77 24.53 56.48 23.4 50.74 25.79 46.7 31.87 45.41 31.45 39.24 37.3 38.41 38.39 32.98 42.04 30.11 47.09 29.28 51.1 27.25 53.22 21.58 57.72 20.12 62.02 18.26 66.36 16.33 71.63 18.54 75.77 15.51 80.64 18.61 85.06 17.98 89.64 16.18 94.41 15.04 99.06 15.67 103.73 16.43 106.86 21.79 110.87 23.7 115.6 24.14 119.83 25.88 124.31 27.4 127.61 30.7 130 34.9 135.82 35.48 135.54 41.92 139.89 44.18 143.4 47.31 146.07 51.1 148.7 54.98 148.07 60.27 151.09 64 149.64 69.13 152.03 73.16 155.41 77.27 155.09 81.97 155.26 86.6"/>
        <polygon class="cls-44" points="153.31 86.52 153.08 91.03 153.49 95.62 152.78 100.12 150.28 104.18 151.96 109.43 147.08 112.48 147.84 117.76 145.93 121.98 140.57 124 140.94 129.78 137.79 133.18 134.65 136.57 131.99 140.51 127.81 142.76 123.18 144.16 120.21 147.99 114.67 147.27 111.24 150.44 108.06 154.96 103.45 155.91 98.97 157.29 94.19 156.86 89.45 155.07 84.99 155.66 80.49 155.87 75.76 157.16 71.81 153.37 66.72 155.26 61.81 155.3 58.31 151.45 54.06 149.75 50.66 146.5 47.04 143.83 43.72 140.79 38.44 140 35.8 136.12 32.32 133.08 29.98 129.08 29.15 124.17 25.26 121.29 21.21 118.21 19.22 113.97 18.13 109.39 17.87 104.65 16.68 100.22 14.96 95.81 13.57 91.24 17 86.52 16.44 81.99 16.98 77.49 15.48 72.59 17.35 68.25 19.43 64.08 23.08 60.64 23.32 55.85 23.33 50.66 28.77 48.62 31.86 45.37 34.3 41.66 36.4 37.52 40.57 35.4 41.29 29.17 45.08 26.36 51.04 27.18 53.21 21.61 58.07 21.01 61.86 17.89 66.56 17.22 70.91 15.21 75.66 15.1 80.53 17.92 84.99 16.09 89.48 17.54 93.96 17.91 98.13 19.89 103.62 16.52 106.94 21.32 111.97 20.91 115.96 23.24 119.81 25.73 122.56 29.79 126.14 32.42 129.71 35.08 135.34 35.81 136.29 41.15 140.98 43.24 140.78 48.91 145.88 51.1 146.37 56 148.59 59.96 151.64 63.73 149.78 69 154.11 72.67 155.92 77.12 153.24 82.01 153.31 86.52"/>
        <polygon class="cls-42" points="155.98 86.45 153.77 91 155.24 95.77 152.82 100.07 151.17 104.35 150.17 108.78 146.77 112.3 147.67 117.63 144.11 120.91 144.59 126.6 139.46 128.64 135.66 131.33 134.17 136.08 130.78 139.16 128.69 143.88 124.63 146.29 120.69 148.83 115.06 148.09 110.74 149.33 106.66 151.03 102.82 153.76 98.34 154.39 94.05 156.21 89.43 155.66 84.93 154.81 80.44 155.57 75.96 155.17 71.71 153.5 66.42 156.04 63.38 150.54 59.08 149.42 54.3 149.08 49.28 148.65 45.88 145.34 41.46 143.51 40.02 138.11 34.1 137.64 33.2 132.2 29 129.69 26.09 126.06 23.8 122.01 24.97 116.29 19.95 113.57 17.1 109.64 20.3 103.93 17.78 99.92 14.2 95.83 18.2 90.87 17.21 86.45 16.73 81.94 14.76 77.14 18.46 73.1 16.5 67.97 17.41 63.36 20.39 59.5 22.52 55.42 27.03 52.71 29.08 48.79 31.03 44.73 32.56 40.15 37.31 38.39 37.73 32.23 43.68 32.2 45.91 27.59 50.37 26.08 54.72 24.64 59.04 23.37 62.74 20.52 67.5 20.81 71.41 17.91 75.78 16.38 80.42 16.99 84.93 17.74 89.36 18.31 93.79 18.62 98.59 17.29 102.36 20.85 107.5 19.46 112.36 19.76 114.9 25.14 120.73 24.01 123.16 28.75 127.89 30.05 131.41 33.06 133.45 37.53 136.62 40.74 140.09 43.79 143.55 46.99 143.61 52.28 145.24 56.44 149.35 59.56 148.83 64.56 149.65 68.95 153.11 72.78 155.48 77.09 151.89 82.02 155.98 86.45"/>
        <polygon class="cls-43" points="151.49 86.38 152.39 90.84 151.42 95.22 151.81 99.81 153.57 104.92 149.38 108.46 150.49 113.75 146.35 116.95 144 120.8 143.1 125.58 141.37 130.04 136.57 132.09 134.19 136.08 129.29 137.49 127.84 142.8 123.08 144.04 118.6 145.33 116.46 150.9 111.05 150.12 106.49 150.63 102.88 154.1 98.14 153.64 93.67 153.76 89.57 158.58 84.87 156.05 80.17 158.71 76.07 153.83 71.67 153.35 66.77 154.45 62.31 153.35 57.84 152.12 53.08 151.29 51.13 145.36 46.94 143.64 43.61 140.63 39.29 138.78 35.36 136.27 33.28 132 31.36 127.8 28.09 124.64 26.64 120.3 24.87 116.24 19.28 113.75 19.36 108.79 19.97 103.93 18.5 99.7 15.32 95.6 16.78 90.88 15.91 86.38 14.98 81.76 18.13 77.5 16 72.57 16.74 67.98 20.06 64.19 22.58 60.34 20.73 54.52 23.42 50.63 26.5 47.07 30.79 44.52 33.09 40.58 35.24 36.36 38.74 33.36 43.84 32.41 46.38 28.29 49.22 24.17 55.07 25.38 58.44 22.04 62.8 20.79 67.37 20.46 71.55 18.83 75.57 15.22 80.22 14.84 84.87 14.83 89.48 15.63 93.82 17.9 98.76 16.07 103.45 16.55 107.07 20.44 112.42 19.4 115.85 23.07 118.84 27.02 123.85 27.59 126.14 32.12 131 33.37 134.44 36.43 136.01 41.14 140.37 43.46 143.7 46.78 146.62 50.47 145.69 56.13 150.59 58.96 149.66 64.2 149.22 68.97 153.3 72.66 152.29 77.42 155.58 81.71 151.49 86.38"/>
        <polygon class="cls-40" points="155.67 86.3 154.07 90.88 152.42 95.28 153.32 100.04 153.09 104.73 149.3 108.38 150.37 113.66 145.19 116.35 144.88 121.26 142 124.83 137.94 127.45 136.43 131.95 132.5 134.42 129.01 137.17 127.28 142.09 123.08 144.06 118.39 145.01 114.45 146.97 111.76 151.86 106.51 150.79 102.2 151.76 98.59 156.07 93.88 155.75 89.26 154.78 84.81 153.95 80.35 154.94 75.41 158.23 71.62 153.21 66.83 153.93 63.2 150.55 58.3 150.82 54.9 147.5 50.26 146.64 47.19 143.11 42.43 141.98 39.57 138.32 36.89 134.64 34.57 130.77 28.23 130.03 26.46 125.59 25.11 121.05 23.41 116.84 20.78 113.04 19.2 108.75 16.65 104.7 18.94 99.53 15.56 95.49 17.33 90.77 13.57 86.3 15.78 81.74 16.15 77.19 14.74 72.26 20.12 68.8 19.12 63.82 19.61 59.09 22.62 55.39 25.28 51.64 25.38 46.3 29.41 43.45 34.6 41.86 36.02 37.1 37.8 32.3 41.73 29.74 47.1 29.36 48.89 23.65 54.05 23.41 58.41 22.03 63.2 22.06 66.93 19.01 71.32 17.94 75.63 16.01 80.32 17.17 84.81 16.63 89.31 17.13 93.79 17.56 98.14 18.76 102.55 19.56 106.49 21.86 111.11 22.29 114.7 25.15 119.4 25.91 122.1 29.99 125.86 32.32 131.58 32.58 132.02 38.66 135.48 41.47 138.08 45.06 144.36 46.23 142.85 52.5 147.67 55.07 146.94 60.34 152.32 63.22 153.46 67.78 151.1 73 150.9 77.52 152.17 81.85 155.67 86.3"/>
        <polygon class="cls-45" points="152.04 86.23 153.52 90.77 152.69 95.25 151.86 99.69 150.36 103.96 151.58 109.08 149.12 113.1 148.48 117.88 144.01 120.73 142.64 125.21 139.61 128.66 135.54 131.17 134.2 136.06 129.45 137.65 126.81 141.5 122.57 143.33 118.24 144.78 115.7 149.49 112.06 152.64 107.58 153.97 103.36 156.17 98.29 154.85 93.72 154.91 89.45 158.41 84.75 155.72 80.05 158.41 75.44 157.49 71.35 154.16 66.94 153.26 61.73 154.54 57.74 151.92 53.76 149.56 49.59 147.6 46.74 143.6 43.22 140.82 40.32 137.35 35.88 135.49 33.74 131.35 29.64 128.85 26.51 125.44 25.65 120.64 23.52 116.68 19.79 113.34 19.65 108.51 19.68 103.82 17.21 99.78 15.7 95.39 14.6 90.86 17.99 86.23 14.25 81.57 18.81 77.46 15.65 72.38 18.82 68.41 18.67 63.62 23.34 60.55 20.89 54.51 25.63 51.8 26.28 46.86 30.04 43.9 31.38 39.08 34.63 35.74 37.72 32.22 42.64 30.89 46.83 28.98 49.37 24.48 53.93 23.22 57.59 20.17 63.22 22.22 66.93 19.17 71.32 18.14 75.68 16.8 80.21 16.44 84.75 14.75 89.33 15.91 93.99 15.55 98.35 17.31 103.25 16.69 107.27 19.39 111.82 20.39 115.59 23.21 118.81 26.72 123.61 27.63 128.29 29.09 130.12 34.07 134.3 36.3 137.58 39.55 138.63 44.53 143.03 46.99 144.29 51.58 146.22 55.66 150.53 58.79 151.06 63.55 152.97 67.81 149.89 73.15 152.3 77.26 152.75 81.73 152.04 86.23"/>
        <polygon class="cls-15" points="151.77 86.15 154.92 90.79 150.5 94.91 152.53 99.76 150.98 104.07 150.3 108.6 146.1 111.83 145.42 116.37 145.29 121.41 141.76 124.6 139.89 128.85 134.8 130.5 133.71 135.57 131.48 139.9 127.11 141.87 124.17 145.67 120.21 148.13 115.38 148.88 110.7 149.49 107.53 153.94 102.4 152.81 98.28 154.99 93.72 155.3 89.3 156.99 84.69 156.25 80.03 157.84 75.76 154.53 71.48 153.15 67.38 151.36 62.78 151.25 58.76 149.3 53.45 149.97 50.67 145.6 45.94 144.6 42.71 141.31 40.45 137.06 36.56 134.69 33.51 131.42 28.52 129.57 26.64 125.24 23.67 121.65 24.05 116.32 21.91 112.38 18.28 108.87 18.86 103.94 19.24 99.3 15.14 95.38 15.04 90.76 14.35 86.15 15.91 81.61 17.36 77.21 18.91 72.95 19.4 68.5 20.84 64.29 21.16 59.62 23.29 55.62 23.9 50.79 25.98 46.63 28.71 42.87 32.35 39.89 36.69 37.73 40.01 34.75 41.68 29.68 45.28 26.73 49.24 24.29 54.92 25.22 58.98 23.51 61.87 18.44 66.75 18.65 70.73 15.45 75.95 19.17 80.18 16.79 84.69 18.14 89.29 15.53 93.88 15.84 98.22 17.63 102.61 18.76 106.64 20.95 110.72 22.77 115.09 24 119.95 24.63 122.49 29.09 127.75 29.63 130.75 33.23 135.2 35.29 135.03 41.61 140.53 42.99 139.96 48.88 143.49 51.92 144.96 56.17 149.31 59.18 150.3 63.71 153.03 67.71 150.08 73.02 153.94 76.97 151.72 81.72 151.77 86.15"/>
        <polygon class="cls-15" points="153.69 86.08 152.04 90.54 153.01 95.16 151.39 99.48 151.05 104.03 150.94 108.76 146.64 112 146.22 116.7 146.22 121.9 139.92 123.36 139.45 128.49 135.67 131.23 132.76 134.63 130.64 138.96 126.6 141.23 123.87 145.25 120.08 147.93 115.19 148.56 111.86 152.28 106.1 149.93 101.98 151.4 97.96 153.66 93.95 157.41 89.2 156.27 84.63 158.07 80.05 156.46 75.48 156.12 71.48 152.77 67.08 152.13 62.37 152.17 57.56 151.92 54.05 148.6 51.15 144.61 45.42 145.19 41.37 142.87 38.38 139.21 35.91 135.2 31.26 133.22 28.66 129.35 26.65 125.12 25.32 120.61 24.27 116.11 19.86 113.11 21.37 107.75 18.39 103.98 19.16 99.23 16.82 95.09 16.84 90.56 15.14 86.08 16.81 81.6 14.02 76.72 19.03 72.91 18.6 68.24 21.11 64.32 22.3 60.03 21.11 54.53 25.91 51.88 25.83 46.5 30.31 44.05 34.4 41.63 36.95 37.97 38.09 32.61 42.39 30.59 45.98 27.77 50.86 27.06 52.92 21.34 58.18 21.69 62.83 21.29 67.04 19.86 71.32 18.58 75.79 18.39 79.95 14.12 84.63 18.08 89.25 15.01 93.45 18.56 97.67 19.93 102.98 17.11 107.45 18.37 110.36 23.39 115.8 22.41 119.39 25.4 123.92 26.85 127.21 30.16 131.47 32.29 132.33 37.96 137.26 39.57 139.43 43.69 142.33 47.23 144.02 51.51 147.07 55.05 148.74 59.32 150.51 63.54 149.38 68.57 154.11 72.16 154.62 76.8 151.76 81.64 153.69 86.08"/>
        <polygon class="cls-39" points="154.27 86.01 153.12 90.54 151.38 94.89 150.17 99.18 151.63 104.12 151.45 108.88 148.06 112.52 145.98 116.55 142.29 119.64 141.45 124.33 138.09 127.43 136.45 131.88 133.18 135.02 130.53 138.82 127.71 142.64 122.35 143.04 120.07 147.95 114.41 147.05 111.48 151.46 106.56 151.34 102.15 152.19 98.17 154.92 93.34 153.21 89.08 155.29 84.57 156.37 79.95 157.02 75.81 153.1 70.67 156.39 66.28 154.78 62.41 151.82 57.58 151.65 54.12 148.27 49.88 146.57 46.07 144.08 43.44 140.08 38.68 138.74 34.36 136.57 34.23 130.55 28.72 129.18 27.8 124.26 25.75 120.26 23.86 116.2 21.26 112.45 20.26 108.02 17.45 104.13 18.91 99.19 17.37 94.93 14.92 90.61 15.21 86.01 18.44 81.63 17.1 77.05 19.59 72.96 17.85 67.98 17.75 63.16 20.8 59.38 20.71 54.29 26.45 52.15 27.56 47.6 28.64 42.77 33.87 41.15 37.21 38.22 40.75 35.57 41.26 29.16 44.94 26.27 50.14 25.87 53.11 21.75 59.03 23.76 62.95 21.75 67.09 20.21 71.47 19.57 75.72 18.22 80.02 16 84.57 18.21 89.26 13.87 93.86 14.97 97.83 18.78 102.81 17.43 106.63 20.47 111.91 19.55 115 23.79 120.15 23.95 124.3 26.14 125.85 31.75 130.78 32.91 134.14 36.06 136.28 40.29 140.1 43.07 143.31 46.47 143.06 51.95 146.33 55.3 148.66 59.25 148.11 64.24 152.43 67.69 151.66 72.55 154.58 76.72 153.83 81.43 154.27 86.01"/>
        <polygon class="cls-39" points="152.66 85.93 150.99 90.33 150.58 94.72 151.35 99.34 149.11 103.4 151.69 108.9 149.03 112.87 147.31 117.14 144.35 120.76 141.94 124.62 138.7 127.86 136.01 131.48 133.33 135.15 129.38 137.54 127.53 142.41 122.13 142.73 118.68 145.62 114.32 146.94 110.94 150.26 107.51 154.16 103.04 155.57 98.15 155.04 93.65 155.89 89.09 156.37 84.51 154.01 79.9 156.84 75.48 155.03 71.19 153.46 66.44 153.88 62.49 151.34 57.83 150.85 53.02 150.24 49.46 147.11 46.21 143.72 41.49 142.4 38.71 138.57 35.82 135.02 32.91 131.56 30.24 127.92 28.61 123.61 26.48 119.73 22.95 116.54 20.87 112.51 19.76 108.1 19.92 103.4 18.44 99.19 16.93 94.91 15.86 90.47 16.76 85.93 17.76 81.52 16.11 76.85 18.47 72.68 18.41 68.07 21.36 64.3 23.3 60.34 20.97 54.37 26.73 52.27 29.12 48.58 30.33 44.01 34.06 41.3 35.61 36.64 38.72 33.31 43.17 31.59 44.79 26.08 49.26 24.42 54.07 23.69 57.98 21.37 62.12 19.47 66.17 16.98 71.15 18.23 75.38 16.07 80.01 16.76 84.51 14.52 88.99 17.07 93.48 17.27 97.96 17.78 101.91 20.41 106.72 19.97 111.19 21.04 116 21.63 118.96 25.78 122.62 28.42 125.26 32.35 131.08 32.44 134.89 35.2 137.02 39.53 140.44 42.71 143.03 46.55 144.45 51.06 145.08 55.81 147.87 59.47 149.8 63.59 148.54 68.61 154.07 72 150.46 77.17 152.16 81.46 152.66 85.93"/>
        <polygon class="cls-39" points="150.64 85.86 152.97 90.39 154.49 95.15 153.29 99.66 149.71 103.5 148.71 107.86 149.49 113 146.74 116.82 143.78 120.4 140.76 123.81 139.32 128.3 137.62 132.83 131.67 133.52 130.17 138.42 127.1 141.87 121.94 142.47 118.28 144.98 116.03 150.36 111.19 150.92 106.16 150.38 102.14 152.44 97.54 152.26 93.51 155.25 88.95 155.14 84.45 156.48 79.77 157.73 75.35 155.53 71.05 153.76 66.39 153.76 61.54 153.82 58.7 148.58 53.15 149.79 51.11 144.14 47.26 142.02 41.12 142.73 38.64 138.5 36.91 133.82 31.44 132.69 29.65 128.24 29.02 123.23 26.75 119.47 22.06 116.87 19.08 113.13 19.21 108.18 19.84 103.33 15.71 99.63 14.3 95.16 18.03 90.26 14.31 85.86 17.19 81.41 16.56 76.85 17.7 72.47 16.55 67.53 21.62 64.33 21.24 59.46 22.34 54.99 25.62 51.6 28.85 48.37 30.92 44.42 33.93 41.16 37.28 38.26 38.08 32.59 42.87 31.21 46.34 28.34 49.06 24.12 54.6 24.78 57.79 21 61.62 18.11 66.11 16.93 70.92 17.33 75.57 17.9 80 17.43 84.45 15.33 89.06 15.05 93.19 18.91 97.48 19.77 102.78 16.95 105.99 21.84 110.46 22.53 114.52 24.36 119.01 25.51 123.25 27.35 126.36 30.79 128.57 35.1 132.51 37.4 134.57 41.51 139.46 43.32 140.15 48.31 145.62 50.29 145.25 55.62 148.81 59 148.74 63.85 148.43 68.55 150.1 72.68 150.24 77.11 154.28 81.25 150.64 85.86"/>
        <polygon class="cls-23" points="152.67 85.79 150.94 90.19 151.02 94.64 150.2 99 150.11 103.55 150.95 108.55 146.07 111.57 143.75 115.33 142.99 119.91 141.07 123.98 137.12 126.62 137.52 132.73 133.97 135.74 130.53 138.8 125.26 139.54 122.38 143.12 120.08 148.03 115.9 150.13 110.8 150.06 106.56 151.63 102.29 153.14 97.39 151.73 93.08 152.41 88.92 155.47 84.39 156.95 79.82 156.06 75.07 157.05 71.09 153.18 66.21 154.11 62.75 150.08 58.1 149.77 53.15 149.59 49.62 146.47 45.25 144.79 42.41 140.93 38.15 138.91 34.16 136.37 32.43 131.71 30.23 127.69 26.25 124.93 23.46 121.22 22.15 116.72 21.92 111.88 17.19 108.76 15.96 104.25 16.5 99.4 16.76 94.77 16.48 90.28 14.75 85.79 14.65 81.18 15.1 76.6 18.55 72.57 18.1 67.88 20.53 63.92 23.27 60.23 22.29 54.92 24.04 50.67 25.48 46.14 30.8 44.31 31.79 39.31 36.56 37.54 40.21 34.95 43.5 32.01 45.66 27.37 49.03 24.1 53.71 23.09 57.72 20.9 62.44 20.58 66.1 17.04 70.93 17.61 75.58 18.32 79.83 15.78 84.39 16.31 88.75 18.7 93.72 14.43 97.97 16.99 102.66 17.11 106.66 19.67 110.58 22.04 114.57 24.08 119.75 24.1 121.8 29.3 126.32 30.7 130.01 33.36 132.21 37.55 136.93 39.36 137.3 44.82 140.3 48.1 141.99 52.23 143.85 56.2 148.26 59.12 148.35 63.89 148.46 68.46 150.17 72.58 153.35 76.64 151 81.38 152.67 85.79"/>
        <polygon class="cls-22" points="150.85 85.71 151.29 90.14 151.81 94.68 151.79 99.24 152 103.98 149.85 108.13 145.94 111.47 145.3 116.04 142.36 119.51 141.46 124.2 140.39 129.04 136.39 131.73 131.74 133.55 129.44 137.58 124.81 138.97 123.05 144.11 118.96 146.18 114.58 147.58 109.85 147.9 106.43 151.37 102.41 153.7 98.14 155.68 93.36 154.82 88.8 154.53 84.33 156.23 79.97 152.72 75.14 156 71.01 153.23 65.96 154.76 62.09 151.74 57.28 151.48 54.71 146.32 51.17 143.68 44.96 145.05 43.05 139.97 39.7 137.04 34.71 135.7 33.15 130.97 30.16 127.62 27.29 124.13 24.26 120.66 24.61 115.43 22.55 111.53 21.04 107.39 16.55 104.01 14.78 99.64 15.35 94.86 17.99 90.1 17.3 85.71 18.48 81.35 14.45 76.45 16.61 72.13 19.02 68.06 18.14 63.07 22.86 60.02 24.36 55.87 24.95 51.15 26.51 46.78 31.25 44.62 32.99 40.32 34.79 35.81 38.43 32.97 41.15 29.04 45.49 27.15 49.85 25.51 52.91 21.54 57.46 20.35 62.07 19.62 66.58 18.95 70.94 17.84 75.16 15.54 79.81 16.25 84.33 15.46 88.97 14.44 93 19.26 98.16 15.66 102.8 16.3 106.69 19.34 110.98 20.87 114.84 23.34 119.4 24.51 122.12 28.68 124.7 32.61 129.32 33.98 132.17 37.46 134.68 41.16 139.26 43.24 139.27 48.67 144.34 50.8 146.45 54.84 146.62 59.69 148.03 63.9 149.95 67.98 151.93 72.16 150.72 76.89 151.39 81.28 150.85 85.71"/>
        <polygon class="cls-17" points="154.94 85.64 154.94 90.3 152.53 94.7 148.88 98.62 152.36 104.02 148.22 107.54 148.36 112.39 147.79 117.19 144.57 120.72 140.12 123.29 140.52 129.12 135.46 130.91 134.55 136.28 130.59 138.86 126.32 140.88 122.6 143.47 118.84 146.01 114.8 148.05 109.98 148.27 107.06 153.25 102.75 155.09 97.68 153.63 93.53 156.47 88.63 152.78 84.27 152.8 79.88 153.12 75.52 152.64 71.32 151.33 66.95 150.85 61.4 153.47 56.95 152.04 53.51 148.49 50.38 144.83 45.76 143.71 41.38 141.93 38.57 138.15 34.87 135.41 33.1 130.89 30.46 127.27 28.05 123.52 25.79 119.69 22.23 116.47 19.77 112.55 18.39 108.17 20.02 103.01 17.25 99.08 14.56 94.88 16.04 90.15 13.53 85.64 17.54 81.22 18.39 76.88 16.51 72.05 19.97 68.25 17.34 62.76 21.44 59.4 24.63 55.96 24.66 50.95 27.26 47.24 30.42 43.97 30.89 38.5 36.81 37.76 38.09 32.59 43.43 31.94 46.71 28.94 50.84 27.21 53.87 23.5 57.12 19.64 62.64 21.37 66.64 19.32 71.26 19.69 75.2 16.26 79.68 15.06 84.27 18.15 88.92 14.07 93.47 15.25 97.95 16.32 101.86 19.45 106.36 20.05 109.72 23.63 115.53 21.79 117.59 27.4 122.12 28.51 126.57 30.09 130.98 32 134.25 35.3 135.14 40.64 139.7 42.78 139.78 48.22 143.99 50.89 144.71 55.58 147.92 59.06 147.94 63.84 149.56 67.99 150.16 72.42 154.5 76.33 152.81 81.11 154.94 85.64"/>
        <polygon class="cls-17" points="152.36 85.57 152.37 90.07 152.7 94.66 152.73 99.3 148.34 102.91 150.81 108.34 149.19 112.68 146.05 116.31 141.55 118.98 139.04 122.55 140.07 128.75 136.58 131.85 134.15 135.87 129.01 137.09 125.04 139.26 121.52 141.91 117.33 143.47 114.53 147.57 110.42 149.37 106.67 152.24 102.31 153.65 97.27 151.79 92.98 152.74 88.65 153.93 84.21 152.78 79.54 157.21 74.99 156.09 70.41 155.42 66.51 152.16 61.88 151.84 57.27 151.07 52.79 149.71 50.72 144.08 47.33 141.27 42.63 140.19 39.55 136.92 34.4 135.73 34.05 129.94 31.07 126.69 25.86 124.84 26.72 119.05 21.73 116.61 22.66 111.29 19.82 107.6 19.84 102.97 18.79 98.7 17.51 94.43 15.86 90.08 17.34 85.57 16.13 81.07 16.93 76.63 17.22 72.13 16.65 67.33 19.08 63.28 19.12 58.41 20.71 54.03 25.84 51.58 27.66 47.47 31.35 44.64 33.43 40.66 36.59 37.53 39.84 34.53 41.59 29.61 45.5 27.19 49.96 25.77 54 23.81 57.27 20.06 62.76 21.83 66.65 19.49 70.87 17.95 75.1 15.88 79.62 15.1 84.21 17.06 88.8 14.92 93.42 15.04 97.39 18.72 102.49 16.86 106.6 19.1 111.24 19.84 113.79 25.04 117.8 26.87 122.29 28.1 127.06 29.31 129.93 33.03 133.24 36.16 135.76 39.99 138.17 43.82 143.14 45.91 143.27 51.19 143.37 56.12 145.9 59.78 148.97 63.4 148.93 68.07 151.41 72.09 153.45 76.38 150.92 81.15 152.36 85.57"/>
        <polygon class="cls-26" points="153.18 85.49 153.55 90.08 150.8 94.35 150.77 98.86 151.75 103.74 150.09 108.05 145.66 111.2 146.91 116.67 144.97 120.87 139.82 123.02 136.69 126.18 134.59 130.12 133.16 134.89 127.75 135.68 126.38 140.96 122.17 142.87 118.47 145.43 113.82 146.2 109.98 148.4 107.05 153.44 101.46 150.68 97.56 153.47 93.26 155.27 88.67 155.02 84.15 154.96 79.66 154.5 75.13 154.53 70.49 154.65 65.88 154.15 62.4 150.09 57.85 149.5 54.31 146.52 49.21 146.45 46.73 141.98 43.41 139.06 40.19 136.06 36.53 133.52 32.45 131.18 30.77 126.8 27.86 123.41 23.43 120.8 21.27 116.73 22.78 111.14 20.97 107.13 18.96 103.11 17.21 98.92 16 94.54 14.38 90.1 14.99 85.49 14.02 80.86 16.01 76.45 16.93 72.01 19.08 67.9 17.65 62.75 19.35 58.45 20.8 54.03 24.54 50.8 27.99 47.65 29.92 43.54 32.79 40.08 35.15 36.11 39.62 34.29 41.49 29.49 44.68 26.01 48.95 24.08 53.16 22.2 56.91 19.29 62.42 20.94 66.93 20.67 70.26 15.21 75.38 18.35 79.63 16.01 84.15 17.26 88.75 14.77 93.02 17.52 97.67 16.98 102.1 17.97 105.75 21.31 110.77 20.73 115.02 22.42 117.25 27.62 122.85 27.14 126.8 29.49 128.35 34.65 131.23 37.98 135.54 40.06 139.3 42.85 140.82 47.31 142.51 51.51 146.77 54.38 147.19 59.16 148 63.63 149.85 67.74 149.53 72.37 152.58 76.41 154.64 80.84 153.18 85.49"/>
        <polygon class="cls-24" points="150.15 85.42 153.02 89.97 154.1 94.7 150.9 98.82 150.35 103.32 149.9 107.93 145.53 111.1 146.6 116.48 142.69 119.54 139.47 122.76 139.16 128.01 136.3 131.56 130.72 132.49 127.89 135.83 124.24 138.24 123.11 144.25 117.5 143.81 114.73 148.05 110.95 150.75 106.97 153.3 101.9 152.44 97.65 154.15 92.82 152.31 88.7 156.32 84.09 155.78 79.63 153.97 75 154.92 70.63 153.61 66.27 152.43 62.83 148.62 57.74 149.54 53.81 147.3 49.15 146.38 46.98 141.45 41 141.97 37.56 138.85 37.22 132.71 34.58 129.24 31.23 126.33 25.9 124.58 23.02 120.93 23.9 115.35 21.97 111.37 21.47 106.87 20.22 102.69 18.14 98.65 15.32 94.54 15.23 89.97 15.07 85.42 16.44 80.95 17.74 76.6 17.99 72.16 17.79 67.51 19.63 63.36 19.65 58.53 21.11 54.13 23.15 49.98 28.96 48.25 30.93 44.27 31.92 39.32 36.98 37.89 38.71 33.27 41.94 30.06 45.2 26.79 50.7 27.07 53.68 23.27 57.46 20.64 61.34 17.95 66.45 19.06 70.57 16.96 75.05 16.26 79.45 14.13 84.09 16.11 88.54 16.87 92.93 17.67 97.16 19.13 102.12 17.6 106.07 20.14 109.96 22.43 114.82 22.62 119.6 23.48 120.9 29.81 125.75 30.68 128.92 33.87 134 35.15 135.01 40.38 136.86 44.57 139.62 47.99 144.3 50.39 145.27 55 148.15 58.68 147.4 63.74 149.43 67.76 150.16 72.16 153.35 76.23 151.18 80.98 150.15 85.42"/>
        <polygon class="cls-24" points="153.63 85.35 149.83 89.7 153.95 94.62 151.9 98.95 151.41 103.54 146.56 106.77 148.6 112.29 144.35 115.35 142.28 119.27 138.8 122.29 139.4 128.16 133.95 129.53 133.23 134.93 128.53 136.54 125.76 140.18 121.9 142.51 118.62 145.74 114.62 147.88 109.34 147.03 105.42 148.96 101.44 150.88 97.03 151.32 92.9 153.33 88.65 156.43 84.02 154.35 79.55 154.19 75.16 153.19 70.72 152.75 66.2 152.39 62.34 149.76 57.4 150.1 54.62 145.51 49.94 144.87 45.71 143.14 42.65 139.71 38.19 138 35.9 133.86 33.77 129.81 29 127.89 25.81 124.52 25.94 119.17 24.11 115.15 23.09 110.82 20.2 107.2 16.59 103.55 15.39 99.1 14.38 94.58 13.81 89.98 13.54 85.35 14.13 80.73 15.36 76.23 17.05 71.91 17.7 67.43 20.18 63.49 20.87 58.97 23.9 55.44 26.15 51.64 27.46 47.24 28.01 42.05 33.2 40.39 35.73 36.65 40.37 35.1 40.85 28.68 46.18 28.23 49.12 24.44 53.59 23.14 56.82 19.22 62.29 20.77 66.77 20.37 70.52 16.93 74.93 15.72 79.61 17.51 84.02 18.35 88.6 14.95 93.01 16.53 97.37 17.74 101.36 20.07 105.57 21.31 111 19.77 114.79 22.48 117.12 27.49 121.81 28.33 126.28 29.86 128.19 34.55 133.11 35.89 136.27 39.18 137.75 43.78 140.69 47.18 144.88 49.96 146.86 54.13 148.73 58.35 150.31 62.68 149.76 67.59 151.12 71.89 153.67 76.11 151.03 80.91 153.63 85.35"/>
        <polygon class="cls-25" points="151.68 85.27 152.55 89.8 150.49 94.11 148.46 98.22 147.86 102.55 147.79 107.12 146.73 111.48 146.82 116.5 144.94 120.73 142.42 124.62 136.45 125.91 135.55 130.87 132.93 134.62 130.12 138.29 126.59 141.23 120.83 140.96 117.23 143.42 115.14 148.95 110.49 149.8 106.62 152.49 101.86 152.59 97.59 154.27 92.99 154.34 88.31 152.2 83.96 152.4 79.54 153.23 74.97 154.1 70.54 153.31 66.79 149.95 62.75 148.34 58.72 146.78 54.03 146.47 49.64 145.2 46.44 141.91 40.82 141.88 38.11 137.95 35.47 134.15 33.22 130.15 31.48 125.91 26.5 123.96 25.96 119.05 21.32 116.39 20.72 111.68 20.05 107.15 20.28 102.49 15.51 98.99 15.69 94.33 17.19 89.69 13.66 85.27 18.25 80.92 18.08 76.52 14.92 71.44 18.7 67.64 17.31 62.48 22.54 59.6 23.98 55.43 26.97 52.06 29.16 48.32 31.69 44.79 30.81 38.33 35.66 36.57 39.79 34.46 41.48 29.49 44.85 26.31 49.52 25.13 53.39 22.79 57.27 20.34 61.19 17.71 66.77 20.53 70.41 16.63 74.97 16.46 79.46 15.96 83.96 16.06 88.33 18.18 92.98 16.24 96.97 19.33 101.33 19.91 106.24 19.15 110.77 20.1 113.5 24.85 118.74 24.59 122.15 27.67 126.99 28.81 129.87 32.54 130.97 37.85 135.35 39.84 137.98 43.48 139.57 47.8 142.77 51.04 145.59 54.64 147.9 58.59 146.32 63.91 148.25 67.89 152.24 71.59 152.81 76.14 152.95 80.72 151.68 85.27"/>
        <polygon class="cls-25" points="150 85.2 149.33 89.53 152.72 94.33 150.73 98.6 147.25 102.33 149 107.47 146.94 111.52 145.62 115.87 141.09 118.52 141.98 124.29 136.46 125.89 134.51 129.96 132.86 134.53 127.78 135.68 126.33 140.9 121.18 141.48 117.69 144.23 113.22 145.2 109.55 147.66 105.15 148.37 101.06 149.8 97.62 154.64 92.72 152.73 88.36 153.75 83.9 154.37 79.45 153.7 75.26 151.43 70.65 152.37 66.47 150.81 61.91 150.51 57.13 150.29 54.66 145.05 50.04 144.35 47.33 140.44 41.02 141.48 39.46 136.3 35.14 134.34 30.79 132.1 28.97 127.67 28.3 122.67 23.27 120.46 24.36 114.82 19.77 111.96 18.42 107.6 19.14 102.7 18.14 98.39 15.38 94.29 14.18 89.8 16.08 85.2 15.47 80.68 16.37 76.23 16.55 71.69 20.56 68.06 21.3 63.75 22.91 59.7 22.22 54.54 25.44 51.16 27.56 47.24 29.38 43.03 33.54 40.64 37.35 38.21 37.54 31.95 43.11 31.56 45.11 26.7 50.73 27.21 53.78 23.61 57.57 21.12 61.93 19.94 66.62 20.12 70.16 15.59 74.97 16.84 79.4 15.97 83.9 18.65 88.39 16.23 93.07 15.04 96.79 19.82 102.24 16.3 105.77 20.26 110.6 20.26 113.24 25.17 116.87 27.56 121.09 29.06 125.8 30.16 128.2 34.25 133.69 35.06 133.62 41.2 138.72 42.82 138.73 48.23 143.18 50.7 144.08 55.27 148.23 58.36 149.53 62.75 147.29 68.05 150.43 71.86 151.46 76.23 154 80.57 150 85.2"/>
        <polygon class="cls-25" points="151.94 85.12 152.78 89.68 148.72 93.75 150.02 98.4 147.65 102.38 147.53 106.93 148.34 112.04 144.32 115.2 140.91 118.38 141.31 123.82 136.72 126.06 136.24 131.42 132.61 134.27 128.03 135.95 125.46 139.8 120.44 140.42 118.1 144.95 114.61 147.99 109.06 146.57 105.73 150.13 100.91 149.4 96.83 151 92.61 152.24 88.36 154.51 83.84 152.3 79.45 152.74 75.01 152.74 70.51 152.69 66.29 151.18 61.93 150.2 57.33 149.62 53.1 147.94 49.03 145.87 46.8 141.06 43.23 138.51 40.56 134.94 33.99 135.32 34.19 129.06 30.64 126.3 28.81 122.22 24.42 119.7 24.47 114.66 21.48 111.17 21.47 106.49 20.22 102.33 16.02 98.72 18.12 93.86 15.31 89.65 13.76 85.12 17.87 80.76 16.66 76.2 16.3 71.58 18.04 67.35 21.54 63.78 18.91 58.03 21.03 53.92 23.44 49.99 29.1 48.21 29.35 42.98 34.38 41.34 34.1 35.02 39.47 34.09 41.06 28.96 46.13 28.21 50.26 26.44 53.43 22.97 56.93 19.68 61.58 19.03 66.43 19.57 70.25 16.26 75.18 18.77 79.33 15.77 83.84 17.89 88.46 14.23 92.71 17.23 96.82 19.3 101.71 17.94 105.82 19.86 110.44 20.42 113.28 24.9 118.06 25.38 123.17 25.86 126.16 29.56 127.97 34.37 133.19 35.42 134 40.75 138.22 43.07 139.21 47.81 140.56 52.08 144.56 54.94 146.64 58.9 146.31 63.73 149.44 67.4 149.48 71.95 151.7 76.12 149.53 80.78 151.94 85.12"/>
        <polygon class="cls-18" points="153.51 85.05 150.1 89.44 150.27 93.88 148.2 97.99 147.25 102.22 147.4 106.83 146.66 111.31 144.95 115.46 143.82 119.98 139.63 122.68 137.65 126.72 135.33 130.62 131.89 133.55 128.69 136.68 125.31 139.62 120.8 140.95 117.9 144.63 113.55 145.93 109.16 146.89 105.1 148.43 102.01 153.58 97.34 153.7 92.66 153.05 88.41 156.19 83.78 155.93 79.43 152.01 74.7 154.58 70.39 152.9 65.91 152.25 62.61 147.98 57.57 148.84 53.5 146.95 50.79 142.72 46.35 141.55 41.96 139.98 39.19 136.32 34.6 134.6 34.39 128.77 28.53 127.76 27.07 123.25 24.97 119.28 22.34 115.59 18.86 112.13 20.37 106.76 15.9 103.37 19.54 97.95 17.26 93.89 17.82 89.42 17.02 85.05 18.08 80.7 16.54 76.12 17.57 71.77 20.28 67.87 19.73 63.12 20.07 58.46 24.35 55.48 24.88 50.77 28.08 47.51 28.76 42.51 33.33 40.42 37 37.84 40.07 34.75 42.15 30.36 45.26 26.96 49.33 24.91 53.47 23.1 56.93 19.76 61.86 19.94 66.28 19.18 70.77 19.07 75 17.79 79.24 15.29 83.78 17.88 88.16 17.76 92.5 18.26 97.2 17.08 101.37 18.89 105.43 20.73 110.77 19.44 114.38 22.54 117.45 26.25 121.36 28.34 124.63 31.36 127.78 34.45 132.19 36.26 133.35 41.19 135.88 44.71 140.58 46.8 144.74 49.61 144.29 54.97 148.34 58.12 147.47 63.25 147.7 67.77 150.29 71.71 152.05 75.99 153.13 80.47 153.51 85.05"/>
        <polygon class="cls-18" points="153.39 84.98 152.99 89.55 153.2 94.19 147.92 97.87 149.24 102.68 149.8 107.57 148.24 111.9 143.48 114.7 142.85 119.39 139.99 122.88 138.77 127.53 134.58 129.95 130.52 132.2 128.97 136.98 125.02 139.25 120.62 140.7 117.87 144.61 113.1 145.09 109.6 147.99 105.22 148.86 101.06 150.23 96.66 150.58 92.44 151.78 88.19 153.76 83.72 152.62 79.32 152.73 74.91 152.44 70.42 152.39 66.3 150.52 61.46 151.05 57.52 148.73 54.03 145.71 50.52 143 44.92 143.47 41.63 140.24 39.28 136.08 35.82 133.27 32.2 130.51 29.55 126.87 27.73 122.7 26.86 118.11 23.56 114.89 19.85 111.63 19.8 106.86 17.78 102.79 17.45 98.27 14.66 94.14 15.69 89.47 13.52 84.98 14.13 80.38 14.67 75.82 18.11 71.81 16.89 66.93 20.37 63.29 20.72 58.67 24.19 55.36 27.01 51.93 27.53 47.12 29.63 43.14 33.59 40.63 35.56 36.42 39.14 33.72 43.06 31.52 46.47 28.73 50.39 26.72 53 22.2 57.64 21.49 62.61 22.2 66.21 19.07 70.42 17.58 74.98 18.01 79.25 16.19 83.72 15.06 88.08 17.89 92.91 14.69 97.22 16.59 101.56 17.89 105.96 18.97 110.66 19.48 114.24 22.61 116.61 27.48 122.51 26.51 126.39 28.97 130.12 31.7 133.58 34.77 133.88 40.61 136.22 44.34 141.02 46.4 141.73 51.2 144.64 54.69 148.2 58.08 145.6 63.77 149.79 67.13 150.84 71.52 152.41 75.87 151.7 80.49 153.39 84.98"/>
        <polygon class="cls-21" points="152.89 84.9 152.71 89.46 152.23 94 147.69 97.76 147.29 102.11 148.37 107.04 146.8 111.26 143.34 114.59 142.02 118.88 140.83 123.4 138.75 127.49 133.56 129.06 132 133.62 129.43 137.49 124.58 138.69 120.15 140.03 117.63 144.22 113.87 146.65 109.67 148.21 104.98 148.28 101.36 151.49 96.71 151.05 92.34 151.39 88.25 155.48 83.66 152.43 79.06 155.62 75.08 150.61 70.56 151.3 65.73 152.3 61.86 149.64 58.26 146.78 53.61 146.34 49.67 144.25 44.55 143.84 41.19 140.65 37.57 137.84 36.42 132.55 34.51 128.41 31.51 125.28 28.53 122.07 25.35 118.85 20.66 116.19 19.46 111.69 18.94 107.05 17.94 102.66 16.14 98.44 15.77 93.91 14.58 89.46 18.26 84.9 14.55 80.34 15.79 75.9 14.88 71.13 16.73 66.83 21.32 63.55 23.16 59.61 23.1 54.79 24.77 50.63 26.72 46.56 30.86 44.03 33.98 40.95 37.06 37.88 38.49 32.99 42.68 31.04 46.19 28.36 49.4 25.09 53.55 23.35 57.58 21.42 61.76 19.87 66.21 19.23 70.48 18.08 74.81 17.13 79.24 16.85 83.66 18.24 88.13 16.16 92.26 19.01 97.34 15.63 101.35 18.36 106.14 18.22 109.75 21.42 114.34 22.24 118.5 24.12 121.88 27.27 123.57 32.41 127.96 33.96 133.17 35.04 135.52 39.08 136.88 43.72 141.41 46.03 141.63 51.15 146.56 53.66 144.76 59.37 148.28 62.8 149.01 67.25 151.1 71.39 149.13 76.2 150.43 80.49 152.89 84.9"/>
        <polygon class="cls-20" points="150.99 84.83 150.01 89.22 150.94 93.77 151.69 98.47 149.73 102.69 148.16 106.92 146.62 111.14 146.41 116.03 143.36 119.59 140.23 122.98 139.38 127.93 136.27 131.35 132.78 134.38 128.64 136.6 124.84 139.02 121.47 141.96 118.12 145.07 113.97 146.9 110.19 149.51 105.2 149.01 101.02 150.37 96.82 151.84 92.28 151.3 88.03 152.92 83.6 153.04 79.3 150.96 74.79 152.31 70.64 150.56 66.4 149.59 61.62 150.08 58.35 146.34 54.21 144.96 48.38 146.25 44.72 143.43 43.33 137.78 40.31 134.65 35.05 133.75 31.46 130.9 31.06 125.5 28.62 121.89 26.49 118.1 24.57 114.2 23.03 110.15 20.97 106.28 17.99 102.55 15.1 98.55 14.71 93.97 16.9 89.24 13.59 84.83 18.32 80.51 15.79 75.83 18.81 71.82 18.77 67.31 18.47 62.55 19.11 57.92 20.66 53.57 23.83 50.06 25.3 45.59 28.23 42.03 32.72 39.84 34.37 35.23 38.55 33.05 42.14 30.36 44.7 26.2 48.64 23.84 52.39 21.11 57.66 21.7 61.92 20.43 66.24 19.5 70.8 19.92 74.67 16.47 79.21 17.36 83.6 18.54 88.17 14.56 92.72 15.08 97.17 16.1 101.17 18.74 105.36 20.2 110.16 20.24 113.08 24.53 117.23 26.09 120.12 29.66 126.17 28.96 128.18 33.58 130.46 37.55 135.99 38.55 136.65 43.78 141.23 46.04 143.8 49.82 146.07 53.8 144.79 59.26 149.56 62.28 148.52 67.29 148.13 71.88 149.87 76.03 152.76 80.26 150.99 84.83"/>
        <polygon class="cls-13" points="149.34 84.76 150.21 89.17 151.81 93.81 150.14 98.11 150.52 102.84 146.65 106.37 144.06 110.05 144.03 114.83 142.46 119.05 140.05 122.82 137.56 126.54 135.87 130.98 133.04 134.61 129.86 137.95 124.45 138.53 120.03 139.88 116.55 142.45 113.59 146.19 109.62 148.22 105.3 149.39 100.79 149.68 96.74 151.66 92.36 152.3 87.84 150.87 83.54 154.8 79.07 153.53 74.39 154.73 70.3 151.86 66.48 148.99 61.17 151.15 57.78 147.47 54.06 145.06 50.52 142.47 45.17 142.62 42.16 139.11 39.83 135.04 37.39 131.33 34.42 128.23 31.74 124.87 28.61 121.78 25.26 118.68 24.15 114.3 22.96 110.08 18.84 106.89 19.38 102.1 16.74 98.15 14.12 93.96 16.77 89.17 14.2 84.76 14.94 80.23 16.58 75.87 15.53 71.13 17.04 66.8 20.05 63.02 22.16 59.11 22.54 54.43 23.22 49.68 27.48 46.99 30.38 43.62 31.23 38.54 34.53 35.38 38.39 32.87 41.68 29.77 46.05 28.17 49.04 24.54 53.76 23.86 57.29 20.88 62.15 21.19 66.22 19.56 69.88 15.6 74.54 15.9 78.97 14.56 83.54 14.45 88.04 15.56 92.32 17.56 96.48 19.15 101.48 17.32 105.34 20.01 108.71 23.43 112.63 25.23 118.44 23.88 120.47 28.99 124.96 30.34 128.13 33.49 132.24 35.69 134.51 39.7 135.41 44.59 138.48 47.72 141.19 51.19 143.25 55.06 144.79 59.16 149 62.37 146.79 67.65 150.8 71.28 148.8 76.08 150.45 80.33 149.34 84.76"/>
        <polygon class="cls-13" points="152.23 84.68 153.13 89.28 151.29 93.68 148.75 97.78 148.63 102.29 148.02 106.77 145.99 110.79 143.98 114.76 141.6 118.52 141.73 123.89 137.34 126.35 133.72 129.12 133.01 134.57 127.7 135.54 126 140.5 121.65 142.25 116.59 142.55 112.68 144.43 109.87 148.87 104.96 148.5 101.48 152.37 96.6 151.21 92.22 151.63 87.89 152.46 83.48 155.71 79.06 152.67 74.42 153.96 70.04 152.74 65.45 152.44 61.88 148.84 57.92 146.93 54.42 144.15 48.38 145.9 45.89 141.39 41.73 139.51 38 136.93 34.72 133.81 34.26 128.24 27.99 127.56 26.36 123.14 23.07 119.81 22.2 115.14 21.99 110.37 19.02 106.74 18.6 102.21 16.56 98.1 15.27 93.73 15.03 89.2 17.14 84.68 14.3 80.12 16.23 75.76 19.33 71.8 19.92 67.5 18.12 62.33 21.41 58.76 22.4 54.32 24 50.08 25.32 45.55 30.85 43.95 34.13 41.01 37.36 38.13 39.09 33.64 40.68 28.51 46.76 29.23 50.14 26.44 53.07 22.54 58.22 23.14 61.25 18.71 66.01 18.94 69.76 15.22 74.89 18.89 79.07 16.95 83.48 16.79 87.87 17.1 92.26 17.42 97.17 15.35 101.47 17.06 105.17 20.25 108.64 23.39 114.37 21.6 116.4 27.15 120.23 29.19 125.51 29.49 129.05 32.33 131.07 36.7 135.66 38.59 138.18 42.4 138.14 47.84 142.12 50.55 142.3 55.41 144.86 59.04 146.9 62.97 147.27 67.44 150.33 71.28 151.41 75.67 148.51 80.38 152.23 84.68"/>
        <polygon class="cls-12" points="151.6 84.61 148.16 88.9 149.69 93.41 149.1 97.79 148 102.06 148.86 106.99 146.74 111.04 143.51 114.49 141.03 118.16 138 121.41 137.87 126.72 135.6 130.71 129.51 131.14 128.15 136.03 123.69 137.57 119.83 139.62 118.15 145.21 113.24 145.59 108.53 145.8 105.75 150.89 101.32 151.9 96.96 153.18 92.34 152.87 87.94 154.06 83.42 151.43 79.02 152.23 74.22 154.93 70.21 151.52 65.39 152.37 61.21 150.51 57.64 147.36 52.81 147.14 50.79 141.66 47.17 139.37 43.68 136.88 39.48 135.14 36.08 132.35 31.68 130.32 29.08 126.63 25.35 123.69 23.36 119.54 21.92 115.17 19.19 111.41 17.71 107.08 16.79 102.6 17.88 97.76 18.01 93.3 14.24 89.18 16.76 84.61 16.81 80.2 18.85 76.02 19.2 71.71 16.27 66.49 21.78 63.49 23.23 59.44 24.49 55.28 24.9 50.55 28.04 47.29 28.04 41.81 34.07 40.93 35.36 36.16 40.34 35.03 40.75 28.6 44.36 25.75 50.17 26.51 52.73 21.91 56.78 19.83 61.07 18.28 65.44 17.03 70.09 17.07 74.67 17.6 78.88 14.81 83.42 13.74 87.78 17.58 92.3 16.64 96.35 19.04 100.37 20.76 104.62 21.6 109.82 20.4 114.4 21.34 116.92 26.1 122.07 26.35 123.43 31.99 129.34 31.87 130.38 37.24 134.17 39.74 135.11 44.58 139.52 46.82 139.84 51.74 142.46 55.24 144.12 59.24 149.06 62.17 148.74 66.96 149.78 71.3 149.71 75.81 150.24 80.19 151.6 84.61"/>
        <polygon class="cls-19" points="152.07 84.54 149.18 88.89 151.21 93.54 148.62 97.63 147.89 101.98 147.7 106.55 146.54 110.91 142.81 114.11 143.28 119.39 137.89 121.3 137.45 126.37 132.65 128.16 130.18 131.77 128.53 136.44 124.96 139.18 121.27 141.73 117.41 143.99 112.57 144.31 108.64 146.13 104.59 147.66 101.17 151.53 96.76 152.45 92.05 151.1 87.64 150.37 83.36 155.28 79.06 150.61 74.61 151.55 70 152.19 65.67 151.04 60.86 151.26 57.23 148.1 54.3 144 49.88 143 46.71 139.88 41.05 140.06 38.4 136.2 36.08 132.21 33.43 128.7 31.18 124.93 26.31 122.94 22.89 119.69 22.43 114.82 19.3 111.26 19.89 106.26 19.8 101.72 17.14 97.82 15.83 93.5 18.66 88.82 14.81 84.54 18.34 80.23 14.73 75.43 18.11 71.44 19.01 67.14 19.23 62.59 23.38 59.46 21.08 53.6 26.72 51.54 28.46 47.53 29.23 42.67 30.68 38.02 35.27 36.06 37.16 31.48 42.61 30.98 45.83 27.9 48.53 23.77 53.08 22.66 57.56 21.74 61.53 19.71 65.63 17.87 70.12 17.47 74.62 17.65 78.84 15.09 83.36 15.79 87.82 15.9 92.01 18.27 96.23 19.25 101.42 16.63 105.74 18.13 108.76 22.68 112.55 24.8 116.97 25.83 119.94 29.28 126.01 28.57 127.93 33.29 130.13 37.35 133.91 39.84 137.47 42.69 140.52 46.06 142.93 49.88 142.56 55.08 145.27 58.68 147.74 62.51 150.1 66.52 149.26 71.32 151.97 75.44 152.22 79.99 152.07 84.54"/>
        <polygon class="cls-19" points="150.89 84.46 149.61 88.85 149.03 93.19 150.42 97.92 147.71 101.87 144.99 105.6 146.94 111.02 145.03 115.14 140.15 117.58 137.51 121.02 137.47 126.36 135.62 130.68 132.03 133.56 127.5 135.29 125.73 140.16 120.36 140.41 117 143.33 112.24 143.7 108.89 146.77 105.22 149.54 100.67 149.83 96.38 150.78 92.21 152.7 87.84 154.29 83.3 153.23 78.99 150.71 74.53 151.55 70.43 149.7 65.65 150.83 61.87 148.11 56.42 149.8 53.45 145.49 49.22 143.94 45.3 141.76 43.02 137.42 38.4 136.06 36.4 131.76 33.34 128.65 29.33 126.19 27.23 122.22 24.84 118.48 23.29 114.3 18.81 111.36 20.28 106.04 18.8 101.89 18.56 97.45 15.74 93.43 14.32 89.02 15.33 84.46 15.24 79.97 15.1 75.42 18.22 71.4 16.7 66.48 20.49 62.95 20.97 58.44 24.01 54.97 23.57 49.72 28.21 47.33 30.55 43.64 34.43 41.2 36.54 37.29 39.89 34.52 43.05 31.54 44.95 26.64 48.36 23.51 52.45 21.46 57.74 22.24 62.31 22.07 66.33 20.55 69.71 15.65 74.66 18.32 78.88 16.49 83.3 15.81 87.73 16.38 92.17 16.53 96.21 18.98 101.29 16.81 104.71 20.85 108.38 23.34 112.4 24.92 117.43 24.88 121.67 26.61 124.41 30.44 127.63 33.5 130.38 36.97 132.68 40.77 137.65 42.44 137.59 47.86 140.55 51.12 145.52 53.55 145.4 58.53 145.48 63.16 150.43 66.35 150.89 70.92 148.03 75.86 149.33 80.09 150.89 84.46"/>
        <polygon class="cls-30" points="147.98 84.39 152.43 88.96 150.12 93.27 148.55 97.49 147.02 101.63 147.86 106.5 146.14 110.65 142.77 114 143.18 119.25 140.93 123.22 138.48 127.08 133.05 128.46 132.2 133.71 128.45 136.34 122.8 136.44 121.83 142.57 115.8 141.33 113.62 146.47 109.48 148.22 105.04 149.13 100.77 150.37 96.57 151.96 91.87 150.56 87.64 152.11 83.24 153.91 78.64 155 74.45 151.63 70.39 149.55 65.95 149.45 61.32 149.46 58.29 145.17 52.36 147.44 48.45 145.07 46.85 139.34 40.88 139.98 39.22 135 35.02 132.98 31.27 130.29 29.46 125.97 27.55 121.91 25.7 117.89 24.48 113.62 19.84 110.85 17.62 106.82 19.34 101.66 19.51 97.19 18.37 93.01 13.9 88.96 14.76 84.39 14.3 79.84 17.42 75.65 16.06 70.92 17.12 66.54 19.37 62.53 23.08 59.24 24.16 55 24.67 50.31 29.27 47.99 29.05 42.49 32.35 39.41 34.95 35.73 37.49 31.85 41.05 29.01 44.99 26.71 48.91 24.47 53.86 24.3 56.9 20.33 61.2 18.97 65.91 19.18 70.27 18.64 74.5 17.49 78.68 14.43 83.24 14 87.83 13.85 92.09 16.63 96.84 15.53 100.66 18.84 104.93 19.97 108.27 23.4 112.22 25.08 117.98 23.78 120.66 27.93 124.59 30.07 128.39 32.51 131.32 35.93 133.65 39.81 137.18 42.67 138.31 47.28 141.57 50.44 144.82 53.79 145.2 58.51 145.55 63.05 148.95 66.64 148.97 71.2 148.96 75.66 149.69 79.99 147.98 84.39"/>
        <polygon class="cls-30" points="150.92 84.32 150.13 88.74 150.48 93.25 147.67 97.26 150.38 102.45 146.39 105.95 143.67 109.6 145.08 115.07 140.09 117.46 139.3 122.12 136.14 125.3 133.08 128.46 131.51 133.02 126.08 133.7 123.14 136.87 120.99 141.35 116.59 142.69 113.36 146.01 108.25 145.4 105.02 149.19 101.19 152.02 96.52 151.92 92.26 153.84 87.66 153.3 83.18 153.61 78.87 150.47 74.28 152.39 69.59 153.12 65.83 149.59 62.19 146.7 57.57 146.64 53.92 144.16 48.4 144.98 47.02 138.93 42.07 138.32 40.13 133.85 36.95 130.96 33.16 128.55 28.36 126.68 28.11 121.42 24.02 118.73 21.87 114.78 20.9 110.32 19.41 106.13 17.14 102.15 15.32 97.91 17.99 92.98 16.83 88.7 16.83 84.32 17.79 79.99 15.22 75.3 17.17 71.08 18.21 66.76 17.27 61.79 21.57 58.58 22.93 54.36 23.88 49.82 25.68 45.62 30.62 43.64 33.72 40.56 36.88 37.59 37.61 31.97 40.92 28.85 44.52 26.05 50.62 27.39 53.81 24.24 56.99 20.6 60.64 17.48 65.37 17.36 69.85 16.78 74.33 16.61 78.73 16.01 83.18 17.89 87.45 18.56 92.24 14.99 96.81 15.27 100.23 20.11 105.54 17.95 108.52 22.59 114.03 21.31 117.1 25.1 121.36 26.74 125.63 28.61 127.38 33.49 129.64 37.43 133.9 39.47 134.7 44.42 140.43 45.78 139.77 51.35 142.53 54.79 144.34 58.76 147.19 62.41 149.87 66.31 149.61 71 147.38 75.78 149.76 79.91 150.92 84.32"/>
        <polygon class="cls-31" points="149.94 84.24 149.72 88.65 149.94 93.11 148.25 97.31 147.96 101.76 146.81 106.04 144.98 110.08 141.47 113.28 142.66 118.88 140.09 122.6 137.24 126.09 133.04 128.4 130.89 132.4 126.49 134.14 125.27 139.58 120.61 140.81 115.88 141.51 112.41 144.17 108.47 146 104.75 148.51 100.32 149.01 95.8 148.61 92.14 153.28 87.43 150.68 83.11 151.27 78.6 153.61 74.09 153.32 69.58 152.77 65.83 149.28 61.88 147.34 58.21 144.93 52.76 146.25 48.55 144.54 44.59 142.31 42.34 137.83 39.82 134.05 36.36 131.4 31.99 129.42 29.69 125.57 27.05 122 24.72 118.22 20.8 115.19 21.53 109.97 18.16 106.46 17.41 101.98 18.99 97.12 17.4 92.97 14.3 88.78 17.64 84.24 18.47 79.96 18.05 75.6 16.55 70.89 17.76 66.59 18.43 62.11 20.92 58.27 23.32 54.51 25.78 50.85 28.59 47.49 30.04 43.18 32.01 39.07 34.29 35.06 39.84 34.45 43.02 31.52 45.92 28.11 50.03 26.42 53.48 23.63 56.46 19.44 61.19 19.16 65.65 18.53 70.05 18.02 74.16 15.73 78.62 15.11 83.11 17.38 87.53 16.3 91.63 18.98 96.01 18.88 100.77 17.85 104.72 20.07 109.82 19.32 112.31 24.52 117.17 24.79 119.49 29.3 122.84 32 128.96 31.59 129.35 37.59 132.09 40.9 137.98 41.84 140.28 45.76 139.93 51.15 144.8 53.6 146.13 57.94 145.67 62.82 147.88 66.74 151.1 70.62 147.23 75.72 149.22 79.87 149.94 84.24"/>
        <polygon class="cls-35" points="147.92 84.17 147.77 88.45 147.27 92.71 146.67 96.94 149.47 102.1 147.81 106.32 142.92 109.2 142.4 113.69 143.24 119.17 137.83 121.09 135.68 124.89 134.64 129.75 131.39 132.87 127.09 134.81 125.52 139.9 119.7 139.49 116.59 142.74 113.76 146.89 109.08 147.5 104.06 146.6 100.6 150.17 96.4 151.76 91.77 150.92 87.35 150.31 83.05 153.49 78.74 150.5 74.08 152.85 69.78 151.4 65.14 151.51 62.04 146.64 57.73 145.84 53.31 144.97 49.59 142.61 44.24 142.66 41.19 139.13 39.85 133.87 34.48 133.1 34.4 127.23 27.98 126.72 28.11 121.2 26.09 117.34 22.5 114.26 22.24 109.58 19.86 105.8 20.43 101.11 16.96 97.42 18.02 92.81 14.14 88.72 15.64 84.17 14.55 79.64 16.68 75.36 18.2 71.15 18.25 66.66 20.37 62.7 19.63 57.7 20.82 53.26 23.94 49.78 28.63 47.48 30.96 43.84 31.47 38.59 36.94 37.63 39.08 33.6 40.62 28.48 46.88 29.52 49.96 26.34 54.29 25.29 58.15 23.48 61.5 20.14 65.01 16.35 70.11 18.53 74.48 18.47 78.7 17.26 83.05 14.69 87.34 18.27 91.79 17.25 96.42 16.49 100.43 18.79 104.59 20.21 109.46 19.95 112.04 24.86 116.85 25.16 121.81 25.77 123.23 31.35 127.99 32.54 130.94 35.91 132.21 40.68 135.92 43.27 136.93 47.84 140.45 50.75 143.84 53.96 143.58 58.87 146.48 62.46 147.5 66.76 148.8 70.98 148.89 75.42 151.07 79.68 147.92 84.17"/>
        <polygon class="cls-35" points="150.41 84.09 150.34 88.54 150.08 93 149.87 97.5 145.39 100.97 145.24 105.41 145.56 110.22 143.28 114.07 140.85 117.78 139.22 121.96 136.5 125.48 132.62 127.99 130.59 132.07 126.67 134.33 124.18 138.19 119.1 138.64 115.39 140.75 113.43 146.27 108.59 146.4 104.66 148.45 100.52 150 95.71 148.61 91.62 150.2 87.38 151.54 82.99 154.51 78.6 151.68 73.95 153.27 69.45 152.68 65.54 149.76 62.01 146.48 57.03 147.27 54.02 143.38 48.29 144.62 45.27 141 41.92 138.05 37.89 135.91 35.99 131.49 34.09 127.37 28.67 126.09 28.09 121.09 24.06 118.38 24.13 113.37 19.98 110.39 20.29 105.56 16.61 102.01 18.25 97.09 14.89 93.13 15.95 88.53 16.61 84.09 14.69 79.58 17.83 75.44 15.58 70.58 17.18 66.32 18.71 62.1 19.58 57.63 21.52 53.55 27.06 51.5 25.18 45.19 29.91 43.02 32.01 39.03 36.56 37.25 38.9 33.4 41.62 29.75 46.05 28.33 49.35 25.34 53.36 23.5 57.45 21.91 61.6 20.55 65.64 18.8 69.83 17.37 74.25 17.13 78.48 14.78 82.99 14.4 87.41 16.17 92.1 14.41 96.23 17.04 100.06 19.85 104.64 19.82 109.21 20.32 112.9 22.96 116.13 26.2 120.66 27.29 123.87 30.39 126.52 34.03 131.47 35.26 132.17 40.59 134.54 44.19 140.56 45.36 142.05 49.74 144.96 53.32 142.61 59.17 146.35 62.41 148.54 66.4 149.89 70.69 149.16 75.31 151.58 79.57 150.41 84.09"/>
        <polygon class="cls-36" points="150.61 84.02 148.08 88.33 150 92.92 150.83 97.62 145.72 101 146.37 105.73 143.73 109.42 142.49 113.64 141.16 117.91 138 121.13 135.87 124.98 133.66 128.87 129.75 131.25 128.71 136.59 122.38 135.91 121.53 142.19 115.39 140.76 111.72 142.94 108.97 147.36 105.29 150.34 99.93 148 96.53 152.86 91.68 150.97 87.36 152.03 82.93 151.26 78.49 152.28 74.21 150.82 69.66 151.27 66.12 147.35 62.1 145.95 56.44 148.44 54.09 143.04 50.27 141.11 44.41 142.08 42.29 137.43 37.78 135.89 34.73 132.59 30.82 130.04 28.05 126.44 25.25 122.84 25.36 117.54 23.27 113.69 21.92 109.51 19.22 105.82 20.41 100.93 15.12 97.6 16.57 92.83 16.04 88.44 13.68 84.02 18.05 79.73 14.46 74.94 16.08 70.62 16.72 66.15 21.38 62.93 21.32 58.29 24 54.71 24.07 49.77 26.39 45.95 28.28 41.78 32.9 39.77 35.52 36.22 38.18 32.59 40.66 28.54 45.91 28.14 48.31 23.62 52.52 21.9 58.04 23.36 61.29 19.73 65.72 19.23 69.61 16.52 74.25 17.49 78.55 16.64 82.93 18.43 87.28 17.14 91.8 16.13 95.77 18.94 100.53 17.84 105.05 18.4 109.44 19.57 111.57 25.41 116.37 25.63 119.44 28.9 124.22 29.8 127.15 33.19 131.68 34.92 135.25 37.82 136.97 42.24 138.99 46.27 139.04 51.33 144.04 53.66 143.47 58.73 147.51 61.93 146.14 66.93 148.83 70.81 151.21 74.97 150.31 79.57 150.61 84.02"/>
        <polygon class="cls-37" points="148.26 83.95 149.51 88.54 147.76 92.95 146.61 97.32 145.32 101.61 147.62 107.13 145.42 111.32 142.79 115.24 140.05 119 138.7 123.65 136.76 128.1 131.92 130.13 127.92 132.6 126.14 137.53 120.49 137.73 118.39 142.8 113.38 143.34 109.8 146.42 104.82 146.26 101.31 150.25 96.87 151.83 92.08 151.46 87.42 151 82.87 153.71 78.4 149.82 74.01 148.96 69.48 148.92 64.94 148.47 60.56 147.26 55.19 148.12 50.99 145.9 48.64 140.73 43.9 139.59 41.96 134.7 36.7 133.78 34.27 129.72 31.57 126.04 27.76 123.16 26.89 118.29 24.29 114.56 20.38 111.3 20.03 106.46 17.2 102.49 18.64 97.41 17.92 92.96 14.27 88.67 14.9 83.95 15.4 79.3 17.28 74.85 18.03 70.36 16.84 65.31 21 61.76 19.9 56.39 24.57 53.47 24.21 48.01 28.53 45.27 31.57 41.85 32.91 36.94 35.73 33.1 39.02 29.66 42.87 26.88 48.78 27.38 50.8 21.62 56.66 23.06 61.08 22.06 64.32 17.23 69.66 19.81 74.03 19.05 78.27 16.2 82.87 13.67 87.63 13.9 91.7 19.16 96.44 18.11 101.46 17.14 105.83 18.88 109.97 21.08 114.95 21.62 118.81 24.43 120.97 29.51 124.45 32.39 127.25 36 133.44 36.39 134.35 41.72 138.56 44.34 140.34 48.72 140.45 53.84 144.96 56.77 147.86 60.68 145.09 66.35 146.87 70.53 149.63 74.7 150.07 79.31 148.26 83.95"/>
        <polygon class="cls-38" points="149.43 83.87 149.42 88.47 147.19 92.81 147.98 97.53 146.94 101.99 146.37 106.64 143.61 110.51 140.13 113.85 137.96 117.72 139.09 123.89 134.49 126.27 131.5 129.73 130.22 134.99 125.13 136.32 120.02 137.09 118.31 142.69 114.25 145 108.89 144.45 105.49 148.19 101.45 150.87 96.55 150.5 92.22 152.82 87.56 153.84 82.81 151.76 78.21 151.64 73.55 151.79 69.34 149.24 64.88 148.41 59.84 148.99 56.47 145.03 52.3 143.25 48.46 140.85 45.55 137.15 41.68 134.89 37.26 133.04 32.26 131.42 29.04 127.93 29.21 122.04 25.84 118.8 22.26 115.48 20.84 111 21.91 105.72 17.84 102.22 17.96 97.47 19.17 92.71 15.68 88.5 16.27 83.87 16.43 79.29 18.77 74.98 17.37 70.16 18 65.57 21.4 61.85 23.24 57.76 21.5 51.87 24.45 48.11 27.99 44.86 30.31 40.83 33.32 37.29 35.83 33.2 39.15 29.82 45.37 30.34 48.62 27.15 51 22.04 56.79 23.42 59.54 17.92 64.14 16.76 69.17 17.71 73.53 15.82 78.32 17.73 82.81 16.18 87.26 18.37 91.86 17.54 96.58 17.1 101.19 17.78 105.94 18.33 109.94 20.93 114.28 22.69 118.01 25.55 121.22 29.01 126.09 30.28 130.25 32.73 133.16 36.51 136.52 39.87 138.57 44.22 139 49.41 141.61 53.15 145.53 56.43 143.51 62.1 146.83 65.79 149.72 69.87 147.33 74.92 149.18 79.29 149.43 83.87"/>
        <polygon class="cls-9" points="150.28 83.8 150.69 88.48 148.59 92.93 147.81 97.43 145.03 101.41 144.43 105.91 146.01 111.47 142.99 115.25 138.25 117.86 138.55 123.48 135.58 127.11 130.31 128.62 127.21 131.84 123.91 134.85 121.91 139.7 118.77 143.46 112.61 141.95 109.38 145.62 105.81 149.15 101.51 151.23 96.91 152.39 92.2 153.05 87.39 152.1 82.75 150.99 78.31 149.32 73.3 153.08 68.72 151.83 65.21 146.96 60.26 147.6 56.48 144.8 51.2 145.14 46.72 143.46 43.1 140.37 41.85 134.54 36.34 133.87 32.84 130.76 32.32 125.2 27.96 122.79 26.05 118.56 21.65 115.69 22.29 110.28 20.52 106.1 20.82 101.32 19.28 97.11 16.61 92.97 17.41 88.31 17.85 83.8 17 79.26 17.62 74.77 16.31 69.89 19.99 66.06 21.31 61.77 21.19 56.85 25.42 53.82 27.2 49.71 29.28 45.73 29.61 40.25 32.53 36.55 36.74 34.14 39.19 29.87 43.92 28.35 48.4 26.82 52.43 24.77 57.03 24.01 59.66 18.37 65.16 20.44 68.69 15.63 73.57 16.52 78.22 17.08 82.75 16.19 87.34 16.14 92.24 14.31 96.02 19.39 100.41 20.23 105.14 20.29 110.18 20.21 113.93 23.16 118.67 24.31 121.4 28.6 124.15 32.47 130.05 32.8 130.35 38.95 136.45 39.81 138.38 44.24 140.41 48.47 141.79 52.96 142.08 57.8 143.76 61.92 146.78 65.71 148.3 70.07 146.94 74.89 150.73 79.12 150.28 83.8"/>
        <polygon class="cls-8" points="150.79 83.73 149.67 88.35 150.03 93.05 147.46 97.3 148.26 102.24 147.14 106.8 143.88 110.52 139.98 113.69 139.91 118.8 135.92 121.63 136.29 127.64 132.17 130.3 128.31 132.97 124.1 135.08 122.04 139.9 117.88 142.05 113.81 144.25 109.54 146.02 105.67 148.87 101.28 150.55 96.22 149.37 91.96 151.71 87.18 149.84 82.69 152.69 78.15 150.66 73.78 149.12 68.69 151.57 65.23 146.59 60.24 147.4 56.68 144.15 50.88 145.55 47.5 142.04 44.94 137.68 41.67 134.6 36.7 133.35 34.55 129.07 32.63 124.83 27.8 122.78 25.54 118.76 24.83 113.97 20.04 111.14 21.39 105.71 19.74 101.52 16.27 97.63 17.42 92.78 18.22 88.18 13.73 83.73 15.32 79.08 15.29 74.39 18.77 70.32 20.5 66.14 18.09 60.6 20.06 56.32 21.86 51.97 27.39 49.79 29.52 45.86 32.47 42.5 33.96 37.84 37.45 34.88 39.1 29.77 45.19 30.11 48.02 26.24 51.9 23.82 56.16 22.15 59.57 18.2 65.11 20.41 69.33 18.9 73.5 16.34 78.1 16.09 82.69 18.4 87.24 16.76 91.87 16.45 96.15 18.43 101.32 16.75 105.12 20.11 109.2 22.18 112.91 24.89 116.23 28.05 122.31 27.2 124.34 32.09 128.25 34.55 133.05 36.36 132.73 42.65 139.06 43.65 141.82 47.51 141.59 52.96 145.21 56.37 147.44 60.55 147.23 65.5 147.81 70.08 151.05 74.26 148.39 79.19 150.79 83.73"/>
        <polygon class="cls-6" points="146.67 83.65 149.01 88.23 149.32 92.89 146.92 97.13 148.99 102.38 146.75 106.61 144.17 110.6 142.8 115.07 140.27 118.98 135.46 121.29 136.21 127.55 130.29 128.56 129.73 134.45 123.94 134.88 120.89 138.31 117.03 140.71 113.48 143.67 109.6 146.23 105.53 148.58 100.1 146.57 96.56 151.17 92.04 152.62 87.35 153.12 82.63 148.76 78.19 149.05 73.78 148.59 68.71 151.14 64.69 148.21 59.5 149.21 55.94 145.59 51.74 143.74 46.84 142.92 42.99 140.21 40 136.46 37.84 132.03 34.77 128.74 32.09 125.14 26.75 123.38 25.85 118.46 24.22 114.17 20.39 110.89 20.23 106.02 19.65 101.46 17.82 97.23 14.75 93.05 14.31 88.36 14.98 83.65 14.77 78.98 16.27 74.46 15.67 69.64 17.83 65.35 20.37 61.34 20.1 56.29 23.71 52.87 25.42 48.58 27.89 44.7 29.52 40.13 33.42 37.33 37.14 34.54 39.66 30.44 44.25 28.83 48.27 26.67 51.41 22.94 56.96 24 60.45 20.71 65.06 20.37 69.04 17.73 73.62 17.6 78.1 16.9 82.63 16.47 87.33 14.48 91.79 16.52 96.01 18.72 101.27 16.66 105.05 20.05 110.19 19.75 113.97 22.71 118.62 24.06 121.16 28.63 123.75 32.65 126.53 36.21 130.59 38.48 133.98 41.53 138.2 44.14 140.98 47.91 143.65 51.81 143.37 57.05 146.23 60.87 147.26 65.4 149.78 69.6 149.43 74.4 148.1 79.13 146.67 83.65"/>
        <polygon class="cls-7" points="151.44 83.58 148.6 88.14 148.53 92.72 149.83 97.66 146.31 101.59 144.04 105.62 145.78 111.23 143.41 115.34 141.19 119.49 137.07 122.36 135.56 127.01 132.09 130.19 127.86 132.48 124.04 134.99 119.98 137.06 116.8 140.36 112.91 142.65 109.12 145.22 104.41 145.57 101.13 150.29 96.55 151.33 91.96 152.42 87.05 149.61 82.57 152.1 77.9 152.36 73.59 149.42 69.11 148.86 65.11 146.45 60.14 147.2 56.32 144.53 51.07 144.8 47.74 141.32 44.5 137.97 39.69 136.68 38.36 131.35 34.83 128.56 32.76 124.48 28.25 122.23 25.7 118.44 23.53 114.42 23.62 109.42 19.17 106.29 16.73 102.16 19.66 96.78 15.7 92.84 14.18 88.29 14.85 83.58 15.09 78.93 16.63 74.44 18.73 70.19 19.34 65.71 21.42 61.65 19.87 56.14 25.03 53.49 24.74 48.14 30.15 46.23 30.08 40.54 32.77 36.73 37.25 34.65 38.9 29.53 42.65 26.62 47.19 24.96 52.77 25.54 56.6 23.25 59.84 19.12 65.14 20.82 69.09 18.18 73.77 19 78.11 17.84 82.57 18.12 87.05 17.57 91.64 17.05 96.4 16.52 100.3 19.76 105.22 19.37 108.49 23.37 113.9 22.67 117.74 25.3 120.66 29.15 123.96 32.26 127.01 35.57 132.61 36.5 133.96 41.42 139.03 43.45 140.66 47.99 139.72 53.7 145.15 56.2 147.08 60.48 144.38 66.1 148.41 69.79 150.19 74.22 148.9 79 151.44 83.58"/>
        <polygon class="cls-5" points="150.05 83.51 147.91 88.02 148.64 92.67 148.4 97.3 144.18 100.95 147.15 106.65 142.52 109.8 143.1 115.14 137.35 117.17 137.09 122.34 132.84 124.82 131.38 129.51 126.96 131.53 125.18 136.36 121.02 138.51 117.81 141.99 114.32 145.33 110.1 147.48 104.99 147.27 101.1 150.33 96.57 151.67 91.96 152.77 87.21 152.68 82.51 150.55 77.85 152.05 73.24 151.48 69.41 147.08 63.82 150.68 60.04 147.23 56.37 144.19 52.16 142.58 47.21 141.98 43.39 139.34 40.67 135.36 37.54 132.06 33.53 129.61 29.27 127.13 29.99 120.91 27.29 117.39 21.78 115.2 20.32 110.72 20.11 105.87 19.86 101.21 15.16 97.6 16.46 92.66 14.86 88.17 18.48 83.51 17.83 79.04 18.88 74.67 19.92 70.37 19.16 65.6 20.78 61.38 19.56 55.97 21.3 51.56 24.47 47.94 28.65 45.17 29.55 40.1 33.48 37.35 38.54 35.99 39.54 30.29 43.48 27.79 48.71 27.42 51.71 23.59 55.96 21.87 60.57 21.24 64.74 19.57 68.72 16.67 73.53 17.61 78.05 17.72 82.51 16.81 87.07 16.27 91.52 17.42 96.05 17.83 100.65 18.23 104.69 20.57 108.13 23.96 112.39 25.31 116.51 27.11 121.59 27.73 126.17 29.47 128.77 33.6 132.04 36.89 136.07 39.62 135.03 46.09 138.09 49.41 143.57 51.64 145.33 56.02 143.54 61.62 148.22 64.96 145.07 70.38 150.07 74.15 148.13 78.98 150.05 83.51"/>
        <polygon class="cls-4" points="148.04 83.43 150.45 88.12 149.41 92.71 149.21 97.41 145.47 101.24 146.09 106.22 141.4 109.27 141.12 114.09 137.61 117.28 136.32 121.78 134.61 126.2 132.63 130.63 128.66 133.29 123.4 134.23 120.19 137.37 118.34 142.86 114.29 145.32 108.12 143.08 105.41 148.5 100.76 149.29 95.93 148.87 91.57 150.29 87.17 152.99 82.45 148.77 77.86 151.05 73.19 151.26 69.34 147.06 64.75 147.12 60.18 146.59 55.1 146.84 51.01 144.54 48.88 139.15 43.5 139.04 40.35 135.59 35.79 133.75 33.28 129.71 31.27 125.42 28.88 121.57 27.19 117.33 23.18 114.39 20.23 110.66 18.08 106.47 17.33 101.82 19.06 96.73 17.37 92.46 16.13 88.01 14.27 83.43 16.68 78.89 14.76 74.06 18 69.92 17.15 65 21.26 61.49 22.12 57 22.22 51.99 26.09 48.87 28.17 44.81 31.6 41.7 35.16 38.86 36.44 33.79 40.27 31.17 43.5 27.83 47.41 25.37 51.3 22.86 55.34 20.55 59.92 19.54 64.13 17.56 68.51 15.86 73.36 16.78 77.93 16.9 82.45 16.72 86.99 16.45 91.35 18.16 96.27 16.41 101.05 16.57 105.29 18.69 109.12 21.55 112.01 25.84 117.89 24.72 120.82 28.62 124.04 31.87 127.01 35.3 132.9 35.98 133.61 41.46 137.52 44.26 139.09 48.71 143.54 51.55 141.33 57.62 144.3 61.26 147.3 65.12 147.47 69.81 147.92 74.36 147.77 78.92 148.04 83.43"/>
        <polygon class="cls-4" points="147.52 83.36 148.75 87.94 147.11 92.33 146.2 96.74 145.42 101.17 143.8 105.37 141.14 109.11 142.99 114.99 138.72 117.9 137.38 122.48 132.61 124.59 131.19 129.3 126.38 130.9 125.22 136.41 121.34 138.97 117.86 142.12 112.5 141.99 109.27 145.74 104.1 144.99 99.88 146.36 96.25 150.56 91.36 149.16 87.07 152.28 82.39 150.24 77.72 152.03 73.09 151.52 69.16 147.55 64.99 146 60.75 144.8 56.03 144.54 52.39 141.76 46.71 142.44 44.72 137.19 39.54 136.41 35.69 133.72 33.4 129.47 30.42 125.96 29.08 121.31 26.16 117.84 21.75 115.01 20.48 110.45 19.93 105.74 16.44 101.97 16.19 97.22 14.64 92.74 16.9 87.88 17 83.36 15.45 78.74 18.79 74.53 15.92 69.44 18.87 65.41 20.82 61.29 23.7 57.63 24.83 53.27 24.15 47.68 29.6 45.76 29.81 40.26 33.21 37.07 37.09 34.46 40.22 31.1 43.17 27.39 47.2 25.05 52.37 24.91 56.14 22.41 59.43 18.3 63.92 16.96 68.44 15.73 73.12 15.46 77.84 16.34 82.39 15.31 87.09 14.04 91.58 16 95.72 18.64 100.47 18.31 105.46 17.98 107.98 23.88 113.33 23.18 116.1 27.42 121.04 28.17 124.46 31.23 129.41 32.66 130.88 37.7 133.84 41.16 134.68 46.11 140.11 47.99 140.26 53.11 144.97 55.98 142.74 61.71 146.11 65.36 146.92 69.84 149.73 74.03 146.75 78.91 147.52 83.36"/>
        <polygon class="cls-41" points="149 83.28 150.45 87.98 150.23 92.68 145.75 96.58 145.38 101.11 143.15 105.1 142.44 109.62 143.3 115.11 140.89 119.15 136.03 121.51 134.38 125.97 132.04 130.06 126.75 131.27 124.35 135.36 119.72 136.74 118.09 142.51 114.04 144.92 108.24 143.47 104.3 145.64 100.94 150.18 95.86 148.94 91.49 150.48 87.02 152.43 82.33 148.82 77.8 149.92 72.94 152.03 69.12 147.4 64.57 147.2 60.81 144.37 55.89 144.64 52.71 140.97 46.76 142.19 42.65 139.89 40.16 135.52 36.66 132.57 34.92 127.95 32.32 124.34 29.95 120.59 25.39 118.18 23.79 113.87 19.94 110.58 21.34 105.15 20.78 100.69 19.54 96.46 16.79 92.37 15.57 87.89 14.88 83.28 14.44 78.61 14.97 73.96 17.59 69.72 16.31 64.66 20.86 61.25 20.07 56.04 24.47 53.05 25.85 48.66 29.37 45.57 32.14 42.09 33.27 37.11 38.66 36.09 39.05 29.71 44.67 29.47 48.63 27.36 52.55 25.29 56.43 23.14 60.02 20.01 64.9 20.51 69.02 18.71 73.26 16.81 77.91 18.22 82.33 15.06 86.79 17.54 91.68 14.72 95.71 18.32 100.66 17.38 104.71 19.8 108.47 22.59 113.06 23.49 118.14 23.99 121.04 28.01 125.31 30.07 126.85 35.2 132.25 36.32 132.14 42.39 136.13 44.99 139.57 48.21 143.36 51.44 141.45 57.38 145.09 60.8 145.97 65.3 147.87 69.56 150.21 73.89 146.03 78.88 149 83.28"/>
        <polygon class="cls-41" points="150.39 83.21 148.99 87.81 146.3 92.1 145.4 96.45 147.16 101.53 142.42 104.79 144.04 110.25 142.88 114.85 137.51 117.1 138.16 122.95 132.03 124.07 129.19 127.44 127.7 132.25 123.65 134.52 120.85 138.31 117.53 141.64 111.94 141.01 108.04 143.09 105.28 148.43 100.59 149.1 95.76 148.66 91.19 148.68 86.77 149.64 82.27 151.88 77.74 149.94 73.24 149.42 68.57 149.62 63.92 149.16 60.36 145.38 56.13 143.89 50.91 144.16 48.64 139.01 43.79 138.16 39.43 136.25 38.6 130.4 35.1 127.66 32.6 123.98 30.11 120.37 26.34 117.51 21.45 114.94 23.21 109.09 19.51 105.69 19.79 100.87 17.48 96.78 17.59 92.18 18.52 87.62 15.4 83.21 17.83 78.76 18.36 74.34 15.92 69.32 19.14 65.37 18.44 60.36 20.56 56.2 22.7 52.1 26.41 48.95 28.84 45.18 29.08 39.63 32.09 36.02 38.27 35.67 39.7 30.49 44.27 28.92 46.87 24.57 51.51 23.38 56.01 22.25 60.5 21.42 64.52 19.36 68.62 17.02 73.19 16.64 77.58 14.21 82.27 13.74 86.67 18.31 91.54 15.23 95.71 18 99.96 19.54 104.17 21.04 109.47 20.13 113.97 21.6 116.63 26.24 119.38 30.15 125.35 29.88 126.53 35.4 132.16 36.28 132.13 42.28 137.84 43.69 138.81 48.54 140.99 52.54 142.82 56.69 145.85 60.44 148.15 64.62 145.31 69.99 148.39 74.05 146.14 78.8 150.39 83.21"/>
        <polygon class="cls-32" points="147.06 83.14 149.47 87.77 148.84 92.37 146.68 96.65 143.66 100.52 142.44 104.75 140.95 108.89 141.84 114.28 138.38 117.59 137.08 122.17 134.6 126.09 132.27 130.23 127.23 131.75 124.26 135.25 119.83 136.9 117.65 141.84 112.78 142.62 108.72 144.67 104.33 145.9 99.89 146.8 95.49 147.63 91.06 148.09 86.85 151.57 82.21 149.61 77.64 150.39 72.83 151.86 68.88 147.81 63.61 149.96 60.67 144.29 55.37 145.4 50.73 144.31 48.2 139.54 44.16 137.49 38.99 136.63 37.15 131.78 32.23 130.14 30.4 125.62 28.64 121.27 27.52 116.69 24.96 113.06 21.46 109.74 18.13 106.08 19.33 100.91 19.07 96.38 18.22 92.01 18.52 87.54 17.38 83.14 17.92 78.7 14.76 73.8 15.54 69.18 20.64 65.72 18.17 60.21 22.32 56.9 24.76 53.11 23.79 47.36 29.46 45.57 31.55 41.57 34.48 38.18 36.86 34.19 39.32 30.03 44.69 29.52 46.45 23.93 51.73 23.84 56.67 23.81 60.1 20.42 63.7 16.6 68.34 15.92 72.85 14.56 77.57 14.94 82.21 14.83 86.75 16.19 91.49 15.08 95.32 19.48 100.74 16.54 104.94 18.7 107.8 23.68 112.07 25 116.41 26.42 120.9 27.9 124.21 31.1 125.85 35.97 130.63 37.55 133.83 40.81 136.78 44.32 138.34 48.72 138.95 53.47 140.67 57.51 144.37 60.86 144.56 65.51 148.6 69.24 147.46 74.09 149.08 78.53 147.06 83.14"/>
        <polygon class="cls-34" points="149.51 83.06 148.26 87.62 148.74 92.29 147.55 96.76 143.47 100.41 142.44 104.69 143.24 109.81 141.6 114.11 137.33 116.92 136.23 121.55 132.97 124.76 129.05 127.28 127.19 131.7 124.23 135.21 120.44 137.75 115.35 138.19 112.09 141.37 108.82 144.97 103.62 144.04 99.97 147.22 95.52 147.94 91.44 151.16 86.52 147.56 82.14 152.55 77.52 151.14 73.37 147.43 68.12 151.03 63.56 149.86 60.05 145.75 54.9 146.22 52.02 141.7 46.92 141.42 43.86 137.73 41.44 133.55 36.38 132.44 33.86 128.52 32.68 123.68 26.84 122.39 26.73 117.05 22.31 114.3 22.42 109.23 21.69 104.75 19.15 100.86 16.32 96.85 15.52 92.29 17.16 87.55 14 83.06 13.87 78.36 15.03 73.77 18.35 69.69 16.31 64.49 21.81 61.42 19.51 55.66 21.54 51.44 25.48 48.33 28.31 44.75 28.97 39.5 33.67 37.42 36.64 33.95 40.97 32.02 44.13 28.76 47.42 25.5 52.45 25.23 55.1 20.34 59.21 18.08 63.56 16.26 68.45 16.67 73.32 18.29 77.65 16.83 82.14 17.34 86.76 15.06 91.38 15.34 95.86 16.54 99.64 20.08 105.19 17.77 109.38 19.92 112.18 24.6 117.2 24.99 119.94 29.06 123.42 31.89 128.16 33.42 129.42 38.52 134.7 39.99 137.18 43.92 136.76 49.55 140.67 52.49 142.02 56.84 143.2 61.18 145.48 65.17 147.27 69.42 146.86 74.09 149.26 78.44 149.51 83.06"/>
        <polygon class="cls-33" points="147.37 82.99 146.72 87.45 148.52 92.19 145.91 96.37 144.03 100.51 141.97 104.47 144.34 110.23 142.14 114.34 139.32 118.06 135.52 121.03 134.4 125.87 129.53 127.69 126.32 130.78 125.32 136.51 119.23 136.1 115.99 139.23 113.03 143.16 107.97 143.11 104.83 147.47 100.34 148.63 95.78 149.41 91.36 150.98 86.6 149.49 82.08 151.69 77.38 152.19 72.83 150.8 68.31 149.77 64.15 147.52 59.86 146.02 55.71 144.2 50.99 143.44 47.1 140.96 42.5 139.46 39.92 135.22 37.38 131.26 33.46 128.76 29.15 126.36 27.77 121.63 26.41 117.13 22.99 113.85 20.14 110.1 18.2 105.86 19.11 100.79 18.53 96.31 14.39 92.36 18.14 87.41 14.17 82.99 15.58 78.4 16.85 73.95 15.18 68.99 17.08 64.64 21.96 61.42 23.16 57.17 24.28 52.78 27.79 49.67 26.89 43.74 32.41 42.21 32.08 35.96 37.86 35.21 39.92 30.75 44.98 29.94 48.77 27.7 51.88 24.19 54.73 19.58 60.52 21.77 64.59 20 68.71 18.09 72.74 14.54 77.46 14.91 82.08 16.75 86.64 15.93 91.29 15.48 96.05 15.29 99.43 20.54 104.66 18.99 109.09 20.36 111.57 25.56 117.68 24.05 120.51 28.12 124.97 29.89 127.11 34.39 128.9 38.87 132.24 41.83 137.92 43.3 138.12 48.63 142.32 51.55 143.91 55.94 141.95 61.51 146.89 64.7 146.91 69.41 146.21 74.1 150.29 78.29 147.37 82.99"/>
        <polygon class="cls-11" points="146.24 82.92 147.75 87.45 148.43 92.11 148.92 96.91 143.65 100.34 144.83 105.41 140.18 108.42 140.59 113.51 136.5 116.35 137.7 122.5 131.85 123.82 128.63 126.85 125.94 130.36 123.06 133.8 119.32 136.23 117.5 141.67 111.35 140.06 107.62 142.4 104.5 146.66 99.63 146.31 95.66 149.05 91.03 148.98 86.48 148.55 82.02 148.45 77.59 148.31 73.14 148.11 68.69 147.6 63.72 148.74 60.62 143.7 54.62 146.44 51.62 142.06 47.74 139.75 43.85 137.44 40.64 134.21 35.36 133.23 33.68 128.43 32.2 123.81 28.88 120.75 24.85 117.95 23.3 113.59 22.82 108.86 18.26 105.74 17.66 101.09 16.78 96.58 15.85 92.08 15.59 87.5 17.14 82.92 15.72 78.34 16.45 73.83 19.59 69.82 20.91 65.63 19.12 60.38 23.58 57.3 22.13 51.65 27.65 49.55 26.77 43.63 29.75 40.07 33.63 37.35 36.72 34.02 39.1 29.77 44.96 29.93 47.64 25.91 50.68 21.99 55.35 21.02 59.77 19.8 64.25 18.98 68.87 19.06 72.88 15.89 77.58 17.5 82.02 16.35 86.48 17.26 90.72 19.08 95.58 17.17 99.25 20.88 103.68 21.44 108.19 22.17 112.07 24.43 117.61 23.99 120.06 28.59 122.26 33 126.2 35.2 131.02 36.81 133.87 40.41 137.42 43.53 136.58 49.44 139.38 52.94 143.19 56.14 142.67 61.17 144.83 65.17 146.13 69.48 149.13 73.63 147.45 78.4 146.24 82.92"/>
        <polygon class="cls-10" points="146.31 82.84 145.65 87.24 148.85 92.1 145.8 96.22 145.85 100.89 144.57 105.27 141.82 109.06 139.84 113.09 139.86 118.31 134.03 119.94 133.43 125.05 129.42 127.55 128.45 132.98 123.66 134.52 119.59 136.61 115.88 139.09 112.17 141.63 108.49 144.39 103.69 144.52 99.43 145.72 95.37 147.91 91.3 151.29 86.56 150.57 81.96 148.87 77.47 148.98 72.93 149.05 68.89 146.32 64.29 146.45 59.69 146.01 54.73 145.97 51.79 141.57 46.57 141.45 44.23 136.75 40.64 134.07 35.66 132.78 33.24 128.7 32.3 123.61 29.75 120.03 25.32 117.56 23.06 113.6 20.07 109.93 22.1 104.32 17.13 101.14 18.87 96.07 19.03 91.58 14.11 87.52 17.58 82.84 15.22 78.24 16.72 73.8 15.71 68.97 19.59 65.21 17.81 59.88 23 57 24.66 52.89 26.1 48.59 28.9 45.06 29.76 40.05 32.8 36.58 37.96 35.3 41.44 32.57 44.86 29.8 48.3 27 50.68 22.03 54.93 20.16 59.03 17.86 64.06 18.42 68.45 17.29 73.13 18.07 77.47 16.68 81.96 15.57 86.58 14.86 91.07 16.08 95 19.57 99.38 20.14 103.7 21.15 109.12 19.89 112.14 24.12 117.01 24.78 120.08 28.41 124.86 29.74 127.13 34.09 130.43 37.22 131.38 42.27 137.44 43.4 139.72 47.47 138.59 53.24 142.7 56.25 142.7 61.07 147.49 64.35 148.31 68.96 147.07 73.82 147.58 78.32 146.31 82.84"/>
        <polygon class="cls-16" points="149.01 82.77 147.64 87.3 146.87 91.77 146.76 96.36 145.14 100.63 144.12 105.06 140.19 108.32 142.08 114.18 138.47 117.45 133.8 119.75 132.7 124.44 130.57 128.58 128.09 132.59 124.32 135.3 120.65 138.08 117.17 141.19 113.08 143.38 107.75 142.79 103.97 145.37 99.87 147.4 95.67 149.53 91.02 149.64 86.46 149.96 81.9 149.04 77.35 149.83 72.58 151.08 68.89 145.94 63.66 148.36 59.54 146.18 55.12 144.89 50.99 142.88 47.18 140.31 44.66 136 38.93 135.96 38.33 129.85 33.37 128.45 30.03 125.29 29.5 120.09 24.25 118.09 25.04 112.49 21.8 109.09 20.11 104.91 18.63 100.65 17.95 96.17 18.4 91.58 14.8 87.39 16.11 82.77 15.29 78.18 15.43 73.56 17.64 69.3 19.21 65.05 20.98 60.93 19.67 55.54 23.51 52.27 27.44 49.35 26.69 43.51 29.56 39.87 35.04 38.61 35.36 32.58 41.59 32.76 44.28 29.01 46.26 23.75 51.12 22.89 55.05 20.5 59.19 18.41 64.41 19.8 68.16 16.14 72.91 16.82 77.33 15.37 81.9 14.6 86.42 16.15 90.61 18.88 95.26 17.96 99.25 20.29 103.34 21.91 107.85 22.53 113.49 21.39 115.5 27.03 119.64 28.86 122.23 32.75 125.98 35.16 129.58 37.87 131.9 41.73 136.92 43.65 139.37 47.56 140.32 52.26 140.11 57.25 145.35 60.05 142.99 65.49 147.85 68.97 145.47 73.95 146.13 78.34 149.01 82.77"/>
      </g>
      <path class="cls-29" d="M67.63,72.45c-1.71-.13-3.47-.4-5.18-.38-1.23,.02-2.23,1.11-3.12,1.86-.71,.59-1.42,1.19-2.13,1.78l1.77-.73-2.19-.04-1.51-.03c-.37,0-1.32-.14-.03,.08-1.45-.25-2.93-.42-4.39-.62l1.1,.64c-1.06-1.05-2.12-2.1-3.18-3.15-2.29-2.26-5.83,1.27-3.54,3.54,.95,.94,1.91,1.88,2.86,2.83,1.14,1.13,2.51,1.12,4.02,1.33,1.23,.17,2.42,.34,3.66,.37,1.68,.03,3.63,.4,5.01-.73,1.15-.94,2.28-1.91,3.42-2.86l-1.77,.73,5.19,.38c1.35,.1,2.5-1.22,2.5-2.5,0-1.44-1.15-2.4-2.5-2.5h0Z"/>
      <path class="cls-29" d="M119.36,70.28l-2.99,.04c-1.09,.01-2.66-.2-3.64,.37-1.61,.95-3.1,2.22-4.62,3.31l1.26-.34-2.74-.21-1.88-.14c-.21-.02-.41-.04-.62-.05-.55-.03,.26-.1,.42,.07-.16-.17-.71-.26-.93-.33l-1.71-.62-2.64-.95c-1.27-.46-2.74,.52-3.08,1.75-.38,1.39,.47,2.62,1.75,3.08,1.54,.56,3.09,1.11,4.63,1.67,1.34,.48,2.84,.44,4.26,.55,.81,.06,1.63,.18,2.44,.19,.86,0,1.37-.35,2.01-.81l3.96-2.84-1.26,.34,5.36-.07c3.22-.04,3.22-5.04,0-5h0Z"/>
      <g>
        <polyline class="cls-3" points="49.11 58.47 53.27 55.78 58.17 54.35 62.89 52.24 63.45 47.82"/>
        <path class="cls-3" d="M49.74,59.55c1.24-.8,2.48-1.6,3.72-2.41,.1-.07,.22-.13,.31-.2,.14-.11,.17-.03-.02-.02-.22,0-.14,.05,0,.02s.26-.07,.38-.11l2.59-.76c1.14-.33,2.18-.69,3.26-1.17l2.57-1.15c.77-.34,1.45-.52,1.58-1.51,.19-1.47,.38-2.95,.56-4.42,.09-.67-.64-1.25-1.25-1.25-.75,0-1.16,.58-1.25,1.25-.19,1.47-.38,2.95-.56,4.42l.62-1.08c-.96,.43-1.91,.85-2.87,1.28l-1.58,.7c-.18,.08-.28,.23-.12,.06,.11-.12,.2-.06,.05-.03-.09,.02-.18,.05-.27,.08l-3.72,1.08c-.81,.24-1.39,.54-2.11,1l-3.17,2.05c-1.35,.87-.09,3.04,1.26,2.16h0Z"/>
      </g>
      <g>
        <polyline class="cls-3" points="112.55 56.88 108.58 54 104.52 51.34 100.04 49.23 98.28 45.42"/>
        <path class="cls-3" d="M113.18,55.8c-1.42-1.03-2.82-2.13-4.29-3.09-1.62-1.06-3.18-2.19-4.94-3.02-1.09-.52-2.18-1.03-3.28-1.55l.45,.45-1.77-3.8c-.28-.61-1.17-.77-1.71-.45-.63,.37-.73,1.1-.45,1.71,.57,1.22,1.07,2.49,1.7,3.67,.27,.51,.69,.67,1.18,.9l2.37,1.12c2.01,.95,3.89,2.18,5.69,3.48,1.26,.91,2.51,1.82,3.77,2.74,.55,.4,1.39,.09,1.71-.45,.37-.63,.1-1.31-.45-1.71h0Z"/>
      </g>
      <polygon class="cls-51" points="57.65 110.15 58.2 107.37 61.57 104.22 66.24 102.76 69.67 99.86 73.41 97.18 77.54 94.57 82.53 97.64 87.13 95.16 91.02 98.57 95.47 99.31 98.27 103.21 104.45 102.51 107.33 106.41 108.2 110.45 103.86 113.33 99.14 111.94 94.44 111.44 89.75 111.34 85.08 112.2 80.37 111.48 75.69 112.01 70.98 110.91 66.27 110.15 61.48 112.74 57.65 110.15"/>
      <polygon class="cls-3" points="67.2 101.34 69.34 103.68 70.36 103.11 70.66 98.76 67.2 101.34"/>
      <polygon class="cls-3" points="96.87 99.29 95.41 103.4 95.4 102.39 92.83 97.13 96.87 99.29"/>
      <g>
        <polyline class="cls-1" points="121.14 73.35 122.81 77.13 124.95 81.6 120.21 85.2 119.56 89.63 121.54 94.41 125.33 97.71 128.61 100.3 131.1 106 135.97 101.78 141.22 103.22"/>
        <polyline class="cls-1" points="121.72 73.7 125 76.87 128.75 79.34 134.4 76.29 138.46 78.27 142.7 81.38 142.61 87.4 145.1 91.21 147.34 96.36 141.61 98.89 138.55 101.01"/>
      </g>
      <g>
        <polyline class="cls-1" points="45.32 76.22 45.35 79.96 44.9 83.91 45.07 87.99 47.38 92.15 46.01 97.06 41.55 100.07 38.28 102.55 34.63 103.55 30.41 108.52 25.28 106.42"/>
        <polyline class="cls-1" points="42.98 74.55 41.56 79.28 38.19 82.25 33.41 81.15 30.13 83.6 27.67 87.23 24.42 89.86 23.62 93.88 23.03 97.99 24.49 102.01 28.72 102.97"/>
      </g>
      <polyline class="cls-28" points="41.91 81.85 43.84 85.87 44.62 90.33 40.74 93.73 40.36 98.49"/>
      <polyline class="cls-28" points="135.73 81.8 139.24 85 143.25 88.14 143.38 93.5 142.81 98.86"/>
    </g>
  </g>
</svg>