<?xml version="1.0" encoding="UTF-8"?>
<svg id="Layer_2" data-name="Layer 2" xmlns="http://www.w3.org/2000/svg" viewBox="0 0 169.89 172.99">
  <defs>
    <style>
      .cls-1 {
        fill: #68bfdd;
      }

      .cls-2 {
        fill: #e4d83f;
      }

      .cls-3 {
        fill: #fff;
      }

      .cls-4 {
        fill: #9987bc;
      }

      .cls-5 {
        fill: #9987bb;
      }

      .cls-6 {
        fill: #9886ba;
      }

      .cls-7 {
        fill: #9886bb;
      }

      .cls-8 {
        fill: #9786ba;
      }

      .cls-9 {
        fill: #9785b9;
      }

      .cls-10 {
        fill: #9c8ac1;
      }

      .cls-11 {
        fill: #9c8ac0;
      }

      .cls-12 {
        fill: #9282b4;
      }

      .cls-13 {
        fill: #9281b4;
      }

      .cls-14 {
        fill: #8779a9;
      }

      .cls-15 {
        fill: #8a7bac;
      }

      .cls-16 {
        fill: #9d8ac1;
      }

      .cls-17 {
        fill: #8d7daf;
      }

      .cls-18 {
        fill: #9080b2;
      }

      .cls-19 {
        fill: #9382b5;
      }

      .cls-20 {
        fill: #9181b3;
      }

      .cls-21 {
        fill: #9180b3;
      }

      .cls-22 {
        fill: #8c7dae;
      }

      .cls-23 {
        fill: #8c7cae;
      }

      .cls-24 {
        fill: #8e7eb0;
      }

      .cls-25 {
        fill: #8f7fb1;
      }

      .cls-26 {
        fill: #8d7eaf;
      }

      .cls-27 {
        fill: #8577a7;
      }

      .cls-28 {
        fill: #bde5ee;
      }

      .cls-29 {
        fill: #413956;
      }

      .cls-30 {
        fill: #9483b6;
      }

      .cls-31 {
        fill: #9483b7;
      }

      .cls-32 {
        fill: #9b88be;
      }

      .cls-33 {
        fill: #9b89bf;
      }

      .cls-34 {
        fill: #9b89be;
      }

      .cls-35 {
        fill: #9584b7;
      }

      .cls-36 {
        fill: #9684b8;
      }

      .cls-37 {
        fill: #9685b8;
      }

      .cls-38 {
        fill: #9685b9;
      }

      .cls-39 {
        fill: #8b7cad;
      }

      .cls-40 {
        fill: #897aab;
      }

      .cls-41 {
        fill: #9a88bd;
      }

      .cls-42 {
        fill: #887aaa;
      }

      .cls-43 {
        fill: #887aab;
      }

      .cls-44 {
        fill: #8879aa;
      }

      .cls-45 {
        fill: #897bab;
      }

      .cls-46 {
        fill: #8678a9;
      }

      .cls-47 {
        fill: #8678a8;
      }

      .cls-48 {
        fill: #8477a6;
      }

      .cls-49 {
        fill: #8477a7;
      }

      .cls-50 {
        fill: #8476a6;
      }

      .cls-51 {
        fill: #4e4563;
      }
    </style>
  </defs>
  <g id="Layer_3" data-name="Layer 3">
    <g>
      <polygon class="cls-2" points="77.91 9.23 77.29 10.89 78.45 12.46 77.83 14.32 78.99 15.91 78.43 17.94 79.54 17.16 80.41 17.98 81.09 16.99 81.97 17.81 82.27 17.14 82.91 15.49 81.77 13.89 82.43 12.05 81.29 10.44 81.88 8.41 80.75 9.19 79.84 8.38 79.14 9.37 78.17 8.57 77.91 9.23"/>
      <polygon class="cls-2" points="83.59 9.27 82.25 8.25 81.47 9.75 80.12 8.72 79.34 10.23 77.99 9.2 76.9 10.55 76.09 9.02 74.42 9.48 74.66 7.76 73.04 7.15 74.27 6.74 72.98 6.9 74.22 6.49 72.93 6.64 74.16 6.23 72.81 5.14 74.34 4.33 73.89 2.66 75.6 2.9 76.21 1.28 77.55 2.3 78.33 .8 79.68 1.83 80.47 .33 81.82 1.35 82.9 0 83.71 1.53 85.38 1.08 85.15 2.79 86.77 3.4 85.53 3.81 86.82 3.65 85.59 4.06 86.88 3.91 85.65 4.32 86.99 5.41 85.47 6.22 85.92 7.89 84.21 7.65 83.59 9.27"/>
      <polygon class="cls-2" points="94.26 11.43 93.51 12.41 93.99 13.7 93.18 14.81 93.66 16.11 92.86 17.36 93.77 17.05 94.19 17.79 94.85 17.25 95.27 17.99 95.59 17.59 96.37 16.61 95.91 15.31 96.73 14.21 96.27 12.91 97.09 11.66 96.17 11.97 95.73 11.23 95.05 11.77 94.56 11.02 94.26 11.43"/>
      <polygon class="cls-2" points="97.05 12.53 96.46 11.52 95.55 12.28 94.95 11.26 94.05 12.03 93.44 11.01 92.39 11.59 92.27 10.39 91.06 10.24 91.67 9.19 90.78 8.37 91.69 8.43 90.81 8.2 91.72 8.26 90.85 8.01 91.75 8.07 91.17 7.01 92.37 6.89 92.52 5.69 93.57 6.3 94.39 5.41 94.99 6.43 95.89 5.66 96.49 6.68 97.39 5.92 98 6.94 99.06 6.35 99.18 7.55 100.38 7.7 99.77 8.75 100.66 9.57 99.75 9.51 100.63 9.75 99.72 9.69 100.6 9.93 99.69 9.87 100.28 10.93 99.07 11.05 98.92 12.25 97.88 11.65 97.05 12.53"/>
      <polygon class="cls-2" points="108.71 12.13 107.33 13.26 107.65 15.22 106.15 16.53 106.47 18.5 104.94 20.01 106.32 19.83 106.68 21.02 107.77 20.42 108.12 21.62 108.69 21.12 110.1 20.01 109.81 18.05 111.33 16.76 111.05 14.79 112.6 13.3 111.19 13.47 110.81 12.27 109.69 12.86 109.23 11.63 108.71 12.13"/>
      <polygon class="cls-2" points="112.98 14.76 112.45 13.17 110.96 13.95 110.42 12.36 108.93 13.14 108.39 11.55 106.74 12.04 106.92 10.33 105.3 9.76 106.45 8.48 105.47 7.06 106.71 7.41 105.57 6.82 106.8 7.17 105.66 6.58 106.9 6.92 106.41 5.28 108.12 5.46 108.7 3.84 109.98 4.98 111.39 4.01 111.93 5.59 113.41 4.81 113.95 6.4 115.44 5.62 115.99 7.21 117.63 6.72 117.45 8.43 119.07 9.01 117.93 10.29 118.9 11.7 117.67 11.35 118.81 11.94 117.57 11.59 118.71 12.19 117.47 11.84 117.96 13.49 116.25 13.31 115.68 14.93 114.4 13.78 112.98 14.76"/>
      <polygon class="cls-2" points="123.23 19.97 121.92 20.81 121.86 22.49 120.47 23.43 120.4 25.11 118.97 26.17 119.94 26.1 120.07 26.99 120.83 26.51 120.95 27.4 121.29 26.99 122.62 26.15 122.7 24.47 124.11 23.54 124.19 21.86 125.64 20.82 124.65 20.88 124.51 19.98 123.73 20.46 123.52 19.53 123.23 19.97"/>
      <polygon class="cls-2" points="124.45 22.76 124.29 21.8 123.41 22.2 123.25 21.25 122.36 21.65 122.2 20.69 121.12 20.84 121.3 19.77 120.35 19.26 121.12 18.51 120.68 17.52 121.35 17.9 120.68 17.52 121.35 17.9 120.68 17.52 121.35 17.9 121.25 16.82 122.32 17.02 122.87 16.08 123.63 16.86 124.62 16.4 124.78 17.35 125.66 16.95 125.83 17.91 126.71 17.51 126.88 18.46 127.95 18.32 127.78 19.39 128.73 19.9 127.95 20.65 128.39 21.63 127.73 21.26 128.39 21.63 127.73 21.26 128.39 21.63 127.73 21.26 127.83 22.34 126.76 22.14 126.2 23.08 125.44 22.3 124.45 22.76"/>
      <polygon class="cls-2" points="135.89 27.78 134.24 28.46 133.94 30.41 132.14 31.22 131.83 33.18 129.94 34.17 131.3 34.42 131.29 35.64 132.5 35.42 132.5 36.65 133.18 36.37 134.85 35.71 135.18 33.77 137 32.98 137.33 31.03 139.24 30.07 137.86 29.8 137.84 28.56 136.62 28.76 136.54 27.48 135.89 27.78"/>
      <polygon class="cls-2" points="138.12 31.6 138.14 29.99 136.53 30.12 136.55 28.5 134.93 28.63 134.94 27.01 133.3 26.82 134.01 25.32 132.79 24.19 134.24 23.39 133.91 21.77 134.87 22.49 134.09 21.58 135.05 22.3 134.27 21.39 135.23 22.1 135.43 20.45 136.93 21.16 138.05 19.94 138.85 21.39 140.48 21.07 140.46 22.68 142.07 22.55 142.06 24.16 143.67 24.04 143.66 25.66 145.3 25.85 144.6 27.35 145.81 28.47 144.36 29.28 144.69 30.9 143.73 30.18 144.51 31.09 143.56 30.37 144.33 31.28 143.37 30.57 143.17 32.21 141.67 31.51 140.55 32.72 139.75 31.28 138.12 31.6"/>
      <polygon class="cls-2" points="147.39 36.5 145.26 37.06 144.46 39.35 142.12 40.04 141.32 42.34 138.84 43.21 140.41 43.8 140.2 45.26 141.69 45.27 141.48 46.74 142.37 46.58 144.51 46.06 145.35 43.77 147.7 43.13 148.55 40.84 151.04 40 149.45 39.39 149.63 37.9 148.12 37.87 148.25 36.31 147.39 36.5"/>
      <polygon class="cls-2" points="149.9 42.09 150.12 40.09 148.11 40.07 148.32 38.06 146.3 38.03 146.51 36.02 144.49 35.59 145.55 33.81 144.17 32.27 146.07 31.45 145.85 29.39 146.96 30.4 146.09 29.18 147.2 30.19 146.34 28.96 147.45 29.97 147.88 27.94 149.66 29.01 151.2 27.62 152.02 29.52 154.08 29.31 153.86 31.31 155.87 31.33 155.66 33.34 157.68 33.37 157.47 35.38 159.49 35.81 158.43 37.59 159.81 39.13 157.91 39.95 158.13 42 157.02 40.99 157.89 42.22 156.78 41.21 157.65 42.43 156.53 41.43 156.1 43.45 154.32 42.39 152.78 43.77 151.96 41.87 149.9 42.09"/>
      <polygon class="cls-2" points="152.77 52.63 151.44 52.71 150.73 54.01 149.25 54.15 148.53 55.45 146.95 55.69 147.83 56.24 147.51 57.1 148.41 57.29 148.08 58.16 148.64 58.17 149.97 58.12 150.7 56.83 152.18 56.72 152.92 55.42 154.51 55.2 153.62 54.64 153.93 53.76 153.02 53.55 153.3 52.62 152.77 52.63"/>
      <polygon class="cls-2" points="153.43 56.13 153.9 55.02 152.71 54.85 153.18 53.74 151.99 53.56 152.46 52.45 151.23 51.86 152.12 50.83 151.44 49.66 152.75 49.31 152.88 47.96 153.37 48.77 152.88 47.96 153.37 48.77 152.88 47.96 153.37 48.77 153.91 47.55 154.91 48.43 156.08 47.78 156.35 49.09 157.68 49.26 157.21 50.37 158.4 50.54 157.93 51.65 159.12 51.83 158.66 52.94 159.88 53.53 158.99 54.56 159.67 55.73 158.36 56.08 158.23 57.43 157.74 56.62 158.23 57.43 157.74 56.62 158.23 57.43 157.74 56.62 157.21 57.84 156.2 56.96 155.03 57.61 154.76 56.3 153.43 56.13"/>
      <polygon class="cls-2" points="160.52 67.28 158.82 66.78 157.33 68.07 155.43 67.57 153.94 68.86 151.87 68.44 152.74 69.49 151.97 70.42 153.02 71.03 152.26 71.96 152.95 72.2 154.65 72.74 156.15 71.47 158.05 72 159.56 70.73 161.63 71.18 160.76 70.11 161.51 69.14 160.46 68.51 161.2 67.48 160.52 67.28"/>
      <polygon class="cls-2" points="159.94 72.17 161 70.85 159.52 70.04 160.58 68.72 159.09 67.9 160.15 66.57 158.83 65.45 160.38 64.68 159.96 63 161.67 63.28 162.32 61.67 162.7 62.92 162.58 61.62 162.95 62.87 162.83 61.57 163.22 62.81 164.34 61.49 165.11 63.04 166.79 62.63 166.51 64.34 168.12 64.99 167.06 66.3 168.54 67.12 167.48 68.44 168.96 69.26 167.91 70.59 169.23 71.71 167.68 72.48 168.09 74.16 166.39 73.88 165.74 75.48 165.36 74.24 165.48 75.54 165.1 74.29 165.22 75.59 164.84 74.34 163.72 75.67 162.95 74.12 161.27 74.53 161.55 72.82 159.94 72.17"/>
      <polygon class="cls-2" points="159.87 88.79 159.01 88.33 158.05 88.83 157.08 88.34 156.11 88.84 155.04 88.37 155.36 89.04 154.85 89.45 155.33 89.91 154.82 90.32 155.15 90.55 156.01 91.03 156.98 90.54 157.94 91.05 158.92 90.57 159.99 91.05 159.66 90.37 160.17 89.94 159.69 89.47 160.2 89 159.87 88.79"/>
      <polygon class="cls-2" points="158.95 91.38 159.69 90.8 158.99 90.18 159.72 89.59 159.02 88.96 159.76 88.37 159.18 87.6 160.11 87.37 160.1 86.41 160.99 86.77 161.54 85.98 161.59 86.71 161.68 85.99 161.73 86.71 161.83 85.99 161.88 86.71 162.65 86.14 162.88 87.07 163.84 87.05 163.48 87.95 164.27 88.5 163.53 89.08 164.24 89.71 163.5 90.29 164.2 90.92 163.47 91.51 164.05 92.28 163.11 92.51 163.13 93.47 162.24 93.11 161.68 93.9 161.63 93.18 161.54 93.89 161.49 93.17 161.4 93.89 161.34 93.17 160.57 93.75 160.34 92.81 159.38 92.83 159.74 91.94 158.95 91.38"/>
      <polygon class="cls-2" points="162.01 103.23 160.68 102.05 158.79 102.65 157.27 101.38 155.37 101.98 153.65 100.72 154.03 102.05 152.93 102.58 153.66 103.56 152.56 104.1 153.11 104.6 154.43 105.8 156.33 105.24 157.83 106.52 159.73 105.96 161.44 107.25 161.07 105.89 162.18 105.33 161.45 104.32 162.57 103.68 162.01 103.23"/>
      <polygon class="cls-2" points="159.49 107.44 161 106.68 159.98 105.32 161.49 104.55 160.47 103.19 161.98 102.42 161.23 100.86 162.96 100.79 163.27 99.09 164.72 100.04 165.97 98.84 165.8 100.13 166.22 98.9 166.05 100.19 166.48 98.96 166.32 100.25 167.88 99.5 167.95 101.23 169.65 101.55 168.7 102.99 169.89 104.24 168.39 105.01 169.4 106.36 167.9 107.13 168.91 108.49 167.41 109.26 168.15 110.83 166.43 110.9 166.11 112.6 164.67 111.65 163.42 112.84 163.58 111.55 163.17 112.78 163.33 111.49 162.91 112.72 163.07 111.43 161.51 112.18 161.44 110.45 159.74 110.14 160.69 108.69 159.49 107.44"/>
      <polygon class="cls-2" points="153.91 119.02 153.21 118.11 151.92 118.28 151.1 117.28 149.81 117.46 148.86 116.43 148.96 117.34 148.17 117.55 148.54 118.27 147.76 118.48 148.07 118.85 148.76 119.79 150.04 119.63 150.85 120.65 152.14 120.49 153.08 121.53 152.99 120.61 153.78 120.38 153.42 119.65 154.23 119.37 153.91 119.02"/>
      <polygon class="cls-2" points="151.82 121.42 152.86 121.1 152.38 120.13 153.42 119.8 152.94 118.82 153.98 118.5 153.69 117.42 154.8 117.56 155.2 116.52 156.01 117.29 156.95 116.68 156.7 117.47 157.1 116.75 156.85 117.54 157.26 116.82 157.01 117.61 158.09 117.33 157.94 118.43 158.98 118.83 158.22 119.64 158.83 120.58 157.79 120.9 158.27 121.88 157.23 122.2 157.71 123.18 156.67 123.51 156.95 124.59 155.85 124.44 155.44 125.48 154.63 124.72 153.7 125.32 153.95 124.53 153.55 125.26 153.8 124.46 153.39 125.19 153.63 124.39 152.55 124.68 152.7 123.57 151.66 123.17 152.42 122.36 151.82 121.42"/>
      <polygon class="cls-2" points="147.67 134.55 147.05 132.88 145.12 132.49 144.38 130.66 142.45 130.26 141.53 128.34 141.22 129.68 140.01 129.63 140.17 130.83 138.95 130.78 139.19 131.48 139.78 133.16 141.71 133.59 142.42 135.43 144.35 135.86 145.24 137.8 145.56 136.44 146.8 136.47 146.65 135.24 147.93 135.21 147.67 134.55"/>
      <polygon class="cls-2" points="143.47 137.07 145.08 137.06 144.91 135.45 146.53 135.43 146.36 133.81 147.99 133.79 148.14 132.14 149.66 132.82 150.75 131.57 151.59 133 153.21 132.64 152.51 133.62 153.4 132.81 152.7 133.79 153.59 132.98 152.9 133.97 154.56 134.12 153.88 135.64 155.12 136.73 153.69 137.57 154.05 139.19 152.44 139.2 152.61 140.81 150.99 140.83 151.16 142.44 149.54 142.47 149.38 144.12 147.87 143.44 146.77 144.69 145.94 143.25 144.32 143.62 145.02 142.64 144.13 143.45 144.83 142.47 143.93 143.28 144.62 142.29 142.97 142.14 143.65 140.62 142.4 139.52 143.84 138.69 143.47 137.07"/>
      <polygon class="cls-2" points="133.32 146.74 133.2 145.41 131.87 144.76 131.69 143.29 130.35 142.63 130.06 141.05 129.63 141.98 128.75 141.75 128.71 142.66 127.82 142.44 127.92 143 128.01 144.33 129.34 145.01 129.49 146.49 130.82 147.17 131.09 148.75 131.54 147.81 132.44 148.03 132.49 147.1 133.44 147.28 133.32 146.74"/>
      <polygon class="cls-2" points="130.17 147.8 131.25 148.06 131.29 146.95 132.37 147.21 132.41 146.09 133.5 146.35 133.92 145.17 134.96 145.87 136.03 145.2 136.41 146.4 137.67 146.51 136.95 146.99 137.67 146.51 136.95 146.99 137.67 146.51 136.95 146.99 138.13 147.5 137.41 148.57 138.11 149.66 136.92 150.16 136.88 151.44 135.8 151.18 135.76 152.29 134.67 152.03 134.63 153.15 133.55 152.89 133.13 154.08 132.08 153.37 131.02 154.04 130.63 152.84 129.38 152.73 130.1 152.26 129.38 152.73 130.1 152.26 129.38 152.73 130.1 152.26 128.92 151.74 129.64 150.67 128.94 149.59 130.12 149.09 130.17 147.8"/>
      <polygon class="cls-2" points="120.1 157.4 120.37 155.64 118.86 154.38 119.09 152.41 117.58 151.14 117.7 149.01 116.79 150.04 115.75 149.4 115.31 150.55 114.27 149.91 114.15 150.64 113.85 152.4 115.34 153.7 115.07 155.66 116.57 156.96 116.41 159.09 117.35 158.05 118.42 158.67 118.88 157.52 120.02 158.12 120.1 157.4"/>
      <polygon class="cls-2" points="115.2 157.56 116.65 158.4 117.24 156.83 118.7 157.67 119.3 156.09 120.76 156.93 121.68 155.47 122.67 156.88 124.27 156.23 124.25 157.95 125.92 158.37 124.76 158.92 126.01 158.61 124.84 159.16 126.1 158.86 124.93 159.42 126.39 160.33 124.99 161.33 125.63 162.92 123.91 162.91 123.5 164.58 122.04 163.74 121.45 165.31 119.99 164.47 119.39 166.05 117.93 165.21 117.02 166.67 116.02 165.26 114.43 165.9 114.44 164.18 112.77 163.77 113.93 163.22 112.68 163.53 113.85 162.97 112.6 163.28 113.76 162.72 112.3 161.81 113.7 160.81 113.06 159.22 114.78 159.23 115.2 157.56"/>
      <polygon class="cls-2" points="100.7 164.3 101.22 162.61 99.93 161.12 100.45 159.22 99.16 157.72 99.6 155.65 98.54 156.51 97.61 155.74 97 156.79 96.07 156.02 95.83 156.71 95.29 158.41 96.54 159.92 96 161.81 97.26 163.32 96.79 165.4 97.88 164.53 98.84 165.29 99.47 164.24 100.5 164.99 100.7 164.3"/>
      <polygon class="cls-2" points="95.82 163.7 97.13 164.77 97.95 163.29 99.27 164.36 100.1 162.88 101.42 163.94 102.54 162.63 103.31 164.18 104.99 163.78 104.7 165.48 106.3 166.15 105.05 166.52 106.35 166.4 105.1 166.77 106.4 166.66 105.15 167.03 106.47 168.16 104.92 168.92 105.32 170.61 103.61 170.32 102.95 171.92 101.64 170.85 100.82 172.33 99.5 171.26 98.67 172.74 97.35 171.68 96.23 172.99 95.46 171.44 93.78 171.84 94.07 170.14 92.47 169.47 93.72 169.1 92.42 169.22 93.67 168.85 92.37 168.96 93.62 168.59 92.3 167.46 93.85 166.7 93.45 165.01 95.16 165.3 95.82 163.7"/>
      <polygon class="cls-2" points="83.51 162.41 83.97 161.43 83.37 160.39 83.85 159.29 83.25 158.24 83.7 157.03 82.99 157.43 82.5 156.89 82.02 157.43 81.53 156.9 81.3 157.28 80.82 158.25 81.4 159.3 80.9 160.4 81.48 161.45 81.02 162.66 81.75 162.27 82.26 162.8 82.75 162.26 83.3 162.79 83.51 162.41"/>
      <polygon class="cls-2" points="80.58 161.54 81.27 162.32 81.92 161.51 82.62 162.29 83.27 161.48 83.97 162.26 84.79 161.58 85.09 162.6 86.16 162.53 85.81 163.54 86.71 164.11 85.91 164.2 86.71 164.26 85.92 164.36 86.72 164.43 85.92 164.53 86.6 165.35 85.58 165.65 85.65 166.72 84.64 166.37 84.08 167.27 83.39 166.49 82.73 167.3 82.04 166.52 81.39 167.33 80.69 166.55 79.87 167.23 79.57 166.21 78.5 166.28 78.85 165.27 77.95 164.7 78.74 164.61 77.94 164.55 78.74 164.45 77.94 164.38 78.74 164.28 78.05 163.46 79.08 163.15 79.01 162.09 80.02 162.44 80.58 161.54"/>
      <polygon class="cls-2" points="63.52 163.14 64.91 162.02 64.6 160.06 66.1 158.75 65.79 156.79 67.33 155.28 65.94 155.46 65.6 154.27 64.5 154.86 64.15 153.66 63.58 154.15 62.17 155.26 62.45 157.22 60.92 158.5 61.2 160.47 59.64 161.96 61.05 161.79 61.43 163 62.55 162.41 63 163.64 63.52 163.14"/>
      <polygon class="cls-2" points="59.76 160.01 60.29 161.6 61.77 160.82 62.31 162.42 63.8 161.64 64.34 163.23 65.99 162.76 65.8 164.46 67.42 165.04 66.27 166.32 67.23 167.74 66 167.38 67.14 167.98 65.91 167.62 67.04 168.22 65.8 167.87 66.28 169.52 64.58 169.33 63.99 170.95 62.72 169.8 61.3 170.77 60.77 169.18 59.28 169.95 58.75 168.36 57.26 169.14 56.72 167.54 55.07 168.02 55.26 166.31 53.64 165.73 54.79 164.46 53.82 163.04 55.06 163.4 53.92 162.8 55.15 163.16 54.02 162.55 55.25 162.91 54.77 161.26 56.48 161.45 57.06 159.83 58.34 160.98 59.76 160.01"/>
      <polygon class="cls-2" points="47.63 154.57 48.88 153.95 48.99 152.4 50.37 151.66 50.48 150.1 51.91 149.21 50.82 149.1 50.76 148.14 49.82 148.39 49.76 147.42 49.23 147.69 47.96 148.3 47.83 149.85 46.45 150.56 46.31 152.12 44.86 152.99 45.97 153.11 46.05 154.09 47.01 153.85 47.14 154.86 47.63 154.57"/>
      <polygon class="cls-2" points="45.28 151.53 45.43 152.81 46.68 152.5 46.83 153.79 48.09 153.48 48.25 154.77 49.57 154.71 49.16 155.97 50.26 156.71 49.19 157.49 49.66 158.73 48.81 158.26 49.54 158.89 48.69 158.42 49.42 159.06 48.57 158.6 48.62 159.92 47.36 159.51 46.63 160.61 45.85 159.55 44.61 160.01 44.46 158.73 43.21 159.04 43.05 157.75 41.8 158.06 41.64 156.77 40.32 156.83 40.73 155.57 39.63 154.83 40.69 154.05 40.23 152.81 41.08 153.28 40.35 152.65 41.2 153.12 40.46 152.48 41.32 152.94 41.27 151.62 42.53 152.03 43.26 150.93 44.04 151.99 45.28 151.53"/>
      <polygon class="cls-2" points="31.4 145.48 33.08 144.91 33.54 143 35.38 142.31 35.85 140.39 37.79 139.53 36.47 139.18 36.55 137.97 35.35 138.09 35.43 136.88 34.72 137.09 33.03 137.64 32.54 139.54 30.68 140.2 30.19 142.11 28.23 142.94 29.57 143.31 29.51 144.54 30.73 144.44 30.73 145.71 31.4 145.48"/>
      <polygon class="cls-2" points="29 141.2 28.97 142.81 30.58 142.69 30.56 144.31 32.17 144.2 32.15 145.81 33.79 146.02 33.07 147.51 34.28 148.65 32.82 149.44 33.13 151.06 32.18 150.34 32.96 151.25 32.01 150.53 32.77 151.44 31.82 150.72 31.61 152.36 30.12 151.65 28.98 152.85 28.19 151.4 26.56 151.71 26.59 150.1 24.99 150.21 25.01 148.6 23.4 148.71 23.42 147.1 21.78 146.89 22.5 145.4 21.29 144.26 22.74 143.47 22.44 141.84 23.39 142.57 22.61 141.66 23.56 142.38 22.79 141.47 23.75 142.18 23.96 140.54 25.45 141.26 26.59 140.06 27.38 141.51 29 141.2"/>
      <polygon class="cls-2" points="23.15 131.37 24.34 131.19 24.9 129.98 26.22 129.74 26.79 128.52 28.2 128.18 27.39 127.71 27.64 126.92 26.83 126.76 27.08 125.96 26.59 125.95 25.4 126.1 24.81 127.31 23.49 127.52 22.9 128.73 21.48 129.05 22.31 129.53 22.07 130.34 22.89 130.52 22.67 131.36 23.15 131.37"/>
      <polygon class="cls-2" points="22.42 128.13 22.02 129.16 23.12 129.29 22.72 130.33 23.82 130.45 23.42 131.49 24.57 132 23.8 132.99 24.49 134.03 23.31 134.45 23.29 135.7 22.77 134.99 23.29 135.7 22.77 134.99 23.29 135.7 22.77 134.99 22.38 136.15 21.43 135.38 20.4 136.03 20.13 134.84 18.91 134.73 19.32 133.7 18.22 133.57 18.62 132.54 17.51 132.41 17.91 131.37 16.76 130.87 17.54 129.88 16.84 128.83 18.03 128.42 18.05 127.16 18.56 127.88 18.05 127.16 18.56 127.88 18.05 127.16 18.56 127.88 18.95 126.72 19.91 127.48 20.94 126.83 21.2 128.03 22.42 128.13"/>
      <polygon class="cls-2" points="11.91 121.33 14.15 121.52 15.61 119.51 18.09 119.64 19.56 117.63 22.23 117.62 20.88 116.6 21.59 115.27 20.13 114.88 20.84 113.55 19.93 113.51 17.69 113.29 16.19 115.27 13.71 115.1 12.21 117.09 9.54 117.07 10.91 118.11 10.21 119.48 11.68 119.9 11.04 121.35 11.91 121.33"/>
      <polygon class="cls-2" points="11.26 115.51 10.4 117.32 12.32 117.9 11.46 119.71 13.39 120.29 12.53 122.11 14.34 123.08 12.76 124.39 13.67 126.24 11.61 126.39 11.26 128.42 10.5 127.08 10.97 128.54 10.21 127.21 10.69 128.67 9.92 127.34 8.95 129.16 7.63 127.57 5.78 128.48 5.64 126.43 3.61 126.07 4.48 124.26 2.55 123.68 3.41 121.87 1.49 121.29 2.35 119.47 .53 118.5 2.11 117.18 1.21 115.33 3.26 115.19 3.62 113.16 4.38 114.49 3.9 113.03 4.66 114.37 4.19 112.91 4.96 114.24 5.92 112.42 7.24 114 9.09 113.1 9.23 115.15 11.26 115.51"/>
      <polygon class="cls-2" points="9.19 106.23 10.86 106.81 12.4 105.59 14.28 106.17 15.83 104.96 17.88 105.47 17.06 104.38 17.86 103.48 16.85 102.83 17.65 101.93 16.97 101.66 15.3 101.06 13.74 102.24 11.87 101.63 10.3 102.82 8.25 102.28 9.07 103.4 8.28 104.32 9.29 105 8.52 106 9.19 106.23"/>
      <polygon class="cls-2" points="9.98 101.37 8.87 102.64 10.31 103.52 9.19 104.79 10.64 105.68 9.52 106.96 10.79 108.14 9.2 108.84 9.54 110.54 7.85 110.18 7.12 111.75 6.8 110.49 6.87 111.79 6.55 110.53 6.61 111.83 6.28 110.57 5.1 111.84 4.4 110.25 2.7 110.59 3.06 108.9 1.49 108.17 2.61 106.91 1.16 106.02 2.28 104.75 .84 103.86 1.95 102.59 .68 101.41 2.27 100.71 1.93 99.01 3.63 99.37 4.35 97.79 4.67 99.06 4.6 97.76 4.92 99.02 4.86 97.72 5.19 98.98 6.37 97.71 7.07 99.29 8.77 98.95 8.41 100.65 9.98 101.37"/>
      <polygon class="cls-2" points="9.2 90.22 10.35 90.73 11.58 89.98 12.92 90.52 14.16 89.77 15.65 90.25 15.14 89.21 15.78 88.43 15.12 87.65 15.76 86.86 15.28 86.36 14.13 85.83 12.88 86.55 11.56 85.98 10.3 86.7 8.81 86.19 9.33 87.26 8.69 88.07 9.35 88.88 8.71 89.74 9.2 90.22"/>
      <polygon class="cls-2" points="10.37 85.69 9.1 86.67 10.41 87.6 9.14 88.59 10.45 89.52 9.17 90.51 10.36 91.74 8.8 92.42 9.31 94.05 7.64 93.8 6.92 95.31 6.87 94.02 6.92 95.31 6.87 94.02 6.92 95.31 6.87 94.02 5.54 95.02 5.41 93.34 3.74 93.15 4.57 91.67 3.16 90.73 4.44 89.75 3.13 88.82 4.4 87.83 3.09 86.9 4.36 85.91 3.17 84.68 4.73 84 4.23 82.37 5.89 82.62 6.62 81.11 6.66 82.4 6.62 81.11 6.66 82.4 6.62 81.11 6.66 82.4 7.99 81.4 8.12 83.08 9.8 83.27 8.96 84.75 10.37 85.69"/>
      <polygon class="cls-2" points="7.9 73.55 9.27 74.69 11.14 74.05 12.7 75.26 14.57 74.63 16.32 75.84 15.92 74.52 17 73.96 16.25 73 17.33 72.43 16.77 71.95 15.41 70.78 13.54 71.39 12 70.15 10.11 70.75 8.37 69.52 8.77 70.86 7.68 71.45 8.43 72.44 7.33 73.11 7.9 73.55"/>
      <polygon class="cls-2" points="10.31 69.27 8.83 70.07 9.88 71.4 8.39 72.21 9.44 73.54 7.96 74.35 8.75 75.9 7.02 76.01 6.75 77.72 5.28 76.8 4.06 78.03 4.19 76.74 3.81 77.98 3.94 76.69 3.55 77.93 3.68 76.63 2.14 77.42 2.02 75.69 .31 75.43 1.23 73.96 0 72.74 1.48 71.93 .43 70.61 1.92 69.8 .87 68.47 2.35 67.65 1.57 66.11 3.29 66 3.56 64.28 5.03 65.2 6.25 63.97 6.12 65.27 6.5 64.02 6.37 65.32 6.76 64.08 6.63 65.37 8.18 64.58 8.29 66.31 10 66.58 9.09 68.05 10.31 69.27"/>
      <polygon class="cls-2" points="14.17 57.51 14.96 58.58 16.42 58.41 17.33 59.57 18.79 59.41 19.86 60.59 19.76 59.55 20.65 59.29 20.23 58.46 21.13 58.2 20.77 57.75 20 56.67 18.54 56.8 17.65 55.63 16.18 55.77 15.13 54.57 15.22 55.63 14.32 55.91 14.73 56.76 13.81 57.09 14.17 57.51"/>
      <polygon class="cls-2" points="16.47 54.91 15.31 55.21 15.91 56.25 14.74 56.55 15.34 57.6 14.17 57.9 14.48 59.2 13.15 59.1 12.63 60.33 11.63 59.45 10.47 60.12 10.87 59.24 10.47 60.12 10.87 59.24 10.47 60.12 10.87 59.24 9.54 59.49 9.71 58.15 8.49 57.57 9.38 56.56 8.7 55.39 9.87 55.09 9.27 54.05 10.44 53.75 9.84 52.7 11.01 52.4 10.7 51.1 12.03 51.2 12.54 49.97 13.55 50.85 14.71 50.19 14.31 51.06 14.71 50.19 14.31 51.06 14.71 50.19 14.31 51.06 15.63 50.81 15.47 52.15 16.69 52.73 15.79 53.74 16.47 54.91"/>
      <polygon class="cls-2" points="19.22 43.47 20.03 45.06 22.01 45.18 22.96 46.92 24.95 47.04 26.09 48.85 26.22 47.47 27.45 47.38 27.11 46.19 28.35 46.1 28 45.43 27.22 43.82 25.24 43.67 24.31 41.91 22.33 41.76 21.21 39.93 21.07 41.34 19.82 41.45 20.14 42.66 18.85 42.85 19.22 43.47"/>
      <polygon class="cls-2" points="23.07 40.44 21.44 40.64 21.84 42.24 20.21 42.45 20.61 44.04 18.98 44.25 19.06 45.94 17.46 45.43 16.54 46.84 15.53 45.49 13.95 46.09 14.54 45 13.74 45.95 14.33 44.86 13.53 45.8 14.11 44.71 12.42 44.79 12.93 43.18 11.52 42.26 12.87 41.26 12.27 39.68 13.9 39.48 13.49 37.89 15.12 37.68 14.72 36.08 16.36 35.87 16.27 34.18 17.88 34.7 18.8 33.28 19.81 34.63 21.38 34.03 20.79 35.12 21.59 34.17 21 35.27 21.81 34.32 21.23 35.42 22.91 35.33 22.4 36.94 23.82 37.86 22.46 38.87 23.07 40.44"/>
      <polygon class="cls-2" points="29.09 30.63 29.48 32.36 31.31 33.04 31.81 34.94 33.64 35.63 34.29 37.64 34.79 36.39 35.96 36.59 36 35.4 37.18 35.6 37.06 34.88 36.7 33.15 34.87 32.43 34.41 30.52 32.59 29.8 31.97 27.78 31.45 29.05 30.25 28.87 30.2 30.08 28.95 29.94 29.09 30.63"/>
      <polygon class="cls-2" points="33.63 28.74 32.02 28.52 31.96 30.14 30.35 29.92 30.29 31.55 28.68 31.33 28.29 32.95 26.89 32.05 25.62 33.14 25.01 31.59 23.34 31.72 24.18 30.85 23.18 31.53 24.02 30.66 23.01 31.33 23.85 30.45 22.22 30.06 23.12 28.66 22.04 27.39 23.59 26.78 23.45 25.11 25.06 25.34 25.11 23.72 26.72 23.94 26.79 22.31 28.4 22.53 28.79 20.91 30.19 21.8 31.46 20.72 32.07 22.27 33.73 22.13 32.89 23.01 33.9 22.33 33.06 23.2 34.07 22.53 33.23 23.41 34.85 23.8 33.95 25.2 35.04 26.47 33.49 27.08 33.63 28.74"/>
      <polygon class="cls-2" points="41.5 24.01 41.54 25.18 42.68 25.81 42.78 27.11 43.91 27.75 44.1 29.14 44.56 28.36 45.32 28.64 45.46 27.85 46.21 28.13 46.2 27.64 46.17 26.47 45.05 25.82 44.97 24.52 43.84 23.86 43.68 22.46 43.2 23.25 42.43 22.98 42.27 23.78 41.46 23.54 41.5 24.01"/>
      <polygon class="cls-2" points="44.65 23.29 43.61 22.94 43.42 24.02 42.38 23.67 42.18 24.75 41.14 24.41 40.72 25.45 39.9 24.68 38.96 25.28 38.74 24.18 37.62 24.11 38.29 23.62 37.54 23.96 38.2 23.47 37.45 23.81 38.11 23.32 37.07 22.9 37.84 22.08 37.24 21.14 38.34 20.92 38.41 19.8 39.45 20.15 39.64 19.07 40.68 19.42 40.88 18.34 41.92 18.68 42.34 17.64 43.16 18.41 44.11 17.81 44.32 18.91 45.44 18.98 44.77 19.47 45.52 19.13 44.86 19.62 45.61 19.28 44.95 19.77 45.99 20.19 45.22 21.01 45.82 21.95 44.72 22.17 44.65 23.29"/>
      <polygon class="cls-2" points="53.93 14.87 53.85 16.65 55.5 17.75 55.48 19.73 57.12 20.83 57.23 22.96 58.02 21.83 59.13 22.35 59.44 21.16 60.55 21.68 60.59 20.94 60.69 19.16 59.07 18.04 59.12 16.06 57.49 14.93 57.42 12.8 56.59 13.93 55.46 13.43 55.13 14.63 53.93 14.16 53.93 14.87"/>
      <polygon class="cls-2" points="58.29 13.68 56.76 13.02 56.34 14.63 54.8 13.97 54.37 15.59 52.84 14.93 52.08 16.46 50.94 15.19 49.43 15.99 49.25 14.29 47.55 14.05 48.64 13.38 47.44 13.82 48.52 13.15 47.33 13.58 48.4 12.91 46.87 12.15 48.14 11.01 47.34 9.5 49.04 9.32 49.28 7.63 50.81 8.29 51.24 6.68 52.77 7.34 53.2 5.72 54.74 6.38 55.49 4.84 56.64 6.12 58.15 5.32 58.33 7.02 60.02 7.26 58.94 7.93 60.13 7.49 59.05 8.16 60.25 7.72 59.17 8.4 60.71 9.15 59.43 10.3 60.23 11.81 58.53 11.99 58.29 13.68"/>
      <polygon class="cls-2" points="66.83 12.39 66.51 13.58 67.44 14.59 67.12 15.93 68.05 16.95 67.79 18.41 68.51 17.78 69.17 18.3 69.57 17.56 70.24 18.08 70.4 17.59 70.74 16.39 69.83 15.36 70.17 14.03 69.26 13 69.54 11.54 68.8 12.17 68.11 11.65 67.69 12.41 66.96 11.9 66.83 12.39"/>
      <polygon class="cls-2" points="69.84 12.36 68.9 11.64 68.35 12.69 67.41 11.97 66.86 13.02 65.92 12.31 65.16 13.25 64.59 12.18 63.43 12.5 63.59 11.3 62.46 10.87 63.32 10.59 62.42 10.7 63.28 10.41 62.38 10.52 63.24 10.23 62.3 9.47 63.37 8.9 63.05 7.74 64.25 7.9 64.68 6.77 65.61 7.49 66.16 6.44 67.1 7.15 67.65 6.1 68.59 6.82 69.35 5.88 69.92 6.95 71.09 6.63 70.92 7.83 72.05 8.25 71.19 8.54 72.09 8.43 71.23 8.71 72.13 8.61 71.27 8.9 72.21 9.66 71.14 10.22 71.46 11.39 70.26 11.23 69.84 12.36"/>
      <g>
        <polygon class="cls-50" points="162.14 87.68 144.93 107.31 147.66 133.29 122.24 139.25 109.2 161.87 85.22 151.55 61.24 161.87 48.2 139.25 22.78 133.28 25.51 107.31 8.29 87.68 25.51 68.05 22.78 42.08 48.2 36.11 61.24 13.49 85.22 23.81 109.2 13.49 122.24 36.11 147.66 42.08 144.93 68.05 162.14 87.68"/>
        <polygon class="cls-48" points="162.01 87.61 144.81 107.22 147.54 133.17 122.14 139.12 109.12 161.73 85.16 151.41 61.2 161.73 48.17 139.12 22.78 133.17 25.5 107.22 8.31 87.61 25.5 67.99 22.78 42.05 48.17 36.09 61.2 13.49 85.16 23.8 109.12 13.49 122.14 36.09 147.54 42.05 144.82 67.99 162.01 87.61"/>
        <polygon class="cls-49" points="161.87 87.53 144.7 107.13 147.42 133.05 122.05 139 109.04 161.58 85.1 151.28 61.16 161.58 48.15 139 22.78 133.05 25.5 107.13 8.32 87.53 25.5 67.94 22.78 42.02 48.15 36.07 61.16 13.49 85.1 23.79 109.04 13.49 122.05 36.07 147.42 42.02 144.7 67.94 161.87 87.53"/>
        <polygon class="cls-27" points="161.74 87.46 144.58 107.04 147.29 132.93 121.95 138.88 108.95 161.44 85.04 151.14 61.12 161.43 48.12 138.88 22.78 132.93 25.5 107.03 8.34 87.46 25.5 67.88 22.78 41.99 48.13 36.04 61.12 13.48 85.04 23.78 108.95 13.48 121.95 36.04 147.3 41.99 144.58 67.88 161.74 87.46"/>
        <polygon class="cls-27" points="161.6 87.39 144.46 106.94 147.17 132.81 121.85 138.75 108.87 161.29 84.98 151.01 61.09 161.29 48.1 138.75 22.78 132.81 25.5 106.94 8.35 87.39 25.5 67.83 22.78 41.96 48.1 36.02 61.09 13.48 84.98 23.76 108.87 13.48 121.85 36.02 147.17 41.96 144.46 67.83 161.6 87.39"/>
        <polygon class="cls-47" points="161.47 87.31 144.34 106.85 147.05 132.7 121.76 138.63 108.78 161.14 84.92 150.87 61.05 161.14 48.08 138.63 22.78 132.69 25.49 106.85 8.37 87.31 25.49 67.77 22.78 41.93 48.08 36 61.05 13.48 84.92 23.75 108.78 13.48 121.76 36 147.05 41.93 144.34 67.77 161.47 87.31"/>
        <polygon class="cls-47" points="161.33 87.24 144.22 106.76 146.93 132.58 121.66 138.5 108.7 161 84.86 150.74 61.01 161 48.05 138.5 22.78 132.58 25.49 106.76 8.38 87.24 25.49 67.72 22.78 41.9 48.05 35.97 61.01 13.48 84.86 23.74 108.7 13.48 121.66 35.97 146.93 41.9 144.22 67.72 161.33 87.24"/>
        <polygon class="cls-46" points="161.2 87.17 144.1 106.66 146.81 132.46 121.56 138.38 108.62 160.85 84.8 150.6 60.97 160.85 48.03 138.38 22.78 132.46 25.49 106.66 8.39 87.17 25.49 67.67 22.78 41.87 48.03 35.95 60.98 13.48 84.8 23.73 108.62 13.48 121.56 35.95 146.81 41.87 144.1 67.67 161.2 87.17"/>
        <polygon class="cls-14" points="161.06 87.09 143.98 106.57 146.69 132.34 121.47 138.26 108.53 160.71 84.73 150.46 60.94 160.71 48 138.26 22.78 132.34 25.49 106.57 8.41 87.09 25.49 67.61 22.78 41.84 48 35.93 60.94 13.48 84.73 23.72 108.53 13.48 121.47 35.93 146.69 41.84 143.98 67.61 161.06 87.09"/>
        <polygon class="cls-14" points="160.92 87.02 143.86 106.48 146.57 132.22 121.37 138.13 108.45 160.56 84.67 150.33 60.9 160.56 47.98 138.13 22.78 132.22 25.48 106.48 8.42 87.02 25.48 67.56 22.78 41.81 47.98 35.9 60.9 13.48 84.67 23.71 108.45 13.48 121.37 35.9 146.57 41.81 143.86 67.56 160.92 87.02"/>
        <polygon class="cls-44" points="160.79 86.94 143.75 106.39 146.44 132.11 121.27 138.01 108.36 160.41 84.61 150.19 60.86 160.41 47.95 138.01 22.78 132.1 25.48 106.39 8.44 86.94 25.48 67.5 22.78 41.78 47.95 35.88 60.86 13.47 84.61 23.7 108.36 13.47 121.27 35.88 146.44 41.78 143.75 67.5 160.79 86.94"/>
        <polygon class="cls-42" points="160.65 86.87 143.63 106.29 146.32 131.99 121.18 137.89 108.28 160.27 84.55 150.06 60.83 160.27 47.93 137.89 22.78 131.99 25.48 106.29 8.45 86.87 25.48 67.45 22.78 41.75 47.93 35.86 60.83 13.47 84.55 23.69 108.28 13.47 121.18 35.86 146.32 41.75 143.63 67.45 160.65 86.87"/>
        <polygon class="cls-43" points="160.52 86.8 143.51 106.2 146.2 131.87 121.08 137.76 108.2 160.12 84.49 149.92 60.79 160.12 47.9 137.76 22.78 131.87 25.48 106.2 8.47 86.8 25.48 67.39 22.78 41.73 47.9 35.83 60.79 13.47 84.49 23.67 108.2 13.47 121.08 35.83 146.2 41.73 143.51 67.39 160.52 86.8"/>
        <polygon class="cls-40" points="160.38 86.72 143.39 106.11 146.08 131.75 120.98 137.64 108.11 159.98 84.43 149.78 60.75 159.98 47.88 137.64 22.78 131.75 25.47 106.11 8.48 86.72 25.47 67.34 22.78 41.7 47.88 35.81 60.75 13.47 84.43 23.66 108.11 13.47 120.98 35.81 146.08 41.7 143.39 67.34 160.38 86.72"/>
        <polygon class="cls-45" points="160.25 86.65 143.27 106.02 145.96 131.63 120.89 137.51 108.03 159.83 84.37 149.65 60.71 159.83 47.85 137.51 22.78 131.63 25.47 106.02 8.5 86.65 25.47 67.28 22.78 41.67 47.85 35.79 60.71 13.47 84.37 23.65 108.03 13.47 120.89 35.79 145.96 41.67 143.27 67.28 160.25 86.65"/>
        <polygon class="cls-15" points="160.11 86.58 143.15 105.92 145.84 131.52 120.79 137.39 107.94 159.68 84.31 149.51 60.68 159.68 47.83 137.39 22.78 131.51 25.47 105.92 8.51 86.58 25.47 67.23 22.78 41.64 47.83 35.76 60.68 13.47 84.31 23.64 107.94 13.47 120.79 35.76 145.84 41.64 143.15 67.23 160.11 86.58"/>
        <polygon class="cls-15" points="159.98 86.5 143.03 105.83 145.72 131.4 120.69 137.27 107.86 159.54 84.25 149.38 60.64 159.54 47.81 137.27 22.78 131.4 25.47 105.83 8.52 86.5 25.47 67.18 22.78 41.61 47.81 35.74 60.64 13.47 84.25 23.63 107.86 13.47 120.69 35.74 145.72 41.61 143.03 67.18 159.98 86.5"/>
        <polygon class="cls-39" points="159.84 86.43 142.91 105.74 145.59 131.28 120.6 137.14 107.78 159.39 84.19 149.24 60.6 159.39 47.78 137.14 22.78 131.28 25.46 105.74 8.54 86.43 25.46 67.12 22.78 41.58 47.78 35.72 60.6 13.47 84.19 23.62 107.78 13.47 120.6 35.72 145.59 41.58 142.91 67.12 159.84 86.43"/>
        <polygon class="cls-39" points="159.7 86.36 142.8 105.64 145.47 131.16 120.5 137.02 107.69 159.25 84.13 149.11 60.56 159.25 47.76 137.02 22.78 131.16 25.46 105.64 8.55 86.36 25.46 67.07 22.78 41.55 47.76 35.69 60.57 13.46 84.13 23.61 107.69 13.46 120.5 35.69 145.47 41.55 142.8 67.07 159.7 86.36"/>
        <polygon class="cls-39" points="159.57 86.28 142.68 105.55 145.35 131.04 120.4 136.9 107.61 159.1 84.07 148.97 60.53 159.1 47.73 136.89 22.78 131.04 25.46 105.55 8.57 86.28 25.46 67.01 22.78 41.52 47.73 35.67 60.53 13.46 84.07 23.59 107.61 13.46 120.4 35.67 145.35 41.52 142.68 67.01 159.57 86.28"/>
        <polygon class="cls-23" points="159.43 86.21 142.56 105.46 145.23 130.92 120.31 136.77 107.52 158.96 84.01 148.83 60.49 158.96 47.71 136.77 22.78 130.92 25.46 105.46 8.58 86.21 25.46 66.96 22.78 41.49 47.71 35.65 60.49 13.46 84.01 23.58 107.52 13.46 120.31 35.65 145.23 41.49 142.56 66.96 159.43 86.21"/>
        <polygon class="cls-22" points="159.3 86.13 142.44 105.37 145.11 130.81 120.21 136.65 107.44 158.81 83.95 148.7 60.45 158.81 47.68 136.65 22.78 130.81 25.45 105.37 8.6 86.13 25.45 66.9 22.78 41.46 47.68 35.62 60.45 13.46 83.95 23.57 107.44 13.46 120.21 35.62 145.11 41.46 142.44 66.9 159.3 86.13"/>
        <polygon class="cls-17" points="159.16 86.06 142.32 105.27 144.99 130.69 120.11 136.52 107.36 158.66 83.89 148.56 60.42 158.66 47.66 136.52 22.78 130.69 25.45 105.27 8.61 86.06 25.45 66.85 22.78 41.43 47.66 35.6 60.42 13.46 83.89 23.56 107.36 13.46 120.11 35.6 144.99 41.43 142.32 66.85 159.16 86.06"/>
        <polygon class="cls-17" points="159.03 85.99 142.2 105.18 144.87 130.57 120.02 136.4 107.27 158.52 83.83 148.43 60.38 158.52 47.63 136.4 22.78 130.57 25.45 105.18 8.62 85.99 25.45 66.79 22.78 41.4 47.63 35.58 60.38 13.46 83.83 23.55 107.27 13.46 120.02 35.58 144.87 41.4 142.2 66.79 159.03 85.99"/>
        <polygon class="cls-26" points="158.89 85.91 142.08 105.09 144.74 130.45 119.92 136.28 107.19 158.37 83.76 148.29 60.34 158.37 47.61 136.28 22.78 130.45 25.45 105.09 8.64 85.91 25.45 66.74 22.78 41.38 47.61 35.55 60.34 13.46 83.76 23.54 107.19 13.46 119.92 35.55 144.74 41.38 142.08 66.74 158.89 85.91"/>
        <polygon class="cls-24" points="158.76 85.84 141.96 105 144.62 130.33 119.82 136.15 107.1 158.23 83.7 148.15 60.3 158.23 47.58 136.15 22.78 130.33 25.44 105 8.65 85.84 25.44 66.69 22.79 41.35 47.58 35.53 60.3 13.45 83.7 23.53 107.1 13.45 119.82 35.53 144.62 41.35 141.96 66.69 158.76 85.84"/>
        <polygon class="cls-24" points="158.62 85.77 141.84 104.9 144.5 130.22 119.73 136.03 107.02 158.08 83.64 148.02 60.27 158.08 47.56 136.03 22.78 130.22 25.44 104.9 8.67 85.77 25.44 66.63 22.79 41.32 47.56 35.51 60.27 13.45 83.64 23.51 107.02 13.45 119.73 35.51 144.5 41.32 141.84 66.63 158.62 85.77"/>
        <polygon class="cls-25" points="158.48 85.69 141.73 104.81 144.38 130.1 119.63 135.9 106.94 157.93 83.58 147.88 60.23 157.93 47.53 135.9 22.79 130.1 25.44 104.81 8.68 85.69 25.44 66.58 22.79 41.29 47.54 35.48 60.23 13.45 83.58 23.5 106.94 13.45 119.63 35.48 144.38 41.29 141.73 66.58 158.48 85.69"/>
        <polygon class="cls-25" points="158.35 85.62 141.61 104.72 144.26 129.98 119.53 135.78 106.85 157.79 83.52 147.75 60.19 157.79 47.51 135.78 22.79 129.98 25.44 104.72 8.7 85.62 25.44 66.52 22.79 41.26 47.51 35.46 60.19 13.45 83.52 23.49 106.85 13.45 119.53 35.46 144.26 41.26 141.61 66.52 158.35 85.62"/>
        <polygon class="cls-25" points="158.21 85.55 141.49 104.62 144.14 129.86 119.44 135.66 106.77 157.64 83.46 147.61 60.15 157.64 47.49 135.66 22.79 129.86 25.43 104.62 8.71 85.55 25.43 66.47 22.79 41.23 47.49 35.44 60.16 13.45 83.46 23.48 106.77 13.45 119.44 35.44 144.14 41.23 141.49 66.47 158.21 85.55"/>
        <polygon class="cls-18" points="158.08 85.47 141.37 104.53 144.02 129.74 119.34 135.53 106.68 157.5 83.4 147.48 60.12 157.5 47.46 135.53 22.79 129.74 25.43 104.53 8.72 85.47 25.43 66.41 22.79 41.2 47.46 35.41 60.12 13.45 83.4 23.47 106.68 13.45 119.34 35.41 144.02 41.2 141.37 66.41 158.08 85.47"/>
        <polygon class="cls-18" points="157.94 85.4 141.25 104.44 143.89 129.63 119.24 135.41 106.6 157.35 83.34 147.34 60.08 157.35 47.44 135.41 22.79 129.63 25.43 104.44 8.74 85.4 25.43 66.36 22.79 41.17 47.44 35.39 60.08 13.45 83.34 23.46 106.6 13.45 119.24 35.39 143.89 41.17 141.25 66.36 157.94 85.4"/>
        <polygon class="cls-21" points="157.81 85.33 141.13 104.35 143.77 129.51 119.15 135.29 106.52 157.21 83.28 147.2 60.04 157.2 47.41 135.28 22.79 129.51 25.43 104.35 8.75 85.33 25.43 66.3 22.79 41.14 47.41 35.37 60.04 13.45 83.28 23.45 106.52 13.45 119.15 35.37 143.77 41.14 141.13 66.3 157.81 85.33"/>
        <polygon class="cls-20" points="157.67 85.25 141.01 104.25 143.65 129.39 119.05 135.16 106.43 157.06 83.22 147.07 60.01 157.06 47.39 135.16 22.79 129.39 25.42 104.25 8.77 85.25 25.42 66.25 22.79 41.11 47.39 35.34 60.01 13.44 83.22 23.43 106.43 13.44 119.05 35.34 143.65 41.11 141.01 66.25 157.67 85.25"/>
        <polygon class="cls-13" points="157.54 85.18 140.89 104.16 143.53 129.27 118.95 135.04 106.35 156.91 83.16 146.93 59.97 156.91 47.36 135.04 22.79 129.27 25.42 104.16 8.78 85.18 25.42 66.2 22.79 41.08 47.36 35.32 59.97 13.44 83.16 23.42 106.35 13.44 118.95 35.32 143.53 41.08 140.89 66.2 157.54 85.18"/>
        <polygon class="cls-13" points="157.4 85.1 140.78 104.07 143.41 129.15 118.86 134.91 106.26 156.77 83.1 146.8 59.93 156.77 47.34 134.91 22.79 129.15 25.42 104.07 8.8 85.1 25.42 66.14 22.79 41.05 47.34 35.3 59.93 13.44 83.1 23.41 106.26 13.44 118.86 35.3 143.41 41.05 140.78 66.14 157.4 85.1"/>
        <polygon class="cls-12" points="157.26 85.03 140.66 103.98 143.29 129.04 118.76 134.79 106.18 156.62 83.04 146.66 59.89 156.62 47.31 134.79 22.79 129.04 25.42 103.98 8.81 85.03 25.42 66.09 22.79 41.03 47.31 35.27 59.89 13.44 83.04 23.4 106.18 13.44 118.76 35.27 143.29 41.03 140.66 66.09 157.26 85.03"/>
        <polygon class="cls-19" points="157.13 84.96 140.54 103.88 143.16 128.92 118.66 134.67 106.1 156.48 82.98 146.53 59.86 156.48 47.29 134.67 22.79 128.92 25.41 103.88 8.82 84.96 25.41 66.03 22.79 41 47.29 35.25 59.86 13.44 82.98 23.39 106.1 13.44 118.66 35.25 143.17 41 140.54 66.03 157.13 84.96"/>
        <polygon class="cls-19" points="156.99 84.88 140.42 103.79 143.04 128.8 118.57 134.54 106.01 156.33 82.92 146.39 59.82 156.33 47.26 134.54 22.79 128.8 25.41 103.79 8.84 84.88 25.41 65.98 22.79 40.97 47.26 35.23 59.82 13.44 82.92 23.38 106.01 13.44 118.57 35.23 143.04 40.97 140.42 65.98 156.99 84.88"/>
        <polygon class="cls-30" points="156.86 84.81 140.3 103.7 142.92 128.68 118.47 134.42 105.93 156.18 82.85 146.25 59.78 156.18 47.24 134.42 22.79 128.68 25.41 103.7 8.85 84.81 25.41 65.92 22.79 40.94 47.24 35.2 59.78 13.44 82.85 23.37 105.93 13.44 118.47 35.2 142.92 40.94 140.3 65.92 156.86 84.81"/>
        <polygon class="cls-30" points="156.72 84.74 140.18 103.6 142.8 128.56 118.37 134.29 105.84 156.04 82.79 146.12 59.74 156.04 47.22 134.29 22.79 128.56 25.41 103.6 8.87 84.74 25.41 65.87 22.79 40.91 47.22 35.18 59.75 13.43 82.79 23.36 105.84 13.44 118.37 35.18 142.8 40.91 140.18 65.87 156.72 84.74"/>
        <polygon class="cls-31" points="156.59 84.66 140.06 103.51 142.68 128.45 118.28 134.17 105.76 155.89 82.73 145.98 59.71 155.89 47.19 134.17 22.79 128.45 25.4 103.51 8.88 84.66 25.4 65.81 22.79 40.88 47.19 35.16 59.71 13.43 82.73 23.34 105.76 13.43 118.28 35.16 142.68 40.88 140.06 65.81 156.59 84.66"/>
        <polygon class="cls-35" points="156.45 84.59 139.94 103.42 142.56 128.33 118.18 134.05 105.68 155.75 82.67 145.85 59.67 155.75 47.17 134.05 22.79 128.33 25.4 103.42 8.9 84.59 25.4 65.76 22.79 40.85 47.17 35.13 59.67 13.43 82.67 23.33 105.68 13.43 118.18 35.13 142.56 40.85 139.94 65.76 156.45 84.59"/>
        <polygon class="cls-35" points="156.32 84.52 139.83 103.33 142.44 128.21 118.08 133.92 105.59 155.6 82.61 145.71 59.63 155.6 47.14 133.92 22.79 128.21 25.4 103.33 8.91 84.52 25.4 65.7 22.79 40.82 47.14 35.11 59.63 13.43 82.61 23.32 105.59 13.43 118.08 35.11 142.44 40.82 139.83 65.71 156.32 84.52"/>
        <polygon class="cls-36" points="156.18 84.44 139.71 103.23 142.31 128.09 117.99 133.8 105.51 155.45 82.55 145.57 59.6 155.45 47.12 133.8 22.79 128.09 25.4 103.23 8.92 84.44 25.4 65.65 22.79 40.79 47.12 35.08 59.6 13.43 82.55 23.31 105.51 13.43 117.99 35.09 142.32 40.79 139.71 65.65 156.18 84.44"/>
        <polygon class="cls-37" points="156.04 84.37 139.59 103.14 142.19 127.97 117.89 133.68 105.42 155.31 82.49 145.44 59.56 155.31 47.09 133.68 22.79 127.97 25.39 103.14 8.94 84.37 25.39 65.6 22.79 40.76 47.09 35.06 59.56 13.43 82.49 23.3 105.42 13.43 117.89 35.06 142.19 40.76 139.59 65.6 156.04 84.37"/>
        <polygon class="cls-38" points="155.91 84.29 139.47 103.05 142.07 127.86 117.79 133.55 105.34 155.16 82.43 145.3 59.52 155.16 47.07 133.55 22.79 127.86 25.39 103.05 8.95 84.29 25.39 65.54 22.79 40.73 47.07 35.04 59.52 13.43 82.43 23.29 105.34 13.43 117.79 35.04 142.07 40.73 139.47 65.54 155.91 84.29"/>
        <polygon class="cls-9" points="155.77 84.22 139.35 102.96 141.95 127.74 117.7 133.43 105.26 155.02 82.37 145.17 59.48 155.02 47.04 133.43 22.79 127.74 25.39 102.96 8.97 84.22 25.39 65.49 22.79 40.7 47.04 35.01 59.48 13.43 82.37 23.28 105.26 13.43 117.7 35.02 141.95 40.7 139.35 65.49 155.77 84.22"/>
        <polygon class="cls-8" points="155.64 84.15 139.23 102.86 141.83 127.62 117.6 133.3 105.17 154.87 82.31 145.03 59.45 154.87 47.02 133.3 22.79 127.62 25.39 102.86 8.98 84.15 25.39 65.43 22.79 40.68 47.02 34.99 59.45 13.42 82.31 23.26 105.17 13.42 117.6 34.99 141.83 40.68 139.23 65.43 155.64 84.15"/>
        <polygon class="cls-6" points="155.5 84.07 139.11 102.77 141.71 127.5 117.5 133.18 105.09 154.73 82.25 144.9 59.41 154.73 46.99 133.18 22.79 127.5 25.38 102.77 9 84.07 25.38 65.38 22.79 40.65 46.99 34.97 59.41 13.42 82.25 23.25 105.09 13.42 117.5 34.97 141.71 40.65 139.11 65.38 155.5 84.07"/>
        <polygon class="cls-7" points="155.37 84 138.99 102.68 141.59 127.38 117.41 133.06 105 154.58 82.19 144.76 59.37 154.58 46.97 133.06 22.79 127.38 25.38 102.68 9.01 84 25.38 65.32 22.79 40.62 46.97 34.94 59.37 13.42 82.19 23.24 105 13.42 117.41 34.95 141.59 40.62 138.99 65.32 155.37 84"/>
        <polygon class="cls-5" points="155.23 83.93 138.87 102.58 141.46 127.27 117.31 132.93 104.92 154.43 82.13 144.62 59.33 154.43 46.94 132.93 22.79 127.27 25.38 102.58 9.02 83.93 25.38 65.27 22.79 40.59 46.95 34.92 59.34 13.42 82.13 23.23 104.92 13.42 117.31 34.92 141.46 40.59 138.87 65.27 155.23 83.93"/>
        <polygon class="cls-4" points="155.09 83.85 138.76 102.49 141.34 127.15 117.21 132.81 104.84 154.29 82.07 144.49 59.3 154.29 46.92 132.81 22.79 127.15 25.38 102.49 9.04 83.85 25.38 65.21 22.79 40.56 46.92 34.9 59.3 13.42 82.07 23.22 104.84 13.42 117.21 34.9 141.34 40.56 138.76 65.21 155.09 83.85"/>
        <polygon class="cls-4" points="154.96 83.78 138.64 102.4 141.22 127.03 117.12 132.69 104.75 154.14 82.01 144.35 59.26 154.14 46.9 132.68 22.79 127.03 25.37 102.4 9.05 83.78 25.37 65.16 22.79 40.53 46.9 34.87 59.26 13.42 82.01 23.21 104.75 13.42 117.12 34.88 141.22 40.53 138.64 65.16 154.96 83.78"/>
        <polygon class="cls-41" points="154.82 83.71 138.52 102.31 141.1 126.91 117.02 132.56 104.67 154 81.95 144.22 59.22 154 46.87 132.56 22.79 126.91 25.37 102.31 9.07 83.71 25.37 65.11 22.79 40.5 46.87 34.85 59.22 13.42 81.95 23.2 104.67 13.42 117.02 34.85 141.1 40.5 138.52 65.11 154.82 83.71"/>
        <polygon class="cls-41" points="154.69 83.63 138.4 102.21 140.98 126.79 116.92 132.44 104.58 153.85 81.88 144.08 59.19 153.85 46.85 132.44 22.79 126.79 25.37 102.21 9.08 83.63 25.37 65.05 22.79 40.47 46.85 34.83 59.19 13.42 81.88 23.18 104.58 13.42 116.92 34.83 140.98 40.47 138.4 65.05 154.69 83.63"/>
        <polygon class="cls-32" points="154.55 83.56 138.28 102.12 140.86 126.68 116.83 132.31 104.5 153.7 81.82 143.94 59.15 153.7 46.82 132.31 22.79 126.68 25.37 102.12 9.1 83.56 25.37 65 22.79 40.44 46.82 34.8 59.15 13.41 81.82 23.17 104.5 13.41 116.83 34.8 140.86 40.44 138.28 65 154.55 83.56"/>
        <polygon class="cls-34" points="154.42 83.49 138.16 102.03 140.74 126.56 116.73 132.19 104.42 153.56 81.76 143.81 59.11 153.56 46.8 132.19 22.79 126.56 25.36 102.03 9.11 83.49 25.36 64.94 22.79 40.41 46.8 34.78 59.11 13.41 81.76 23.16 104.42 13.41 116.73 34.78 140.74 40.41 138.16 64.94 154.42 83.49"/>
        <polygon class="cls-33" points="154.28 83.41 138.04 101.94 140.61 126.44 116.63 132.07 104.33 153.41 81.7 143.67 59.07 153.41 46.77 132.07 22.79 126.44 25.36 101.94 9.12 83.41 25.36 64.89 22.79 40.38 46.77 34.76 59.07 13.41 81.7 23.15 104.33 13.41 116.63 34.76 140.61 40.38 138.04 64.89 154.28 83.41"/>
        <polygon class="cls-11" points="154.15 83.34 137.92 101.84 140.49 126.32 116.54 131.94 104.25 153.27 81.64 143.54 59.04 153.27 46.75 131.94 22.79 126.32 25.36 101.84 9.14 83.34 25.36 64.83 22.79 40.35 46.75 34.73 59.04 13.41 81.64 23.14 104.25 13.41 116.54 34.73 140.49 40.35 137.92 64.83 154.15 83.34"/>
        <polygon class="cls-10" points="154.01 83.26 137.81 101.75 140.37 126.2 116.44 131.82 104.16 153.12 81.58 143.4 59 153.12 46.72 131.82 22.79 126.2 25.36 101.75 9.15 83.26 25.36 64.78 22.79 40.33 46.72 34.71 59 13.41 81.58 23.13 104.16 13.41 116.44 34.71 140.37 40.33 137.81 64.78 154.01 83.26"/>
        <polygon class="cls-16" points="153.87 83.19 137.69 101.66 140.25 126.09 116.34 131.69 104.08 152.98 81.52 143.27 58.96 152.97 46.7 131.69 22.79 126.09 25.35 101.66 9.17 83.19 25.36 64.72 22.79 40.3 46.7 34.69 58.96 13.41 81.52 23.12 104.08 13.41 116.34 34.69 140.25 40.3 137.69 64.72 153.87 83.19"/>
      </g>
      <path class="cls-29" d="M66.46,71.84l-2.34,.23c-.95,.09-2.24,.04-3.12,.43s-1.65,1.26-2.37,1.88l-1.84,1.61,3.03-.39-2.15-.95c-.87-.38-1.96-1.06-2.91-1.17s-2.09,.25-3.03,.42l-2.41,.44,2.82,1.15c-.89-1.22-1.79-2.43-2.68-3.65-.8-1.09-2.17-1.63-3.42-.9-1.07,.63-1.7,2.33-.9,3.42,.89,1.22,1.79,2.43,2.68,3.65,.72,.98,1.63,1.37,2.82,1.15,1.48-.27,2.96-.54,4.45-.82l-1.93-.25c1.38,.61,2.76,1.22,4.14,1.82,1.1,.48,2.11,.41,3.03-.39,1.14-.99,2.27-1.99,3.41-2.98l-1.77,.73,4.5-.45c1.34-.13,2.5-1.05,2.5-2.5,0-1.25-1.15-2.63-2.5-2.5h0Z"/>
      <path class="cls-29" d="M119.13,70.94h-2.32c-.88,0-1.94-.14-2.8,.09s-1.55,.99-2.22,1.5l-1.91,1.48h2.52l-2.09-1.02c-.79-.39-1.66-.95-2.52-1.19-.96-.26-2.28,.19-3.24,.38l-2.47,.49,2.43,.64-2.74-3.53c-.83-1.07-2.66-.87-3.54,0-1.05,1.05-.83,2.47,0,3.54l2.74,3.53c.56,.71,1.63,.8,2.43,.64l4.38-.87-1.93-.25,4.01,1.95c.74,.36,1.8,.56,2.52,0,1.18-.91,2.36-1.82,3.53-2.73l-1.26,.34c1.49,0,2.98,0,4.46,0,3.22,0,3.22-5,0-5h0Z"/>
      <g>
        <polyline class="cls-3" points="48.28 58 52.49 57.53 55.19 54.27 59.37 53.52 61.69 49.99 63.58 46.9"/>
        <path class="cls-3" d="M48.28,59.25l2.25-.25c.74-.08,1.74-.03,2.43-.33s1.2-1.23,1.66-1.77l1.45-1.75-.55,.32,3.47-.62c.61-.11,1.06-.14,1.46-.71,.28-.39,.53-.8,.79-1.2,1.17-1.79,2.3-3.59,3.41-5.42,.84-1.38-1.32-2.63-2.16-1.26-1.37,2.24-2.77,4.43-4.21,6.62l.75-.57-2.16,.39c-.7,.12-1.68,.12-2.31,.48s-1.07,1.18-1.51,1.71l-1.45,1.75,.88-.37-4.21,.47c-.67,.08-1.25,.52-1.25,1.25,0,.62,.57,1.33,1.25,1.25h0Z"/>
      </g>
      <g>
        <polyline class="cls-3" points="112.1 57.44 109.42 54.24 105.3 53.58 102.82 50.23 98.77 49.16 98.11 46.32"/>
        <path class="cls-3" d="M112.98,56.55l-1.38-1.65c-.45-.54-.93-1.38-1.55-1.74s-1.6-.33-2.29-.44l-2.13-.34,.75,.57c-.43-.58-.86-1.15-1.28-1.73-.45-.61-.91-1.5-1.52-1.97s-1.62-.54-2.31-.73l-2.16-.57,.87,.87-.67-2.83c-.37-1.57-2.78-.9-2.41,.66l.67,2.83c.1,.42,.47,.76,.87,.87,1.35,.36,2.7,.72,4.05,1.08l-.75-.57c.43,.58,.86,1.15,1.28,1.73,.45,.61,.91,1.5,1.52,1.97s1.65,.42,2.35,.53l2.2,.35-.55-.32c.89,1.07,1.79,2.13,2.68,3.2,.43,.52,1.32,.45,1.77,0,.51-.51,.43-1.25,0-1.77h0Z"/>
      </g>
      <polygon class="cls-51" points="55.9 115.1 63 109.1 65.07 100.59 73.75 101.44 79.05 94.47 86.11 99.56 92.56 95.79 95.63 102.59 102.97 101.19 103.25 108.64 108.7 114.07 97.76 109.19 87.54 114.56 77.13 109.61 67.21 114.95 55.9 115.1"/>
      <polygon class="cls-3" points="67.51 102.83 67.55 103.05 68.04 103.1 68.12 103.59 68.6 103.51 68.92 103.88 69.24 103.48 69.71 103.68 69.98 103.25 70.47 103.4 70.54 103.11 70.61 102.55 70.13 102.31 70.24 101.78 69.76 101.52 69.68 100.9 69.37 101.52 68.72 101.58 68.44 102.17 67.78 102.24 67.51 102.83"/>
      <polygon class="cls-3" points="96.13 100.61 95.72 100.91 95.8 101.41 95.32 101.55 95.3 102.05 94.85 101.94 94.45 102.28 94.05 101.94 93.61 102.22 93.26 101.83 92.76 101.72 93.19 101.38 93.01 100.85 93.43 100.47 93.24 99.94 93.49 99.68 94.09 99.63 94.46 100.16 95.12 100.12 95.52 100.67 96.13 100.61"/>
      <g>
        <polyline class="cls-1" points="123.49 73 120.8 75.29 124.05 76.65 120.94 78.33 123.93 80.2 120.65 81.5 123.5 83.59 120.18 84.8 123.06 86.83 119.83 88.25 122.91 89.96 119.95 92.04 123.34 93.31 120.89 95.98 124.47 96.46 122.72 99.63 126.31 99.2 125.45 102.71 128.79 101.33 128.95 104.95 131.73 102.65 133 106.03 134.9 102.96 137.2 105.74 137.97 102.21 141.09 104.02"/>
        <polyline class="cls-1" points="123.09 72.32 122.41 75.67 125.47 74.12 125.5 77.54 128.27 75.51 128.7 78.91 131.31 76.68 131.84 80.07 134.49 77.89 134.8 81.3 137.67 79.42 137.61 82.94 140.93 81.76 140.13 85.19 143.63 84.78 142.04 87.93 145.53 88.41 143.17 91.02 146.4 92.43 143.41 94.28 146.08 96.57 142.67 97.4 144.46 100.43 140.96 100.11 141.64 103.55 138.48 102.03"/>
      </g>
      <g>
        <polyline class="cls-1" points="45.43 76.78 42.14 77.73 45 79.64 41.97 81.25 45.1 82.67 42.27 84.63 45.51 85.82 42.74 87.86 45.95 89.1 43.06 90.96 46.11 92.55 42.96 94.12 45.61 96.44 42.2 97.31 44.27 100.16 40.75 100.21 42.04 103.49 38.63 102.6 38.98 106.11 35.96 104.31 35.27 107.76 32.95 105.12 31.19 108.16 29.87 104.9 27.19 107.19 27.08 103.68"/>
        <polyline class="cls-1" points="44.94 77.38 41.81 76.22 42.09 79.54 39.26 77.76 39 81.09 36.4 78.98 35.9 82.28 33.36 80.1 32.91 83.41 30.24 81.4 30.15 84.73 27.05 83.26 27.47 86.67 24.13 85.88 25.29 89.11 21.85 89.13 23.79 91.96 20.48 92.89 23.1 95.09 20.19 96.9 23.34 98.24 21.14 100.86 24.55 101.11 23.32 104.31 26.62 103.41 26.59 106.84"/>
      </g>
      <polyline class="cls-28" points="40.79 82.71 40.84 86.34 43.18 89.09 41.94 92.45 42.36 96.02 39.01 97.29"/>
      <polyline class="cls-28" points="135.38 82.19 137.07 85.83 140.65 87.64 141.21 91.59 143.42 94.93 140.65 97.71"/>
    </g>
  </g>
</svg>