<?xml version="1.0" encoding="UTF-8"?>
<svg id="Layer_2" data-name="Layer 2" xmlns="http://www.w3.org/2000/svg" viewBox="0 0 168.8 171.75">
  <defs>
    <style>
      .cls-1 {
        fill: #68bfdd;
      }

      .cls-2 {
        fill: #e4d83f;
      }

      .cls-3 {
        fill: #fff;
      }

      .cls-4 {
        fill: #9987bc;
      }

      .cls-5 {
        fill: #9987bb;
      }

      .cls-6 {
        fill: #9886ba;
      }

      .cls-7 {
        fill: #9886bb;
      }

      .cls-8 {
        fill: #9786ba;
      }

      .cls-9 {
        fill: #9785b9;
      }

      .cls-10 {
        fill: #9c8ac1;
      }

      .cls-11 {
        fill: #9c8ac0;
      }

      .cls-12 {
        fill: #9282b4;
      }

      .cls-13 {
        fill: #9281b4;
      }

      .cls-14 {
        fill: #8779a9;
      }

      .cls-15 {
        fill: #8a7bac;
      }

      .cls-16 {
        fill: #9d8ac1;
      }

      .cls-17 {
        fill: #8d7daf;
      }

      .cls-18 {
        fill: #9080b2;
      }

      .cls-19 {
        fill: #9382b5;
      }

      .cls-20 {
        fill: #9181b3;
      }

      .cls-21 {
        fill: #9180b3;
      }

      .cls-22 {
        fill: #8c7dae;
      }

      .cls-23 {
        fill: #8c7cae;
      }

      .cls-24 {
        fill: #8e7eb0;
      }

      .cls-25 {
        fill: #8f7fb1;
      }

      .cls-26 {
        fill: #8d7eaf;
      }

      .cls-27 {
        fill: #8577a7;
      }

      .cls-28 {
        fill: #bde5ee;
      }

      .cls-29 {
        fill: #413956;
      }

      .cls-30 {
        fill: #9483b6;
      }

      .cls-31 {
        fill: #9483b7;
      }

      .cls-32 {
        fill: #9b88be;
      }

      .cls-33 {
        fill: #9b89bf;
      }

      .cls-34 {
        fill: #9b89be;
      }

      .cls-35 {
        fill: #9584b7;
      }

      .cls-36 {
        fill: #9684b8;
      }

      .cls-37 {
        fill: #9685b8;
      }

      .cls-38 {
        fill: #9685b9;
      }

      .cls-39 {
        fill: #8b7cad;
      }

      .cls-40 {
        fill: #897aab;
      }

      .cls-41 {
        fill: #9a88bd;
      }

      .cls-42 {
        fill: #887aaa;
      }

      .cls-43 {
        fill: #887aab;
      }

      .cls-44 {
        fill: #8879aa;
      }

      .cls-45 {
        fill: #897bab;
      }

      .cls-46 {
        fill: #8678a9;
      }

      .cls-47 {
        fill: #8678a8;
      }

      .cls-48 {
        fill: #8477a6;
      }

      .cls-49 {
        fill: #8477a7;
      }

      .cls-50 {
        fill: #8476a6;
      }

      .cls-51 {
        fill: #4e4563;
      }
    </style>
  </defs>
  <g id="Layer_3" data-name="Layer 3">
    <g>
      <polygon class="cls-2" points="76.91 8.47 78.25 17.07 82.14 16.65 80.94 8.03 76.91 8.47"/>
      <rect class="cls-2" x="72.88" y=".59" width="12.92" height="8.12" rx="3.73" ry="3.73" transform="translate(.9 17.46) rotate(-12.63)"/>
      <polygon class="cls-2" points="93.43 10.62 92.62 16.65 95.31 17.14 96.22 11.12 93.43 10.62"/>
      <rect class="cls-2" x="90.65" y="5.51" width="9.03" height="5.68" rx="2.61" ry="2.61" transform="translate(2.72 -15.73) rotate(9.59)"/>
      <polygon class="cls-2" points="107.81 11.16 104.86 19.35 108.47 20.84 111.56 12.71 107.81 11.16"/>
      <rect class="cls-2" x="105.17" y="4.69" width="12.92" height="8.12" rx="3.73" ry="3.73" transform="translate(11.16 -40.67) rotate(21.71)"/>
      <polygon class="cls-2" points="122.42 19.06 118.79 25.61 120.99 26.64 124.7 20.12 122.42 19.06"/>
      <path class="cls-2" d="M124.07,21.79l-2.62-1.39c-1.22-.65-1.67-2.14-1-3.32h0c.67-1.18,2.21-1.62,3.43-.97l2.62,1.39c1.22,.65,1.67,2.14,1,3.32h0c-.67,1.18-2.21,1.62-3.43,.97Z"/>
      <polygon class="cls-2" points="135.11 26.73 129.84 33.65 132.84 36.16 138.22 29.33 135.11 26.73"/>
      <rect class="cls-2" x="132.28" y="21.65" width="12.92" height="8.12" rx="3.73" ry="3.73" transform="translate(54.72 -87.65) rotate(42.96)"/>
      <polygon class="cls-2" points="146.66 35.34 138.8 42.8 141.98 46.48 149.97 39.16 146.66 35.34"/>
      <rect class="cls-2" x="143.39" y="30.01" width="16.09" height="10.12" rx="4.65" ry="4.65" transform="translate(77.15 -101.47) rotate(48.41)"/>
      <polygon class="cls-2" points="152.17 51.65 146.68 55.26 148.12 57.89 153.66 54.39 152.17 51.65"/>
      <path class="cls-2" d="M153.29,55.27l-1.81-3.21c-.84-1.5-.35-3.44,1.08-4.31h0c1.44-.88,3.3-.37,4.14,1.13l1.81,3.21c.84,1.5,.35,3.44-1.08,4.31h0c-1.44,.88-3.3,.37-4.14-1.13Z"/>
      <polygon class="cls-2" points="160.05 66.21 151.58 68.18 152.29 72.03 160.8 70.19 160.05 66.21"/>
      <rect class="cls-2" x="157.01" y="63.89" width="12.92" height="8.12" rx="3.73" ry="3.73" transform="translate(198.26 -105.63) rotate(78.76)"/>
      <polygon class="cls-2" points="159.42 87.95 154.58 87.97 154.49 90.14 159.33 90.2 159.42 87.95"/>
      <rect class="cls-2" x="157.46" y="87.06" width="7.18" height="4.52" rx="2.08" ry="2.08" transform="translate(254.8 -69.2) rotate(91.59)"/>
      <polygon class="cls-2" points="161.73 102.22 153.2 100.55 152.27 104.35 160.78 106.16 161.73 102.22"/>
      <rect class="cls-2" x="157.67" y="101.15" width="12.92" height="8.12" rx="3.73" ry="3.73" transform="translate(303.49 -31.13) rotate(102.96)"/>
      <polygon class="cls-2" points="153.58 118.18 148.31 116.12 147.28 118.44 152.51 120.59 153.58 118.18"/>
      <rect class="cls-2" x="150.57" y="117.74" width="8.39" height="5.28" rx="2.43" ry="2.43" transform="translate(326.49 25.75) rotate(113.27)"/>
      <polygon class="cls-2" points="147.53 133.73 140.84 128.16 138.21 131.05 144.81 136.72 147.53 133.73"/>
      <rect class="cls-2" x="141.74" y="133.44" width="12.92" height="8.12" rx="3.73" ry="3.73" transform="translate(349.44 118.12) rotate(131.64)"/>
      <polygon class="cls-2" points="133.11 146.05 129.32 140.73 127.01 142.44 130.71 147.82 133.11 146.05"/>
      <path class="cls-2" d="M129.87,147.52l2.81-2.13c1.31-.99,3.14-.66,4.07,.74h0c.93,1.4,.62,3.36-.69,4.35l-2.81,2.13c-1.31,.99-3.14,.66-4.07-.74h0c-.93-1.4-.62-3.36,.69-4.35Z"/>
      <polygon class="cls-2" points="120.01 156.81 116.81 148.72 113.12 149.99 116.18 158.13 120.01 156.81"/>
      <rect class="cls-2" x="112.33" y="156.38" width="12.92" height="8.12" rx="3.73" ry="3.73" transform="translate(284.66 271.52) rotate(160.32)"/>
      <polygon class="cls-2" points="100.59 163.78 98.67 155.29 94.82 155.98 96.61 164.5 100.59 163.78"/>
      <rect class="cls-2" x="92.37" y="163.12" width="12.92" height="8.12" rx="3.73" ry="3.73" transform="translate(227.45 312.69) rotate(169.11)"/>
      <polygon class="cls-2" points="83.2 161.89 82.9 156.52 80.49 156.55 80.7 161.91 83.2 161.89"/>
      <rect class="cls-2" x="77.78" y="161.27" width="7.98" height="5.01" rx="2.3" ry="2.3" transform="translate(167.08 325.74) rotate(178.75)"/>
      <polygon class="cls-2" points="63.3 162.86 66.29 154.69 62.68 153.18 59.56 161.3 63.3 162.86"/>
      <rect class="cls-2" x="53.51" y="160.7" width="12.92" height="8.12" rx="3.73" ry="3.73" transform="translate(53.96 339.99) rotate(-158.03)"/>
      <polygon class="cls-2" points="47.27 154.27 50.98 148.53 48.48 146.74 44.68 152.42 47.27 154.27"/>
      <rect class="cls-2" x="39.31" y="151.95" width="10.15" height="6.38" rx="2.93" ry="2.93" transform="translate(-7.61 307.9) rotate(-145.24)"/>
      <polygon class="cls-2" points="31.02 145.28 36.79 138.76 33.98 136.04 28.11 142.46 31.02 145.28"/>
      <rect class="cls-2" x="20.77" y="141.77" width="12.92" height="8.12" rx="3.73" ry="3.73" transform="translate(-53.24 270.46) rotate(-136.58)"/>
      <polygon class="cls-2" points="22.65 131.05 27.37 127.4 25.97 125.02 21.19 128.57 22.65 131.05"/>
      <path class="cls-2" d="M21.49,127.73l1.75,2.91c.82,1.35,.47,3.19-.77,4.08h0c-1.24,.89-2.92,.51-3.74-.84l-1.75-2.91c-.82-1.35-.47-3.19,.77-4.08h0c1.24-.89,2.92-.51,3.74,.84Z"/>
      <polygon class="cls-2" points="11.37 121.3 21.23 116.6 19.36 112.29 9.42 116.84 11.37 121.3"/>
      <rect class="cls-2" x="-.88" y="115.28" width="15.52" height="9.75" rx="4.48" ry="4.48" transform="translate(-100.14 175.24) rotate(-113.96)"/>
      <polygon class="cls-2" points="8.51 106.05 17.06 104.46 16.53 100.59 7.95 102.04 8.51 106.05"/>
      <rect class="cls-2" x="-1.28" y="100.09" width="12.92" height="8.12" rx="3.73" ry="3.73" transform="translate(-97.03 124.84) rotate(-98.6)"/>
      <polygon class="cls-2" points="8.48 89.88 14.91 89.36 14.87 85.45 8.44 85.83 8.48 89.88"/>
      <path class="cls-2" d="M9.17,85.08l.09,4.8c.04,2.23-1.27,4.11-2.92,4.17h0c-1.65,.06-3.04-1.72-3.09-3.95l-.09-4.8c-.04-2.23,1.27-4.11,2.92-4.17h0c1.65-.06,3.04,1.72,3.09,3.95Z"/>
      <polygon class="cls-2" points="7.07 73.31 15.65 74.75 16.48 70.94 7.93 69.35 7.07 73.31"/>
      <rect class="cls-2" x="-1.86" y="66.32" width="12.92" height="8.12" rx="3.73" ry="3.73" transform="translate(-65.29 60.87) rotate(-78.52)"/>
      <polygon class="cls-2" points="13.35 57.12 19.29 59.61 20.48 56.89 14.58 54.3 13.35 57.12"/>
      <path class="cls-2" d="M15.47,54.1l-1.42,3.36c-.66,1.57-2.44,2.28-3.94,1.59h0c-1.5-.69-2.19-2.54-1.53-4.1l1.42-3.36c.66-1.57,2.44-2.28,3.94-1.59h0c1.5,.69,2.19,2.54,1.53,4.1Z"/>
      <polygon class="cls-2" points="18.26 43.1 25.6 47.75 27.85 44.55 20.58 39.77 18.26 43.1"/>
      <rect class="cls-2" x="10.65" y="35.37" width="12.92" height="8.12" rx="3.73" ry="3.73" transform="translate(-25.11 31.37) rotate(-55.73)"/>
      <polygon class="cls-2" points="28.1 30.14 33.91 36.61 36.94 34.13 31.23 27.56 28.1 30.14"/>
      <rect class="cls-2" x="21.52" y="22.24" width="12.92" height="8.12" rx="3.73" ry="3.73" transform="translate(-10.36 24.18) rotate(-40.07)"/>
      <polygon class="cls-2" points="40.63 23.42 43.71 28.26 45.95 26.98 42.94 22.09 40.63 23.42"/>
      <rect class="cls-2" x="36.71" y="18.24" width="8.51" height="5.35" rx="2.46" ry="2.46" transform="translate(-4.94 23.77) rotate(-30.61)"/>
      <polygon class="cls-2" points="52.9 14.27 56.96 21.96 60.5 20.3 56.56 12.54 52.9 14.27"/>
      <rect class="cls-2" x="46.77" y="5.97" width="12.92" height="8.12" rx="3.73" ry="3.73" transform="translate(.98 24.3) rotate(-25.94)"/>
      <polygon class="cls-2" points="65.96 11.7 67.48 17.59 70.15 17.02 68.73 11.11 65.96 11.7"/>
      <rect class="cls-2" x="62.18" y="6.1" width="9.03" height="5.68" rx="2.61" ry="2.61" transform="translate(-.34 14.8) rotate(-12.63)"/>
      <g>
        <ellipse class="cls-50" cx="84.66" cy="87.05" rx="69.83" ry="70.97"/>
        <ellipse class="cls-48" cx="84.6" cy="86.98" rx="69.76" ry="70.9"/>
        <ellipse class="cls-49" cx="84.54" cy="86.91" rx="69.69" ry="70.83"/>
        <ellipse class="cls-27" cx="84.48" cy="86.83" rx="69.62" ry="70.76"/>
        <ellipse class="cls-27" cx="84.42" cy="86.76" rx="69.56" ry="70.69"/>
        <ellipse class="cls-47" cx="84.36" cy="86.69" rx="69.49" ry="70.62"/>
        <ellipse class="cls-47" cx="84.3" cy="86.61" rx="69.42" ry="70.55"/>
        <ellipse class="cls-46" cx="84.24" cy="86.54" rx="69.35" ry="70.48"/>
        <ellipse class="cls-14" cx="84.18" cy="86.46" rx="69.28" ry="70.41"/>
        <ellipse class="cls-14" cx="84.11" cy="86.39" rx="69.22" ry="70.34"/>
        <ellipse class="cls-44" cx="84.05" cy="86.32" rx="69.15" ry="70.28"/>
        <ellipse class="cls-42" cx="83.99" cy="86.24" rx="69.08" ry="70.21"/>
        <ellipse class="cls-43" cx="83.93" cy="86.17" rx="69.01" ry="70.14"/>
        <ellipse class="cls-40" cx="83.87" cy="86.1" rx="68.94" ry="70.07"/>
        <ellipse class="cls-45" cx="83.81" cy="86.02" rx="68.88" ry="70"/>
        <ellipse class="cls-15" cx="83.75" cy="85.95" rx="68.81" ry="69.93"/>
        <ellipse class="cls-15" cx="83.69" cy="85.88" rx="68.74" ry="69.86"/>
        <ellipse class="cls-39" cx="83.63" cy="85.8" rx="68.67" ry="69.79"/>
        <ellipse class="cls-39" cx="83.57" cy="85.73" rx="68.6" ry="69.72"/>
        <ellipse class="cls-39" cx="83.51" cy="85.66" rx="68.54" ry="69.65"/>
        <ellipse class="cls-23" cx="83.45" cy="85.58" rx="68.47" ry="69.58"/>
        <ellipse class="cls-22" cx="83.39" cy="85.51" rx="68.4" ry="69.51"/>
        <ellipse class="cls-17" cx="83.33" cy="85.43" rx="68.33" ry="69.45"/>
        <ellipse class="cls-17" cx="83.27" cy="85.36" rx="68.26" ry="69.38"/>
        <ellipse class="cls-26" cx="83.21" cy="85.29" rx="68.2" ry="69.31"/>
        <ellipse class="cls-24" cx="83.14" cy="85.21" rx="68.13" ry="69.24"/>
        <ellipse class="cls-24" cx="83.08" cy="85.14" rx="68.06" ry="69.17"/>
        <ellipse class="cls-25" cx="83.02" cy="85.07" rx="67.99" ry="69.1"/>
        <ellipse class="cls-25" cx="82.96" cy="84.99" rx="67.92" ry="69.03"/>
        <ellipse class="cls-25" cx="82.9" cy="84.92" rx="67.86" ry="68.96"/>
        <ellipse class="cls-18" cx="82.84" cy="84.85" rx="67.79" ry="68.89"/>
        <ellipse class="cls-18" cx="82.78" cy="84.77" rx="67.72" ry="68.82"/>
        <ellipse class="cls-21" cx="82.72" cy="84.7" rx="67.65" ry="68.75"/>
        <ellipse class="cls-20" cx="82.66" cy="84.63" rx="67.58" ry="68.69"/>
        <ellipse class="cls-13" cx="82.6" cy="84.55" rx="67.52" ry="68.62"/>
        <ellipse class="cls-13" cx="82.54" cy="84.48" rx="67.45" ry="68.55"/>
        <ellipse class="cls-12" cx="82.48" cy="84.4" rx="67.38" ry="68.48"/>
        <ellipse class="cls-19" cx="82.42" cy="84.33" rx="67.31" ry="68.41"/>
        <ellipse class="cls-19" cx="82.36" cy="84.26" rx="67.24" ry="68.34"/>
        <ellipse class="cls-30" cx="82.3" cy="84.18" rx="67.18" ry="68.27"/>
        <ellipse class="cls-30" cx="82.23" cy="84.11" rx="67.11" ry="68.2"/>
        <ellipse class="cls-31" cx="82.17" cy="84.04" rx="67.04" ry="68.13"/>
        <ellipse class="cls-35" cx="82.11" cy="83.96" rx="66.97" ry="68.06"/>
        <ellipse class="cls-35" cx="82.05" cy="83.89" rx="66.9" ry="67.99"/>
        <ellipse class="cls-36" cx="81.99" cy="83.82" rx="66.84" ry="67.92"/>
        <ellipse class="cls-37" cx="81.93" cy="83.74" rx="66.77" ry="67.86"/>
        <ellipse class="cls-38" cx="81.87" cy="83.67" rx="66.7" ry="67.79"/>
        <ellipse class="cls-9" cx="81.81" cy="83.59" rx="66.63" ry="67.72"/>
        <ellipse class="cls-8" cx="81.75" cy="83.52" rx="66.56" ry="67.65"/>
        <ellipse class="cls-6" cx="81.69" cy="83.45" rx="66.5" ry="67.58"/>
        <ellipse class="cls-7" cx="81.63" cy="83.37" rx="66.43" ry="67.51"/>
        <ellipse class="cls-5" cx="81.57" cy="83.3" rx="66.36" ry="67.44"/>
        <ellipse class="cls-4" cx="81.51" cy="83.23" rx="66.29" ry="67.37"/>
        <ellipse class="cls-4" cx="81.45" cy="83.15" rx="66.22" ry="67.3"/>
        <ellipse class="cls-41" cx="81.39" cy="83.08" rx="66.16" ry="67.23"/>
        <ellipse class="cls-41" cx="81.33" cy="83.01" rx="66.09" ry="67.16"/>
        <ellipse class="cls-32" cx="81.26" cy="82.93" rx="66.02" ry="67.1"/>
        <ellipse class="cls-34" cx="81.2" cy="82.86" rx="65.95" ry="67.03"/>
        <ellipse class="cls-33" cx="81.14" cy="82.79" rx="65.88" ry="66.96"/>
        <ellipse class="cls-11" cx="81.08" cy="82.71" rx="65.82" ry="66.89"/>
        <ellipse class="cls-10" cx="81.02" cy="82.64" rx="65.75" ry="66.82"/>
        <ellipse class="cls-16" cx="80.96" cy="82.56" rx="65.68" ry="66.75"/>
      </g>
      <path class="cls-29" d="M64.06,70.79c-1.27,.94-2.71,1.81-4.12,2.3s-2.75,.76-4.17,.78c-3,.05-5.77-.97-8.34-2.77-1.11-.78-2.78-.2-3.42,.9-.73,1.25-.21,2.64,.9,3.42,6.58,4.62,15.22,4.47,21.67-.31,1.08-.8,1.63-2.16,.9-3.42-.62-1.07-2.33-1.71-3.42-.9h0Z"/>
      <path class="cls-29" d="M116.81,69.84c-5.29,3.18-11.44,3.08-16.63-.26-1.14-.73-2.76-.23-3.42,.9-.71,1.21-.24,2.69,.9,3.42,6.59,4.24,14.98,4.29,21.67,.26,2.76-1.66,.24-5.98-2.52-4.32h0Z"/>
      <g>
        <path class="cls-3" d="M48.07,58.05s18.95-9.46,14.68-11.07"/>
        <path class="cls-3" d="M48.7,59.13c2.21-1.11,4.39-2.29,6.54-3.51,1.7-.97,3.39-1.98,5.01-3.09,1.25-.86,2.6-1.77,3.57-2.97,.45-.56,.84-1.19,.81-1.94-.03-.94-.73-1.52-1.54-1.84-.63-.25-1.37,.27-1.54,.87-.19,.71,.24,1.29,.87,1.54-.39-.15-.09-.03,0,.02-.31-.18-.2-.17-.12-.09,.09,.1,.03,.1-.1-.14,.13,.23-.11-.33-.04-.08-.08-.26-.04-.33-.03-.21,0,.2,.07-.38,.02-.14-.04,.22-.07,.12,.03-.04-.05,.08-.09,.17-.14,.25-.06,.09-.29,.36-.04,.07-.1,.12-.2,.23-.31,.34-1.06,1.11-1.93,1.66-3.23,2.53-2.84,1.89-5.85,3.55-8.87,5.14-.71,.38-1.43,.75-2.15,1.11-1.44,.72-.17,2.88,1.26,2.16h0Z"/>
      </g>
      <g>
        <path class="cls-3" d="M111.89,56.14s-18.14-9.6-14.65-11.14"/>
        <path class="cls-3" d="M112.52,55.06c-1.87-.99-3.72-2.04-5.54-3.11-1.57-.92-3.12-1.87-4.63-2.88-.69-.46-1.36-.93-2.02-1.42-.05-.04-.44-.34-.25-.19-.14-.11-.29-.23-.43-.34-.26-.21-.51-.43-.75-.65-.23-.21-.43-.44-.64-.66s.09,.21-.1-.13c-.05-.08-.09-.18-.15-.25-.04-.05,.1,.29,.01-.02,.11,.37,.03,.31,.03,.21,0-.25-.05,.27-.02,.16-.04,.13-.11,.23-.17,.31,.11-.12-.16,.12-.15,.11,.06-.04,.11-.07,.18-.1,.61-.28,.77-1.17,.45-1.71-.37-.63-1.1-.73-1.71-.45-1.32,.61-1.24,2.14-.51,3.17,.9,1.25,2.21,2.18,3.44,3.07,2.97,2.15,6.17,3.99,9.36,5.77,.78,.43,1.56,.87,2.35,1.28,1.42,.75,2.69-1.4,1.26-2.16h0Z"/>
      </g>
      <path class="cls-51" d="M55.98,111.98s12.89-18.33,29.98-15.59c17.09,2.74,21.61,14.55,21.61,14.55l-51.58,1.04Z"/>
      <path class="cls-3" d="M66.87,102.06c-.03-.11,.84,1.14,1.47,1.03,.69-.12,1.91-.54,1.77-.71s-.94-1.95-.94-1.95l-2.3,1.63Z"/>
      <path class="cls-3" d="M95.53,100.14c-.08-.28-.61,1.28-1.22,1.33-.81,.08-2.06-.1-1.96-.31s.6-2.27,.6-2.27l2.58,1.24Z"/>
      <g>
        <path class="cls-1" d="M121.43,72.8c.76,2.68,.57,5.52,.2,8.28-.37,2.76-.91,5.51-.84,8.29,.08,3.09,.94,6.19,2.66,8.77s4.33,4.58,7.32,5.39,6.34,.35,8.88-1.42"/>
        <path class="cls-1" d="M121.48,72.77c1.99,1.94,4.59,3.13,7.19,4.12s5.28,1.82,7.69,3.2c2.68,1.54,5,3.77,6.44,6.51s1.97,5.99,1.26,9-2.71,5.74-5.47,7.14"/>
      </g>
      <g>
        <path class="cls-1" d="M43.42,75.74c-.74,2.61-.56,5.38-.2,8.07s.89,5.37,.82,8.08c-.07,3.01-.91,6.04-2.59,8.54s-4.22,4.46-7.13,5.25c-2.91,.79-6.17,.34-8.65-1.38"/>
        <path class="cls-1" d="M43.36,75.71c-1.94,1.89-4.47,3.05-7,4.01s-5.14,1.77-7.5,3.12c-2.62,1.5-4.87,3.68-6.28,6.34s-1.92,5.83-1.23,8.77,2.64,5.59,5.33,6.96"/>
      </g>
      <path class="cls-28" d="M39.59,82.46s6.25,10.65-.76,14.84"/>
      <path class="cls-28" d="M134.34,82.17s11.76,9.27,6.32,15.42"/>
    </g>
  </g>
</svg>