<?xml version="1.0" encoding="UTF-8"?>
<svg id="Layer_2" data-name="Layer 2" xmlns="http://www.w3.org/2000/svg" viewBox="0 0 193.59 186.09">
  <defs>
    <style>
      .cls-1 {
        fill: #68bfdd;
      }

      .cls-2 {
        fill: #e4d83f;
      }

      .cls-3 {
        fill: #fff;
      }

      .cls-4 {
        fill: #9987bc;
      }

      .cls-5 {
        fill: #9987bb;
      }

      .cls-6 {
        fill: #9886ba;
      }

      .cls-7 {
        fill: #9886bb;
      }

      .cls-8 {
        fill: #9786ba;
      }

      .cls-9 {
        fill: #9785b9;
      }

      .cls-10 {
        fill: #9c8ac1;
      }

      .cls-11 {
        fill: #9c8ac0;
      }

      .cls-12 {
        fill: #9282b4;
      }

      .cls-13 {
        fill: #9281b4;
      }

      .cls-14 {
        fill: #8779a9;
      }

      .cls-15 {
        fill: #8a7bac;
      }

      .cls-16 {
        fill: #9d8ac1;
      }

      .cls-17 {
        fill: #8d7daf;
      }

      .cls-18 {
        fill: #9080b2;
      }

      .cls-19 {
        fill: #9382b5;
      }

      .cls-20 {
        fill: #9181b3;
      }

      .cls-21 {
        fill: #9180b3;
      }

      .cls-22 {
        fill: #8c7dae;
      }

      .cls-23 {
        fill: #8c7cae;
      }

      .cls-24 {
        fill: #8e7eb0;
      }

      .cls-25 {
        fill: #8f7fb1;
      }

      .cls-26 {
        fill: #8d7eaf;
      }

      .cls-27 {
        fill: #8577a7;
      }

      .cls-28 {
        fill: #bde5ee;
      }

      .cls-29 {
        fill: #413956;
      }

      .cls-30 {
        fill: #9483b6;
      }

      .cls-31 {
        fill: #9483b7;
      }

      .cls-32 {
        fill: #9b88be;
      }

      .cls-33 {
        fill: #9b89bf;
      }

      .cls-34 {
        fill: #9b89be;
      }

      .cls-35 {
        fill: #9584b7;
      }

      .cls-36 {
        fill: #9684b8;
      }

      .cls-37 {
        fill: #9685b8;
      }

      .cls-38 {
        fill: #9685b9;
      }

      .cls-39 {
        fill: #8b7cad;
      }

      .cls-40 {
        fill: #897aab;
      }

      .cls-41 {
        fill: #9a88bd;
      }

      .cls-42 {
        fill: #887aaa;
      }

      .cls-43 {
        fill: #887aab;
      }

      .cls-44 {
        fill: #8879aa;
      }

      .cls-45 {
        fill: #897bab;
      }

      .cls-46 {
        fill: #8678a9;
      }

      .cls-47 {
        fill: #8678a8;
      }

      .cls-48 {
        fill: #8477a6;
      }

      .cls-49 {
        fill: #8477a7;
      }

      .cls-50 {
        fill: #8476a6;
      }

      .cls-51 {
        fill: #4e4563;
      }
    </style>
  </defs>
  <g id="Layer_3" data-name="Layer 3">
    <g>
      <polygon class="cls-2" points="90.69 14.96 87.62 16.45 91.28 17.64 88.15 19.88 91.82 21.08 88.94 23.99 90.97 21.27 92.12 24.6 92.53 21.1 93.68 24.43 92.63 22.15 95.74 20.68 92.09 19.44 95.26 17.24 91.61 15.99 94.52 13.1 92.46 15.82 91.28 12.49 90.85 16 88.14 14.45 90.69 14.96"/>
      <polygon class="cls-2" points="95.56 16.41 93.43 11.85 93.44 16.88 91.3 12.32 91.31 17.36 89.17 12.8 88.31 17.72 88.39 12.73 84.81 16.2 87.79 12.2 82.85 12.91 87.62 11.71 82.79 12.66 87.56 11.46 82.74 12.4 87.5 11.2 82.59 10.33 87.58 10.42 84.1 6.83 88.1 9.82 87.39 4.88 89.53 9.44 89.51 4.4 91.65 8.96 91.65 3.93 93.79 8.48 94.65 3.56 94.57 8.56 98.15 5.08 95.17 9.08 100.11 8.37 95.34 9.57 100.16 8.62 95.4 9.82 100.22 8.88 95.46 10.09 100.37 10.95 95.38 10.87 98.86 14.45 94.86 11.47 95.56 16.41"/>
      <polygon class="cls-2" points="106.6 17.29 104.18 17.65 106.47 19.19 103.85 20.06 106.14 21.6 103.56 22.98 105.51 21.52 105.6 24.05 106.58 21.72 106.68 24.25 106.41 22.45 108.85 22.11 106.58 20.54 109.21 19.71 106.95 18.14 109.55 16.78 107.58 18.24 107.46 15.7 106.47 18.03 104.91 16.5 106.6 17.29"/>
      <polygon class="cls-2" points="108.42 19.15 108.24 15.63 106.92 18.9 106.74 15.38 105.41 18.64 105.23 15.12 103.37 18.08 104.75 14.87 101.51 16.17 104.5 14.37 101.11 13.53 104.52 14.01 101.14 13.35 104.55 13.83 101.17 13.17 104.58 13.65 101.62 11.79 104.83 13.16 103.53 9.92 105.33 12.92 106.18 9.53 106.35 13.04 107.67 9.78 107.85 13.3 109.18 10.03 109.36 13.55 111.22 10.59 109.85 13.81 113.09 12.5 110.09 14.3 113.48 15.15 110.08 14.67 113.45 15.33 110.05 14.84 113.42 15.51 110.01 15.03 112.97 16.89 109.76 15.51 111.07 18.76 109.26 15.76 108.42 19.15"/>
      <polygon class="cls-2" points="121.24 18.46 117.63 18.17 120.5 21.05 116.45 21.44 119.32 24.33 115.16 25.46 118.42 23.94 117.74 27.64 119.86 24.54 119.18 28.24 119.32 25.53 122.95 25.86 120.12 22.93 124.18 22.61 121.36 19.68 125.53 18.58 122.25 20.09 122.9 16.39 120.75 19.48 118.94 16.93 121.24 18.46"/>
      <polygon class="cls-2" points="123.9 21.78 124.68 16.87 121.88 20.98 122.66 16.07 119.85 20.17 120.63 15.26 117.17 18.78 120.01 14.74 115.15 15.57 119.81 13.95 115.39 11.77 119.94 13.44 115.48 11.53 120.04 13.2 115.58 11.28 120.14 12.95 116.62 9.5 120.65 12.34 119.83 7.47 121.44 12.13 123.63 7.71 122.84 12.62 125.65 8.52 124.87 13.43 127.68 9.33 126.9 14.24 130.36 10.72 127.52 14.75 132.38 13.93 127.72 15.54 132.14 17.73 127.58 16.06 132.04 17.97 127.49 16.29 131.95 18.21 127.39 16.54 130.91 20 126.87 17.16 127.7 22.03 126.08 17.36 123.9 21.78"/>
      <polygon class="cls-2" points="135.53 26.11 132.57 25.67 134.36 28.37 131.12 28.29 132.91 30.99 129.51 31.34 131.97 30.51 131.2 33.32 132.85 30.91 132.08 33.73 132.15 31.57 135.12 32.04 133.36 29.32 136.6 29.44 134.84 26.71 138.25 26.38 135.78 27.21 136.53 24.38 134.87 26.79 133.58 25.4 135.53 26.11"/>
      <polygon class="cls-2" points="135.53 29.07 136.37 26.22 134.48 28.52 135.32 25.67 133.44 27.96 134.27 25.11 131.93 26.95 133.84 24.67 130.86 24.77 133.75 24.08 131.32 22.36 133.86 23.79 131.32 22.36 133.86 23.79 131.32 22.36 133.86 23.79 132.1 21.39 134.33 23.37 134.31 20.38 135.01 23.28 136.7 20.82 135.85 23.67 137.74 21.37 136.9 24.22 138.79 21.93 137.95 24.78 140.29 22.94 138.39 25.23 141.36 25.12 138.47 25.82 140.9 27.53 138.37 26.1 140.9 27.53 138.37 26.1 140.9 27.53 138.37 26.1 140.12 28.51 137.89 26.52 137.91 29.51 137.21 26.61 135.53 29.07"/>
      <polygon class="cls-2" points="148.07 34.32 144.77 33.02 146.57 36.57 142.66 35.79 144.46 39.35 140.24 39.22 143.72 38.77 142.02 42.02 144.92 39.77 143.22 43.03 144.16 40.56 147.46 41.9 145.72 38.32 149.61 39.17 147.87 35.58 152.1 35.75 148.59 36.18 150.27 32.91 147.35 35.14 146.46 32.15 148.07 34.32"/>
      <polygon class="cls-2" points="148.56 38.18 150.85 34.14 146.97 36.7 149.26 32.65 145.37 35.21 147.65 31.16 143.42 32.99 147.22 30.37 142.71 29.36 147.33 29.46 144.27 26 147.67 28.99 144.44 25.81 147.84 28.8 144.63 25.62 148.03 28.6 146.2 24.36 148.82 28.16 149.83 23.66 149.73 28.27 153.19 25.22 150.9 29.26 154.78 26.7 152.5 30.75 156.38 28.19 154.1 32.24 158.34 30.41 154.54 33.03 159.04 34.04 154.43 33.94 157.48 37.4 154.09 34.42 157.31 37.59 153.91 34.6 157.13 37.78 153.73 34.8 155.55 39.04 152.93 35.24 151.93 39.74 152.02 35.13 148.56 38.18"/>
      <polygon class="cls-2" points="159.45 43.36 155.76 41.29 157.12 45.86 152.62 44.27 153.97 48.84 148.98 47.97 153.17 48.14 150.6 51.65 154.44 49.61 151.87 53.13 153.46 50.46 157.15 52.58 155.87 47.99 160.34 49.65 159.07 45.06 164.05 45.98 159.84 45.78 162.39 42.24 158.52 44.26 158.21 40.39 159.45 43.36"/>
      <polygon class="cls-2" points="159.92 48.84 163.26 44.07 158.12 46.82 161.46 42.04 156.31 44.78 159.65 40 154.15 41.79 159.2 38.98 153.7 37.19 159.44 37.87 156.04 33.2 159.92 37.33 156.28 32.99 160.16 37.12 156.53 32.77 160.41 36.9 158.63 31.4 161.43 36.45 163.22 30.95 162.54 36.69 167.21 33.29 163.87 38.06 169.01 35.31 165.67 40.09 170.82 37.35 167.48 42.13 172.98 40.35 167.93 43.15 173.43 44.94 167.69 44.26 171.09 48.93 167.21 44.8 170.85 49.14 166.97 45.01 170.61 49.36 166.72 45.24 168.5 50.74 165.7 45.68 163.91 51.18 164.59 45.44 159.92 48.84"/>
      <polygon class="cls-2" points="164.46 58.96 162.48 57.26 162.84 60.19 160.29 58.7 160.64 61.64 157.71 60.52 160.27 61.14 158.23 62.94 160.84 62.19 158.8 63.99 160.1 62.57 162.07 64.31 161.75 61.37 164.28 62.91 163.97 59.96 166.9 61.11 164.33 60.47 166.36 58.66 163.74 59.38 164.01 57.01 164.46 58.96"/>
      <polygon class="cls-2" points="163.85 62.15 166.64 59.74 163.13 60.86 165.92 58.45 162.4 59.58 165.19 57.16 161.5 57.5 165.02 56.32 161.78 54.52 165.34 55.54 163.76 52.19 165.64 55.28 163.76 52.19 165.64 55.28 163.76 52.19 165.64 55.28 165.19 51.61 166.34 55.12 168.21 51.94 167.02 55.43 170.42 53.98 167.62 56.39 171.14 55.26 168.35 57.67 171.86 56.55 169.07 58.96 172.76 58.62 169.24 59.8 172.48 61.61 168.92 60.59 170.5 63.93 168.62 60.85 170.5 63.93 168.62 60.85 170.5 63.93 168.62 60.85 169.07 64.51 167.92 61 166.05 64.19 167.24 60.69 163.85 62.15"/>
      <polygon class="cls-2" points="171.81 73.91 170.1 70.89 169.2 74.69 166.71 71.68 165.81 75.49 162.67 72.77 165.58 74.62 162.28 76.03 165.86 76.16 162.56 77.57 164.8 76.31 166.5 79.36 167.45 75.57 169.9 78.63 170.86 74.84 173.98 77.59 171.06 75.71 174.36 74.27 170.77 74.12 172.05 71.27 171.81 73.91"/>
      <polygon class="cls-2" points="169.74 77.89 174.35 75.87 169.32 75.76 173.93 73.73 168.89 73.61 173.5 71.58 168.6 70.6 173.6 70.81 170.21 67.14 174.13 70.22 173.55 65.26 174.63 70.06 173.8 65.21 174.88 70.01 174.06 65.16 175.15 69.96 176.13 65.06 175.92 70.05 179.59 66.66 176.51 70.59 181.47 70 176.86 72.02 181.89 72.13 177.28 74.16 182.32 74.28 177.71 76.31 182.6 77.29 177.61 77.08 181 80.75 177.07 77.67 177.66 82.63 176.58 77.83 177.41 82.68 176.33 77.88 177.15 82.73 176.06 77.93 175.08 82.83 175.29 77.84 171.62 81.23 174.7 77.3 169.74 77.89"/>
      <polygon class="cls-2" points="171.15 94.78 170.58 93.01 169.63 94.88 168.65 93.02 167.69 94.9 166.33 93.11 167.63 94.43 165.74 94.79 167.59 95.3 165.71 95.66 167.02 95.29 167.58 97.08 168.56 95.22 169.51 97.1 170.5 95.24 171.84 97.05 170.54 95.71 172.43 95.33 170.58 94.8 171.68 93.47 171.15 94.78"/>
      <polygon class="cls-2" points="169.52 96.72 172.27 96.2 169.55 95.51 172.3 94.98 169.59 94.3 172.34 93.77 169.8 92.63 172.49 93.36 171.1 90.95 172.85 93.11 173.14 90.34 173.14 93.08 173.28 90.35 173.28 93.08 173.43 90.35 173.43 93.09 174.57 90.55 173.84 93.23 176.25 91.85 174.09 93.6 176.85 93.89 174.1 94.42 176.82 95.1 174.07 95.63 176.79 96.32 174.04 96.85 176.57 97.98 173.89 97.26 175.27 99.67 173.52 97.51 173.23 100.27 173.24 97.54 173.09 100.27 173.1 97.53 172.94 100.26 172.94 97.53 171.81 100.06 172.53 97.38 170.13 98.76 172.28 97.02 169.52 96.72"/>
      <polygon class="cls-2" points="172.8 109.66 172.51 106.12 170.11 109.31 169.1 105.45 166.7 108.64 164.94 104.79 166.89 107.73 163.21 107.63 166.52 109.24 162.84 109.15 165.48 108.9 165.73 112.46 168.18 109.31 169.13 113.19 171.58 110.03 173.3 113.91 171.36 110.95 175.04 111.01 171.74 109.37 174.03 107.24 172.8 109.66"/>
      <polygon class="cls-2" points="169.31 112.4 174.34 112.45 169.79 110.29 174.83 110.32 170.28 108.16 175.32 108.19 171.26 105.29 175.72 107.52 174.14 102.79 176.45 107.21 177.95 102.45 176.97 107.26 178.2 102.5 177.22 107.32 178.46 102.56 177.49 107.38 180.39 103.32 178.16 107.79 182.89 106.2 178.47 108.52 183.23 110.01 178.2 109.97 182.74 112.13 177.71 112.09 182.25 114.26 177.22 114.22 181.28 117.13 176.82 114.9 178.4 119.63 176.08 115.21 174.59 119.97 175.56 115.15 174.34 119.91 175.31 115.1 174.08 119.85 175.05 115.04 172.15 119.1 174.38 114.63 169.65 116.22 174.07 113.9 169.31 112.4"/>
      <polygon class="cls-2" points="164.84 124.99 165.1 122.65 163.18 124.47 163 121.83 161.07 123.64 160.4 120.92 161.34 123.06 158.94 122.55 160.92 123.99 158.53 123.48 160.29 123.62 160 125.97 161.95 124.18 162.09 126.83 164.05 125.04 164.69 127.78 163.76 125.62 166.16 126.11 164.19 124.66 165.88 123.52 164.84 124.99"/>
      <polygon class="cls-2" points="162.33 126.33 165.5 126.93 162.89 125.04 166.06 125.63 163.45 123.73 166.62 124.32 164.4 122.02 166.96 123.93 166.52 120.76 167.48 123.81 168.98 120.99 167.82 123.91 169.13 121.05 167.97 123.97 169.29 121.12 168.13 124.04 170.43 121.82 168.52 124.39 171.69 123.94 168.64 124.91 171.47 126.4 168.3 125.81 170.91 127.7 167.74 127.11 170.35 129.01 167.18 128.42 169.4 130.72 166.83 128.81 167.28 131.97 166.31 128.93 164.82 131.75 165.98 128.83 164.66 131.69 165.83 128.77 164.51 131.62 165.67 128.7 163.37 130.91 165.27 128.35 162.11 128.79 165.15 127.83 162.33 126.33"/>
      <polygon class="cls-2" points="158.06 140.46 159.47 137.24 155.86 138.86 156.79 135.02 153.19 136.63 153.47 132.45 153.76 135.92 150.62 134.11 152.71 137.08 149.56 135.27 151.95 136.3 150.51 139.52 154.13 137.96 153.14 141.79 156.78 140.23 156.45 144.42 156.17 140.93 159.34 142.71 157.26 139.73 160.3 139 158.06 140.46"/>
      <polygon class="cls-2" points="153.79 141.32 157.91 143.54 155.24 139.7 159.36 141.91 156.69 138.07 160.81 140.27 158.87 136.06 161.59 139.82 162.49 135.27 162.49 139.91 165.9 136.75 162.97 140.24 166.09 136.92 163.16 140.41 166.28 137.1 163.36 140.59 167.58 138.64 163.81 141.36 168.37 142.26 163.73 142.27 166.88 145.67 162.76 143.46 165.44 147.29 161.32 145.09 163.99 148.92 159.86 146.72 161.8 150.94 159.09 147.17 158.18 151.72 158.18 147.08 154.78 150.24 157.7 146.76 154.59 150.07 157.51 146.59 154.39 149.89 157.31 146.41 153.1 148.35 156.86 145.63 152.31 144.73 156.95 144.73 153.79 141.32"/>
      <polygon class="cls-2" points="143.92 152.3 145.59 150.2 142.63 150.7 144.07 148.08 141.12 148.57 142.15 145.57 141.8 148.15 139.73 146.32 140.87 148.83 138.81 147 140.47 148.17 138.77 150.26 141.73 149.81 140.25 152.42 143.21 151.97 142.16 154.97 142.52 152.38 144.6 154.19 143.48 151.67 145.81 151.56 143.92 152.3"/>
      <polygon class="cls-2" points="141.01 152.2 143.56 154.39 142.13 151.35 144.68 153.54 143.26 150.5 145.81 152.68 145.11 149.39 146.52 152.44 148.02 149.43 147.23 152.71 150.25 151.21 147.51 153.02 150.25 151.21 147.51 153.02 150.25 151.21 147.51 153.02 150.86 152.53 147.78 153.93 150.84 155.38 147.5 154.84 149.19 157.77 146.64 155.58 148.07 158.62 145.52 156.44 146.94 159.48 144.39 157.29 145.08 160.59 143.68 157.53 142.18 160.54 142.97 157.27 139.95 158.77 142.68 156.95 139.95 158.77 142.68 156.95 139.95 158.77 142.68 156.95 139.33 157.45 142.42 156.05 139.36 154.6 142.7 155.14 141.01 152.2"/>
      <polygon class="cls-2" points="130.36 162.68 133.17 160.53 129.21 160.23 131.89 157.29 127.93 156.99 130.21 153.44 128.79 156.65 126.89 153.52 127.32 157.16 125.41 154.03 127.04 156.1 124.19 158.24 128.15 158.6 125.42 161.49 129.38 161.86 127.06 165.39 128.5 162.17 130.43 165.29 130.03 161.64 133.05 162.43 130.36 162.68"/>
      <polygon class="cls-2" points="126.17 161.24 128.83 165.46 128.21 160.51 130.88 164.72 130.27 159.77 132.94 163.99 133.2 159.04 133.74 163.97 136.85 160.12 134.41 164.42 139.19 163.13 134.64 164.89 139.27 163.38 134.73 165.14 139.36 163.62 134.82 165.39 139.76 165.65 134.84 166.18 138.69 169.3 134.39 166.86 135.68 171.63 133.02 167.41 133.63 172.37 130.96 168.15 131.57 173.1 128.9 168.88 128.64 173.83 128.11 168.9 124.99 172.76 127.44 168.45 122.66 169.74 127.2 167.98 122.57 169.5 127.11 167.74 122.48 169.25 127.02 167.48 122.08 167.22 127 166.69 123.15 163.57 127.46 166.02 126.17 161.24"/>
      <polygon class="cls-2" points="111.02 169.39 114.05 167.69 110.25 166.77 113.28 164.3 109.48 163.37 112.21 160.25 110.35 163.15 108.96 159.84 108.81 163.42 107.42 160.12 108.66 162.36 105.6 164.04 109.38 165.02 106.31 167.44 110.09 168.43 107.33 171.53 109.22 168.63 110.64 171.93 110.82 168.34 113.66 169.65 111.02 169.39"/>
      <polygon class="cls-2" points="107.05 167.29 109.05 171.92 109.19 166.88 111.19 171.5 111.33 166.47 113.34 171.09 114.35 166.2 114.11 171.19 117.8 167.82 114.69 171.73 119.66 171.17 114.85 172.23 119.71 171.42 114.9 172.48 119.75 171.68 114.95 172.74 119.84 173.76 114.85 173.52 118.22 177.21 114.31 174.1 114.87 179.06 112.88 174.44 112.74 179.48 110.73 174.85 110.59 179.89 108.59 175.26 107.57 180.16 107.81 175.17 104.12 178.53 107.23 174.62 102.26 175.18 107.07 174.13 102.22 174.93 107.02 173.88 102.17 174.67 106.97 173.61 102.08 172.6 107.07 172.84 103.7 169.14 107.61 172.25 107.05 167.29"/>
      <polygon class="cls-2" points="94.39 167.49 96.3 166.76 94.19 165.8 96.18 164.61 94.08 163.65 95.95 162.06 94.57 163.55 94.07 161.5 93.6 163.55 93.1 161.51 93.57 162.93 91.64 163.65 93.73 164.64 91.73 165.79 93.81 166.79 91.92 168.37 93.32 166.88 93.84 168.92 94.32 166.87 95.84 168.03 94.39 167.49"/>
      <polygon class="cls-2" points="92.14 165.78 92.87 168.8 93.48 165.76 94.22 168.77 94.82 165.73 95.57 168.74 96.69 165.87 96.03 168.88 98.62 167.22 96.33 169.28 99.4 169.45 96.37 169.59 99.41 169.61 96.38 169.75 99.41 169.77 96.38 169.92 99.25 171.04 96.24 170.38 97.91 172.97 95.85 170.68 95.68 173.76 94.94 170.74 94.33 173.79 93.59 170.77 92.99 173.82 92.24 170.8 91.12 173.67 91.78 170.66 89.19 172.32 91.48 170.27 88.41 170.09 91.44 169.95 88.4 169.94 91.43 169.79 88.4 169.77 91.43 169.62 88.56 168.5 91.57 169.16 89.9 166.57 91.96 168.86 92.14 165.78"/>
      <polygon class="cls-2" points="74.15 167.54 77.76 167.85 74.9 164.96 78.95 164.59 76.1 161.69 80.26 160.57 77 162.08 77.69 158.38 75.55 161.48 76.25 157.78 76.1 160.49 72.48 160.14 75.29 163.08 71.23 163.38 74.04 166.33 69.86 167.41 73.15 165.91 72.48 169.61 74.64 166.53 76.44 169.09 74.15 167.54"/>
      <polygon class="cls-2" points="72 163.72 71.19 168.62 74.02 164.53 73.22 169.44 76.04 165.35 75.24 170.26 78.71 166.75 75.86 170.77 80.73 169.97 76.06 171.57 80.47 173.77 75.92 172.08 80.37 174.01 75.82 172.32 80.27 174.26 75.72 172.57 79.23 176.04 75.21 173.18 76.01 178.05 74.41 173.38 72.21 177.79 73.02 172.89 70.19 176.98 70.99 172.07 68.17 176.16 68.96 171.25 65.5 174.76 68.35 170.73 63.48 171.54 68.15 169.94 63.74 167.74 68.29 169.43 63.84 167.5 68.39 169.19 63.94 167.25 68.49 168.94 64.98 165.47 69 168.33 68.2 163.46 69.79 168.13 72 163.72"/>
      <polygon class="cls-2" points="58.65 159.04 61.35 159.89 59.68 157.19 62.83 157.6 61.17 154.89 64.52 154.75 61.79 155.33 62.95 152.64 60.79 154.62 61.94 151.93 61.36 153.95 58.67 153.08 60.28 155.8 57.15 155.34 58.76 158.07 55.4 158.18 58.15 157.62 57.02 160.31 59.19 158.35 60.1 160.63 58.65 159.04"/>
      <polygon class="cls-2" points="57.63 155.79 56.23 159.29 59.03 156.76 57.64 160.27 60.44 157.74 59.05 161.25 62.23 159.26 59.46 161.78 63.19 162.04 59.47 162.47 62.35 164.87 59.27 162.85 62.23 165.03 59.15 163.02 62.11 165.2 59.03 163.19 61.02 166.37 58.5 163.6 58.24 167.33 57.81 163.62 55.41 166.49 56.81 162.98 54.01 165.51 55.4 162.01 52.6 164.54 53.99 161.03 50.81 163.01 53.58 160.49 49.85 160.23 53.57 159.81 50.7 157.41 53.77 159.42 50.81 157.24 53.89 159.26 50.93 157.07 54.01 159.08 52.02 155.9 54.54 158.67 54.8 154.94 55.23 158.66 57.63 155.79"/>
      <polygon class="cls-2" points="42.47 149.65 45.62 151.13 44.15 147.51 47.93 148.53 46.45 144.9 50.59 145.3 47.14 145.47 49.03 142.41 46.02 144.39 47.9 141.32 46.8 143.65 43.65 142.13 45.07 145.78 41.3 144.7 42.72 148.35 38.58 147.91 42.05 147.75 40.18 150.84 43.21 148.88 43.81 151.94 42.47 149.65"/>
      <polygon class="cls-2" points="41.72 145.36 39.41 149.38 43.3 146.85 40.99 150.88 44.89 148.36 42.58 152.38 46.82 150.6 43.01 153.18 47.5 154.23 42.9 154.1 45.91 157.57 42.55 154.56 45.74 157.76 42.38 154.75 45.56 157.95 42.19 154.95 43.97 159.19 41.39 155.38 40.35 159.87 40.48 155.26 37 158.28 39.31 154.26 35.42 156.79 37.73 152.76 33.83 155.29 36.14 151.26 31.89 153.05 35.71 150.46 31.22 149.42 35.82 149.55 32.81 146.07 36.17 149.08 32.98 145.89 36.34 148.89 33.16 145.69 36.53 148.69 34.74 144.45 37.33 148.26 38.37 143.77 38.24 148.38 41.72 145.36"/>
      <polygon class="cls-2" points="34.57 135.89 36.44 137.24 35.95 134.66 38.33 135.79 37.84 133.2 40.53 133.96 38.22 133.51 39.96 131.85 37.66 132.56 39.4 130.89 38.32 132.16 36.45 130.77 36.9 133.37 34.55 132.2 34.99 134.79 32.3 134 34.63 134.46 32.9 136.15 35.21 135.45 34.96 137.62 34.57 135.89"/>
      <polygon class="cls-2" points="35.05 132.86 32.54 135.17 35.75 134.02 33.24 136.33 36.45 135.19 33.94 137.49 37.34 137.06 34.15 138.31 37.24 139.79 33.89 139.1 35.58 142.07 33.63 139.36 35.58 142.07 33.63 139.36 35.58 142.07 33.63 139.36 34.31 142.69 33.08 139.52 31.49 142.53 32.52 139.28 29.44 140.73 31.95 138.43 28.74 139.58 31.25 137.27 28.03 138.41 30.54 136.1 27.15 136.53 30.34 135.29 27.25 133.81 30.6 134.5 28.91 131.53 30.86 134.24 28.91 131.53 30.86 134.24 28.91 131.53 30.86 134.24 30.18 130.9 31.41 134.07 32.99 131.06 31.96 134.31 35.05 132.86"/>
      <polygon class="cls-2" points="23.46 125.05 26.44 128.38 26.48 123.39 30.38 126.5 30.43 121.51 35.04 124.09 30.94 122.63 34.68 119.98 30.19 120.91 33.93 118.25 31.54 120.53 28.57 117.15 28.45 122.14 24.6 118.97 24.48 123.96 19.88 121.33 24 122.82 20.27 125.5 24.78 124.6 24.28 128.31 23.46 125.05"/>
      <polygon class="cls-2" points="24.79 120 20.02 123.56 25.85 122.39 21.08 125.95 26.92 124.79 22.15 128.34 28.05 128.23 22.25 129.31 27.09 132.68 21.76 130.17 23.7 135.74 21.2 130.5 23.42 135.86 20.92 130.62 23.13 135.99 20.63 130.75 20.74 136.65 19.66 130.85 16.29 135.7 18.8 130.36 13.23 132.31 18.01 128.75 12.17 129.92 16.94 126.36 11.11 127.52 15.88 123.97 9.98 124.08 15.78 123 10.93 119.63 16.27 122.14 14.32 116.57 16.82 121.81 14.61 116.45 17.1 121.69 14.9 116.32 17.4 121.56 17.28 115.66 18.37 121.46 21.73 116.61 19.22 121.95 24.79 120"/>
      <polygon class="cls-2" points="21.09 110.37 22.67 113.43 23.74 109.71 26.09 112.79 27.17 109.07 30.17 111.89 27.38 109.92 30.7 108.68 27.16 108.38 30.49 107.12 28.21 108.26 26.66 105.17 25.52 108.87 23.23 105.74 22.09 109.45 19.11 106.59 21.91 108.59 18.59 109.87 22.13 110.19 20.69 112.96 21.09 110.37"/>
      <polygon class="cls-2" points="23.35 106.47 18.65 108.28 23.68 108.62 18.97 110.43 24 110.78 19.3 112.6 24.15 113.8 19.17 113.36 22.39 117.19 18.61 113.92 18.97 118.91 18.11 114.06 18.71 118.95 17.85 114.1 18.45 118.99 17.59 114.14 16.38 118.99 16.82 114.01 12.99 117.23 16.26 113.45 11.27 113.81 15.98 112 10.95 111.66 15.65 109.85 10.62 109.5 15.32 107.68 10.47 106.48 15.45 106.91 12.23 103.09 16.02 106.35 15.65 101.37 16.52 106.22 15.91 101.33 16.77 106.18 16.17 101.29 17.04 106.14 18.24 101.29 17.81 106.27 21.63 103.05 18.37 106.83 23.35 106.47"/>
      <polygon class="cls-2" points="21.21 94.8 22 97 23.09 94.44 24.57 96.79 25.66 94.23 27.74 96.37 25.81 94.59 28.26 93.78 25.79 93.03 28.24 92.22 26.42 92.52 25.65 90.29 24.51 92.82 23.08 90.44 21.93 92.98 19.87 90.81 21.81 92.61 19.36 93.45 21.83 94.23 19.79 95.98 21.21 94.8"/>
      <polygon class="cls-2" points="23.75 91.02 18.87 92.07 23.79 92.93 18.9 93.99 23.83 94.86 18.94 95.91 23.71 97.44 18.73 97.06 22.27 100.57 18.34 97.59 18.56 102.49 18.38 97.58 18.56 102.49 18.38 97.58 18.56 102.49 18.38 97.58 16.34 102.02 18.32 97.48 13.7 99.32 17.91 96.63 12.93 96.13 17.82 95.08 12.89 94.22 17.78 93.16 12.86 92.3 17.74 91.24 12.97 89.71 17.96 90.1 14.41 86.58 18.35 89.57 18.13 84.67 18.3 89.57 18.13 84.67 18.3 89.57 18.13 84.67 18.3 89.57 20.35 85.13 18.37 89.68 22.99 87.83 18.77 90.53 23.75 91.02"/>
      <polygon class="cls-2" points="20.23 77.84 20.62 81.35 22.93 78.12 24.05 81.93 26.37 78.7 28.22 82.48 26.2 79.61 29.86 79.6 26.53 78.08 30.19 78.07 27.59 78.39 27.23 74.85 24.87 78.05 23.81 74.22 21.45 77.41 19.63 73.6 21.64 76.5 17.97 76.54 21.3 78.09 19.05 80.26 20.23 77.84"/>
      <polygon class="cls-2" points="23.66 75 18.63 75.08 23.23 77.13 18.19 77.22 22.8 79.27 17.76 79.36 21.9 82.16 17.37 80.04 19.08 84.73 16.65 80.37 15.28 85.17 16.13 80.33 15.02 85.12 15.88 80.28 14.77 85.07 15.61 80.22 12.82 84.36 14.93 79.84 10.24 81.55 14.6 79.11 9.8 77.74 14.83 77.66 10.23 75.61 15.27 75.52 10.67 73.47 15.7 73.38 11.57 70.58 16.09 72.7 14.38 68 16.81 72.37 18.19 67.57 17.33 72.41 18.44 67.62 17.59 72.46 18.7 67.67 17.85 72.51 20.65 68.38 18.53 72.9 23.22 71.19 18.86 73.62 23.66 75"/>
      <polygon class="cls-2" points="26.5 62.22 26.15 64.86 28.38 62.86 28.52 65.86 30.76 63.86 31.46 66.96 30.42 64.52 33.14 65.06 30.9 63.43 33.62 63.97 31.6 63.78 31.98 61.12 29.72 63.09 29.63 60.09 27.36 62.05 26.68 58.94 27.71 61.39 24.98 60.87 27.22 62.52 25.17 63.78 26.5 62.22"/>
      <polygon class="cls-2" points="29.29 60.8 25.65 60.05 28.72 62.14 25.08 61.39 28.15 63.49 24.51 62.75 27.08 65.44 24.02 63.32 24.51 67.01 23.34 63.48 21.49 66.7 23.01 63.39 21.49 66.7 23.01 63.39 21.49 66.7 23.01 63.39 20.2 65.83 22.46 62.87 18.75 63.2 22.29 62.05 19.04 60.23 22.68 60.98 19.61 58.89 23.25 59.64 20.18 57.54 23.82 58.29 21.25 55.59 24.31 57.71 23.81 54.03 24.99 57.55 26.84 54.33 25.32 57.64 26.84 54.33 25.32 57.64 26.84 54.33 25.32 57.64 28.13 55.2 25.87 58.16 29.58 57.83 26.03 58.98 29.29 60.8"/>
      <polygon class="cls-2" points="31.93 48.12 30.88 51.56 34.3 49.41 33.82 53.42 37.24 51.28 37.46 55.55 36.69 52.07 40.13 53.52 37.59 50.79 41.02 52.23 38.44 51.51 39.53 48.07 36.08 50.16 36.62 46.16 33.17 48.25 32.99 43.97 33.74 47.47 30.29 46.05 32.82 48.8 29.93 49.99 31.93 48.12"/>
      <polygon class="cls-2" points="36.07 46.78 31.59 45.04 34.85 48.58 30.36 46.84 33.62 50.38 29.13 48.65 31.69 52.67 28.45 49.17 28.17 53.94 27.59 49.2 24.56 52.89 27.09 48.94 24.35 52.74 26.88 48.8 24.13 52.59 26.66 48.65 22.63 51.21 26.14 47.97 21.37 47.68 26.11 47.1 22.42 44.08 26.9 45.82 23.64 42.28 28.13 44.02 24.87 40.47 29.36 42.21 26.79 38.18 30.04 41.69 30.32 36.92 30.9 41.66 33.93 37.97 31.4 41.92 34.14 38.11 31.61 42.06 34.36 38.26 31.83 42.21 35.86 39.65 32.35 42.89 37.12 43.17 32.38 43.75 36.07 46.78"/>
      <polygon class="cls-2" points="41.88 35.64 40.12 38.57 43.83 37.56 42.44 41.16 46.16 40.15 45.34 44.16 45.56 40.78 48.34 42.94 46.77 39.79 49.55 41.95 47.42 40.61 49.23 37.68 45.5 38.63 46.94 35.06 43.21 36 44.07 31.99 43.83 35.4 41.02 33.26 42.58 36.42 39.46 36.61 41.88 35.64"/>
      <polygon class="cls-2" points="46.29 35.4 42.51 32.59 44.62 36.8 40.84 34 42.95 38.21 39.17 35.41 40.5 39.88 38.35 35.74 36.79 40.14 37.47 35.52 33.63 38.18 37.05 35.13 33.47 37.98 36.89 34.94 33.3 37.78 36.71 34.73 32.23 36.06 36.38 33.91 31.97 32.35 36.6 33.03 33.94 29.19 37.72 32 35.6 27.79 39.39 30.59 37.27 26.38 41.06 29.19 39.73 24.71 41.88 28.85 43.43 24.45 42.76 29.07 46.6 26.41 43.18 29.46 46.76 26.61 43.34 29.65 46.93 26.81 43.52 29.86 47.99 28.53 43.85 30.68 48.25 32.24 43.63 31.56 46.29 35.4"/>
      <polygon class="cls-2" points="53.93 29.28 52.39 31.01 54.98 30.71 53.62 32.94 56.22 32.65 55.19 35.22 55.71 32.98 57.32 34.76 56.6 32.47 58.22 34.24 56.92 33.11 58.48 31.39 55.89 31.64 57.28 29.43 54.68 29.68 55.73 27.11 55.2 29.36 53.57 27.6 54.28 29.9 52.22 29.75 53.93 29.28"/>
      <polygon class="cls-2" points="56.81 29.65 54.6 27.32 55.58 30.37 53.37 28.05 54.34 31.11 52.13 28.78 52.54 31.94 51.59 28.9 50.08 31.7 51.07 28.68 48.21 30.06 50.86 28.4 48.12 29.92 50.77 28.25 48.03 29.77 50.68 28.1 47.52 28.52 50.56 27.56 47.76 26.05 50.78 27.05 49.4 24.18 51.61 26.51 50.63 23.45 52.84 25.77 51.87 22.72 54.09 25.04 53.67 21.88 54.62 24.92 56.14 22.12 55.14 25.14 58 23.76 55.36 25.43 58.09 23.91 55.44 25.57 58.18 24.06 55.53 25.73 58.69 25.31 55.65 26.26 58.45 27.78 55.43 26.78 56.81 29.65"/>
      <polygon class="cls-2" points="66.82 20.19 64.26 22.63 68.24 22.5 65.89 25.71 69.87 25.58 67.98 29.35 69.04 26 71.27 28.91 70.45 25.34 72.69 28.24 70.84 26.36 73.44 23.93 69.46 24 71.87 20.83 67.89 20.9 69.81 17.13 68.73 20.49 66.47 17.6 67.27 21.19 64.18 20.73 66.82 20.19"/>
      <polygon class="cls-2" points="70.64 20.64 67.57 16.79 68.69 21.59 65.6 17.75 66.72 22.55 63.64 18.7 63.9 23.59 62.83 18.81 60.17 22.92 62.09 18.43 57.54 20.19 61.8 17.97 57.43 19.96 61.69 17.74 57.31 19.73 61.57 17.5 56.69 17.76 61.46 16.69 57.35 14.04 61.85 15.96 60.08 11.4 63.16 15.25 62.04 10.45 65.12 14.3 64 9.49 67.09 13.34 66.83 8.46 67.9 13.23 70.55 9.12 68.63 13.62 73.19 11.85 68.92 14.07 73.3 12.08 69.03 14.3 73.42 12.32 69.15 14.54 74.04 14.28 69.26 15.35 73.37 18 68.88 16.08 70.64 20.64"/>
      <polygon class="cls-2" points="79.3 17.93 77.21 19.18 79.89 19.73 77.81 21.53 80.5 22.09 78.65 24.34 79.89 22.26 80.94 24.56 80.96 22.04 82.01 24.33 81.08 22.78 83.2 21.55 80.52 20.94 82.63 19.18 79.95 18.58 81.83 16.35 80.57 18.42 79.5 16.13 79.46 18.66 77.44 17.82 79.3 17.93"/>
      <polygon class="cls-2" points="81.69 18.96 80.2 15.77 80.21 19.29 78.71 16.11 78.71 19.63 77.22 16.44 76.61 19.88 76.67 16.39 74.17 18.82 76.25 16.02 72.8 16.52 76.13 15.68 72.76 16.34 76.09 15.5 72.72 16.16 76.05 15.32 72.62 14.72 76.1 14.77 73.68 12.27 76.47 14.35 75.98 10.9 77.47 14.09 77.46 10.57 78.95 13.75 78.95 10.24 80.45 13.42 81.05 9.98 80.99 13.47 83.5 11.04 81.41 13.84 84.86 13.34 81.53 14.18 84.9 13.52 81.57 14.36 84.94 13.7 81.61 14.54 85.05 15.15 81.56 15.09 83.99 17.59 81.19 15.51 81.69 18.96"/>
      <g>
        <polygon class="cls-50" points="193.59 93.05 137.57 106.68 175.43 150.16 121.94 128.68 127.05 186.09 96.8 137.05 66.54 186.09 71.65 128.68 18.16 150.16 56.02 106.68 0 93.05 56.02 79.42 18.16 35.93 71.65 57.41 66.54 0 96.8 49.05 127.05 0 121.94 57.41 175.43 35.94 137.57 79.42 193.59 93.05"/>
        <polygon class="cls-48" points="193.44 92.97 137.47 106.59 175.3 150.03 121.85 128.58 126.96 185.93 96.73 136.93 66.51 185.93 71.62 128.58 18.17 150.03 56 106.59 .03 92.97 56 79.36 18.17 35.92 71.62 57.37 66.51 .02 96.73 49.02 126.96 .02 121.85 57.37 175.3 35.92 137.47 79.36 193.44 92.97"/>
        <polygon class="cls-49" points="193.28 92.9 137.37 106.5 175.16 149.9 121.77 128.47 126.87 185.77 96.67 136.81 66.48 185.77 71.58 128.47 18.19 149.9 55.98 106.5 .07 92.9 55.98 79.3 18.19 35.9 71.58 57.33 66.48 .03 96.67 48.99 126.87 .03 121.77 57.33 175.16 35.9 137.37 79.3 193.28 92.9"/>
        <polygon class="cls-27" points="193.13 92.83 137.27 106.42 175.02 149.77 121.68 128.36 126.78 185.6 96.61 136.7 66.44 185.6 71.54 128.36 18.2 149.77 55.96 106.42 .1 92.83 55.96 79.24 18.2 35.88 71.54 57.29 66.45 .05 96.61 48.96 126.78 .05 121.68 57.29 175.02 35.88 137.27 79.24 193.13 92.83"/>
        <polygon class="cls-27" points="192.97 92.75 137.17 106.33 174.89 149.64 121.6 128.25 126.69 185.44 96.55 136.58 66.41 185.44 71.51 128.25 18.22 149.64 55.94 106.33 .13 92.75 55.94 79.18 18.22 35.86 71.51 57.25 66.41 .07 96.55 48.92 126.69 .07 121.6 57.25 174.89 35.86 137.17 79.18 192.97 92.75"/>
        <polygon class="cls-47" points="192.82 92.68 137.07 106.24 174.75 149.51 121.51 128.14 126.6 185.27 96.49 136.46 66.38 185.27 71.47 128.14 18.24 149.51 55.92 106.24 .17 92.68 55.92 79.12 18.24 35.84 71.47 57.22 66.38 .09 96.49 48.89 126.6 .09 121.51 57.22 174.75 35.85 137.07 79.12 192.82 92.68"/>
        <polygon class="cls-47" points="192.66 92.61 136.97 106.16 174.61 149.38 121.43 128.03 126.51 185.11 96.43 136.35 66.35 185.11 71.43 128.03 18.25 149.38 55.9 106.16 .2 92.61 55.9 79.05 18.25 35.83 71.44 57.18 66.35 .1 96.43 48.86 126.51 .1 121.43 57.18 174.61 35.83 136.97 79.06 192.66 92.61"/>
        <polygon class="cls-46" points="192.51 92.53 136.86 106.07 174.47 149.25 121.34 127.93 126.42 184.94 96.37 136.23 66.32 184.94 71.4 127.93 18.27 149.25 55.88 106.07 .24 92.53 55.88 78.99 18.27 35.81 71.4 57.14 66.32 .12 96.37 48.83 126.42 .12 121.34 57.14 174.47 35.81 136.86 78.99 192.51 92.53"/>
        <polygon class="cls-14" points="192.35 92.46 136.76 105.98 174.34 149.13 121.26 127.82 126.33 184.78 96.31 136.11 66.29 184.78 71.36 127.82 18.28 149.13 55.86 105.98 .27 92.46 55.86 78.93 18.28 35.79 71.36 57.1 66.29 .14 96.31 48.8 126.33 .14 121.26 57.1 174.34 35.79 136.76 78.93 192.35 92.46"/>
        <polygon class="cls-14" points="192.2 92.38 136.66 105.9 174.2 149 121.17 127.71 126.24 184.62 96.25 136 66.26 184.62 71.33 127.71 18.3 149 55.84 105.9 .3 92.38 55.84 78.87 18.3 35.77 71.33 57.06 66.26 .15 96.25 48.77 126.24 .15 121.17 57.06 174.2 35.77 136.66 78.87 192.2 92.38"/>
        <polygon class="cls-44" points="192.04 92.31 136.56 105.81 174.06 148.87 121.09 127.6 126.15 184.45 96.19 135.88 66.23 184.45 71.29 127.6 18.32 148.87 55.81 105.81 .34 92.31 55.81 78.81 18.32 35.75 71.29 57.02 66.23 .17 96.19 48.74 126.15 .17 121.09 57.02 174.06 35.76 136.56 78.81 192.04 92.31"/>
        <polygon class="cls-42" points="191.89 92.24 136.46 105.72 173.92 148.74 121 127.49 126.06 184.29 96.13 135.77 66.2 184.29 71.25 127.49 18.33 148.74 55.79 105.72 .37 92.24 55.79 78.75 18.33 35.74 71.25 56.98 66.2 .19 96.13 48.71 126.06 .19 121 56.98 173.92 35.74 136.46 78.75 191.89 92.24"/>
        <polygon class="cls-43" points="191.73 92.16 136.36 105.63 173.79 148.61 120.92 127.38 125.97 184.12 96.07 135.65 66.16 184.12 71.22 127.38 18.35 148.61 55.77 105.63 .4 92.16 55.77 78.69 18.35 35.72 71.22 56.94 66.16 .2 96.07 48.68 125.97 .2 120.92 56.94 173.79 35.72 136.36 78.69 191.73 92.16"/>
        <polygon class="cls-40" points="191.58 92.09 136.26 105.55 173.65 148.48 120.83 127.28 125.88 183.96 96.01 135.53 66.13 183.96 71.18 127.28 18.36 148.48 55.75 105.55 .44 92.09 55.75 78.63 18.36 35.7 71.18 56.9 66.13 .22 96.01 48.65 125.88 .22 120.83 56.9 173.65 35.7 136.26 78.63 191.58 92.09"/>
        <polygon class="cls-45" points="191.42 92.02 136.16 105.46 173.51 148.35 120.75 127.17 125.79 183.79 95.95 135.42 66.1 183.79 71.15 127.17 18.38 148.35 55.73 105.46 .47 92.02 55.73 78.57 18.38 35.68 71.15 56.87 66.1 .24 95.95 48.62 125.79 .24 120.75 56.87 173.51 35.68 136.16 78.57 191.42 92.02"/>
        <polygon class="cls-15" points="191.27 91.94 136.06 105.37 173.38 148.22 120.66 127.06 125.7 183.63 95.89 135.3 66.07 183.63 71.11 127.06 18.4 148.22 55.71 105.37 .5 91.94 55.71 78.51 18.4 35.66 71.11 56.83 66.07 .26 95.89 48.59 125.7 .26 120.66 56.83 173.38 35.67 136.06 78.51 191.27 91.94"/>
        <polygon class="cls-15" points="191.11 91.87 135.96 105.29 173.24 148.09 120.58 126.95 125.61 183.47 95.83 135.18 66.04 183.47 71.07 126.95 18.41 148.09 55.69 105.29 .54 91.87 55.69 78.45 18.41 35.65 71.07 56.79 66.04 .27 95.83 48.56 125.61 .27 120.58 56.79 173.24 35.65 135.96 78.45 191.11 91.87"/>
        <polygon class="cls-39" points="190.96 91.8 135.86 105.2 173.1 147.96 120.49 126.84 125.52 183.3 95.76 135.07 66.01 183.3 71.04 126.84 18.43 147.96 55.67 105.2 .57 91.8 55.67 78.39 18.43 35.63 71.04 56.75 66.01 .29 95.76 48.53 125.52 .29 120.49 56.75 173.1 35.63 135.86 78.39 190.96 91.8"/>
        <polygon class="cls-39" points="190.8 91.72 135.76 105.11 172.96 147.83 120.41 126.73 125.43 183.14 95.7 134.95 65.98 183.14 71 126.73 18.44 147.83 55.65 105.11 .61 91.72 55.65 78.33 18.44 35.61 71 56.71 65.98 .31 95.7 48.49 125.43 .31 120.41 56.71 172.96 35.61 135.76 78.33 190.8 91.72"/>
        <polygon class="cls-39" points="190.65 91.65 135.66 105.03 172.83 147.7 120.32 126.63 125.34 182.97 95.64 134.83 65.95 182.97 70.97 126.63 18.46 147.7 55.63 105.03 .64 91.65 55.63 78.27 18.46 35.59 70.97 56.67 65.95 .32 95.64 48.46 125.34 .32 120.32 56.67 172.83 35.59 135.66 78.27 190.65 91.65"/>
        <polygon class="cls-23" points="190.49 91.58 135.56 104.94 172.69 147.58 120.24 126.52 125.25 182.81 95.58 134.72 65.92 182.81 70.93 126.52 18.48 147.57 55.61 104.94 .67 91.58 55.61 78.21 18.48 35.58 70.93 56.63 65.92 .34 95.58 48.43 125.25 .34 120.24 56.63 172.69 35.58 135.56 78.21 190.49 91.58"/>
        <polygon class="cls-22" points="190.34 91.5 135.46 104.85 172.55 147.45 120.15 126.41 125.16 182.65 95.52 134.6 65.88 182.64 70.89 126.41 18.49 147.45 55.58 104.85 .71 91.5 55.58 78.15 18.49 35.56 70.89 56.59 65.88 .36 95.52 48.4 125.16 .36 120.15 56.59 172.55 35.56 135.46 78.15 190.34 91.5"/>
        <polygon class="cls-17" points="190.18 91.43 135.36 104.77 172.41 147.32 120.07 126.3 125.07 182.48 95.46 134.48 65.85 182.48 70.86 126.3 18.51 147.32 55.56 104.77 .74 91.43 55.56 78.09 18.51 35.54 70.86 56.55 65.85 .37 95.46 48.37 125.07 .38 120.07 56.55 172.42 35.54 135.36 78.09 190.18 91.43"/>
        <polygon class="cls-17" points="190.03 91.35 135.26 104.68 172.28 147.19 119.98 126.19 124.98 182.32 95.4 134.37 65.82 182.32 70.82 126.19 18.52 147.19 55.54 104.68 .77 91.35 55.54 78.03 18.52 35.52 70.82 56.52 65.82 .39 95.4 48.34 124.98 .39 119.98 56.52 172.28 35.52 135.26 78.03 190.03 91.35"/>
        <polygon class="cls-26" points="189.87 91.28 135.16 104.59 172.14 147.06 119.9 126.09 124.89 182.15 95.34 134.25 65.79 182.15 70.78 126.08 18.54 147.06 55.52 104.59 .81 91.28 55.52 77.97 18.54 35.5 70.78 56.48 65.79 .41 95.34 48.31 124.89 .41 119.9 56.48 172.14 35.5 135.16 77.97 189.87 91.28"/>
        <polygon class="cls-24" points="189.72 91.21 135.06 104.51 172 146.93 119.81 125.98 124.8 181.99 95.28 134.13 65.76 181.99 70.75 125.98 18.56 146.93 55.5 104.51 .84 91.21 55.5 77.91 18.56 35.49 70.75 56.44 65.76 .43 95.28 48.28 124.8 .43 119.81 56.44 172 35.49 135.06 77.91 189.72 91.21"/>
        <polygon class="cls-24" points="189.56 91.13 134.96 104.42 171.87 146.8 119.73 125.87 124.71 181.82 95.22 134.02 65.73 181.82 70.71 125.87 18.57 146.8 55.48 104.42 .87 91.13 55.48 77.85 18.57 35.47 70.71 56.4 65.73 .44 95.22 48.25 124.71 .44 119.73 56.4 171.87 35.47 134.96 77.85 189.56 91.13"/>
        <polygon class="cls-25" points="189.41 91.06 134.86 104.33 171.73 146.67 119.64 125.76 124.62 181.66 95.16 133.9 65.7 181.66 70.68 125.76 18.59 146.67 55.46 104.33 .91 91.06 55.46 77.79 18.59 35.45 70.68 56.36 65.7 .46 95.16 48.22 124.62 .46 119.64 56.36 171.73 35.45 134.86 77.79 189.41 91.06"/>
        <polygon class="cls-25" points="189.25 90.99 134.76 104.24 171.59 146.54 119.56 125.65 124.53 181.5 95.1 133.79 65.67 181.5 70.64 125.65 18.6 146.54 55.44 104.24 .94 90.99 55.44 77.73 18.6 35.43 70.64 56.32 65.67 .48 95.1 48.19 124.53 .48 119.56 56.32 171.59 35.43 134.76 77.73 189.25 90.99"/>
        <polygon class="cls-25" points="189.1 90.91 134.66 104.16 171.45 146.41 119.47 125.54 124.44 181.33 95.04 133.67 65.63 181.33 70.6 125.54 18.62 146.41 55.42 104.16 .98 90.91 55.42 77.67 18.62 35.41 70.6 56.28 65.64 .49 95.04 48.16 124.44 .49 119.47 56.28 171.45 35.41 134.66 77.67 189.1 90.91"/>
        <polygon class="cls-18" points="188.94 90.84 134.56 104.07 171.32 146.28 119.38 125.44 124.35 181.17 94.98 133.55 65.6 181.17 70.57 125.43 18.64 146.28 55.4 104.07 1.01 90.84 55.4 77.61 18.64 35.4 70.57 56.24 65.6 .51 94.98 48.13 124.35 .51 119.39 56.24 171.32 35.4 134.56 77.61 188.94 90.84"/>
        <polygon class="cls-18" points="188.79 90.77 134.46 103.98 171.18 146.15 119.3 125.33 124.26 181 94.92 133.44 65.57 181 70.53 125.33 18.65 146.15 55.38 103.98 1.04 90.77 55.38 77.55 18.65 35.38 70.53 56.2 65.57 .53 94.92 48.09 124.26 .53 119.3 56.2 171.18 35.38 134.46 77.55 188.79 90.77"/>
        <polygon class="cls-21" points="188.63 90.69 134.36 103.9 171.04 146.02 119.21 125.22 124.17 180.84 94.86 133.32 65.54 180.84 70.5 125.22 18.67 146.02 55.35 103.9 1.08 90.69 55.35 77.49 18.67 35.36 70.5 56.17 65.54 .55 94.86 48.06 124.17 .55 119.22 56.17 171.04 35.36 134.36 77.49 188.63 90.69"/>
        <polygon class="cls-20" points="188.48 90.62 134.26 103.81 170.91 145.9 119.13 125.11 124.08 180.67 94.79 133.2 65.51 180.67 70.46 125.11 18.68 145.89 55.33 103.81 1.11 90.62 55.33 77.43 18.68 35.34 70.46 56.13 65.51 .56 94.79 48.03 124.08 .56 119.13 56.13 170.91 35.34 134.26 77.43 188.48 90.62"/>
        <polygon class="cls-13" points="188.32 90.54 134.16 103.72 170.77 145.77 119.04 125 123.99 180.51 94.73 133.09 65.48 180.51 70.42 125 18.7 145.77 55.31 103.72 1.14 90.54 55.31 77.37 18.7 35.32 70.42 56.09 65.48 .58 94.73 48 123.99 .58 119.04 56.09 170.77 35.32 134.16 77.37 188.32 90.54"/>
        <polygon class="cls-13" points="188.17 90.47 134.05 103.64 170.63 145.64 118.96 124.89 123.9 180.35 94.67 132.97 65.45 180.35 70.39 124.89 18.72 145.64 55.29 103.64 1.18 90.47 55.29 77.31 18.72 35.31 70.39 56.05 65.45 .6 94.67 47.97 123.9 .6 118.96 56.05 170.63 35.31 134.05 77.31 188.17 90.47"/>
        <polygon class="cls-12" points="188.01 90.4 133.95 103.55 170.49 145.51 118.87 124.79 123.81 180.18 94.61 132.85 65.42 180.18 70.35 124.79 18.73 145.51 55.27 103.55 1.21 90.4 55.27 77.25 18.73 35.29 70.35 56.01 65.42 .61 94.61 47.94 123.81 .61 118.87 56.01 170.49 35.29 133.95 77.25 188.01 90.4"/>
        <polygon class="cls-19" points="187.86 90.32 133.85 103.46 170.36 145.38 118.79 124.68 123.72 180.02 94.55 132.74 65.39 180.02 70.31 124.68 18.75 145.38 55.25 103.46 1.24 90.32 55.25 77.19 18.75 35.27 70.31 55.97 65.39 .63 94.55 47.91 123.72 .63 118.79 55.97 170.36 35.27 133.85 77.19 187.86 90.32"/>
        <polygon class="cls-19" points="187.7 90.25 133.75 103.38 170.22 145.25 118.7 124.57 123.63 179.85 94.49 132.62 65.35 179.85 70.28 124.57 18.76 145.25 55.23 103.38 1.28 90.25 55.23 77.12 18.76 35.25 70.28 55.93 65.35 .65 94.49 47.88 123.63 .65 118.7 55.93 170.22 35.25 133.75 77.12 187.7 90.25"/>
        <polygon class="cls-30" points="187.55 90.18 133.65 103.29 170.08 145.12 118.62 124.46 123.54 179.69 94.43 132.5 65.32 179.69 70.24 124.46 18.78 145.12 55.21 103.29 1.31 90.18 55.21 77.06 18.78 35.23 70.24 55.89 65.32 .66 94.43 47.85 123.54 .66 118.62 55.89 170.08 35.23 133.65 77.06 187.55 90.18"/>
        <polygon class="cls-30" points="187.39 90.1 133.55 103.2 169.94 144.99 118.53 124.35 123.45 179.52 94.37 132.39 65.29 179.52 70.21 124.35 18.79 144.99 55.19 103.2 1.35 90.1 55.19 77 18.8 35.22 70.21 55.85 65.29 .68 94.37 47.82 123.45 .68 118.53 55.85 169.94 35.22 133.55 77 187.39 90.1"/>
        <polygon class="cls-31" points="187.24 90.03 133.45 103.12 169.81 144.86 118.45 124.24 123.36 179.36 94.31 132.27 65.26 179.36 70.17 124.24 18.81 144.86 55.17 103.12 1.38 90.03 55.17 76.94 18.81 35.2 70.17 55.82 65.26 .7 94.31 47.79 123.36 .7 118.45 55.82 169.81 35.2 133.45 76.94 187.24 90.03"/>
        <polygon class="cls-35" points="187.08 89.96 133.35 103.03 169.67 144.73 118.36 124.14 123.27 179.2 94.25 132.16 65.23 179.2 70.13 124.14 18.83 144.73 55.14 103.03 1.41 89.96 55.14 76.88 18.83 35.18 70.13 55.78 65.23 .72 94.25 47.76 123.27 .72 118.36 55.78 169.67 35.18 133.35 76.88 187.08 89.96"/>
        <polygon class="cls-35" points="186.93 89.88 133.25 102.94 169.53 144.6 118.28 124.03 123.18 179.03 94.19 132.04 65.2 179.03 70.1 124.03 18.84 144.6 55.12 102.94 1.45 89.88 55.12 76.82 18.84 35.16 70.1 55.74 65.2 .73 94.19 47.73 123.18 .73 118.28 55.74 169.53 35.16 133.25 76.82 186.93 89.88"/>
        <polygon class="cls-36" points="186.77 89.81 133.15 102.85 169.4 144.47 118.19 123.92 123.09 178.87 94.13 131.92 65.17 178.87 70.06 123.92 18.86 144.47 55.1 102.85 1.48 89.81 55.1 76.76 18.86 35.14 70.06 55.7 65.17 .75 94.13 47.7 123.09 .75 118.19 55.7 169.4 35.14 133.15 76.76 186.77 89.81"/>
        <polygon class="cls-37" points="186.62 89.74 133.05 102.77 169.26 144.34 118.11 123.81 123 178.7 94.07 131.81 65.14 178.7 70.03 123.81 18.87 144.34 55.08 102.77 1.51 89.74 55.08 76.7 18.88 35.13 70.03 55.66 65.14 .77 94.07 47.66 123 .77 118.11 55.66 169.26 35.13 133.05 76.7 186.62 89.74"/>
        <polygon class="cls-38" points="186.46 89.66 132.95 102.68 169.12 144.22 118.02 123.7 122.91 178.54 94.01 131.69 65.1 178.54 69.99 123.7 18.89 144.21 55.06 102.68 1.55 89.66 55.06 76.64 18.89 35.11 69.99 55.62 65.11 .78 94.01 47.63 122.91 .78 118.02 55.62 169.12 35.11 132.95 76.64 186.46 89.66"/>
        <polygon class="cls-9" points="186.31 89.59 132.85 102.59 168.98 144.09 117.94 123.59 122.82 178.38 93.95 131.57 65.07 178.37 69.95 123.59 18.91 144.09 55.04 102.59 1.58 89.59 55.04 76.58 18.91 35.09 69.95 55.58 65.07 .8 93.95 47.6 122.82 .8 117.94 55.58 168.98 35.09 132.85 76.58 186.31 89.59"/>
        <polygon class="cls-8" points="186.15 89.51 132.75 102.51 168.85 143.96 117.85 123.49 122.73 178.21 93.88 131.46 65.04 178.21 69.92 123.49 18.92 143.96 55.02 102.51 1.62 89.51 55.02 76.52 18.92 35.07 69.92 55.54 65.04 .82 93.88 47.57 122.73 .82 117.85 55.54 168.85 35.07 132.75 76.52 186.15 89.51"/>
        <polygon class="cls-6" points="186 89.44 132.65 102.42 168.71 143.83 117.77 123.38 122.64 178.05 93.82 131.34 65.01 178.05 69.88 123.38 18.94 143.83 55 102.42 1.65 89.44 55 76.46 18.94 35.05 69.88 55.5 65.01 .84 93.82 47.54 122.64 .84 117.77 55.5 168.71 35.06 132.65 76.46 186 89.44"/>
        <polygon class="cls-7" points="185.84 89.37 132.55 102.33 168.57 143.7 117.68 123.27 122.55 177.88 93.76 131.22 64.98 177.88 69.84 123.27 18.95 143.7 54.98 102.33 1.68 89.37 54.98 76.4 18.96 35.04 69.84 55.47 64.98 .85 93.76 47.51 122.55 .85 117.68 55.47 168.57 35.04 132.55 76.4 185.84 89.37"/>
        <polygon class="cls-5" points="185.69 89.29 132.45 102.25 168.43 143.57 117.6 123.16 122.46 177.72 93.7 131.11 64.95 177.72 69.81 123.16 18.97 143.57 54.96 102.25 1.72 89.29 54.96 76.34 18.97 35.02 69.81 55.43 64.95 .87 93.7 47.48 122.46 .87 117.6 55.43 168.44 35.02 132.45 76.34 185.69 89.29"/>
        <polygon class="cls-4" points="185.53 89.22 132.35 102.16 168.3 143.44 117.51 123.05 122.37 177.55 93.64 130.99 64.92 177.55 69.77 123.05 18.99 143.44 54.94 102.16 1.75 89.22 54.94 76.28 18.99 35 69.77 55.39 64.92 .89 93.64 47.45 122.37 .89 117.51 55.39 168.3 35 132.35 76.28 185.53 89.22"/>
        <polygon class="cls-4" points="185.38 89.15 132.25 102.07 168.16 143.31 117.43 122.94 122.28 177.39 93.58 130.87 64.89 177.39 69.74 122.94 19 143.31 54.91 102.07 1.78 89.15 54.91 76.22 19 34.98 69.74 55.35 64.89 .9 93.58 47.42 122.28 .9 117.43 55.35 168.16 34.98 132.25 76.22 185.38 89.15"/>
        <polygon class="cls-41" points="185.22 89.07 132.15 101.99 168.02 143.18 117.34 122.84 122.19 177.23 93.52 130.76 64.86 177.23 69.7 122.84 19.02 143.18 54.89 101.99 1.82 89.07 54.89 76.16 19.02 34.96 69.7 55.31 64.86 .92 93.52 47.39 122.19 .92 117.34 55.31 168.02 34.97 132.15 76.16 185.22 89.07"/>
        <polygon class="cls-41" points="185.07 89 132.05 101.9 167.89 143.05 117.26 122.73 122.1 177.06 93.46 130.64 64.82 177.06 69.66 122.73 19.03 143.05 54.87 101.9 1.85 89 54.87 76.1 19.03 34.95 69.66 55.27 64.82 .94 93.46 47.36 122.1 .94 117.26 55.27 167.89 34.95 132.05 76.1 185.07 89"/>
        <polygon class="cls-32" points="184.92 88.93 131.95 101.81 167.75 142.92 117.17 122.62 122.01 176.9 93.4 130.52 64.79 176.9 69.63 122.62 19.05 142.92 54.85 101.81 1.88 88.93 54.85 76.04 19.05 34.93 69.63 55.23 64.79 .95 93.4 47.33 122.01 .95 117.17 55.23 167.75 34.93 131.95 76.04 184.92 88.93"/>
        <polygon class="cls-34" points="184.76 88.85 131.85 101.73 167.61 142.79 117.09 122.51 121.92 176.73 93.34 130.41 64.76 176.73 69.59 122.51 19.07 142.79 54.83 101.73 1.92 88.85 54.83 75.98 19.07 34.91 69.59 55.19 64.76 .97 93.34 47.3 121.92 .97 117.09 55.19 167.61 34.91 131.85 75.98 184.76 88.85"/>
        <polygon class="cls-33" points="184.61 88.78 131.75 101.64 167.47 142.66 117 122.4 121.83 176.57 93.28 130.29 64.73 176.57 69.56 122.4 19.08 142.66 54.81 101.64 1.95 88.78 54.81 75.92 19.08 34.89 69.56 55.15 64.73 .99 93.28 47.27 121.83 .99 117 55.15 167.47 34.89 131.75 75.92 184.61 88.78"/>
        <polygon class="cls-11" points="184.45 88.7 131.65 101.55 167.34 142.54 116.92 122.29 121.74 176.4 93.22 130.18 64.7 176.4 69.52 122.29 19.1 142.53 54.79 101.55 1.99 88.7 54.79 75.86 19.1 34.87 69.52 55.12 64.7 1.01 93.22 47.23 121.74 1.01 116.92 55.12 167.34 34.88 131.65 75.86 184.45 88.7"/>
        <polygon class="cls-10" points="184.3 88.63 131.55 101.46 167.2 142.41 116.83 122.19 121.65 176.24 93.16 130.06 64.67 176.24 69.48 122.19 19.11 142.41 54.77 101.46 2.02 88.63 54.77 75.8 19.11 34.86 69.48 55.08 64.67 1.02 93.16 47.2 121.65 1.02 116.83 55.08 167.2 34.86 131.55 75.8 184.3 88.63"/>
        <polygon class="cls-16" points="184.14 88.56 131.45 101.38 167.06 142.28 116.75 122.08 121.56 176.08 93.1 129.94 64.64 176.08 69.45 122.08 19.13 142.28 54.75 101.38 2.05 88.56 54.75 75.74 19.13 34.84 69.45 55.04 64.64 1.04 93.1 47.17 121.56 1.04 116.75 55.04 167.06 34.84 131.45 75.74 184.14 88.56"/>
      </g>
      <path class="cls-29" d="M80.92,79.69c-2.4-1.38-4.8-2.76-7.2-4.15-1.36-.78-3.3-.09-3.67,1.49-.64,2.69-1.28,5.39-1.91,8.08l4.57-.6c-1.41-2.38-2.82-4.76-4.23-7.13-.81-1.36-2.8-1.67-3.93-.51-1.92,1.99-3.84,3.98-5.76,5.97l4.27,1.77c-.04-2.77-.08-5.55-.12-8.32-.05-3.21-5.05-3.22-5,0,.04,2.77,.08,5.55,.12,8.32,.03,2.12,2.74,3.35,4.27,1.77,1.92-1.99,3.84-3.98,5.76-5.97l-3.93-.51c1.41,2.38,2.82,4.76,4.23,7.13,1.06,1.79,4.06,1.53,4.57-.6,.64-2.69,1.28-5.39,1.91-8.08l-3.67,1.49c2.4,1.38,4.8,2.76,7.2,4.15,2.79,1.61,5.31-2.71,2.52-4.32h0Z"/>
      <path class="cls-29" d="M133.36,78.94c-2.25-1.61-4.49-3.21-6.74-4.82-1.36-.97-3.24,.07-3.67,1.49-.8,2.64-1.59,5.29-2.39,7.93l4.57-.6c-1.31-2.43-2.63-4.85-3.94-7.28-.75-1.39-2.85-1.66-3.93-.51-1.89,2.01-3.77,4.03-5.66,6.04l4.27,1.77c-.11-2.76-.22-5.52-.33-8.28-.05-1.35-1.11-2.5-2.5-2.5-1.31,0-2.55,1.14-2.5,2.5,.11,2.76,.22,5.52,.33,8.28,.08,2.08,2.73,3.41,4.27,1.77,1.89-2.01,3.77-4.03,5.66-6.04l-3.93-.51c1.31,2.43,2.63,4.85,3.94,7.28,1.05,1.95,3.97,1.4,4.57-.6,.8-2.64,1.59-5.29,2.39-7.93l-3.67,1.49c2.25,1.61,4.49,3.21,6.74,4.82,1.1,.79,2.78,.19,3.42-.9,.74-1.26,.2-2.63-.9-3.42h0Z"/>
      <g>
        <polyline class="cls-3" points="58.9 61.45 65.08 64.78 65.7 57.78 72.11 60.69 71.89 53.71 75.91 50.26"/>
        <path class="cls-3" d="M58.27,62.53c2.06,1.11,4.12,2.22,6.18,3.33,.88,.48,1.8-.13,1.88-1.08,.2-2.33,.41-4.67,.61-7l-1.88,1.08c2.14,.97,4.27,1.94,6.41,2.91,.81,.37,1.91-.05,1.88-1.08-.07-2.33-.14-4.65-.21-6.98l-.37,.88c1.34-1.15,2.68-2.3,4.01-3.45,1.22-1.05-.55-2.81-1.77-1.77l-2.58,2.22c-.75,.65-1.78,1.22-1.8,2.3-.03,2.26,.14,4.54,.21,6.8l1.88-1.08c-2.14-.97-4.27-1.94-6.41-2.91-.9-.41-1.79,.08-1.88,1.08-.2,2.33-.41,4.67-.61,7l1.88-1.08c-2.06-1.11-4.12-2.22-6.18-3.33-1.42-.76-2.68,1.39-1.26,2.16h0Z"/>
      </g>
      <g>
        <polyline class="cls-3" points="122.68 64.67 122.04 57.77 115.79 60.76 115.56 53.84 109 56.15 110.53 53.62"/>
        <path class="cls-3" d="M123.93,64.67c-.22-2.3-.43-4.6-.65-6.91-.09-.98-.98-1.51-1.88-1.08l-6.25,2.99,1.88,1.08c-.07-2.31-.15-4.61-.22-6.92-.02-.76-.79-1.49-1.58-1.21-2.19,.77-4.37,1.54-6.56,2.31l1.41,1.84,1.53-2.53c.84-1.38-1.33-2.64-2.16-1.26l-1.53,2.53c-.54,.89,.37,2.21,1.41,1.84,2.19-.77,4.37-1.54,6.56-2.31l-1.58-1.21c.07,2.31,.15,4.61,.22,6.92,.03,1,1.02,1.49,1.88,1.08l6.25-2.99-1.88-1.08c.22,2.3,.43,4.6,.65,6.91,.06,.67,.53,1.25,1.25,1.25,.63,0,1.31-.57,1.25-1.25h0Z"/>
      </g>
      <polygon class="cls-51" points="65.7 127.47 79.66 119.6 72.41 100.1 88.31 113.38 89.49 92.71 96.54 112.06 106.3 94.26 103.91 114.38 119.02 100.89 109.26 118.59 121.92 126.48 109.19 107.34 99.26 127.14 88.56 107.76 82.31 126.76 65.7 127.47"/>
      <polygon class="cls-3" points="79.32 108.58 78.79 108.72 79.93 108.13 79.42 109.32 80.36 108.46 80.58 109.69 80.71 108.4 81.42 109.49 81.4 108.19 82.25 109.18 81.76 108.75 82.6 107.72 81.3 107.87 82.23 106.95 80.92 107.08 81.13 105.83 81.2 107.26 80.03 106.57 80.28 107.91 78.91 107.45 79.32 108.58"/>
      <polygon class="cls-3" points="107.84 105.55 106.91 106.05 107.75 107.01 106.54 106.65 107.17 107.75 106.38 106.86 106.03 108.09 105.65 106.86 105.12 108.03 104.95 106.77 103.93 106.89 105.2 106.87 104.15 106.1 105.44 105.95 104.38 105.2 105.02 105.49 105.85 104.59 105.85 105.93 106.89 105.09 107.18 106.49 107.84 105.55"/>
      <g>
        <polyline class="cls-1" points="139.25 77.18 128.07 81.3 139.98 81.82 128.17 83.53 139.85 85.98 127.91 86.29 139.38 89.59 127.44 89.57 138.97 92.66 127.05 93.39 138.84 95.22 127.21 97.96 139.15 97.67 128.37 102.82 139.94 99.88 130.68 107.42 141.15 101.68 134.18 111.38 142.72 103.03 138.74 114.29 144.44 103.81 144.16 115.73 146.18 103.98 149.8 115.34 147.79 103.59 155.15 112.96"/>
        <polyline class="cls-1" points="137.59 74.68 131.47 84.39 139.2 75.89 135.22 86.67 141.48 77.02 138.78 88.2 144.32 78.11 141.94 89.37 147.66 79.37 144.57 90.46 151.33 81.14 146.74 91.71 155.3 84 148.58 93.36 158.64 87.74 149.9 95.25 161.04 92.33 150.65 97.28 162.16 97.48 150.8 99.34 161.74 102.9 150.38 101.14 159.58 108.04 149.41 102.67 155.79 112.23 148.15 103.65"/>
      </g>
      <g>
        <polyline class="cls-1" points="61.09 83.3 49.52 82.46 60.81 85.19 49.3 86.77 60.9 87.64 49.64 90.56 61.28 90.57 50.11 93.81 61.74 94.02 50.4 96.55 61.93 98.02 50.32 98.95 61.32 102.79 49.78 101.24 59.64 107.43 48.8 103.21 56.79 111.66 47.43 104.75 52.85 115.05 45.8 105.8 47.95 117.23 44.12 106.26 42.48 117.76 42.43 106.14 37.06 116.44 41.07 105.55"/>
        <polyline class="cls-1" points="59.37 85.67 50.93 78.32 55.77 88.42 49.03 79.46 52.17 90.22 46.52 80.53 48.87 91.49 43.5 81.64 46.04 92.56 40.06 83.07 43.76 93.65 36.24 85.31 41.77 95.08 32.66 88.52 40.21 96.82 29.81 92.59 39.2 98.73 28.06 97.38 38.76 100.77 27.69 102.57 38.9 102.67 28.94 107.82 39.58 104.3 31.86 112.41 40.71 105.55 36.31 115.85"/>
      </g>
      <polyline class="cls-28" points="54.15 87.03 50.47 92.44 56.8 94.06 51.44 97.65 55.72 102.46 49.52 100.87"/>
      <polyline class="cls-28" points="148.29 85.86 147.1 92.71 153.96 91.73 150.8 97.81 157.15 100.43 150.61 101.65"/>
    </g>
  </g>
</svg>