<?xml version="1.0" encoding="UTF-8"?>
<svg id="Layer_2" data-name="Layer 2" xmlns="http://www.w3.org/2000/svg" viewBox="0 0 256.58 259.7">
  <defs>
    <style>
      .cls-1 {
        fill: #68bfdd;
      }

      .cls-2 {
        fill: #e4d83f;
      }

      .cls-3 {
        fill: #fff;
      }

      .cls-4 {
        fill: #9987bc;
      }

      .cls-5 {
        fill: #9987bb;
      }

      .cls-6 {
        fill: #9886ba;
      }

      .cls-7 {
        fill: #9886bb;
      }

      .cls-8 {
        fill: #9786ba;
      }

      .cls-9 {
        fill: #9785b9;
      }

      .cls-10 {
        fill: #9c8ac1;
      }

      .cls-11 {
        fill: #9c8ac0;
      }

      .cls-12 {
        fill: #9282b4;
      }

      .cls-13 {
        fill: #9281b4;
      }

      .cls-14 {
        fill: #8779a9;
      }

      .cls-15 {
        fill: #8a7bac;
      }

      .cls-16 {
        fill: #9d8ac1;
      }

      .cls-17 {
        fill: #8d7daf;
      }

      .cls-18 {
        fill: #9080b2;
      }

      .cls-19 {
        fill: #9382b5;
      }

      .cls-20 {
        fill: #9181b3;
      }

      .cls-21 {
        fill: #9180b3;
      }

      .cls-22 {
        fill: #8c7dae;
      }

      .cls-23 {
        fill: #8c7cae;
      }

      .cls-24 {
        fill: #8e7eb0;
      }

      .cls-25 {
        fill: #8f7fb1;
      }

      .cls-26 {
        fill: #8d7eaf;
      }

      .cls-27 {
        fill: #8577a7;
      }

      .cls-28 {
        fill: #bde5ee;
      }

      .cls-29 {
        fill: #413956;
      }

      .cls-30 {
        fill: #9483b6;
      }

      .cls-31 {
        fill: #9483b7;
      }

      .cls-32 {
        fill: #9b88be;
      }

      .cls-33 {
        fill: #9b89bf;
      }

      .cls-34 {
        fill: #9b89be;
      }

      .cls-35 {
        fill: #9584b7;
      }

      .cls-36 {
        fill: #9684b8;
      }

      .cls-37 {
        fill: #9685b8;
      }

      .cls-38 {
        fill: #9685b9;
      }

      .cls-39 {
        fill: #8b7cad;
      }

      .cls-40 {
        fill: #897aab;
      }

      .cls-41 {
        fill: #9a88bd;
      }

      .cls-42 {
        fill: #887aaa;
      }

      .cls-43 {
        fill: #887aab;
      }

      .cls-44 {
        fill: #8879aa;
      }

      .cls-45 {
        fill: #897bab;
      }

      .cls-46 {
        fill: #8678a9;
      }

      .cls-47 {
        fill: #8678a8;
      }

      .cls-48 {
        fill: #8477a6;
      }

      .cls-49 {
        fill: #8477a7;
      }

      .cls-50 {
        fill: #8476a6;
      }

      .cls-51 {
        fill: #4e4563;
      }
    </style>
  </defs>
  <g id="Layer_3" data-name="Layer 3">
    <g>
      <polygon class="cls-2" points="164.05 65.21 76.7 60.66 165.85 48.22 77.15 63.52 166.29 51.08 77.59 66.39 160.24 36.73 127.81 105.55 118.68 16.02 129.1 105.41 119.97 15.88 130.4 105.27 83.06 47.56 170.53 52.83 81.19 63.8 170.14 49.96 80.79 60.93 169.73 47.09 87 76.01 119.36 7.2 128.56 96.73 118.02 7.34 127.22 96.87 108.18 95.17 164.05 65.21"/>
      <polygon class="cls-2" points="136.76 95.75 116.19 8.12 134.99 96.14 114.43 8.52 133.22 96.54 112.65 8.92 131.43 96.94 122.56 8.16 106.11 95.85 142.88 14.53 85.01 82.48 157.31 30.19 73.23 60.04 161.02 40.26 73.18 59.83 160.98 40.05 73.13 59.62 160.93 39.83 73.08 59.4 161.87 50.53 74.17 34.08 155.49 70.85 87.55 12.97 139.83 85.28 109.98 1.19 130.54 88.82 111.75 .8 132.31 88.42 113.52 .4 134.09 88.02 115.3 0 124.18 88.78 140.63 1.08 103.86 82.41 161.73 14.46 89.43 66.75 173.51 36.9 85.71 56.68 173.56 37.11 85.76 56.89 173.6 37.32 85.81 57.11 173.65 37.54 84.87 46.41 172.57 62.86 91.24 26.09 159.19 83.97 106.9 11.66 136.76 95.75"/>
      <polygon class="cls-2" points="175.1 79.1 92.73 49.42 181.78 62.46 92.46 51.43 181.51 64.47 92.18 53.44 179.92 48.15 129.03 104.82 145.59 16.36 129.92 104.99 146.49 16.52 130.82 105.15 101.69 36.3 183.97 66.71 95.14 52.21 184.28 64.71 95.45 50.2 184.58 62.7 96.96 67.26 147.8 10.58 131.3 99.06 146.87 10.41 130.37 98.89 112.95 91.96 175.1 79.1"/>
      <polygon class="cls-2" points="133.1 99.65 147.46 10.81 131.85 99.44 146.21 10.59 130.6 99.23 144.96 10.38 129.34 99.02 154.97 13.56 106.83 88.68 171.83 27.52 92.69 68.79 179.46 48.01 90.32 44.15 179.08 59.06 90.35 44 179.11 58.91 90.37 43.85 179.13 58.76 90.4 43.69 175.86 69.33 100.74 21.18 161.9 86.18 120.63 7.05 141.41 93.82 145.27 4.68 130.91 93.53 146.52 4.89 132.16 93.74 147.77 5.1 133.42 93.95 149.03 5.31 123.4 90.77 171.54 15.65 106.55 76.82 185.68 35.54 98.91 56.32 188.05 60.19 99.29 45.27 188.02 60.33 99.27 45.42 188 60.48 99.24 45.57 187.97 60.64 102.51 35.01 177.63 83.15 116.47 18.15 157.74 97.29 136.96 10.51 133.1 99.65"/>
      <polygon class="cls-2" points="183.46 87 109.01 41.1 193.19 72.96 108.03 43.82 192.21 75.69 107.04 46.55 193.79 60.19 132.31 105.01 167.26 22.07 133.51 105.51 168.47 22.57 134.72 106.01 120.87 32.65 195.09 79.26 111.45 46.01 196.12 76.55 112.47 43.3 197.15 73.83 110.68 59.51 172.1 14.66 137.2 97.63 170.85 14.15 135.95 97.11 120.07 86.48 183.46 87"/>
      <polygon class="cls-2" points="140.04 99.17 172.49 15.21 138.36 98.5 170.8 14.54 136.67 97.82 169.11 13.87 134.97 97.15 177.73 18.83 114.67 81.97 190.91 35.56 104.8 59.02 193.99 56.63 107.72 33.84 191.38 67.04 107.8 33.64 191.46 66.84 107.88 33.45 191.54 66.63 107.97 33.24 186.28 75.99 123.15 12.94 169.55 89.17 146.1 3.06 148.48 92.26 171.27 5.99 138.82 89.94 172.95 6.66 140.5 90.61 174.64 7.33 142.19 91.28 176.33 8 133.58 86.32 196.63 23.19 120.4 69.59 206.51 46.14 117.31 48.52 203.58 71.31 119.93 38.12 203.5 71.51 119.85 38.31 203.42 71.71 119.77 38.52 203.34 71.92 125.03 29.16 188.16 92.22 141.75 15.98 165.21 102.09 162.82 12.9 140.04 99.17"/>
      <polygon class="cls-2" points="196.97 95.95 126.47 42.17 204.6 86.86 125.26 44.35 203.39 89.04 124.05 46.54 207.02 77.85 144.25 110.43 182.47 28.95 144.98 110.77 183.2 29.29 145.72 111.11 134.49 37.4 204.74 91.64 127.14 46.03 205.97 89.47 128.38 43.85 207.21 87.3 124.52 55.52 187.22 22.91 149.1 104.44 186.47 22.56 148.34 104.09 133.54 93.34 196.97 95.95"/>
      <polygon class="cls-2" points="147.03 105.38 188.73 25.62 146.16 104.92 187.86 25.16 145.29 104.45 186.99 24.69 144.41 103.99 195.45 30.76 126.48 87.37 207.3 49.58 119.19 63.45 207.91 72.37 125.29 38.78 203.66 83.03 125.29 38.78 203.66 83.03 125.29 38.78 203.66 83.03 125.29 38.78 196.76 92.14 142.83 21.05 178.09 103.08 165.63 14.65 156.99 103.51 188.97 20.17 147.27 99.93 189.84 20.63 148.14 100.39 190.71 21.09 149.02 100.85 191.59 21.56 140.55 94.78 209.52 38.18 128.71 75.97 216.81 62.09 128.1 53.18 210.71 86.77 132.34 42.51 210.71 86.77 132.34 42.51 210.71 86.77 132.34 42.51 210.71 86.77 139.25 33.41 193.17 104.5 157.91 22.47 170.37 110.9 179.01 22.04 147.03 105.38"/>
      <polygon class="cls-2" points="199.69 110.58 142.46 44.45 213.19 100.12 140.7 46.75 211.43 102.42 138.94 49.06 217.59 88.12 145.49 112.41 203.73 43.79 146.49 113.24 204.73 44.63 147.49 114.08 156.31 39.95 213.11 106.69 143.3 49.86 214.9 104.41 145.1 47.59 216.7 102.13 138.52 62.51 210.57 38.17 152.38 106.83 209.53 37.31 151.34 105.97 139.38 91.06 199.69 110.58"/>
      <polygon class="cls-2" points="151.33 107.29 212 40.81 150.01 106.06 210.67 39.57 148.68 104.82 209.34 38.33 147.34 103.58 215.57 46.08 133.92 82.07 221.79 66.44 133.03 57.1 217.03 87.2 144.88 34.7 210.82 95.95 145.03 34.55 210.97 95.8 145.17 34.39 211.12 95.64 145.33 34.22 202.83 102.45 166.83 20.8 182.46 108.68 191.8 19.91 161.71 103.91 214.2 31.76 153.54 98.25 215.53 33 154.86 99.49 216.86 34.24 156.2 100.73 218.19 35.48 149.97 92.98 231.61 56.99 143.74 72.61 232.5 81.95 148.5 51.86 220.65 104.35 154.71 43.11 220.51 104.51 154.56 43.26 220.36 104.67 154.41 43.42 220.2 104.83 162.7 36.61 198.7 118.25 183.07 30.38 173.73 119.14 203.82 35.14 151.33 107.29"/>
      <polygon class="cls-2" points="204.55 121.98 158.41 47.76 219.03 114.3 155.79 50.24 216.42 116.78 153.17 52.73 224.27 104.14 149.31 116.67 217.92 58.41 150.37 117.89 218.98 59.64 151.44 119.13 172.14 47.5 217.76 122.24 158.24 54.71 220.42 119.8 160.9 52.27 223.08 117.36 152.54 65.46 227.45 52.88 158.89 111.18 226.35 51.61 157.78 109.91 148.22 93.02 204.55 121.98"/>
      <polygon class="cls-2" points="160.27 114.66 226.84 54.08 158.77 112.97 225.34 52.39 157.27 111.28 223.83 50.69 155.76 109.58 229.01 58.63 144.24 86.47 233.18 79.03 145.75 61.06 226.61 98.79 159.94 39.49 219.78 106.72 160.14 39.31 219.98 106.54 160.34 39.13 220.18 106.36 160.55 38.95 211.5 112.2 183.66 27.42 191.1 116.37 209.08 28.94 171.34 109.8 230.64 43.13 164.07 103.71 232.14 44.81 165.57 105.4 233.64 46.51 167.08 107.09 235.15 48.21 161.9 99.16 246.67 71.32 157.73 78.76 245.16 96.73 164.3 59 230.97 118.3 171.13 51.07 230.77 118.48 170.93 51.25 230.57 118.65 170.73 51.43 230.36 118.84 179.41 45.59 207.25 130.36 199.81 41.42 181.84 128.85 219.57 47.99 160.27 114.66"/>
      <polygon class="cls-2" points="201.61 140.15 170.58 58.46 219.07 134.28 168.75 59.66 217.24 135.49 166.92 60.86 228.39 123.67 151.44 121.07 230.69 78.4 151.92 121.94 231.17 79.28 152.4 122.82 186.72 57.04 217.13 139.15 169.91 62.53 218.97 137.99 171.76 61.36 220.83 136.82 160 73.61 236.92 76.16 157.71 118.89 236.42 75.26 157.21 117.98 151.72 100.96 201.61 140.15"/>
      <polygon class="cls-2" points="158.08 121.13 236.24 76.51 157.48 120.07 235.64 75.44 156.88 118.99 235.04 74.37 156.28 117.92 238.73 83.7 150.1 94.56 238.88 104.27 155.83 71.47 228.78 122.87 173.17 53.14 220.01 129.99 173.17 53.14 220.01 129.99 173.17 53.14 220.01 129.99 173.17 53.14 209.57 134.54 198.1 46.13 186.84 134.59 222.71 52.93 167.89 123.32 239.96 70.65 161.8 115.27 240.56 71.71 162.4 116.34 241.16 72.79 163 117.41 241.77 73.86 159.31 108.08 247.95 97.22 159.16 87.51 242.21 120.31 169.27 68.91 224.87 138.64 178.03 61.79 224.87 138.64 178.03 61.79 224.87 138.64 178.03 61.79 224.87 138.64 188.47 57.24 199.94 145.65 211.21 57.18 175.33 138.85 230.15 68.46 158.08 121.13"/>
      <polygon class="cls-2" points="194.41 153.98 192.44 66.53 211.48 154.51 189.62 67.19 208.66 155.17 186.79 67.85 222.53 148.06 151.48 120.85 240.09 105.07 151.72 122.12 240.33 106.36 151.95 123.41 205.98 71.9 207.24 159.53 189.65 71.25 210.07 158.91 192.48 70.64 212.91 158.3 177.9 77.95 248.94 105.1 160.34 120.94 248.69 103.78 160.09 119.61 160.37 100.49 194.41 153.98"/>
      <polygon class="cls-2" points="159.91 124.01 248 105.58 159.55 122.23 247.65 103.8 159.2 120.45 247.3 102.02 158.84 118.66 247.82 111.94 160.54 93.37 240.95 132.1 174.43 72.6 224.95 146.15 197.15 61.36 214.79 149.62 197.36 61.32 215 149.58 197.57 61.28 215.21 149.53 197.79 61.24 204.5 150.21 223.08 62.94 184.34 143.34 243.85 76.82 170.3 127.34 255.08 99.54 166.98 117.96 255.44 101.31 167.34 119.74 255.79 103.1 167.69 121.53 256.15 104.89 167.17 111.6 254.45 130.18 174.04 91.44 240.56 150.95 190.04 77.4 217.84 162.18 200.2 73.93 217.63 162.22 199.99 73.97 217.42 162.27 199.77 74.01 217.2 162.31 210.49 73.34 191.91 160.61 230.65 80.2 171.14 146.72 244.69 96.21 159.91 124.01"/>
      <polygon class="cls-2" points="184.15 172.42 202.39 86.77 202.08 176.77 200.79 86.78 200.46 176.78 199.17 86.79 216.82 172.94 153.62 130.33 243.54 134.34 153.59 131.05 243.51 135.06 153.56 131.78 217.8 93.31 198.82 178.97 200.62 88.98 200.43 178.99 202.23 89 202.04 179.01 185.14 92.87 248.33 135.42 158.42 131.49 248.36 134.68 158.45 130.75 162.9 112.58 184.15 172.42"/>
      <polygon class="cls-2" points="157.79 133.34 247.77 135.33 157.82 132.33 247.8 134.33 157.85 131.32 247.83 133.31 157.88 130.31 246.05 143.94 164.91 106.84 234.43 162.8 182.44 90.26 214.96 173.35 206.24 84.56 203.81 174.52 206.36 84.56 203.92 174.53 206.48 84.56 204.05 174.53 206.61 84.57 192.98 172.74 230.08 91.6 174.11 161.12 246.65 109.12 163.56 141.64 252.36 132.93 162.38 130.94 252.33 133.94 162.35 131.94 252.3 134.95 162.32 132.96 252.28 135.96 164.1 122.33 245.25 159.43 175.72 103.47 227.72 176.01 195.2 92.92 203.91 181.71 206.35 91.75 203.79 181.71 206.23 91.74 203.67 181.71 206.11 91.74 203.55 181.7 217.18 93.53 180.08 174.67 236.04 105.15 163.5 157.15 246.59 124.63 157.79 133.34"/>
      <polygon class="cls-2" points="178.92 182.17 212.98 101.6 194.28 189.65 210.13 101.05 191.44 189.09 207.28 100.49 207 188.3 153.35 134.35 240.63 156.29 153.04 135.61 240.33 157.55 152.73 136.88 223.13 112.04 188.35 192.49 208.49 104.76 191.18 193.09 211.32 105.36 194.02 193.69 195.03 106.05 248.69 159.94 161.39 138.06 249.01 158.63 161.71 136.75 169.8 119.43 178.92 182.17"/>
      <polygon class="cls-2" points="159.74 140.69 247.65 159.99 160.14 138.92 248.05 158.23 160.55 137.15 248.46 156.45 160.96 135.37 244.87 165.72 172.88 113 230.34 181.29 194.06 99.75 209.98 187.54 219.38 98.81 199.3 186.55 219.59 98.86 199.51 186.59 219.8 98.91 199.72 186.64 220.02 98.96 189.67 182.87 242.39 110.88 174.1 168.34 255.65 132.06 167.85 147.99 256.58 157.39 168.67 138.08 256.17 159.15 168.26 139.84 255.77 160.92 167.86 141.62 255.36 162.7 171.45 132.35 243.44 185.07 185.98 116.78 222.26 198.32 206.33 110.53 196.93 199.26 217.02 111.53 196.72 199.21 216.81 111.48 196.52 199.16 216.6 111.43 196.3 199.11 226.64 115.2 173.92 187.19 242.22 129.73 160.67 166.01 248.47 150.09 159.74 140.69"/>
      <polygon class="cls-2" points="164.71 192.72 213.13 119.76 179.46 203.23 211.38 119.07 177.7 202.54 209.62 118.38 194.06 204.91 151.06 142.03 233.11 179.02 150.71 142.8 232.76 179.79 150.37 143.57 224.19 131.55 175.09 204.25 210.13 121.34 176.83 204.96 211.87 122.06 178.57 205.68 194.81 119.44 237.84 182.27 155.76 145.35 238.19 181.47 156.12 144.55 166.97 129.28 164.71 192.72"/>
      <polygon class="cls-2" points="154.33 147 237.24 182.02 154.79 145.92 237.7 180.94 155.26 144.84 238.17 179.85 155.72 143.75 232.67 188.91 171.04 124.4 215.05 202.04 193.62 115.4 193.23 204.63 218.03 118.92 182.54 201.62 218.15 118.97 182.66 201.68 218.28 119.03 182.8 201.74 218.42 119.09 173.26 196.03 237.77 134.4 160.13 178.41 246.77 156.98 157.54 156.59 243.25 181.39 160.34 146.37 242.79 182.47 159.87 147.46 242.32 183.55 159.41 148.54 241.85 184.64 164.9 139.48 226.54 203.99 182.53 126.35 203.96 212.99 204.34 123.77 179.55 209.47 215.04 126.77 179.42 209.42 214.91 126.71 179.29 209.37 214.78 126.66 179.16 209.31 224.32 132.36 159.81 193.99 237.45 149.98 150.81 171.41 240.03 171.8 154.33 147"/>
      <polygon class="cls-2" points="150.68 196.36 219.22 142.02 160.57 210.3 216.99 140.17 158.34 208.45 214.76 138.31 172.34 215.2 151.19 142.13 217.24 203.27 150.31 143.09 216.36 204.23 149.43 144.06 223.11 156.05 154 209.94 213.76 142.63 156.19 211.82 215.96 144.52 158.39 213.72 201.37 137.32 222.56 210.34 156.46 149.25 223.46 209.34 157.37 148.25 172.78 136.94 150.68 196.36"/>
      <polygon class="cls-2" points="153.75 150.76 221.61 209.89 154.95 149.41 222.82 208.53 156.16 148.05 224.03 207.17 157.38 146.69 216.42 213.58 178.57 132.78 196.21 220.27 203.51 131.32 175.35 215.98 226.18 142.65 166.45 209.98 226.34 142.79 166.61 210.12 226.5 142.93 166.78 210.27 226.67 143.09 159.77 202.13 240.57 164.28 153.08 181.92 242.03 189.22 157.37 161.06 230.7 211.89 162.84 152.76 229.5 213.24 161.64 154.11 228.29 214.6 160.43 155.48 227.08 215.96 168.03 149.07 205.89 229.87 188.25 142.38 180.94 231.33 209.11 146.66 158.28 220 218 152.67 158.12 219.85 217.84 152.53 157.96 219.71 217.68 152.38 157.79 219.56 224.68 160.51 143.88 198.37 231.37 180.73 142.42 173.43 227.09 201.59 153.75 150.76"/>
      <polygon class="cls-2" points="132.95 198.42 213.17 162.9 139.21 214.19 211.91 161.13 137.94 212.42 210.64 159.35 150.28 223.19 146.21 148.65 199.33 221.3 145.44 149.22 198.56 221.87 144.67 149.79 215.21 177.71 134.57 212.65 209.34 162.55 135.8 214.44 210.58 164.35 137.04 216.24 197.8 153 201.92 227.51 148.74 154.9 202.72 226.92 149.54 154.31 168.62 145.91 132.95 198.42"/>
      <polygon class="cls-2" points="146.67 155.51 201.58 226.82 147.61 154.8 202.52 226.11 148.54 154.08 203.45 225.39 149.48 153.37 193.94 230.66 173.86 143.85 170.59 232.91 199.65 148.62 150.28 222.91 218.26 165.05 143.28 214.83 218.26 165.05 143.28 214.83 218.26 165.05 143.28 214.83 218.26 165.05 138.59 205.35 226.12 187.54 136.79 185.42 222.58 210.36 144.86 166.44 207.3 230.13 152.4 158.81 206.37 230.83 151.46 159.52 205.43 231.55 150.52 160.24 204.49 232.26 160.04 154.97 180.11 241.79 183.38 152.73 154.33 237.01 203.7 162.73 135.71 220.58 210.7 170.8 135.71 220.58 210.7 170.8 135.71 220.58 210.7 170.8 135.71 220.58 215.39 180.29 127.85 198.1 217.19 200.21 131.4 175.27 209.11 219.19 146.67 155.51"/>
      <polygon class="cls-2" points="119.15 197.52 205.35 182.73 121.13 214.48 204.29 180.04 120.06 211.79 203.22 177.34 129.12 224.46 145.61 150.19 174.22 235.52 144.39 150.61 172.99 235.94 143.15 151.03 202.03 196.92 115.54 211.02 200.28 180.66 116.56 213.73 201.3 183.37 117.58 216.45 191.92 170.03 175.5 244.28 146.83 158.96 176.77 243.84 148.1 158.52 167.05 156 119.15 197.52"/>
      <polygon class="cls-2" points="143.72 158.99 174.88 243.43 145.43 158.38 176.59 242.82 147.14 157.76 178.3 242.2 148.86 157.15 168.56 244.17 174.13 155.12 147.61 240.34 196.71 165.81 131.37 226.57 211.15 186.63 126.45 217.03 211.23 186.83 126.52 217.23 211.3 187.03 126.59 217.44 211.38 187.24 124.35 206.95 213.41 212.51 128.18 186 202.72 235.1 141.95 169.76 181.9 249.54 150.74 165.1 180.19 250.15 149.03 165.71 178.48 250.76 147.32 166.33 176.76 251.38 157.06 164.35 151.5 253.41 178.01 168.19 128.91 242.72 194.25 181.96 114.47 221.9 199.18 191.49 114.39 221.7 199.1 191.29 114.32 221.5 199.03 191.08 114.25 221.28 201.27 201.58 112.22 196.02 197.44 222.53 122.9 173.43 183.67 238.77 143.72 158.99"/>
      <polygon class="cls-2" points="100.73 197.67 188.18 196.23 100.09 214.74 187.54 193.4 99.45 211.91 186.9 190.57 106.47 225.82 134.12 154.94 149.35 243.64 132.84 155.16 148.07 243.87 131.55 155.39 182.74 209.74 95.1 210.46 183.48 193.4 95.69 213.29 184.08 196.24 96.29 216.13 176.85 181.62 149.27 252.49 133.97 163.79 150.6 252.25 135.3 163.55 154.41 163.95 100.73 197.67"/>
      <polygon class="cls-2" points="130.91 163.34 148.8 251.55 132.68 163 150.58 251.21 134.47 162.66 152.36 250.86 136.26 162.31 142.43 251.32 161.54 164.17 122.32 244.34 182.23 178.18 108.37 228.25 193.32 200.96 104.96 218.07 193.36 201.17 105 218.28 193.4 201.38 105.04 218.5 193.44 201.61 104.43 207.78 191.59 226.89 111.42 187.66 177.58 247.57 127.51 173.72 154.79 258.67 136.9 170.46 153.02 259.01 135.12 170.8 151.23 259.35 133.34 171.15 149.44 259.7 143.27 170.69 124.16 257.84 163.38 177.67 103.47 243.83 177.33 193.76 92.38 221.05 180.74 203.94 92.34 220.84 180.7 203.73 92.3 220.63 180.66 203.51 92.26 220.4 181.27 214.23 94.11 195.12 174.28 234.35 108.12 174.44 158.19 248.29 130.91 163.34"/>
      <polygon class="cls-2" points="85.63 188.53 172.11 202.35 82.19 206.4 172.01 200.57 82.09 204.61 171.91 198.78 86.73 220.57 126.12 155.35 126.53 245.35 125.32 155.36 125.73 245.36 124.52 155.37 166.11 217.54 79.58 202.99 169.55 200.42 79.65 204.77 169.62 202.21 79.72 206.57 164.92 185.51 125.59 250.73 125.1 160.73 126.42 250.72 125.94 160.72 144.29 164.25 85.63 188.53"/>
      <polygon class="cls-2" points="123.08 160.14 125.59 250.11 124.2 160.12 126.71 250.08 125.32 160.09 127.84 250.06 126.44 160.07 117.25 248.81 150.35 165.95 97.94 238.2 167.85 182.72 86.5 219.37 174.77 206.33 84.79 208.35 174.77 206.46 84.79 208.49 174.77 206.6 84.79 208.62 174.78 206.74 86.03 197.54 168.89 230.64 96.65 178.23 152.12 248.15 115.47 166.79 128.51 255.06 125.99 165.09 127.39 255.08 124.88 165.12 126.27 255.11 123.75 165.14 125.14 255.13 134.34 166.38 101.24 249.24 153.65 177 83.74 232.47 165.09 195.83 76.82 208.87 166.8 206.84 76.82 208.73 166.8 206.71 76.82 208.6 166.79 206.58 76.81 208.46 165.56 217.66 82.7 184.56 154.94 236.97 99.47 167.05 136.11 248.41 123.08 160.14"/>
      <polygon class="cls-2" points="75.85 174.53 150.09 220.76 66.05 188.52 151.08 218.04 67.05 185.8 152.08 215.31 65.4 201.29 127.08 156.74 91.75 239.52 125.88 156.24 90.55 239.02 124.67 155.74 138.19 229.15 64.18 182.22 147.68 215.84 63.14 184.92 146.64 218.54 62.1 187.63 148.5 202.34 86.89 246.91 122.15 164.11 88.13 247.43 123.4 164.63 139.23 175.33 75.85 174.53"/>
      <polygon class="cls-2" points="119.82 162.06 86.99 245.87 121.49 162.74 88.67 246.55 123.18 163.42 90.36 247.23 124.87 164.1 81.77 242.23 145.11 179.38 68.66 225.44 154.88 202.37 65.67 204.36 151.84 227.53 68.33 193.96 151.76 227.73 68.25 194.16 151.68 227.92 68.17 194.37 151.6 228.13 73.47 185.03 136.32 248.37 90.26 171.92 113.33 258.14 111.34 168.94 88.17 255.1 121 171.3 86.49 254.42 119.32 170.62 84.81 253.74 117.63 169.94 83.11 253.06 126.22 174.94 62.88 237.79 139.33 191.72 53.11 214.8 142.31 212.81 56.15 189.64 139.66 223.2 56.23 189.44 139.73 223 56.31 189.24 139.82 222.8 56.39 189.03 134.52 232.13 71.67 168.8 117.73 245.24 94.66 159.02 96.65 248.23 119.82 162.06"/>
      <polygon class="cls-2" points="67.72 159.76 129.71 221.55 54.73 171.76 130.94 219.65 55.96 169.85 132.18 217.73 50.59 185.08 120.72 155.41 68.04 228.39 119.89 154.82 67.21 227.8 119.05 154.23 116.08 228.89 54.48 166.47 128.63 217.49 53.22 168.36 127.36 219.38 51.95 170.25 133.11 203.51 63.04 233.21 115.65 160.19 63.9 233.83 116.52 160.81 129.41 174.57 67.72 159.76"/>
      <polygon class="cls-2" points="114.13 158.16 63.39 232.5 115.3 158.97 64.56 233.31 116.47 159.78 65.74 234.12 117.65 160.6 58.15 227.09 133.73 179.66 48.91 207.45 138.09 203.84 50.7 185.81 129.69 227.31 55.71 176.06 129.6 227.44 55.61 176.19 129.5 227.58 55.51 176.34 129.4 227.73 62.91 168.24 110.34 243.81 82.55 158.99 86.16 248.17 104.18 160.78 62.69 239.77 113.43 165.43 61.52 238.96 112.26 164.62 60.35 238.15 111.08 163.8 59.17 237.33 118.67 170.84 43.09 218.27 127.91 190.48 38.73 194.09 126.12 212.12 47.13 170.62 121.11 221.87 47.22 170.49 121.21 221.74 47.32 170.35 121.31 221.59 47.42 170.2 113.91 229.69 66.48 154.12 94.27 238.93 90.66 149.76 72.64 237.14 114.13 158.16"/>
      <polygon class="cls-2" points="57.51 147.66 109.7 217.85 43.27 157.1 111.61 215.68 45.19 154.93 113.54 213.5 38 168.72 111.69 149.84 48.54 213.97 110.76 148.94 47.6 213.06 109.82 148.03 95.55 221.3 43.84 150.55 109.25 212.37 41.88 152.68 107.3 214.51 39.92 154.82 114.95 200.15 41.31 219.07 104.41 154.9 42.27 220 105.38 155.84 116.21 171.59 57.51 147.66"/>
      <polygon class="cls-2" points="102.99 152.14 41.79 218.13 104.3 153.38 43.1 219.38 105.63 154.63 44.43 220.63 106.95 155.89 38.26 212.83 120.19 177.5 32.2 192.42 120.88 202.48 37.13 171.7 108.85 224.78 43.41 163 108.7 224.94 43.26 163.15 108.56 225.09 43.11 163.31 108.4 225.26 51.46 156.57 86.79 238.5 71.87 150.5 61.81 239.19 92.59 155.44 39.51 227.16 100.71 161.16 38.19 225.91 99.4 159.92 36.87 224.66 98.07 158.67 35.55 223.41 104.24 166.46 22.3 201.79 110.3 186.88 21.62 176.82 105.37 207.6 33.65 154.52 99.09 216.3 33.79 154.36 99.24 216.15 33.94 154.21 99.39 215.98 34.1 154.04 91.04 222.73 55.71 140.8 70.63 228.79 80.69 140.11 49.91 223.86 102.99 152.14"/>
      <polygon class="cls-2" points="58.44 130.63 94.95 209.89 40.75 138.03 96.52 208.68 42.32 136.82 98.1 207.46 32.04 149.41 109.97 148.05 32.12 193.21 109.51 147.26 31.65 192.41 109.04 146.46 78.23 213.08 42.32 133.34 95.3 206.1 40.73 134.52 93.7 207.29 39.13 135.71 104.58 194.21 26.67 195.62 104.49 150.4 27.15 196.44 104.98 151.23 110.73 166.55 58.44 130.63"/>
      <polygon class="cls-2" points="104.04 148.3 27.27 195.28 104.62 149.27 27.86 196.25 105.21 150.24 28.44 197.22 105.79 151.21 24.5 188.2 112.63 173.43 23.38 168.63 108.55 195.66 31.88 149.93 92.76 215.08 40.23 142 92.76 215.08 40.23 142 92.76 215.08 40.23 142 92.76 215.08 50.62 136.53 67.68 223.95 74.74 135.15 41.82 217.97 94.76 146.19 24.23 200.95 100.99 153.97 23.65 199.98 100.41 153 23.06 199.01 99.83 152.03 22.47 198.04 103.76 161.06 15.63 175.82 104.89 180.62 19.72 153.59 96.38 199.32 35.51 134.17 88.03 207.26 35.51 134.17 88.03 207.26 35.51 134.17 88.03 207.26 35.51 134.17 77.65 212.72 60.58 125.31 53.53 214.1 86.45 131.28 33.51 203.07 104.04 148.3"/>
      <polygon class="cls-2" points="54.59 120.13 76.38 204.96 39.33 122.93 79.67 203.4 42.61 121.36 82.96 201.83 31.66 130.48 106.21 141.75 23.37 176.95 105.59 140.32 22.75 175.51 104.96 138.88 64.19 201.11 43.02 115.94 78.78 198.55 39.71 117.45 75.47 200.07 36.4 118.97 87.03 190.6 12.52 179.4 95.33 144.14 13.17 180.88 95.98 145.63 100.06 164.21 54.59 120.13"/>
      <polygon class="cls-2" points="95.15 140.74 13.35 178.28 96.04 142.72 14.23 180.27 96.92 144.72 15.12 182.27 97.81 146.72 12.56 173.05 101.78 172.15 14.77 152.26 92.67 195.83 27.06 135.35 72.69 212.04 36.02 129.84 72.45 212.14 35.78 129.95 72.21 212.25 35.54 130.05 71.97 212.35 45.63 127.1 46.54 216.33 66.43 129.32 22.86 207.21 83.34 141.61 6.65 187.23 88.46 149.69 5.77 185.24 87.57 147.7 4.88 183.25 86.68 145.7 3.99 181.24 89.25 154.91 .02 155.82 87.03 175.7 9.13 132.13 74.74 192.61 29.12 115.93 65.79 198.12 29.36 115.82 66.02 198.02 29.59 115.72 66.26 197.91 29.84 115.61 56.17 200.86 55.27 111.64 35.38 198.65 78.95 120.75 18.47 186.36 95.15 140.74"/>
      <polygon class="cls-2" points="64.21 106.41 62.15 193.85 47.18 105.09 65 193.32 50.03 104.57 67.86 192.8 35.85 111.03 105.58 141.48 16.33 153.16 105.4 140.2 16.16 151.87 105.22 138.9 48.88 187.87 51.66 100.28 65.17 189.27 48.8 100.76 62.31 189.75 45.94 101.24 77.21 183.12 7.5 152.73 96.73 140.98 7.68 154.06 96.92 142.32 95.75 161.4 64.21 106.41"/>
      <polygon class="cls-2" points="97.3 137.94 8.45 152.29 97.57 139.73 8.72 154.08 97.85 141.52 8.99 155.88 98.12 143.33 8.93 145.94 95.26 168.52 16.72 126.12 80.43 188.62 33.35 112.82 57.22 198.8 43.66 109.83 57.01 198.83 43.45 109.86 56.79 198.86 43.23 109.89 56.57 198.9 53.96 109.71 31.38 196.03 73.78 117.5 11.28 181.21 87.07 134.13 1.1 158 89.95 143.65 .83 156.21 89.68 141.86 .56 154.41 89.41 140.05 .28 152.61 89.47 149.99 3.15 127.42 81.69 169.82 17.98 107.31 65.05 183.11 41.18 97.14 54.75 186.11 41.4 97.1 54.96 186.08 41.61 97.07 55.18 186.04 41.83 97.04 44.44 186.22 67.02 99.9 24.62 178.44 87.13 114.73 11.33 161.8 97.3 137.94"/>
      <polygon class="cls-2" points="74.16 94.25 57.21 178.47 51.01 88.68 59.34 178.3 53.16 88.5 61.49 178.12 33.42 96.12 103.93 132.07 13.93 132.35 103.91 130.77 13.91 131.05 103.9 129.46 37.25 168.72 55.19 84.41 59.39 174.32 53.05 84.54 57.25 174.45 50.9 84.67 77.98 166.72 7.47 130.82 97.47 130.5 7.49 132.17 97.49 131.85 91.61 155.27 74.16 94.25"/>
      <polygon class="cls-2" points="98.18 128.01 8.21 130.58 98.21 129.6 8.25 132.18 98.24 131.2 8.28 133.78 98.28 132.8 8.75 127.76 95.45 150.45 14.17 112.96 83.29 169.47 32.15 96.9 51.98 182.83 48.74 92.89 51.98 182.83 48.74 92.89 51.98 182.83 48.74 92.89 51.98 182.83 65.76 95.76 19.28 171.3 85.34 111.32 5.84 152.4 91.54 126.23 2.28 134.8 92.25 132.22 2.25 133.21 92.22 130.63 2.22 131.61 92.19 129.03 2.19 130 91.72 135.05 5.01 112.36 86.29 149.85 17.18 93.34 68.32 165.91 48.48 79.98 51.73 169.92 48.48 79.98 51.73 169.92 48.48 79.98 51.73 169.92 48.48 79.98 34.71 167.05 81.19 91.51 15.13 151.49 94.63 110.41 8.92 136.58 98.18 128.01"/>
      <polygon class="cls-2" points="76.99 80.32 45.03 161.74 61.45 73.24 47.89 162.22 64.3 73.72 50.75 162.71 48.77 74.92 103.79 127.46 15.97 107.79 104.07 126.19 16.24 106.51 104.35 124.92 34.61 151.56 67.3 70.25 49.43 158.47 64.45 69.72 46.59 157.94 61.6 69.19 62.85 156.83 7.82 104.35 95.66 123.96 7.53 105.66 95.37 125.28 87.73 142.8 76.99 80.32"/>
      <polygon class="cls-2" points="97.24 121.29 8.86 104.26 96.88 123.07 8.5 106.04 96.52 124.85 8.14 107.82 96.16 126.64 11.5 98.47 84.82 149.31 25.61 82.52 63.99 163.1 45.8 75.75 38.7 164.69 56.51 76.47 38.49 164.65 56.3 76.43 38.28 164.61 56.08 76.39 38.06 164.56 66.23 79.9 15.38 153.22 82.17 94.02 1.59 132.39 88.94 114.21 0 107.1 88.38 124.13 .36 105.33 88.74 122.36 .72 103.55 89.1 120.57 1.09 101.76 85.75 129.93 12.42 79.09 71.63 145.87 33.25 65.29 51.44 152.65 58.54 63.7 40.73 151.92 58.76 63.75 40.94 151.97 58.96 63.79 41.16 152.01 59.19 63.83 31.02 148.5 81.86 75.17 15.07 134.38 95.65 96 8.3 114.19 97.24 121.29"/>
      <polygon class="cls-2" points="91.13 71.19 40.97 142.86 76.73 60.26 42.95 143.69 78.71 61.09 44.93 144.52 61.94 58.45 104.73 121.04 22.49 84.47 105.12 120.13 22.89 83.56 105.52 119.22 30.75 130.46 81.61 59.07 44.46 141.05 79.65 58.21 42.49 140.19 77.68 57.35 59.97 143.1 17.17 80.57 99.43 117.07 16.76 81.51 99.02 118.02 86.99 134.53 91.13 71.19"/>
      <polygon class="cls-2" points="100.94 115.46 17.82 80.93 100.46 116.58 17.35 82.05 99.99 117.7 16.87 83.17 99.51 118.83 21.96 74.59 84.56 138.19 39.29 61.31 61.08 147.79 61.9 58.65 35.34 143.76 72.93 61.99 35.34 143.76 72.93 61.99 35.34 143.76 72.93 61.99 35.34 143.76 82.58 68.14 15.85 127.35 94.83 85.71 7.61 104.93 96.9 106.18 11.17 81.23 94.28 115.76 11.64 80.11 94.76 114.64 12.12 78.99 95.23 113.51 12.59 77.86 90.14 122.1 27.54 58.5 72.82 135.38 51.02 48.9 50.21 138.04 76.76 52.93 39.18 134.7 76.76 52.93 39.18 134.7 76.76 52.93 39.18 134.7 76.76 52.93 29.52 128.55 96.26 69.34 17.28 110.98 104.5 91.76 15.21 90.51 100.94 115.46"/>
      <polygon class="cls-2" points="100.41 63.01 39.41 125.7 88.82 50.46 41.86 127.25 91.27 52.01 44.31 128.8 76.49 47.1 106.86 116.86 33.51 64.7 107.61 115.79 34.26 63.63 108.36 114.72 33.75 112.28 95.38 49.97 44.74 124.39 92.96 48.38 42.31 122.8 90.53 46.79 57.74 128.07 27.33 58.37 100.72 110.47 26.56 59.48 99.94 111.58 86.11 124.77 100.41 63.01"/>
      <polygon class="cls-2" points="103.21 108.63 28.33 58.7 102.19 110.12 27.31 60.2 101.17 111.63 26.28 61.7 100.14 113.13 33 54.37 80.91 129.65 52.19 45.14 56.36 134.3 73.43 46.72 32.43 125.97 83.02 51.53 32.25 125.85 82.84 51.41 32.07 125.73 82.66 51.29 31.89 125.6 90.65 58.45 15.37 106.36 99.88 77.65 10.72 81.82 98.3 98.88 19.05 57.88 93.94 107.81 20.07 56.39 94.96 106.32 21.1 54.89 95.99 104.81 22.12 53.38 89.27 112.14 41.36 36.87 70.08 121.37 65.91 32.22 48.84 119.8 89.84 40.55 39.25 114.98 90.02 40.67 39.42 115.1 90.19 40.79 39.61 115.23 90.38 40.92 31.62 108.06 106.89 60.15 22.39 88.87 111.54 84.7 23.96 67.63 103.21 108.63"/>
      <polygon class="cls-2" points="115.28 61.23 39.63 105.13 107.51 46.01 41.56 107.28 109.45 48.17 43.51 109.44 96.57 39.46 106.97 114.82 50.42 44.8 107.97 113.99 51.42 43.97 108.98 113.17 37.8 90.68 113.96 47.32 45.12 105.31 112.06 45.14 43.21 103.12 110.15 42.95 56.62 112.35 46.17 37.04 102.77 107.01 45.13 37.89 101.73 107.87 84.85 116.84 115.28 61.23"/>
      <polygon class="cls-2" points="105.67 105.91 47.04 37.62 104.29 107.08 45.66 38.79 102.9 108.25 44.26 39.96 101.5 109.42 52.71 34.72 78.52 120.13 73.68 31.01 53.63 117.98 93.7 38.26 32.83 103.5 101.64 45.48 32.7 103.34 101.5 45.32 32.56 103.17 101.36 45.15 32.41 103 107.12 54.21 21.7 80.02 110.82 75.18 23.85 55.13 103.58 95.2 38.34 34.33 96.96 102.62 39.72 33.17 98.35 101.46 41.11 32 99.75 100.28 42.51 30.82 91.3 105.53 65.48 20.12 70.33 109.24 90.38 22.26 50.31 101.99 111.17 36.75 42.37 94.77 111.31 36.91 42.5 94.93 111.45 37.07 42.65 95.1 111.59 37.25 36.89 86.04 122.3 60.22 33.18 65.07 120.15 85.12 40.43 45.05 105.67 105.91"/>
      <polygon class="cls-2" points="129.33 61.83 47.22 92.23 123.63 44.67 48.24 93.84 124.66 46.28 49.27 95.45 112.85 34.74 110.52 110.89 66.06 32.63 111.26 110.46 66.8 32.21 112.01 110.03 45.29 76.14 127.82 46.43 50.63 92.73 126.82 44.81 49.63 91.1 125.81 43.18 61.85 103.25 64.13 27.14 108.66 105.35 63.36 27.58 107.88 105.8 90.11 111.74 129.33 61.83"/>
      <polygon class="cls-2" points="110.82 104.86 64.48 27.7 109.79 105.47 63.45 28.31 108.76 106.08 62.42 28.92 107.72 106.69 72.18 24.85 83.93 113.3 94.14 24.63 60.37 107.25 113.27 35.4 42.71 90 120.14 44.12 42.64 89.88 120.07 44 42.57 89.76 119.99 43.87 42.49 89.63 124.33 54.09 35.88 65.84 124.55 76.05 41.93 42.28 113.78 95.18 59.18 24.62 105.51 101.78 60.2 24.01 106.54 101.17 61.23 23.4 107.57 100.56 62.27 22.79 97.81 104.63 86.06 16.18 75.85 104.85 109.62 22.23 56.72 94.08 127.28 39.48 49.85 85.36 127.35 39.6 49.93 85.48 127.42 39.72 50 85.6 127.5 39.85 45.66 75.39 134.11 63.64 45.45 53.43 128.06 87.2 56.21 34.3 110.82 104.86"/>
      <polygon class="cls-2" points="141.89 56.28 57.81 80.38 138.07 39.63 59.16 82.95 139.42 42.2 60.52 85.51 129.03 30.59 120.74 106.22 82.99 24.52 121.92 105.67 84.17 23.96 123.1 105.11 59.56 65.93 144 42.47 63.08 81.89 142.69 39.89 61.77 79.31 141.38 37.3 72.54 91.55 80.77 15.95 118.58 97.63 79.55 16.53 117.36 98.2 98.8 102.78 141.89 56.28"/>
      <polygon class="cls-2" points="121.17 96.77 80.98 16.24 119.54 97.56 79.35 17.03 117.9 98.36 77.71 17.83 116.26 99.16 87.18 14.8 91.37 103.93 108.43 16.33 67.75 95.77 126.07 28.24 51.12 76.65 132.01 37.19 51.03 76.46 131.91 36.99 50.93 76.27 131.82 36.8 50.84 76.07 135.19 46.99 46.06 51.17 133.67 68.23 54.22 27.56 121.75 85.88 73.34 10.92 113.52 91.46 74.97 10.13 115.15 90.67 76.6 9.34 116.79 89.87 78.24 8.54 107.32 92.89 103.14 3.76 86.08 91.37 126.75 11.92 68.43 79.45 143.38 31.04 62.5 70.51 143.48 31.24 62.59 70.7 143.57 31.43 62.69 70.9 143.67 31.63 59.32 60.71 148.45 56.53 60.84 39.47 140.29 80.14 72.75 21.82 121.17 96.77"/>
      <polygon class="cls-2" points="154.15 64.12 66.67 67.79 154.05 46.19 67.18 69.74 154.56 48.15 67.69 71.71 146.92 33.64 121.23 105.35 103.12 17.19 122.12 105.16 104.01 17 123.01 104.97 70.01 52.25 157.68 49.29 69.96 69.45 157.21 47.33 69.49 67.48 156.73 45.35 77.34 82.7 102.97 11.01 121.15 99.15 102.05 11.2 120.23 99.35 101.48 99.52 154.15 64.12"/>
      <polygon class="cls-2" points="123.04 99.02 102.75 11.34 121.81 99.3 101.51 11.62 120.57 99.58 100.27 11.89 119.32 99.86 110.74 11.05 94.58 98.8 131.61 17.6 73.97 85.73 146.44 33.68 62.45 63.81 150.26 44.06 62.42 63.66 150.23 43.91 62.39 63.52 150.19 43.76 62.35 63.36 151.16 54.78 63.41 38.62 144.62 75.65 76.48 18.01 128.53 90.48 98.4 6.49 118.7 94.18 99.64 6.22 119.93 93.9 100.88 5.94 121.18 93.62 102.12 5.66 110.7 94.47 126.87 6.72 89.83 87.92 147.48 19.79 75.01 71.84 158.99 41.71 71.18 61.46 159.02 41.85 71.21 61.6 159.05 42 71.25 61.76 159.09 42.16 70.28 50.74 158.03 66.9 76.83 29.86 144.96 87.51 92.91 15.04 123.04 99.02"/>
      <g>
        <polygon class="cls-50" points="243.51 130.87 152.64 137.75 228.47 188.28 146.06 149.42 186.76 230.93 135.01 156 128.69 246.84 122.36 156 70.61 230.93 111.31 149.42 28.9 188.28 104.73 137.75 13.86 130.87 104.73 124 28.9 73.47 111.31 112.33 70.61 30.82 122.36 105.75 128.69 14.91 135.01 105.75 186.76 30.82 146.06 112.33 228.47 73.47 152.64 124 243.51 130.87"/>
        <polygon class="cls-48" points="243.38 130.8 152.52 137.66 228.35 188.17 145.95 149.3 186.67 230.8 134.94 155.86 128.62 246.7 122.31 155.86 70.58 230.8 111.3 149.3 28.89 188.17 104.73 137.66 13.86 130.8 104.73 123.94 28.9 73.43 111.3 112.3 70.58 30.81 122.31 105.74 128.62 14.9 134.94 105.74 186.67 30.81 145.95 112.3 228.35 73.43 152.52 123.94 243.38 130.8"/>
        <polygon class="cls-49" points="243.26 130.73 152.39 137.57 228.23 188.06 145.84 149.18 186.57 230.66 134.86 155.72 128.56 246.56 122.27 155.72 70.55 230.66 111.29 149.18 28.89 188.06 104.74 137.57 13.87 130.73 104.74 123.89 28.89 73.39 111.29 112.28 70.55 30.79 122.27 105.73 128.56 14.9 134.86 105.74 186.57 30.79 145.84 112.28 228.23 73.39 152.39 123.89 243.26 130.73"/>
        <polygon class="cls-27" points="243.13 130.65 152.26 137.48 228.11 187.95 145.73 149.05 186.48 230.53 134.78 155.58 128.5 246.41 122.23 155.58 70.53 230.53 111.28 149.05 28.89 187.95 104.74 137.48 13.88 130.65 104.74 123.83 28.89 73.35 111.28 112.25 70.53 30.78 122.23 105.73 128.5 14.89 134.78 105.73 186.48 30.78 145.73 112.25 228.12 73.36 152.26 123.83 243.13 130.65"/>
        <polygon class="cls-27" points="243 130.58 152.14 137.39 227.99 187.85 145.62 148.93 186.38 230.4 134.7 155.44 128.44 246.27 122.18 155.44 70.5 230.4 111.26 148.93 28.89 187.84 104.75 137.39 13.89 130.58 104.75 123.77 28.89 73.32 111.26 112.23 70.5 30.77 122.18 105.72 128.44 14.89 134.7 105.72 186.38 30.77 145.62 112.23 228 73.32 152.14 123.78 243 130.58"/>
        <polygon class="cls-47" points="242.87 130.51 152.01 137.29 227.88 187.74 145.51 148.81 186.29 230.26 134.62 155.3 128.38 246.13 122.14 155.3 70.47 230.26 111.25 148.81 28.89 187.74 104.75 137.29 13.89 130.51 104.75 123.72 28.89 73.28 111.25 112.2 70.48 30.75 122.14 105.71 128.38 14.89 134.62 105.71 186.29 30.75 145.51 112.2 227.88 73.28 152.01 123.72 242.87 130.51"/>
        <polygon class="cls-47" points="242.74 130.43 151.89 137.2 227.76 187.63 145.4 148.69 186.19 230.13 134.54 155.16 128.32 245.99 122.1 155.16 70.45 230.13 111.24 148.69 28.89 187.63 104.76 137.2 13.9 130.43 104.76 123.66 28.89 73.24 111.24 112.18 70.45 30.74 122.1 105.71 128.32 14.88 134.54 105.71 186.19 30.74 145.4 112.18 227.76 73.24 151.89 123.66 242.74 130.43"/>
        <polygon class="cls-46" points="242.61 130.36 151.76 137.11 227.64 187.52 145.3 148.56 186.1 230 134.47 155.02 128.26 245.84 122.06 155.02 70.42 229.99 111.23 148.56 28.88 187.52 104.76 137.11 13.91 130.36 104.76 123.61 28.89 73.2 111.23 112.15 70.42 30.72 122.06 105.7 128.26 14.88 134.47 105.7 186.1 30.72 145.3 112.16 227.64 73.2 151.76 123.61 242.61 130.36"/>
        <polygon class="cls-14" points="242.48 130.29 151.63 137.02 227.52 187.41 145.19 148.44 186 229.86 134.39 154.88 128.2 245.7 122.01 154.88 70.39 229.86 111.21 148.44 28.88 187.41 104.77 137.02 13.92 130.29 104.77 123.55 28.88 73.16 111.21 112.13 70.4 30.71 122.01 105.69 128.2 14.87 134.39 105.69 186 30.71 145.19 112.13 227.52 73.16 151.63 123.55 242.48 130.29"/>
        <polygon class="cls-14" points="242.36 130.21 151.51 136.93 227.4 187.31 145.08 148.32 185.91 229.73 134.31 154.74 128.14 245.56 121.97 154.74 70.37 229.73 111.2 148.32 28.88 187.3 104.77 136.93 13.92 130.21 104.77 123.5 28.88 73.12 111.2 112.11 70.37 30.7 121.97 105.69 128.14 14.87 134.31 105.69 185.91 30.7 145.08 112.11 227.4 73.12 151.51 123.5 242.36 130.21"/>
        <polygon class="cls-44" points="242.23 130.14 151.38 136.84 227.28 187.2 144.97 148.2 185.81 229.6 134.23 154.6 128.08 245.41 121.93 154.6 70.34 229.59 111.19 148.2 28.88 187.2 104.78 136.84 13.93 130.14 104.78 123.44 28.88 73.08 111.19 112.08 70.34 30.68 121.93 105.68 128.08 14.86 134.23 105.68 185.82 30.68 144.97 112.08 227.28 73.08 151.38 123.44 242.23 130.14"/>
        <polygon class="cls-42" points="242.1 130.07 151.25 136.75 227.16 187.09 144.86 148.08 185.72 229.46 134.15 154.46 128.02 245.27 121.88 154.46 70.32 229.46 111.18 148.07 28.88 187.09 104.78 136.75 13.94 130.07 104.78 123.38 28.88 73.04 111.18 112.06 70.32 30.67 121.88 105.67 128.02 14.86 134.15 105.67 185.72 30.67 144.86 112.06 227.16 73.04 151.25 123.38 242.1 130.07"/>
        <polygon class="cls-43" points="241.97 129.99 151.13 136.65 227.04 186.98 144.75 147.95 185.62 229.33 134.07 154.32 127.96 245.13 121.84 154.32 70.29 229.33 111.16 147.95 28.88 186.98 104.79 136.65 13.95 129.99 104.79 123.33 28.88 73 111.16 112.03 70.29 30.65 121.84 105.67 127.96 14.85 134.07 105.67 185.63 30.66 144.75 112.03 227.04 73 151.13 123.33 241.97 129.99"/>
        <polygon class="cls-40" points="241.84 129.92 151 136.56 226.92 186.87 144.64 147.83 185.53 229.2 133.99 154.18 127.9 244.99 121.8 154.18 70.26 229.19 111.15 147.83 28.88 186.87 104.79 136.56 13.95 129.92 104.79 123.27 28.88 72.96 111.15 112.01 70.26 30.64 121.8 105.66 127.9 14.85 133.99 105.66 185.53 30.64 144.64 112.01 226.92 72.96 151 123.27 241.84 129.92"/>
        <polygon class="cls-45" points="241.71 129.84 150.87 136.47 226.8 186.77 144.53 147.71 185.43 229.06 133.92 154.04 127.84 244.84 121.76 154.04 70.24 229.06 111.14 147.71 28.87 186.76 104.8 136.47 13.96 129.84 104.8 123.22 28.87 72.92 111.14 111.98 70.24 30.63 121.76 105.65 127.84 14.85 133.92 105.65 185.44 30.63 144.53 111.98 226.8 72.92 150.87 123.22 241.71 129.84"/>
        <polygon class="cls-15" points="241.58 129.77 150.75 136.38 226.68 186.66 144.42 147.59 185.34 228.93 133.84 153.9 127.78 244.7 121.71 153.9 70.21 228.93 111.13 147.59 28.87 186.66 104.8 136.38 13.97 129.77 104.8 123.16 28.87 72.88 111.13 111.96 70.21 30.61 121.71 105.65 127.78 14.84 133.84 105.65 185.34 30.61 144.42 111.96 226.68 72.88 150.75 123.16 241.58 129.77"/>
        <polygon class="cls-15" points="241.45 129.7 150.62 136.29 226.56 186.55 144.31 147.46 185.24 228.8 133.76 153.76 127.71 244.56 121.67 153.76 70.18 228.79 111.11 147.46 28.87 186.55 104.81 136.29 13.97 129.7 104.81 123.1 28.87 72.84 111.11 111.93 70.18 30.6 121.67 105.64 127.71 14.84 133.76 105.64 185.25 30.6 144.31 111.93 226.56 72.85 150.62 123.11 241.45 129.7"/>
        <polygon class="cls-39" points="241.33 129.62 150.49 136.2 226.44 186.44 144.21 147.34 185.15 228.66 133.68 153.61 127.65 244.42 121.63 153.61 70.16 228.66 111.1 147.34 28.87 186.44 104.81 136.2 13.98 129.62 104.81 123.05 28.87 72.81 111.1 111.91 70.16 30.59 121.63 105.63 127.65 14.83 133.68 105.63 185.15 30.59 144.21 111.91 226.44 72.81 150.5 123.05 241.33 129.62"/>
        <polygon class="cls-39" points="241.2 129.55 150.37 136.11 226.32 186.33 144.1 147.22 185.06 228.53 133.6 153.47 127.59 244.27 121.58 153.47 70.13 228.53 111.09 147.22 28.87 186.33 104.82 136.11 13.99 129.55 104.82 122.99 28.87 72.77 111.09 111.88 70.13 30.57 121.58 105.63 127.59 14.83 133.6 105.63 185.06 30.57 144.1 111.88 226.32 72.77 150.37 122.99 241.2 129.55"/>
        <polygon class="cls-39" points="241.07 129.48 150.24 136.02 226.2 186.23 143.99 147.1 184.96 228.4 133.52 153.33 127.53 244.13 121.54 153.33 70.1 228.39 111.08 147.1 28.87 186.22 104.82 136.02 14 129.48 104.82 122.94 28.87 72.73 111.08 111.86 70.11 30.56 121.54 105.62 127.53 14.82 133.52 105.62 184.96 30.56 143.99 111.86 226.2 72.73 150.24 122.94 241.07 129.48"/>
        <polygon class="cls-23" points="240.94 129.4 150.12 135.92 226.08 186.12 143.88 146.97 184.87 228.26 133.45 153.19 127.47 243.99 121.5 153.19 70.08 228.26 111.07 146.97 28.86 186.12 104.83 135.92 14 129.4 104.83 122.88 28.86 72.69 111.07 111.83 70.08 30.54 121.5 105.61 127.47 14.82 133.45 105.61 184.87 30.54 143.88 111.83 226.08 72.69 150.12 122.88 240.94 129.4"/>
        <polygon class="cls-22" points="240.81 129.33 149.99 135.83 225.96 186.01 143.77 146.85 184.77 228.13 133.37 153.05 127.41 243.84 121.46 153.05 70.05 228.13 111.05 146.85 28.86 186.01 104.83 135.83 14.01 129.33 104.83 122.83 28.86 72.65 111.05 111.81 70.05 30.53 121.46 105.6 127.41 14.81 133.37 105.61 184.77 30.53 143.77 111.81 225.96 72.65 149.99 122.83 240.81 129.33"/>
        <polygon class="cls-17" points="240.68 129.26 149.86 135.74 225.84 185.9 143.66 146.73 184.68 228 133.29 152.91 127.35 243.7 121.41 152.91 70.03 227.99 111.04 146.73 28.86 185.9 104.84 135.74 14.02 129.26 104.84 122.77 28.86 72.61 111.04 111.78 70.03 30.52 121.41 105.6 127.35 14.81 133.29 105.6 184.68 30.52 143.66 111.78 225.84 72.61 149.86 122.77 240.68 129.26"/>
        <polygon class="cls-17" points="240.55 129.18 149.74 135.65 225.72 185.79 143.55 146.61 184.58 227.86 133.21 152.77 127.29 243.56 121.37 152.77 70 227.86 111.03 146.61 28.86 185.79 104.84 135.65 14.03 129.18 104.84 122.71 28.86 72.57 111.03 111.76 70 30.5 121.37 105.59 127.29 14.81 133.21 105.59 184.58 30.5 143.55 111.76 225.72 72.57 149.74 122.71 240.55 129.18"/>
        <polygon class="cls-26" points="240.43 129.11 149.61 135.56 225.6 185.69 143.44 146.49 184.49 227.73 133.13 152.63 127.23 243.42 121.33 152.63 69.97 227.73 111.02 146.49 28.86 185.69 104.85 135.56 14.03 129.11 104.85 122.66 28.86 72.53 111.02 111.73 69.97 30.49 121.33 105.58 127.23 14.8 133.13 105.58 184.49 30.49 143.44 111.73 225.6 72.53 149.61 122.66 240.43 129.11"/>
        <polygon class="cls-24" points="240.3 129.03 149.48 135.47 225.48 185.58 143.33 146.36 184.39 227.6 133.05 152.49 127.17 243.27 121.28 152.49 69.95 227.59 111 146.36 28.86 185.58 104.85 135.47 14.04 129.03 104.85 122.6 28.86 72.49 111 111.71 69.95 30.47 121.28 105.58 127.17 14.8 133.05 105.58 184.39 30.48 143.33 111.71 225.48 72.49 149.48 122.6 240.3 129.03"/>
        <polygon class="cls-24" points="240.17 128.96 149.36 135.38 225.36 185.47 143.23 146.24 184.3 227.46 132.98 152.35 127.11 243.13 121.24 152.35 69.92 227.46 110.99 146.24 28.85 185.47 104.86 135.38 14.05 128.96 104.86 122.55 28.85 72.45 110.99 111.68 69.92 30.46 121.24 105.57 127.11 14.79 132.98 105.57 184.3 30.46 143.23 111.68 225.36 72.45 149.36 122.55 240.17 128.96"/>
        <polygon class="cls-25" points="240.04 128.89 149.23 135.28 225.24 185.36 143.12 146.12 184.2 227.33 132.9 152.21 127.05 242.99 121.2 152.21 69.89 227.33 110.98 146.12 28.85 185.36 104.86 135.28 14.06 128.89 104.86 122.49 28.85 72.41 110.98 111.66 69.89 30.45 121.2 105.56 127.05 14.79 132.9 105.56 184.2 30.45 143.12 111.66 225.24 72.41 149.23 122.49 240.04 128.89"/>
        <polygon class="cls-25" points="239.91 128.81 149.1 135.19 225.12 185.25 143.01 146 184.11 227.2 132.82 152.07 126.99 242.85 121.16 152.07 69.87 227.19 110.97 146 28.85 185.25 104.87 135.19 14.06 128.81 104.87 122.44 28.85 72.37 110.97 111.63 69.87 30.43 121.16 105.56 126.99 14.78 132.82 105.56 184.11 30.43 143.01 111.63 225.12 72.37 149.1 122.44 239.91 128.81"/>
        <polygon class="cls-25" points="239.78 128.74 148.98 135.1 225 185.15 142.9 145.87 184.01 227.06 132.74 151.93 126.93 242.7 121.11 151.93 69.84 227.06 110.95 145.87 28.85 185.15 104.87 135.1 14.07 128.74 104.87 122.38 28.85 72.33 110.95 111.61 69.84 30.42 121.11 105.55 126.93 14.78 132.74 105.55 184.01 30.42 142.9 111.61 225 72.34 148.98 122.38 239.78 128.74"/>
        <polygon class="cls-18" points="239.65 128.67 148.85 135.01 224.88 185.04 142.79 145.75 183.92 226.93 132.66 151.79 126.87 242.56 121.07 151.79 69.81 226.93 110.94 145.75 28.85 185.04 104.88 135.01 14.08 128.67 104.88 122.32 28.85 72.3 110.94 111.58 69.81 30.41 121.07 105.54 126.87 14.77 132.66 105.54 183.92 30.41 142.79 111.58 224.88 72.3 148.85 122.32 239.65 128.67"/>
        <polygon class="cls-18" points="239.52 128.59 148.73 134.92 224.76 184.93 142.68 145.63 183.82 226.8 132.58 151.65 126.81 242.42 121.03 151.65 69.79 226.79 110.93 145.63 28.85 184.93 104.88 134.92 14.09 128.59 104.88 122.27 28.85 72.26 110.93 111.56 69.79 30.39 121.03 105.54 126.81 14.77 132.58 105.54 183.82 30.39 142.68 111.56 224.76 72.26 148.73 122.27 239.52 128.59"/>
        <polygon class="cls-21" points="239.4 128.52 148.6 134.83 224.64 184.82 142.57 145.51 183.73 226.66 132.51 151.51 126.74 242.27 120.98 151.51 69.76 226.66 110.92 145.51 28.84 184.82 104.89 134.83 14.09 128.52 104.89 122.21 28.85 72.22 110.92 111.53 69.76 30.38 120.98 105.53 126.74 14.77 132.51 105.53 183.73 30.38 142.57 111.53 224.64 72.22 148.6 122.21 239.4 128.52"/>
        <polygon class="cls-20" points="239.27 128.45 148.47 134.74 224.52 184.71 142.46 145.39 183.63 226.53 132.43 151.37 126.68 242.13 120.94 151.37 69.73 226.53 110.9 145.38 28.84 184.71 104.9 134.74 14.1 128.45 104.9 122.16 28.84 72.18 110.91 111.51 69.74 30.36 120.94 105.52 126.68 14.76 132.43 105.52 183.63 30.36 142.46 111.51 224.52 72.18 148.47 122.16 239.27 128.45"/>
        <polygon class="cls-13" points="239.14 128.37 148.35 134.65 224.4 184.61 142.35 145.26 183.54 226.4 132.35 151.23 126.62 241.99 120.9 151.23 69.71 226.39 110.89 145.26 28.84 184.61 104.9 134.65 14.11 128.37 104.9 122.1 28.84 72.14 110.89 111.48 69.71 30.35 120.9 105.52 126.62 14.76 132.35 105.52 183.54 30.35 142.35 111.48 224.41 72.14 148.35 122.1 239.14 128.37"/>
        <polygon class="cls-13" points="239.01 128.3 148.22 134.55 224.28 184.5 142.24 145.14 183.44 226.26 132.27 151.09 126.56 241.85 120.85 151.09 69.68 226.26 110.88 145.14 28.84 184.5 104.91 134.55 14.12 128.3 104.91 122.04 28.84 72.1 110.88 111.46 69.68 30.34 120.85 105.51 126.56 14.75 132.27 105.51 183.44 30.34 142.25 111.46 224.29 72.1 148.22 122.04 239.01 128.3"/>
        <polygon class="cls-12" points="238.88 128.23 148.09 134.46 224.17 184.39 142.14 145.02 183.35 226.13 132.19 150.95 126.5 241.7 120.81 150.95 69.66 226.13 110.87 145.02 28.84 184.39 104.91 134.46 14.12 128.23 104.91 121.99 28.84 72.06 110.87 111.43 69.66 30.32 120.81 105.5 126.5 14.75 132.19 105.5 183.35 30.32 142.14 111.43 224.17 72.06 148.09 121.99 238.88 128.23"/>
        <polygon class="cls-19" points="238.75 128.15 147.97 134.37 224.05 184.28 142.03 144.9 183.25 226 132.11 150.81 126.44 241.56 120.77 150.81 69.63 225.99 110.86 144.9 28.84 184.28 104.92 134.37 14.13 128.15 104.92 121.93 28.84 72.02 110.86 111.41 69.63 30.31 120.77 105.5 126.44 14.74 132.11 105.5 183.25 30.31 142.03 111.41 224.05 72.02 147.97 121.93 238.75 128.15"/>
        <polygon class="cls-19" points="238.62 128.08 147.84 134.28 223.93 184.17 141.92 144.77 183.16 225.86 132.04 150.67 126.38 241.42 120.73 150.67 69.6 225.86 110.84 144.77 28.84 184.17 104.92 134.28 14.14 128.08 104.92 121.88 28.84 71.98 110.84 111.38 69.6 30.29 120.73 105.49 126.38 14.74 132.04 105.49 183.16 30.3 141.92 111.38 223.93 71.98 147.84 121.88 238.62 128.08"/>
        <polygon class="cls-30" points="238.5 128 147.71 134.19 223.81 184.07 141.81 144.65 183.06 225.73 131.96 150.53 126.32 241.28 120.68 150.53 69.58 225.73 110.83 144.65 28.83 184.07 104.93 134.19 14.14 128 104.93 121.82 28.83 71.94 110.83 111.36 69.58 30.28 120.68 105.48 126.32 14.73 131.96 105.48 183.06 30.28 141.81 111.36 223.81 71.94 147.71 121.82 238.5 128"/>
        <polygon class="cls-30" points="238.37 127.93 147.59 134.1 223.69 183.96 141.7 144.53 182.97 225.6 131.88 150.39 126.26 241.13 120.64 150.39 69.55 225.59 110.82 144.53 28.83 183.96 104.93 134.1 14.15 127.93 104.93 121.77 28.83 71.9 110.82 111.33 69.55 30.27 120.64 105.48 126.26 14.73 131.88 105.48 182.97 30.27 141.7 111.33 223.69 71.9 147.59 121.77 238.37 127.93"/>
        <polygon class="cls-31" points="238.24 127.86 147.46 134.01 223.57 183.85 141.59 144.41 182.87 225.46 131.8 150.25 126.2 240.99 120.6 150.25 69.52 225.46 110.81 144.41 28.83 183.85 104.94 134.01 14.16 127.86 104.94 121.71 28.83 71.86 110.81 111.31 69.52 30.25 120.6 105.47 126.2 14.73 131.8 105.47 182.87 30.25 141.59 111.31 223.57 71.86 147.46 121.71 238.24 127.86"/>
        <polygon class="cls-35" points="238.11 127.78 147.34 133.91 223.45 183.74 141.48 144.28 182.78 225.33 131.72 150.11 126.14 240.85 120.55 150.11 69.5 225.33 110.79 144.28 28.83 183.74 104.94 133.91 14.17 127.78 104.94 121.65 28.83 71.82 110.79 111.28 69.5 30.24 120.55 105.46 126.14 14.72 131.72 105.46 182.78 30.24 141.48 111.28 223.45 71.83 147.34 121.65 238.11 127.78"/>
        <polygon class="cls-35" points="237.98 127.71 147.21 133.82 223.33 183.64 141.37 144.16 182.68 225.2 131.64 149.97 126.08 240.7 120.51 149.97 69.47 225.19 110.78 144.16 28.83 183.63 104.95 133.82 14.17 127.71 104.95 121.6 28.83 71.79 110.78 111.26 69.47 30.23 120.51 105.45 126.08 14.72 131.64 105.45 182.68 30.23 141.37 111.26 223.33 71.79 147.21 121.6 237.98 127.71"/>
        <polygon class="cls-36" points="237.85 127.64 147.08 133.73 223.21 183.53 141.26 144.04 182.59 225.06 131.56 149.83 126.02 240.56 120.47 149.83 69.44 225.06 110.77 144.04 28.83 183.53 104.95 133.73 14.18 127.64 104.95 121.54 28.83 71.75 110.77 111.23 69.45 30.21 120.47 105.45 126.02 14.71 131.57 105.45 182.59 30.21 141.26 111.23 223.21 71.75 147.08 121.54 237.85 127.64"/>
        <polygon class="cls-37" points="237.72 127.56 146.96 133.64 223.09 183.42 141.16 143.92 182.49 224.93 131.49 149.69 125.96 240.42 120.43 149.69 69.42 224.93 110.76 143.92 28.82 183.42 104.96 133.64 14.19 127.56 104.96 121.49 28.82 71.71 110.76 111.21 69.42 30.2 120.43 105.44 125.96 14.71 131.49 105.44 182.5 30.2 141.16 111.21 223.09 71.71 146.96 121.49 237.72 127.56"/>
        <polygon class="cls-38" points="237.59 127.49 146.83 133.55 222.97 183.31 141.05 143.8 182.4 224.8 131.41 149.54 125.9 240.28 120.38 149.54 69.39 224.79 110.74 143.8 28.82 183.31 104.96 133.55 14.2 127.49 104.96 121.43 28.82 71.67 110.74 111.18 69.39 30.18 120.38 105.43 125.9 14.7 131.41 105.43 182.4 30.18 141.05 111.18 222.97 71.67 146.83 121.43 237.59 127.49"/>
        <polygon class="cls-9" points="237.47 127.42 146.7 133.46 222.85 183.2 140.94 143.67 182.3 224.66 131.33 149.4 125.83 240.13 120.34 149.4 69.36 224.66 110.73 143.67 28.82 183.2 104.97 133.46 14.2 127.42 104.97 121.37 28.82 71.63 110.73 111.16 69.37 30.17 120.34 105.43 125.83 14.7 131.33 105.43 182.31 30.17 140.94 111.16 222.85 71.63 146.7 121.37 237.47 127.42"/>
        <polygon class="cls-8" points="237.34 127.34 146.58 133.37 222.73 183.1 140.83 143.55 182.21 224.53 131.25 149.26 125.77 239.99 120.3 149.26 69.34 224.53 110.72 143.55 28.82 183.09 104.97 133.37 14.21 127.34 104.97 121.32 28.82 71.59 110.72 111.13 69.34 30.16 120.3 105.42 125.77 14.69 131.25 105.42 182.21 30.16 140.83 111.13 222.73 71.59 146.58 121.32 237.34 127.34"/>
        <polygon class="cls-6" points="237.21 127.27 146.45 133.27 222.61 182.99 140.72 143.43 182.11 224.4 131.17 149.12 125.71 239.85 120.25 149.12 69.31 224.39 110.71 143.43 28.82 182.99 104.98 133.27 14.22 127.27 104.98 121.26 28.82 71.55 110.71 111.11 69.31 30.14 120.25 105.41 125.71 14.69 131.17 105.41 182.12 30.14 140.72 111.11 222.61 71.55 146.45 121.26 237.21 127.27"/>
        <polygon class="cls-7" points="237.08 127.2 146.32 133.18 222.49 182.88 140.61 143.31 182.02 224.26 131.09 148.98 125.65 239.71 120.21 148.98 69.29 224.26 110.69 143.31 28.82 182.88 104.98 133.18 14.23 127.2 104.98 121.21 28.82 71.51 110.7 111.08 69.29 30.13 120.21 105.41 125.65 14.68 131.09 105.41 182.02 30.13 140.61 111.08 222.49 71.51 146.32 121.21 237.08 127.2"/>
        <polygon class="cls-5" points="236.95 127.12 146.2 133.09 222.37 182.77 140.5 143.18 181.92 224.13 131.02 148.84 125.59 239.56 120.17 148.84 69.26 224.13 110.68 143.18 28.81 182.77 104.99 133.09 14.23 127.12 104.99 121.15 28.81 71.47 110.68 111.06 69.26 30.11 120.17 105.4 125.59 14.68 131.02 105.4 181.93 30.12 140.5 111.06 222.37 71.47 146.2 121.15 236.95 127.12"/>
        <polygon class="cls-4" points="236.82 127.05 146.07 133 222.25 182.66 140.39 143.06 181.83 224 130.94 148.7 125.53 239.42 120.13 148.7 69.23 223.99 110.67 143.06 28.81 182.66 104.99 133 14.24 127.05 104.99 121.1 28.81 71.43 110.67 111.03 69.23 30.1 120.13 105.39 125.53 14.68 130.94 105.39 181.83 30.1 140.39 111.03 222.25 71.43 146.07 121.1 236.82 127.05"/>
        <polygon class="cls-4" points="236.69 126.97 145.94 132.91 222.13 182.56 140.28 142.94 181.73 223.86 130.86 148.56 125.47 239.28 120.08 148.56 69.21 223.86 110.66 142.94 28.81 182.55 105 132.91 14.25 126.97 105 121.04 28.81 71.39 110.66 111.01 69.21 30.09 120.08 105.39 125.47 14.67 130.86 105.39 181.74 30.09 140.28 111.01 222.13 71.39 145.94 121.04 236.69 126.97"/>
        <polygon class="cls-41" points="236.57 126.9 145.82 132.82 222.01 182.45 140.18 142.82 181.64 223.73 130.78 148.42 125.41 239.13 120.04 148.42 69.18 223.73 110.65 142.82 28.81 182.45 105 132.82 14.26 126.9 105 120.98 28.81 71.35 110.65 110.98 69.18 30.07 120.04 105.38 125.41 14.67 130.78 105.38 181.64 30.07 140.18 110.98 222.01 71.35 145.82 120.98 236.57 126.9"/>
        <polygon class="cls-41" points="236.44 126.83 145.69 132.73 221.89 182.34 140.07 142.7 181.55 223.6 130.7 148.28 125.35 238.99 120 148.28 69.15 223.59 110.63 142.69 28.81 182.34 105.01 132.73 14.26 126.83 105.01 120.93 28.81 71.31 110.63 110.96 69.15 30.06 120 105.37 125.35 14.66 130.7 105.37 181.55 30.06 140.07 110.96 221.89 71.32 145.69 120.93 236.44 126.83"/>
        <polygon class="cls-32" points="236.31 126.75 145.57 132.64 221.77 182.23 139.96 142.57 181.45 223.46 130.62 148.14 125.29 238.85 119.95 148.14 69.13 223.46 110.62 142.57 28.81 182.23 105.01 132.64 14.27 126.75 105.01 120.87 28.81 71.28 110.62 110.93 69.13 30.05 119.95 105.37 125.29 14.66 130.62 105.37 181.45 30.05 139.96 110.93 221.77 71.28 145.57 120.87 236.31 126.75"/>
        <polygon class="cls-34" points="236.18 126.68 145.44 132.54 221.65 182.12 139.85 142.45 181.36 223.33 130.55 148 125.23 238.71 119.91 148 69.1 223.33 110.61 142.45 28.8 182.12 105.02 132.54 14.28 126.68 105.02 120.82 28.81 71.24 110.61 110.91 69.1 30.03 119.91 105.36 125.23 14.65 130.55 105.36 181.36 30.03 139.85 110.91 221.65 71.24 145.44 120.82 236.18 126.68"/>
        <polygon class="cls-33" points="236.05 126.61 145.31 132.45 221.53 182.02 139.74 142.33 181.26 223.19 130.47 147.86 125.17 238.56 119.87 147.86 69.07 223.19 110.6 142.33 28.8 182.01 105.02 132.45 14.28 126.61 105.02 120.76 28.8 71.2 110.6 110.88 69.08 30.02 119.87 105.35 125.17 14.65 130.47 105.35 181.26 30.02 139.74 110.88 221.53 71.2 145.31 120.76 236.05 126.61"/>
        <polygon class="cls-11" points="235.92 126.53 145.19 132.36 221.41 181.91 139.63 142.21 181.17 223.06 130.39 147.72 125.11 238.42 119.83 147.72 69.05 223.06 110.58 142.21 28.8 181.91 105.03 132.36 14.29 126.53 105.03 120.7 28.8 71.16 110.58 110.86 69.05 30 119.83 105.35 125.11 14.64 130.39 105.35 181.17 30 139.63 110.86 221.41 71.16 145.19 120.7 235.92 126.53"/>
        <polygon class="cls-10" points="235.79 126.46 145.06 132.27 221.29 181.8 139.52 142.08 181.07 222.93 130.31 147.58 125.05 238.28 119.78 147.58 69.02 222.93 110.57 142.08 28.8 181.8 105.03 132.27 14.3 126.46 105.03 120.65 28.8 71.12 110.57 110.83 69.02 29.99 119.78 105.34 125.05 14.64 130.31 105.34 181.07 29.99 139.52 110.83 221.29 71.12 145.06 120.65 235.79 126.46"/>
        <polygon class="cls-16" points="235.67 126.39 144.93 132.18 221.17 181.69 139.41 141.96 180.98 222.79 130.23 147.44 124.99 238.14 119.74 147.44 68.99 222.79 110.56 141.96 28.8 181.69 105.04 132.18 14.31 126.39 105.04 120.59 28.8 71.08 110.56 110.81 69 29.98 119.74 105.33 124.99 14.64 130.23 105.33 180.98 29.98 139.41 110.81 221.17 71.08 144.93 120.59 235.67 126.39"/>
      </g>
      <path class="cls-29" d="M138.64,151.41c-1.65-2.47-3.3-4.94-4.95-7.41-3.97-5.93-7.93-11.86-11.9-17.79-4.8-7.18-9.6-14.35-14.39-21.53l-12.45-18.61c-2.02-3.02-3.98-6.08-6.05-9.05-.03-.04-.06-.09-.09-.13-1.5-2.24-5.48-.91-4.57,1.93s1.82,5.65,2.72,8.48c2.18,6.79,4.36,13.57,6.54,20.36,2.64,8.21,5.28,16.42,7.92,24.63,2.28,7.1,4.56,14.2,6.85,21.3,1.11,3.45,2.13,6.94,3.33,10.36,.02,.05,.03,.1,.05,.15,1,3.11,5.36,1.81,4.82-1.33-.5-2.93-1-5.87-1.5-8.8-1.19-7-2.39-14-3.58-21.01l-4.35-25.53-3.75-21.98c-.61-3.55-.98-7.25-1.83-10.75-.01-.05-.02-.1-.03-.15-.21-1.21-1.63-1.96-2.74-1.79-1.34,.2-2,1.18-2.17,2.46-.4,2.95-.79,5.9-1.19,8.85-.94,7.04-1.89,14.08-2.83,21.12-1.15,8.56-2.3,17.11-3.44,25.67l-2.97,22.1-.98,7.33c-.15,1.15-.4,2.33-.47,3.48,0,.05-.01,.1-.02,.15-.16,1.21,1.08,2.33,2.17,2.46,1.23,.15,2.39-.57,2.74-1.79,.81-2.85,1.63-5.71,2.44-8.56l5.87-20.56c2.37-8.29,4.73-16.58,7.1-24.87l6.14-21.51c.99-3.47,2.15-6.95,2.99-10.46,.01-.05,.03-.1,.04-.15,.79-2.77-3.08-4.3-4.57-1.93-1.58,2.52-3.16,5.03-4.74,7.55l-11.38,18.12-13.76,21.93c-3.97,6.32-7.94,12.64-11.9,18.96-1.92,3.06-4.02,6.07-5.79,9.22-.03,.04-.05,.09-.08,.13-1.72,2.73,2.61,5.25,4.32,2.52,1.58-2.52,3.16-5.03,4.74-7.55,3.79-6.04,7.58-12.08,11.38-18.12l13.76-21.93c3.97-6.32,7.94-12.64,11.9-18.96l3.92-6.25c.61-.98,1.33-1.94,1.86-2.97,.02-.05,.06-.09,.08-.13l-4.57-1.93c-.81,2.85-1.63,5.71-2.44,8.56l-5.87,20.56c-2.37,8.29-4.73,16.58-7.1,24.87l-6.14,21.51-2.02,7.09c-.32,1.11-.75,2.24-.96,3.37,0,.05-.03,.1-.04,.15l4.91,.66c.4-2.95,.79-5.9,1.19-8.85,.94-7.04,1.89-14.08,2.83-21.12,1.15-8.56,2.3-17.11,3.44-25.67l2.97-22.1,.98-7.33c.15-1.15,.41-2.33,.47-3.48,0-.05,.01-.1,.02-.15l-4.91,.66c.5,2.93,1,5.87,1.5,8.8,1.19,7,2.39,14,3.58,21.01l4.35,25.53c1.25,7.33,2.5,14.65,3.75,21.98,.41,2.43,.83,4.86,1.24,7.29,.19,1.14,.3,2.34,.59,3.46,.01,.05,.02,.1,.03,.15l4.82-1.33c-.91-2.83-1.82-5.65-2.72-8.48-2.18-6.79-4.36-13.57-6.54-20.36-2.64-8.21-5.28-16.42-7.92-24.63-2.28-7.1-4.56-14.2-6.85-21.3l-2.26-7.02c-.35-1.1-.62-2.28-1.07-3.34-.02-.05-.03-.1-.05-.15l-4.57,1.93c1.65,2.47,3.3,4.94,4.95,7.41,3.97,5.93,7.93,11.86,11.9,17.79,4.8,7.18,9.6,14.35,14.39,21.53,4.15,6.2,8.3,12.41,12.45,18.61,2.02,3.02,3.98,6.08,6.05,9.05,.03,.04,.06,.09,.09,.13,1.78,2.66,6.11,.16,4.32-2.52h0Z"/>
      <path class="cls-29" d="M187.76,152.93c-1.41-2.6-2.82-5.21-4.23-7.81-3.41-6.29-6.82-12.59-10.23-18.88-4.11-7.58-8.21-15.16-12.32-22.74-3.55-6.56-7.1-13.12-10.66-19.67-1.73-3.19-3.32-6.52-5.21-9.62-.03-.04-.05-.09-.07-.14-1.38-2.55-5.22-.78-4.57,1.93,.7,2.89,1.39,5.78,2.09,8.67,1.67,6.94,3.34,13.87,5.01,20.81,2.02,8.39,4.04,16.79,6.06,25.18,1.75,7.26,3.5,14.52,5.24,21.77,.85,3.52,1.53,7.12,2.55,10.59,.01,.05,.02,.1,.04,.15,.64,2.67,5.26,2.18,4.91-.66s-.72-5.9-1.08-8.85c-.86-7.08-1.72-14.16-2.58-21.25-1.04-8.57-2.08-17.14-3.12-25.71-.9-7.41-1.8-14.82-2.7-22.23-.44-3.6-.86-7.21-1.31-10.81,0-.05-.01-.1-.02-.15-.15-1.24-.84-2.3-2.17-2.46-1.11-.13-2.56,.55-2.74,1.79-.43,2.94-.87,5.88-1.3,8.81-1.04,7.06-2.09,14.11-3.13,21.17-1.26,8.54-2.53,17.08-3.79,25.62l-3.28,22.15c-.53,3.59-1.08,7.18-1.59,10.77,0,.05-.02,.1-.02,.15-.2,1.33,.33,2.69,1.75,3.08,1.3,.36,2.72-.44,3.08-1.75,.77-2.87,1.55-5.74,2.32-8.6,1.86-6.89,3.71-13.78,5.57-20.67,2.25-8.34,4.49-16.67,6.74-25.01l5.83-21.62c.94-3.5,2.03-6.99,2.84-10.52,.01-.05,.03-.1,.04-.15,.73-2.72-3.13-4.4-4.57-1.93s-2.97,5.12-4.46,7.68c-3.59,6.19-7.18,12.38-10.77,18.57-4.32,7.46-8.65,14.91-12.97,22.37-3.74,6.45-7.48,12.9-11.23,19.35-1.83,3.15-3.79,6.25-5.49,9.47-.02,.05-.05,.09-.08,.13-1.62,2.79,2.7,5.31,4.32,2.52,1.49-2.56,2.97-5.12,4.46-7.68,3.59-6.19,7.18-12.38,10.77-18.57,4.32-7.46,8.65-14.91,12.97-22.37,3.74-6.45,7.48-12.9,11.23-19.35l3.74-6.44c.58-.99,1.27-1.98,1.75-3.03,.02-.05,.05-.09,.08-.13l-4.57-1.93c-.77,2.87-1.55,5.74-2.32,8.6-1.86,6.89-3.71,13.78-5.57,20.67-2.25,8.34-4.49,16.67-6.74,25.01-1.94,7.21-3.89,14.42-5.83,21.62l-1.92,7.13c-.3,1.12-.71,2.25-.91,3.39,0,.05-.03,.1-.04,.15l4.82,1.33c.43-2.94,.87-5.88,1.3-8.81,1.04-7.06,2.09-14.11,3.13-21.17,1.26-8.54,2.53-17.08,3.79-25.62l3.28-22.15,1.08-7.3c.17-1.14,.44-2.32,.51-3.47,0-.05,.02-.1,.02-.15l-4.91-.66c.36,2.95,.72,5.9,1.08,8.85,.86,7.08,1.72,14.16,2.58,21.25,1.04,8.57,2.08,17.14,3.12,25.71l2.7,22.23,.89,7.33c.14,1.15,.19,2.35,.42,3.48,.01,.05,.01,.1,.02,.15l4.91-.66c-.7-2.89-1.39-5.78-2.09-8.67l-5.01-20.81c-2.02-8.39-4.04-16.79-6.06-25.18-1.75-7.26-3.5-14.52-5.24-21.77l-1.73-7.18c-.27-1.12-.46-2.31-.82-3.41-.02-.05-.02-.1-.04-.15l-4.57,1.93c1.41,2.6,2.82,5.21,4.23,7.81,3.41,6.29,6.82,12.59,10.23,18.88,4.11,7.58,8.21,15.16,12.32,22.74,3.55,6.56,7.1,13.12,10.66,19.67,1.73,3.19,3.32,6.52,5.21,9.62,.03,.04,.05,.09,.07,.14,1.53,2.83,5.85,.31,4.32-2.52h0Z"/>
      <g>
        <polyline class="cls-3" points="71.98 61.62 116.2 140.05 75.81 59.57 124.03 135.62 78.21 58.14 136.48 126.58 90.94 132.93"/>
        <path class="cls-3" d="M70.9,62.25c1.46,2.6,2.93,5.19,4.39,7.79l10.54,18.7c4.25,7.55,8.51,15.09,12.76,22.64,3.7,6.56,7.39,13.11,11.09,19.67l3.62,6.42c.57,1.02,1.09,2.11,1.74,3.08,.03,.04,.05,.09,.08,.13,.8,1.41,2.88,.17,2.16-1.26-1.34-2.66-2.67-5.33-4.01-7.99-3.21-6.4-6.42-12.79-9.63-19.19l-11.66-23.23c-3.38-6.73-6.75-13.46-10.13-20.18l-3.31-6.59c-.5-1-.92-2.25-1.59-3.16-.03-.04-.05-.09-.07-.14l-2.16,1.26c1.6,2.52,3.19,5.03,4.79,7.55l11.5,18.13c4.64,7.32,9.28,14.63,13.92,21.95,4.03,6.36,8.06,12.71,12.09,19.07,1.94,3.05,3.73,6.28,5.85,9.22,.03,.04,.05,.09,.08,.13,.86,1.35,2.98,.13,2.16-1.26-1.52-2.56-3.03-5.13-4.55-7.69-3.64-6.16-7.28-12.32-10.92-18.47-4.41-7.45-8.82-14.91-13.22-22.36-3.83-6.48-7.66-12.95-11.49-19.43l-3.75-6.35c-.57-.96-1.07-2.19-1.8-3.05-.03-.04-.05-.09-.08-.13l-1.96,1.51c1.93,2.27,3.87,4.54,5.8,6.82l13.93,16.37c5.59,6.57,11.18,13.13,16.77,19.7l14.57,17.12,4.79,5.62c.73,.85,1.43,1.98,2.3,2.7,.04,.03,.07,.08,.1,.12l.55-2.09c-5.11,.71-10.23,1.43-15.34,2.14-8.17,1.14-16.33,2.28-24.5,3.42-1.9,.26-3.79,.53-5.69,.79-1.59,.22-.91,2.63,.66,2.41,5.11-.71,10.23-1.43,15.34-2.14,8.17-1.14,16.33-2.28,24.5-3.42,1.9-.26,3.79-.53,5.69-.79,1.02-.14,1.08-1.46,.55-2.09-1.93-2.27-3.87-4.54-5.8-6.82l-13.93-16.37c-5.59-6.57-11.18-13.13-16.77-19.7-4.86-5.71-9.72-11.41-14.57-17.12l-4.79-5.62c-.75-.88-1.46-1.89-2.3-2.7-.04-.03-.07-.08-.1-.12-.93-1.09-2.67,.31-1.96,1.51,1.52,2.56,3.03,5.13,4.55,7.69,3.64,6.16,7.28,12.32,10.92,18.47,4.41,7.45,8.82,14.91,13.22,22.36,3.83,6.48,7.66,12.95,11.49,19.43,1.25,2.12,2.5,4.23,3.75,6.35,.57,.97,1.08,2.18,1.8,3.05,.03,.04,.05,.09,.08,.13l2.16-1.26c-1.6-2.52-3.19-5.03-4.79-7.55l-11.5-18.13c-4.64-7.32-9.28-14.63-13.92-21.95-4.03-6.36-8.06-12.71-12.09-19.07-1.94-3.05-3.73-6.28-5.85-9.22-.03-.04-.05-.09-.08-.13-.87-1.37-2.88-.17-2.16,1.26,1.34,2.66,2.67,5.33,4.01,7.99l9.63,19.19c3.89,7.74,7.77,15.49,11.66,23.23,3.38,6.73,6.75,13.46,10.13,20.18l3.31,6.59c.5,1,.92,2.25,1.59,3.16,.03,.04,.05,.09,.07,.14l2.16-1.26c-1.46-2.6-2.93-5.19-4.39-7.79-3.51-6.23-7.03-12.47-10.54-18.7-4.25-7.55-8.51-15.09-12.76-22.64l-11.09-19.67-3.62-6.42c-.57-1.02-1.09-2.11-1.74-3.08-.03-.04-.05-.09-.08-.13-.79-1.4-2.95-.14-2.16,1.26h0Z"/>
      </g>
      <g>
        <polyline class="cls-3" points="134.87 139.74 175.12 59.18 127.42 135.56 171.45 57.01 119.06 130.24 172.24 57.82 123.17 47.63"/>
        <path class="cls-3" d="M135.95,140.37c1.33-2.67,2.66-5.33,4-8,3.2-6.4,6.4-12.81,9.6-19.21l11.62-23.25c3.37-6.73,6.73-13.47,10.1-20.2,1.62-3.24,3.43-6.45,4.88-9.76,.02-.05,.05-.09,.07-.14,.72-1.43-1.3-2.64-2.16-1.26-1.58,2.53-3.16,5.05-4.73,7.58-3.79,6.07-7.58,12.14-11.37,18.21l-13.77,22.05c-3.99,6.38-7.97,12.77-11.96,19.15l-3.91,6.26c-.59,.95-1.44,1.96-1.88,3-.02,.05-.06,.09-.08,.13l2.16,1.26c1.46-2.6,2.91-5.2,4.37-7.8,3.5-6.24,7-12.49,10.5-18.73,4.24-7.56,8.47-15.11,12.71-22.67,3.68-6.57,7.36-13.13,11.04-19.7,1.76-3.15,3.79-6.26,5.34-9.52,.02-.05,.05-.09,.08-.13,.8-1.43-1.24-2.55-2.16-1.26-1.73,2.42-3.47,4.85-5.2,7.27-4.16,5.82-8.33,11.64-12.49,17.46-5.04,7.05-10.08,14.09-15.12,21.14-4.38,6.12-8.76,12.24-13.14,18.36l-4.29,6c-.67,.94-1.49,1.87-2.06,2.88-.02,.04-.06,.08-.09,.12-.94,1.32,1.22,2.54,2.16,1.26,1.77-2.4,3.53-4.81,5.3-7.21,4.24-5.77,8.48-11.55,12.72-17.32,5.1-6.95,10.2-13.9,15.31-20.85l13.3-18.11,4.37-5.95c.68-.93,1.52-1.85,2.1-2.86,.02-.04,.06-.08,.09-.12,.46-.63-.01-1.68-.75-1.84-5.53-1.15-11.06-2.3-16.6-3.45l-26.43-5.49c-2.01-.42-4.03-.84-6.04-1.26-1.57-.33-2.24,2.08-.66,2.41,5.53,1.15,11.06,2.3,16.6,3.45,8.81,1.83,17.62,3.66,26.43,5.49,2.01,.42,4.03,.84,6.04,1.26l-.75-1.84c-1.77,2.4-3.53,4.81-5.3,7.21-4.24,5.77-8.48,11.55-12.72,17.32-5.1,6.95-10.2,13.9-15.31,20.85-4.43,6.04-8.87,12.08-13.3,18.11l-4.37,5.95c-.67,.91-1.59,1.85-2.1,2.86-.02,.04-.06,.08-.09,.12l2.16,1.26c1.73-2.42,3.47-4.85,5.2-7.27,4.16-5.82,8.33-11.64,12.49-17.46l15.12-21.14c4.38-6.12,8.76-12.24,13.14-18.36l4.29-6c.65-.91,1.56-1.87,2.06-2.88,.02-.04,.06-.08,.09-.12l-2.16-1.26c-1.46,2.6-2.91,5.2-4.37,7.8-3.5,6.24-7,12.49-10.5,18.73-4.24,7.56-8.47,15.11-12.71,22.67l-11.04,19.7c-1.76,3.15-3.79,6.26-5.34,9.52-.02,.05-.05,.09-.08,.13-.79,1.41,1.31,2.63,2.16,1.26,1.58-2.53,3.16-5.05,4.73-7.58,3.79-6.07,7.58-12.14,11.37-18.21l13.77-22.05c3.99-6.38,7.97-12.77,11.96-19.15l3.91-6.26c.59-.95,1.44-1.96,1.88-3,.02-.05,.06-.09,.08-.13l-2.16-1.26c-1.33,2.67-2.66,5.33-4,8-3.2,6.4-6.4,12.81-9.6,19.21l-11.62,23.25-10.1,20.2c-1.62,3.24-3.43,6.45-4.88,9.76-.02,.05-.05,.09-.07,.14-.72,1.44,1.44,2.7,2.16,1.26h0Z"/>
      </g>
      <polygon class="cls-51" points="89.24 199.49 136.22 182.54 79.83 112.36 135.89 182.68 103.17 99.03 128.87 184.8 137.1 95.78 122.05 184.46 156.79 101.53 118.38 182.75 176.47 114.26 113.47 178.16 161.63 198.62 142.09 109.94 135.31 200.09 124.89 110.29 118.11 200.44 70.62 131.5 89.24 199.49"/>
      <polygon class="cls-3" points="134.11 184.43 77.52 176.05 143.41 114.78 81.93 180.42 136.91 109.4 96.49 189.1 104.74 102.56 123.19 190.6 100.59 103.5 127.52 189.36 97.18 104.66 134.72 186.33 78.37 173.51 154.21 125.75 73.25 165.06 154.36 126.05 72.7 163.91 154.21 125.74 126.6 187.21 86.87 107.76 138.38 181.56 86.1 108.3 137.61 182.1 72.25 168.02 134.11 184.43"/>
      <polygon class="cls-3" points="152.4 100.83 100.79 120.95 177.92 167.32 101.46 119.91 173.66 173.44 110.93 109.69 142.56 190.09 137.35 100.31 135.69 190.26 141.67 100.49 129.72 189.65 149.15 101.94 95.81 125.49 179.83 156.71 93.07 132.78 180.28 155.02 93.14 132.51 180.55 153.92 142.1 98.01 117.91 183.48 157.32 102.57 118.76 183.9 158.18 102.98 181.96 157.51 152.4 100.83"/>
      <g>
        <polyline class="cls-1" points="208.75 104.34 121.4 125.52 210.8 115.92 120.98 120.78 210.86 124.77 121.06 118.91 210.26 130.85 120.94 119.75 209.8 134.06 120.43 123.43 209.74 134.5 119.87 129.96 209.8 132.09 120.19 139.67 209.28 127.44 122.38 150.55 207.77 122.39 126.86 161.57 204.87 116.92 134.05 172.25 200.35 111.58 143.73 181.36 194.38 107.15 155.97 188.36 186.52 103.9 170.74 192.3 177.27 102.73 186.18 192.09 167.84 104.2 201.72 187.32 158.07 108.92"/>
        <polyline class="cls-1" points="196.91 84.35 138.81 152.93 192.06 80.47 147.45 158.58 189.19 78.87 154.16 161.76 188.69 78.65 158.55 163.46 190.86 79.44 160.29 164.1 195.63 81.33 159.39 163.69 202.76 84.87 156.08 161.73 211.68 91.06 152.3 158.58 219.78 99.16 148.67 154.16 226.64 109.45 145.57 148.22 231.44 121.71 143.74 141.34 233.39 135.18 143.57 133.42 231.88 149.78 145.7 124.55 226.27 164.21 150.23 116.45 216.77 176.73 157.44 109.38 202.99 186.68"/>
      </g>
      <g>
        <polyline class="cls-1" points="130.73 131.84 42.78 113.33 131.85 125.66 41.93 123.54 131.89 122.3 42.32 130.89 131.85 121.68 42.91 135.49 132.17 123.9 43.16 137.25 132.77 128.92 43.09 136.19 133.05 136.81 43.23 132.27 131.86 147.52 44.22 127.37 128.6 158.42 46.41 122.01 122.86 169.28 50.21 116.39 114.41 179.27 55.45 111.45 103.55 187.35 62.4 107.49 90.07 192.94 71.29 105.13 74.78 194.86 80.65 105.26 59.33 192.48 90.37 108.26 44.09 185.12"/>
        <polyline class="cls-1" points="118.79 151.76 58.62 84.99 109.63 159.03 62.66 82.32 101.94 163.26 64.41 81.48 96.38 165.6 63.67 81.75 93.4 166.7 60.26 83.02 93.05 166.83 54.32 85.61 95.27 165.7 46 90.47 99.17 162.99 37.53 97.53 102.95 159.2 30.01 106.64 106.43 153.98 24.08 117.98 109 147.4 20.69 130.75 110.07 139.95 20.36 144.76 109.18 131.41 23.91 159.56 105.77 122.65 31.4 172.97 99.95 114.99 42.93 184.31 91.09 108.6"/>
      </g>
      <polyline class="cls-28" points="122.43 103.51 43.13 145.75 129.19 119.88 41.27 137.39 129.96 146.36 48.47 112.86 105.98 179.73"/>
      <polyline class="cls-28" points="206.22 90.64 148.99 160.03 217.48 101.72 145.97 156.03 228.95 122.85 141.72 130.88 218.43 171.2"/>
    </g>
  </g>
</svg>