<?xml version="1.0" encoding="UTF-8"?>
<svg id="Layer_2" data-name="Layer 2" xmlns="http://www.w3.org/2000/svg" viewBox="0 0 1374 768">
  <defs>
    <style>
      .cls-1, .cls-2, .cls-3, .cls-4, .cls-5, .cls-6 {
        fill: none;
        stroke-miterlimit: 10;
      }

      .cls-1, .cls-3, .cls-5 {
        stroke: #a85460;
        stroke-width: .25px;
      }

      .cls-1, .cls-4, .cls-7 {
        opacity: .94;
      }

      .cls-8 {
        fill: #f79297;
      }

      .cls-9 {
        fill: #ffe2c0;
      }

      .cls-10 {
        fill: #7f242d;
      }

      .cls-11, .cls-12, .cls-7 {
        fill: #c43f4c;
      }

      .cls-13 {
        fill: #af5b68;
      }

      .cls-14 {
        fill: #d86c77;
      }

      .cls-15 {
        fill: #e2b8a3;
      }

      .cls-16 {
        fill: #9b3543;
      }

      .cls-2, .cls-4, .cls-6 {
        stroke: #93313f;
        stroke-width: .75px;
      }

      .cls-3, .cls-17, .cls-12, .cls-6 {
        opacity: .9;
      }
    </style>
  </defs>
  <g id="Layer_7" data-name="Layer 7">
    <rect class="cls-9" x="0" y="0" width="1366" height="768" transform="translate(1366 768) rotate(-180)"/>
  </g>
  <g id="Layer_8" data-name="Layer 8">
    <g>
      <path class="cls-10" d="M1,424C9.21,252.99,80.25,114,178,114c97.75,0,177,138.79,177,310,0,171.21-79.31,306.46-177,310C63.52,738.15-7.32,597.27,1,424Z"/>
      <ellipse class="cls-16" cx="193" cy="429" rx="181" ry="310"/>
      <ellipse class="cls-15" cx="296.5" cy="424" rx="266.5" ry="308"/>
      <path class="cls-15" d="M124.65,650.23c1.93,0,1.93-3,0-3s-1.93,3,0,3h0Z"/>
      <path class="cls-15" d="M119.11,648.95v-5.21c0-.78-.69-1.54-1.5-1.5s-1.5,.66-1.5,1.5v5.21c0,.78,.69,1.54,1.5,1.5s1.5-.66,1.5-1.5h0Z"/>
      <path class="cls-15" d="M118.66,649.55c.08-3.75,.23-7.5,.45-11.24,.05-.81-.72-1.5-1.5-1.5-.85,0-1.45,.69-1.5,1.5-.22,3.74-.37,7.49-.45,11.24-.02,.81,.7,1.5,1.5,1.5s1.48-.69,1.5-1.5h0Z"/>
      <rect class="cls-8" x="117" y="168" width="1257" height="553"/>
      <ellipse class="cls-8" cx="311.5" cy="425" rx="266.5" ry="310"/>
      <path class="cls-8" d="M1313.83,406.75c.93-15.73,1.86-31.47,2.8-47.2,.19-3.21-4.81-3.2-5,0-.93,15.73-1.86,31.47-2.8,47.2-.19,3.21,4.81,3.2,5,0h0Z"/>
      <polygon class="cls-11" points="117 637 1374 635 1374 717 117 713 117 637"/>
      <rect class="cls-10" x="117" y="710" width="1257" height="11" transform="translate(1491 1431) rotate(-180)"/>
      <polygon class="cls-11" points="117 145.76 1371 144 1371 213 117 212.49 117 145.76"/>
      <rect class="cls-10" x="116" y="137.41" width="1258" height="8.59" transform="translate(1490 283.41) rotate(-180)"/>
      <rect class="cls-15" x="117" y="636" width="1253" height="16" transform="translate(1487 1288) rotate(-180)"/>
      <rect class="cls-15" x="116" y="197" width="1255" height="16" transform="translate(1487 410) rotate(-180)"/>
      <path class="cls-15" d="M119.35,650.28c-.44-3.93-.58-7.89-.4-11.84,.04-.81-.72-1.5-1.5-1.5-.84,0-1.46,.69-1.5,1.5-.18,3.95-.04,7.91,.4,11.84,.09,.8,.62,1.5,1.5,1.5,.74,0,1.59-.69,1.5-1.5h0Z"/>
      <rect class="cls-9" x="50" y="721" width="416" height="18" transform="translate(516 1460) rotate(-180)"/>
      <rect class="cls-9" x="45" y="101" width="404" height="36" transform="translate(494 238) rotate(-180)"/>
    </g>
  </g>
  <g id="Layer_12" data-name="Layer 12">
    <path class="cls-5" d="M1167.36,218.42s-6.13-4.99-13.32-6.45-13.34,.35-16.22,1.13"/>
    <path class="cls-5" d="M686.37,369.78s7.78,1.38,14.77-.84c6.99-2.22,11.48-6.79,13.62-8.87"/>
    <path class="cls-3" d="M656.44,169.75s7.78,1.38,14.77-.84c6.99-2.22,11.48-6.79,13.62-8.87"/>
    <path class="cls-5" d="M249.97,498.2s-6.65-4.26-13.96-4.9c-7.31-.64-13.21,1.86-15.98,2.95"/>
    <path class="cls-3" d="M162.87,293.73s-6.65-4.26-13.96-4.9c-7.31-.64-13.21,1.86-15.98,2.95"/>
    <path class="cls-1" d="M1295.04,450.01s7.89,.51,14.59-2.47c6.7-2.98,10.66-8.02,12.56-10.32"/>
    <path class="cls-5" d="M613.82,293.01s-1.7-7.72-6.42-13.33-10.66-8.02-13.4-9.2"/>
  </g>
  <g id="Layer_21" data-name="Layer 21">
    <g>
      <ellipse class="cls-7" cx="920.6" cy="568.47" rx="36" ry="22.5" transform="translate(-155.92 460) rotate(-25.94)"/>
      <path class="cls-4" d="M940.19,556.16s-11.85-.35-21.74,4.46-15.57,12.58-18.29,16.13"/>
    </g>
    <g>
      <ellipse class="cls-12" cx="816.15" cy="331.42" rx="22.5" ry="36" transform="translate(328.88 1065.26) rotate(-78.52)"/>
      <path class="cls-2" d="M839.19,333.55s-9.19-7.48-19.97-9.67-20.01,.53-24.32,1.69"/>
    </g>
    <g>
      <ellipse class="cls-7" cx="630.15" cy="516.42" rx="22.5" ry="36" transform="translate(-1.38 1031.15) rotate(-78.52)"/>
      <path class="cls-4" d="M653.19,518.55s-9.19-7.48-19.97-9.67-20.01,.53-24.32,1.69"/>
    </g>
    <g>
      <ellipse class="cls-12" cx="151.19" cy="285.48" rx="22.5" ry="36" transform="translate(-158.68 376.81) rotate(-78.52)"/>
      <path class="cls-2" d="M174.22,287.61s-9.19-7.48-19.97-9.67-20.01,.53-24.32,1.69"/>
    </g>
    <g>
      <ellipse class="cls-12" cx="172.19" cy="512.48" rx="36" ry="22.5" transform="translate(-193.27 114.08) rotate(-23.96)"/>
      <path class="cls-6" d="M192.19,500.85s-11.83-.76-21.88,3.7c-10.05,4.47-15.99,12.03-18.84,15.48"/>
    </g>
    <g>
      <ellipse class="cls-7" cx="1268.64" cy="576.55" rx="28.39" ry="17.74" transform="translate(-103.08 331.12) rotate(-14.3)"/>
      <path class="cls-4" d="M1285.73,570.16s-9.09-2.16-17.5-.02c-8.41,2.14-14.02,7.24-16.69,9.54"/>
    </g>
    <g>
      <ellipse class="cls-14" cx="347.44" cy="250.04" rx="24" ry="15" transform="translate(-59.33 116.73) rotate(-17.6)"/>
      <path class="cls-13" d="M327.52,256.92c16.06,1.82,28.03-2.39,39.65-13.55-1.24,1.34-2.53,2.63-3.88,3.87-9.75,9.18-22.78,12.26-35.77,9.68h0Z"/>
    </g>
    <g>
      <ellipse class="cls-14" cx="263.51" cy="584" rx="15" ry="24" transform="translate(-341.22 795.68) rotate(-85.01)"/>
      <path class="cls-13" d="M272.94,582.12c-7.98-4.27-15.6-4.7-24.07-1.56,7.75-4.16,16.94-3.61,24.07,1.56h0Z"/>
    </g>
    <g>
      <g class="cls-17">
        <ellipse class="cls-14" cx="176.4" cy="379.54" rx="15" ry="24" transform="translate(-217.05 522.24) rotate(-85.01)"/>
      </g>
      <g class="cls-17">
        <path class="cls-13" d="M191.64,378.88c-9.99-5.45-19.34-5.98-29.94-1.95,1.18-.56,2.38-1.08,3.61-1.54,8.74-3.47,18.72-1.87,26.33,3.49h0Z"/>
      </g>
    </g>
    <g>
      <ellipse class="cls-14" cx="595.63" cy="380.84" rx="15" ry="24" transform="translate(-105.33 472.82) rotate(-40.07)"/>
      <path class="cls-13" d="M606.88,391.13c-3.26-10.97-9.42-17.84-19.82-22.53,1.23,.44,2.45,.92,3.65,1.46,8.66,3.74,14.55,11.86,16.18,21.07h0Z"/>
    </g>
    <g>
      <ellipse class="cls-12" cx="379.05" cy="354.79" rx="22.5" ry="36" transform="translate(-44.11 655.62) rotate(-78.52)"/>
      <path class="cls-2" d="M402.08,356.92s-9.19-7.48-19.97-9.67c-10.78-2.19-20.01,.53-24.32,1.69"/>
    </g>
    <g>
      <g class="cls-17">
        <ellipse class="cls-14" cx="480" cy="488.32" rx="15.53" ry="24" transform="translate(-48.24 924) rotate(-85.01)"/>
      </g>
      <g class="cls-17">
        <path class="cls-13" d="M495.24,487.59c-10.03-5.64-19.28-6.14-29.95-1.92,1.18-.58,2.38-1.11,3.6-1.59,8.77-3.62,18.74-1.99,26.34,3.52h0Z"/>
      </g>
    </g>
    <g>
      <ellipse class="cls-12" cx="1107.2" cy="315.44" rx="36" ry="22.5" transform="translate(-26.43 516.13) rotate(-25.94)"/>
      <path class="cls-2" d="M1087.61,327.75s11.85,.35,21.74-4.46,15.57-12.58,18.29-16.13"/>
    </g>
    <g>
      <ellipse class="cls-7" cx="1073.2" cy="460.44" rx="36" ry="22.5" transform="translate(-93.29 515.87) rotate(-25.94)"/>
      <path class="cls-4" d="M1092.79,448.13s-11.85-.35-21.74,4.46-15.57,12.58-18.29,16.13"/>
    </g>
    <g>
      <ellipse class="cls-7" cx="1274.99" cy="363.04" rx="28.39" ry="17.74" transform="translate(-50.16 326.08) rotate(-14.3)"/>
      <path class="cls-4" d="M1292.08,356.65s-9.09-2.16-17.5-.02c-8.41,2.14-14.02,7.24-16.69,9.54"/>
    </g>
    <g>
      <ellipse class="cls-14" cx="716.09" cy="583.78" rx="15" ry="24" transform="translate(-80.57 1051.66) rotate(-69.61)"/>
      <path class="cls-13" d="M701.23,580.37c8.21,7.92,17.03,10.89,28.35,9.83-1.29,.23-2.58,.4-3.89,.53-9.35,1.03-18.54-3.16-24.46-10.35h0Z"/>
    </g>
    <g>
      <ellipse class="cls-14" cx="849.24" cy="446.79" rx="15" ry="24" transform="translate(330.23 1253.92) rotate(-85.01)"/>
      <path class="cls-13" d="M858.67,444.9c-7.98-4.27-15.6-4.7-24.07-1.56,7.75-4.16,16.94-3.61,24.07,1.56h0Z"/>
    </g>
    <g>
      <g class="cls-17">
        <ellipse class="cls-14" cx="744.14" cy="258.32" rx="15" ry="24" transform="translate(422.03 977.15) rotate(-85.01)"/>
      </g>
      <g class="cls-17">
        <path class="cls-13" d="M759.37,257.66c-9.99-5.45-19.34-5.98-29.94-1.95,1.18-.56,2.38-1.08,3.61-1.54,8.74-3.47,18.72-1.87,26.33,3.49h0Z"/>
      </g>
    </g>
    <g>
      <ellipse class="cls-14" cx="1211.36" cy="282.62" rx="15" ry="24" transform="translate(102.43 846.13) rotate(-40.07)"/>
      <path class="cls-13" d="M1222.61,292.91c-3.26-10.97-9.42-17.84-19.82-22.53,1.23,.44,2.45,.92,3.65,1.46,8.66,3.74,14.55,11.86,16.18,21.07h0Z"/>
    </g>
    <g>
      <g class="cls-17">
        <ellipse class="cls-14" cx="978.73" cy="299.1" rx="15.53" ry="24" transform="translate(595.58 1248.09) rotate(-85.01)"/>
      </g>
      <g class="cls-17">
        <path class="cls-13" d="M993.98,298.38c-10.03-5.64-19.28-6.14-29.95-1.92,1.18-.58,2.38-1.11,3.6-1.59,8.77-3.62,18.74-1.99,26.34,3.52h0Z"/>
      </g>
    </g>
    <g>
      <ellipse class="cls-14" cx="1258.83" cy="483.56" rx="15" ry="24" transform="translate(-15.78 923.86) rotate(-40.07)"/>
      <path class="cls-13" d="M1270.08,493.86c-3.26-10.97-9.42-17.84-19.82-22.53,1.23,.44,2.45,.92,3.65,1.46,8.66,3.74,14.55,11.86,16.18,21.07h0Z"/>
    </g>
    <g>
      <ellipse class="cls-12" cx="518.9" cy="288.34" rx="23.39" ry="38.87" transform="translate(26.1 619.31) rotate(-62.95)"/>
      <path class="cls-2" d="M495.61,279.36s7.5,10.25,18.07,15.65c10.58,5.4,20.88,5.41,25.67,5.52"/>
    </g>
    <g>
      <g class="cls-17">
        <ellipse class="cls-14" cx="1106.15" cy="572.27" rx="15.53" ry="24" transform="translate(439.77 1624.41) rotate(-85.01)"/>
      </g>
      <g class="cls-17">
        <path class="cls-13" d="M1121.39,571.54c-10.03-5.64-19.28-6.14-29.95-1.92,1.18-.58,2.38-1.11,3.6-1.59,8.77-3.62,18.74-1.99,26.34,3.52h0Z"/>
      </g>
    </g>
    <g>
      <ellipse class="cls-7" cx="437.83" cy="574.99" rx="22.5" ry="36" transform="translate(-118.74 113.97) rotate(-13.08)"/>
      <path class="cls-4" d="M430.19,553.15s-2.98,11.47-.49,22.19,8.8,17.98,11.65,21.42"/>
    </g>
  </g>
</svg>