<?xml version="1.0" encoding="UTF-8"?>
<svg id="Layer_2" data-name="Layer 2" xmlns="http://www.w3.org/2000/svg" viewBox="0 0 168 768">
    <defs>
        <style>
            .cls-9 {
                fill: #fff;
            }
            .cls-12 {
                fill: #9b2132;
            }
            .cls-20 {
                opacity: .4;
            }
        </style>
    </defs>
    <g id="Layer_22" data-name="Layer 22">
        <rect class="cls-12" x="0" y="144" width="144" height="567"/>
        <g class="cls-20">
        <!-- <path class="cls-9" d="M1453.47,164.7c3.15,0,6.22,.52,9.19,1.55,2.97,1.03,5.63,2.5,7.96,4.41,2.33,1.91,4.2,4.25,5.6,7.01,1.39,2.76,2.09,5.84,2.09,9.24l-.73,4.37v6.01c0,.43-.18,1-.55,1.73-.36,.73-.55,1.34-.55,1.82-.36,.79-.7,1.58-1,2.37-.3,.67-.64,1.38-1,2.14-.36,.76-.79,1.47-1.27,2.14-.24,.49-.65,1.03-1.23,1.64-.58,.61-1.24,1.18-2,1.73-.76,.55-1.53,1-2.32,1.37-.79,.36-1.55,.55-2.28,.55h-1.73c-.67,0-1.34,.09-2,.27-.67,.18-1.32,.38-1.96,.59-.64,.21-1.2,.41-1.68,.59-.49,.18-.82,.27-1,.27h-2.46c-1.03,0-1.93,.14-2.68,.41-.76,.27-1.41,.41-1.96,.41h-12.65c-.36,.18-.7,.36-1,.55-.61,.3-1.18,.46-1.73,.46l-2.55-1h-2.55l-2.46,1c-.42,0-.99-.2-1.68-.59-.7-.4-1.26-.8-1.68-1.23-.24,0-.61-.01-1.09-.05-.49-.03-.96-.12-1.41-.27-.46-.15-.86-.39-1.23-.73-.36-.33-.55-.8-.55-1.41,0-.48,.21-.94,.64-1.37,.42-.42,.91-.79,1.46-1.09,.67-.36,1.4-.73,2.18-1.09h2.55l4.28-1c.49,.18,.94,.36,1.37,.55,.79,.3,1.46,.46,2,.46,.61,0,1.08-.2,1.41-.59,.33-.39,.58-.86,.73-1.41,.15-.55,.24-1.11,.27-1.68,.03-.58,.04-1.05,.04-1.41v-5.55c0-.24-.12-.61-.36-1.09-.12-.24-.24-.46-.36-.64v-5.64c0-.48,.12-1.09,.36-1.82,.24-.73,.36-1.55,.36-2.46v-7.83c0-1.64-.27-3.02-.82-4.14-.55-1.12-1.7-1.68-3.46-1.68-.36,0-.67,.05-.91,.14-.24,.09-.47,.18-.68,.27-.21,.09-.44,.17-.68,.23-.24,.06-.58,.09-1,.09l-2.55-.73h-1.73c-.42,0-.96-.2-1.59-.59-.64-.39-.96-.77-.96-1.14,0-.91,.5-1.7,1.5-2.37,1-.67,2.14-1.23,3.41-1.68,1.27-.46,2.52-.79,3.73-1,1.21-.21,2.03-.32,2.46-.32h1.55c.48,0,.94,.17,1.37,.5,.42,.33,.88,.5,1.36,.5,.49-.12,.94-.27,1.37-.45,.36-.12,.74-.24,1.14-.36,.39-.12,.74-.18,1.05-.18h5.1c1.21-.12,2.33-.24,3.37-.36,.85-.12,1.68-.21,2.5-.27,.82-.06,1.38-.09,1.68-.09Zm-4.28,8.83c-.18,0-.55,.12-1.09,.36-.55,.24-1.11,.58-1.68,1-.58,.42-1.09,.88-1.55,1.36-.46,.49-.68,.94-.68,1.37,.12,.12,.24,.27,.36,.46,.24,.36,.36,.79,.36,1.27v23.02c.24,.49,.39,1,.46,1.55,.06,.55,.14,1.06,.23,1.55,.09,.49,.26,.91,.5,1.27,.24,.36,.7,.61,1.37,.73h1c.18,0,.5-.03,.96-.09,.46-.06,.94-.12,1.46-.18,.51-.06,1.02-.12,1.5-.18,.48-.06,.85-.09,1.09-.09,2.61-.06,4.81-.65,6.6-1.77,1.79-1.12,3.26-2.53,4.41-4.23,1.15-1.7,2-3.52,2.55-5.46,.55-1.94,.85-3.76,.91-5.46,.06-1.33-.24-2.94-.91-4.82-.67-1.88-1.49-3.62-2.46-5.23-.97-1.61-1.97-2.85-3-3.73-1.03-.88-1.85-1.02-2.46-.41-.36-.24-.7-.48-1-.73-.3-.18-.59-.36-.86-.55-.27-.18-.5-.27-.68-.27h-.82l-6.55-.73Z"/>
        <path class="cls-9" d="M1454.29,252.43c1.33,0,2.33,.29,3,.86,.67,.58,1.14,1.32,1.41,2.23,.27,.91,.46,1.9,.55,2.96,.09,1.06,.2,2.08,.32,3.05v3.28c.36,.67,.83,1.56,1.41,2.68,.58,1.12,.86,2.26,.86,3.41v2.27c0,.18,.15,.73,.46,1.64,.3,.91,.65,1.91,1.05,3,.39,1.09,.74,2.14,1.05,3.14s.46,1.68,.46,2.05c0,1.15,.15,2.68,.46,4.6,.3,1.91,.7,3.78,1.18,5.6,.48,1.82,1.05,3.4,1.68,4.73,.64,1.34,1.32,2,2.05,2,.85,0,1.52,.09,2,.27,.49,.18,.91,.27,1.27,.27,.18,0,.5,.03,.96,.09,.46,.06,.94,.18,1.46,.36,.51,.18,.96,.44,1.32,.77,.36,.33,.55,.77,.55,1.32,0,1.21-.43,2.06-1.27,2.55-.85,.48-1.85,.73-3,.73l-6.1-.27h-9.1l-2.55,.27c-.36,0-.96-.03-1.77-.09-.82-.06-1.23-.3-1.23-.73,0-.85,.38-1.55,1.14-2.09,.76-.55,1.65-1,2.68-1.36,.85-.3,1.56-.64,2.14-1,.58-.36,.87-.97,.87-1.82,0-.18-.08-.64-.23-1.36-.15-.73-.33-1.5-.55-2.32-.21-.82-.46-1.55-.73-2.18-.27-.64-.53-.96-.77-.96-.18-.61-.32-1.27-.41-2s-.21-1.38-.36-1.96c-.15-.58-.4-1.02-.73-1.32-.33-.3-.83-.39-1.5-.27h-4.14c-.52,0-1.05,.03-1.59,.09-.55,.06-1.08,.14-1.59,.23-.52,.09-.87,.23-1.05,.41-.79,.36-1.11,.9-.96,1.59,.15,.7,.23,1.44,.23,2.23-.18,.24-.46,.71-.82,1.41-.36,.7-.71,1.44-1.05,2.23-.33,.79-.62,1.52-.86,2.18-.24,.67-.36,1.09-.36,1.27,0,.73,.2,1.24,.59,1.55,.39,.3,.83,.59,1.32,.86,.49,.27,.92,.65,1.32,1.14,.39,.49,.59,1.31,.59,2.46,0,.36-.12,.65-.36,.86-.24,.21-.53,.36-.86,.46-.33,.09-.67,.15-1,.18-.33,.03-.59,.05-.77,.05,0,.18-.06,.3-.18,.36-.12,.06-.29,.09-.5,.09s-.5-.15-.86-.46h-.96c-.39,0-.8-.03-1.23-.09l-1.64-.18c-.79,0-1.43,.09-1.91,.27-.49,.18-1.12,.27-1.91,.27-.85,0-1.46,.05-1.82,.14-.36,.09-.62,.18-.77,.27-.15,.09-.26,.17-.32,.23-.06,.06-.18,.09-.36,.09-.3,0-.83-.03-1.59-.09-.76-.06-1.53-.17-2.32-.32-.79-.15-1.47-.36-2.05-.64-.58-.27-.86-.59-.86-.96,0-1.15,.35-2.12,1.05-2.91,.7-.79,1.62-1.18,2.78-1.18l1.73-.45c.12,0,.35-.11,.68-.32,.33-.21,.68-.47,1.05-.77,.36-.3,.74-.62,1.14-.96,.39-.33,.71-.59,.96-.77,.36-1.52,1.02-3.17,1.96-4.96,.94-1.79,1.8-3.5,2.59-5.14,.36-1.03,.83-2.11,1.41-3.23,.58-1.12,1.11-2.08,1.59-2.87,.61-1.15,1.12-2.28,1.55-3.37,.42-1.09,.82-2.2,1.18-3.32,.36-1.12,.76-2.26,1.18-3.41,.42-1.15,.91-2.33,1.46-3.55,.42-.91,.76-1.9,1-2.96,.24-1.06,.47-2.15,.68-3.28,.21-1.12,.49-2.26,.82-3.41,.33-1.15,.77-2.3,1.32-3.46,.36-.3,.76-.67,1.18-1.09,.42-.42,1.03-.82,1.82-1.18h1.55Zm-1.09,16.65c-.42,0-.8,.18-1.14,.55-.33,.36-.62,.77-.86,1.23-.24,.46-.43,.91-.55,1.36-.12,.46-.18,.77-.18,.96v1.23c0,.27-.03,.52-.09,.73-.06,.21-.14,.5-.23,.86-.09,.36-.23,.94-.41,1.73v.73c0,.36,.27,.71,.82,1.05,.55,.33,1.03,.5,1.46,.5h.87c.39,0,.79-.03,1.18-.09,.39-.06,.74-.18,1.05-.36,.3-.18,.46-.46,.46-.82,0-.79-.21-1.4-.64-1.82-.42-.42-.64-.85-.64-1.27v-4c0-.36-.11-.88-.32-1.55-.21-.67-.47-1-.77-1Z"/>
        <path class="cls-9" d="M1426.67,345.88c.79,0,1.46,.03,2,.09,.55,.06,1.06,.3,1.55,.73,.79,.49,1.29,.93,1.5,1.32,.21,.4,.56,.8,1.05,1.23,.42,1.21,1.06,1.96,1.91,2.23,.85,.27,1.64,.71,2.37,1.32,.73,.61,1.44,1.35,2.14,2.23,.7,.88,1.41,1.81,2.14,2.78,.73,.97,1.42,1.91,2.09,2.82,.67,.91,1.33,1.67,2,2.27,.91,1.03,1.68,2.11,2.32,3.23,.64,1.12,1.65,2.05,3.05,2.78,.36,.3,1.06,1,2.09,2.09,1.03,1.09,2.17,2.26,3.41,3.5,1.24,1.24,2.44,2.35,3.59,3.32,1.15,.97,2.06,1.46,2.73,1.46,.42,0,.71-.09,.86-.27,.15-.18,.23-.41,.23-.68s-.05-.55-.14-.82-.14-.5-.14-.68v-6.82c0-.55,.17-1.18,.5-1.91,.33-.73,.5-1.61,.5-2.64v-7.64c-.24-.18-.58-.48-1-.91-.42-.42-.85-.86-1.27-1.32-.43-.45-.83-.86-1.23-1.23-.4-.36-.68-.55-.86-.55h-1.73c-.36,0-.79-.1-1.27-.32-.49-.21-.94-.47-1.37-.77-.43-.3-.77-.59-1.05-.86-.27-.27-.41-.47-.41-.59v-2.82c0-.61,.14-1.09,.41-1.46,.27-.36,.62-.62,1.05-.77,.42-.15,.88-.24,1.37-.27,.48-.03,.91-.05,1.27-.05h1.73c.42,0,.99,.05,1.68,.14,.7,.09,1.42,.18,2.18,.27,.76,.09,1.49,.18,2.18,.27,.7,.09,1.32,.14,1.87,.14h12.65c1.21,0,2.35,.27,3.41,.82,1.06,.55,1.59,1.46,1.59,2.73,0,.49-.03,.9-.09,1.23-.06,.33-.27,.77-.64,1.32-1.4,.85-2.75,1.23-4.05,1.14-1.3-.09-2.56-.14-3.78-.14l-2.55,.73h-1.55c-.49,0-.9,.35-1.23,1.05-.33,.7-.5,1.44-.5,2.23v13.92c0,.36,.12,.91,.36,1.64,.24,.73,.36,1.27,.36,1.64v5.1l-1.55,8.83c0,.36,.08,.85,.23,1.46,.15,.61,.33,1.23,.55,1.87,.21,.64,.39,1.24,.55,1.82,.15,.58,.23,1.05,.23,1.41,0,.24-.02,.67-.05,1.27-.03,.61-.09,1.21-.18,1.82s-.24,1.14-.46,1.59c-.21,.46-.5,.68-.86,.68h-1.23c-.58,0-1.17-.03-1.77-.09-.61-.06-1.14-.15-1.59-.27-.46-.12-.68-.27-.68-.46-.85-.85-1.56-1.88-2.14-3.09-.58-1.21-1.29-2.18-2.14-2.91-.67-.91-1.3-1.67-1.91-2.28-.61-.61-1.2-1.18-1.77-1.73-.58-.55-1.12-1.12-1.64-1.73-.52-.61-.96-1.33-1.32-2.18-.67-1.52-1.7-2.97-3.09-4.37-1.4-1.39-2.87-2.79-4.41-4.19-1.55-1.39-3.06-2.81-4.55-4.23-1.49-1.42-2.68-2.9-3.59-4.41,0-.18-.09-.47-.27-.86-.18-.39-.43-.77-.73-1.14-.3-.36-.65-.7-1.05-1-.4-.3-.81-.46-1.23-.46-1.15,0-1.73,.91-1.73,2.73v10.37l.73,5.1c0,1.21-.05,2.05-.14,2.5s-.14,1.14-.14,2.05c0,1.15,.35,2.02,1.05,2.59,.7,.58,1.56,1.02,2.59,1.32,1.03,.3,2.14,.53,3.32,.68,1.18,.15,2.29,.35,3.32,.59,1.03,.24,1.9,.62,2.59,1.14,.7,.52,1.05,1.26,1.05,2.23,0,.48-.15,.77-.46,.86-.3,.09-.67,.14-1.09,.14h-10.37l-5.82,.82c-.49-.42-1.09-.67-1.82-.73-.73-.06-1.31-.09-1.73-.09h-1.73c-1.27,0-2.22-.17-2.82-.5-.61-.33-1.37-.5-2.28-.5h-3.28l-.73,1h-1.82c0-.24-.02-.65-.04-1.23-.03-.58-.05-1.14-.05-1.68-.06-.67-.09-1.36-.09-2.09,0-.49,.27-.91,.82-1.27s1.03-.55,1.46-.55h1.96c.33,0,.55-.01,.64-.05,.09-.03,.15-.05,.18-.05,.03,0,.21-.01,.55-.04,.33-.03,.91-.04,1.73-.04h3.78c.42,0,.79-.14,1.09-.41,.3-.27,.55-.59,.73-.96,.18-.36,.3-.74,.36-1.14,.06-.39,.09-.68,.09-.86-.12-.24-.21-.49-.27-.73-.18-.36-.27-.79-.27-1.27,0-.91-.05-1.65-.14-2.23-.09-.58-.21-1.08-.36-1.5-.15-.42-.27-.8-.36-1.14-.09-.33-.14-.74-.14-1.23,0-.42,.05-.94,.14-1.55,.09-.61,.2-1.15,.32-1.64,.18-.61,.36-1.21,.55-1.82v-6.1c0-.36-.05-.79-.14-1.27-.09-.48-.38-.97-.86-1.46,0-.73,.15-1.18,.46-1.36,.18-.12,.36-.18,.55-.18-.06-.24-.18-.58-.36-1-.18-.42-.38-.85-.59-1.27-.21-.42-.4-.82-.55-1.18-.15-.36-.23-.64-.23-.82,0-1.27-.49-2.24-1.46-2.91-.97-.67-2.05-1.3-3.23-1.91-1.18-.61-2.26-1.3-3.23-2.09-.97-.79-1.46-1.94-1.46-3.46,.24-.61,.48-1.15,.73-1.64,.24-.42,.5-.82,.77-1.18,.27-.36,.62-.55,1.05-.55h8.55Z"/>
        <path class="cls-9" d="M1461.53,436.7h4.28c1.27,0,2.35,.53,3.23,1.59,.88,1.06,1.58,2.26,2.09,3.59,.51,1.34,.89,2.59,1.14,3.78,.24,1.18,.36,1.9,.36,2.14,0,.49,.03,.86,.09,1.14,.06,.27,.15,.53,.27,.77,.12,.24,.24,.46,.36,.64,0,.18-.03,.4-.09,.64-.12,.42-.33,.79-.64,1.09,0,.42-.03,.83-.09,1.23-.06,.39-.27,.59-.64,.59-.3,0-.79-.35-1.46-1.05-.67-.7-1.37-1.47-2.09-2.32-.85-1.03-1.79-2.18-2.82-3.46-.67-.36-1.56-.76-2.68-1.18-1.12-.42-2.2-.82-3.23-1.18-1.27-.42-2.58-.82-3.91-1.18-1.94,0-3.87,.36-5.78,1.09-1.91,.73-3.64,1.79-5.19,3.19-1.55,1.4-2.85,3.09-3.91,5.1-1.06,2-1.68,4.28-1.87,6.83,0,1.21-.12,2.18-.36,2.91-.24,.73-.36,1.52-.36,2.37s.03,1.56,.09,2.14c.06,.58,.27,1.29,.64,2.14,.42,1.27,1.03,2.64,1.82,4.09,.79,1.46,1.71,2.81,2.78,4.05,1.06,1.24,2.26,2.28,3.59,3.09,1.33,.82,2.76,1.23,4.28,1.23l3.28-1.09c.85,0,1.77-.32,2.78-.96,1-.64,1.5-1.56,1.5-2.78v-1.82c-.12-.73-.27-1.47-.46-2.23-.18-.76-.46-1.53-.82-2.32-.49-.85-1.08-1.71-1.77-2.59-.7-.88-1.29-1.44-1.77-1.68-.85-.3-1.27-.73-1.27-1.27,0-.24,.14-.44,.41-.59,.27-.15,.59-.26,.96-.32,.42-.06,.91-.09,1.46-.09h10.1c.42,0,.77-.03,1.05-.09,.27-.06,.56-.14,.86-.23,.3-.09,.7-.18,1.18-.27,.48-.09,1.15-.14,2-.14,.42,.12,.82,.27,1.18,.46,.3,.12,.59,.3,.86,.55,.27,.24,.41,.49,.41,.73,0,.36-.15,.96-.46,1.77-.3,.82-.64,1.23-1,1.23h-1c-1.27,0-2.32,.49-3.14,1.46-.82,.97-1.23,1.85-1.23,2.64v5.28c0,.79-.12,1.4-.36,1.82-.24,.42-.36,1.09-.36,2,.12,.49,.21,.97,.27,1.46,.06,.42,.08,.9,.04,1.41-.03,.52-.14,.99-.32,1.41,0,.42-.14,.77-.41,1.05-.27,.27-.56,.53-.86,.77-.36,.24-.79,.49-1.27,.73l-6.1,1h-1.46c-.24,0-.62-.05-1.14-.14-.52-.09-1.06-.21-1.64-.36-.58-.15-1.18-.27-1.82-.36s-1.23-.14-1.77-.14h-2.46c-.3,0-.73-.06-1.27-.18-.55-.12-1.06-.3-1.55-.55-.91-.3-1.82-.52-2.73-.64-.91-.12-1.61-.18-2.09-.18-.18-.24-.47-.44-.87-.59-.39-.15-.82-.32-1.27-.5-.46-.18-.88-.39-1.27-.64-.4-.24-.68-.58-.86-1-.49-.18-1.11-.8-1.87-1.87-.76-1.06-1.5-2.26-2.23-3.59-.73-1.33-1.37-2.68-1.91-4.05s-.82-2.5-.82-3.41v-1.55c0-.49-.17-1.08-.5-1.77-.33-.7-.5-1.29-.5-1.77v-6.01c.36-.97,.7-1.88,1-2.73,.24-.73,.47-1.47,.68-2.23,.21-.76,.32-1.38,.32-1.87l.73-1.55c0-1.33,.51-2.76,1.55-4.28,1.03-1.52,2.26-2.94,3.69-4.28,1.42-1.33,2.91-2.44,4.46-3.32s2.87-1.32,3.96-1.32c.49-.06,.94-.12,1.37-.18,.36-.06,.73-.12,1.09-.18s.67-.09,.91-.09h1c.91,0,1.56-.04,1.96-.14,.39-.09,.77-.21,1.14-.36,.36-.15,.8-.27,1.32-.36,.51-.09,1.32-.14,2.41-.14h6.83Z"/>
        <path class="cls-9" d="M1448.83,528.7c.36,0,.71,.03,1.05,.09,.33,.06,.73,.11,1.18,.14,.46,.03,1,.08,1.64,.14,.64,.06,1.47,.09,2.5,.09l3-.73c.49-.12,.94-.24,1.37-.36,.36-.12,.73-.21,1.09-.27,.36-.06,.64-.09,.82-.09,.42,0,.96,.15,1.59,.46,.64,.3,1.2,.64,1.68,1,.42,.79,.7,1.73,.82,2.82,.12,1.09,.36,2.03,.73,2.82,.18,.18,.39,.53,.64,1.05,.24,.52,.49,1.02,.73,1.5,.24,.67,.55,1.33,.91,2,0,1.15-.76,1.73-2.27,1.73-.36,0-.91-.29-1.64-.86-.73-.58-1.67-1.21-2.82-1.91-1.15-.7-2.52-1.33-4.1-1.91-1.58-.58-3.46-.86-5.64-.86l-1.73,.46c-.36,.55-.71,1-1.05,1.37-.33,.36-.5,.67-.5,.91v.82c-.12,.49-.24,.94-.36,1.37-.12,.36-.21,.73-.27,1.09-.06,.36-.09,.64-.09,.82v6.55c0,.91,.18,1.77,.55,2.59,.36,.82,.94,1.23,1.73,1.23,.18,0,.48-.03,.91-.09,.42-.06,.88-.15,1.37-.27,.55-.12,1.12-.24,1.73-.36h1.82c.49,0,.92-.12,1.32-.36,.39-.24,.77-.5,1.14-.77,.36-.27,.71-.53,1.05-.77,.33-.24,.68-.36,1.05-.36,.18,0,.39,.12,.64,.36,.24,.24,.48,.52,.73,.82l.91,1.09v6.01c0,1.7-.76,2.55-2.27,2.55-.67,0-1.24-.14-1.73-.41-.49-.27-.91-.56-1.27-.86-.67-.24-1.23-.51-1.68-.82-.46-.3-1.02-.46-1.68-.46h-3.28c-1.52,0-2.49,.27-2.91,.82-.42,.55-.64,1.64-.64,3.28v2.27c.18,.85,.3,1.7,.36,2.55,.06,.85,.17,1.64,.32,2.37,.15,.73,.44,1.35,.86,1.87,.42,.52,1.09,.86,2,1.05h5.1c.85,0,1.77-.17,2.78-.5,1-.33,2.02-.77,3.05-1.32,1.03-.36,1.99-.7,2.87-1,.88-.3,1.68-.45,2.41-.45,.24,.18,.48,.39,.73,.64,.18,.18,.36,.36,.55,.55,.18,.18,.27,.36,.27,.55,0,.42-.15,.82-.46,1.18-.3,.36-.67,.73-1.09,1.09-.85,.79-1.46,1.59-1.82,2.41s-.71,1.58-1.05,2.28c-.33,.7-.74,1.27-1.23,1.73s-1.21,.68-2.18,.68c-.36,0-.7-.05-1-.14-.3-.09-.62-.21-.96-.36-.33-.15-.73-.27-1.18-.36s-1.02-.14-1.68-.14l-8.83,.27-3.09,.73h-7.55l-1.82,.55-2.73,.18c-.3,0-.64-.12-1-.36-.36-.24-.7-.53-1-.86-.3-.33-.56-.67-.77-1-.21-.33-.32-.59-.32-.77,0-1.52,1.12-2.27,3.37-2.27,.49-.18,.97-.39,1.46-.64,.91-.42,1.67-.73,2.28-.91,1.27-.24,2.14-.64,2.59-1.18s.68-1.82,.68-3.82c0-.3,.11-.62,.32-.96,.21-.33,.1-.68-.32-1.05,0-.3-.03-.62-.09-.96-.06-.33-.15-.65-.27-.96-.12-.36-.24-.76-.36-1.18v-7.28l.73-6.37v-1.55c0-.36,.05-.61,.14-.73,.09-.12,.14-.36,.14-.73v-10.1c0-.55-.3-.99-.91-1.32-.61-.33-1.06-.5-1.37-.5h-2.55c-1.15,0-1.99-.48-2.5-1.46-.52-.97-.77-2.09-.77-3.37,0-.36,.17-.7,.5-1,.33-.3,.68-.46,1.05-.46h4.82c.36,0,.92-.05,1.68-.14,.76-.09,1.71-.14,2.87-.14h6.28Z"/>
        <path class="cls-9" d="M1457.75,617.7c1.21,0,2.35,.47,3.41,1.41,1.06,.94,2.02,1.81,2.87,2.59,.48,1.46,1.24,2.55,2.28,3.28,.36,.42,.73,.88,1.09,1.37,.36,.49,.61,1.06,.73,1.73,.24,0,.49,.26,.73,.77,.24,.52,.46,1.12,.64,1.82,.18,.7,.33,1.35,.46,1.96,.12,.61,.18,1,.18,1.18,0,.85-.15,1.79-.46,2.82-.3,1.03-.68,2.06-1.14,3.09-.46,1.03-.94,2.02-1.46,2.96-.52,.94-.96,1.71-1.32,2.32-.24,.43-.56,.76-.96,1-.4,.24-.77,.47-1.14,.68-.36,.21-.68,.5-.96,.87-.27,.36-.41,.85-.41,1.46,0,.67,.18,1.55,.55,2.64,.36,1.09,.82,2.18,1.36,3.28,.55,1.09,1.11,2.06,1.68,2.91,.58,.85,1.05,1.37,1.41,1.55,.73,.49,1.38,1.09,1.96,1.82,.58,.73,1.18,1.46,1.82,2.18,.64,.73,1.32,1.38,2.05,1.96,.73,.58,1.58,.96,2.55,1.14,.36,.12,.94,.35,1.73,.68,.79,.33,1.39,.71,1.82,1.14,.36,.36,.56,.62,.59,.77,.03,.15-.02,.47-.14,.96-.18,.67-.62,1.15-1.32,1.46-.7,.3-1.46,.5-2.27,.59-.82,.09-1.56,.12-2.23,.09-.67-.03-1.06-.08-1.18-.14-.42-.36-.99-.55-1.68-.55s-1.26-.06-1.68-.18c-1.64-.97-2.79-1.76-3.46-2.37-.67-.61-1.46-1.18-2.37-1.73-.36-.18-.82-.5-1.37-.96s-1.14-.99-1.77-1.59c-.64-.61-1.27-1.24-1.91-1.91-.64-.67-1.23-1.27-1.77-1.82-.73-.91-1.35-1.79-1.87-2.64-.52-.85-.97-1.65-1.37-2.41-.4-.76-.77-1.46-1.14-2.09-.36-.64-.76-1.14-1.18-1.5-.85-.48-1.47-.94-1.87-1.37-.4-.42-1.02-.64-1.87-.64-.73,0-1.29,.23-1.68,.68s-.7,.99-.91,1.59c-.21,.61-.35,1.24-.41,1.91-.06,.67-.09,1.21-.09,1.64l1,4.28v1.82c0,1.46,.47,2.55,1.41,3.28,.94,.73,1.96,1.33,3.05,1.82,1.09,.49,2.11,.96,3.05,1.41,.94,.46,1.41,1.14,1.41,2.05,0,.42-.21,.79-.64,1.09-.43,.3-.82,.46-1.18,.46h-3.28l-5.1-.73h-11.38c-.18,0-.77-.04-1.77-.14-1-.09-2.06-.24-3.18-.46-1.12-.21-2.14-.52-3.05-.91-.91-.39-1.37-.92-1.37-1.59,0-.18,.09-.36,.27-.55,.18-.18,.39-.36,.64-.55,.24-.24,.55-.46,.91-.64,.18,0,.46,.03,.82,.09s.73,.12,1.09,.18c.42,.06,.88,.12,1.37,.18h1.82c1.21,0,2.23-.35,3.05-1.05,.82-.7,1.23-1.44,1.23-2.23v-24.3l.73-6.55c-.18-.61-.3-1.33-.36-2.18-.06-.85-.17-1.65-.32-2.41-.15-.76-.43-1.44-.82-2.05-.4-.61-.99-1-1.77-1.18h-3.55c-.67,0-1.33-.06-2-.18-.67-.12-1.29-.33-1.87-.64-.58-.3-1.05-.73-1.41-1.27s-.55-1.27-.55-2.18c0-.18,.14-.38,.41-.59,.27-.21,.56-.41,.87-.59,.36-.24,.79-.45,1.27-.64l15.38-.73h9.37c.18,0,.51-.03,1-.09,.49-.06,.97-.15,1.46-.27,.61-.12,1.24-.24,1.91-.36h3.55Zm-8.64,9.28c-.24,.06-.52,.12-.82,.18-.3,.12-.64,.23-1,.32-.36,.09-.76,.29-1.18,.59-.43,0-.83,.2-1.23,.59s-.59,1.02-.59,1.87v6.64c0,.49-.12,.92-.36,1.32-.24,.4-.36,.77-.36,1.14l.36,.18c.12,.12,.21,.23,.27,.32,.06,.09,.09,.29,.09,.59-.18,.61-.12,1.17,.18,1.68,.3,.52,.73,.97,1.27,1.36,.55,.4,1.14,.7,1.77,.91,.64,.21,1.17,.32,1.59,.32,.55-.24,1.09-.48,1.64-.73,.49-.18,.92-.36,1.32-.55,.39-.18,.74-.27,1.05-.27l1.82,.73c.79,0,1.46-.32,2-.96,.55-.64,.99-1.36,1.32-2.18,.33-.82,.59-1.61,.77-2.37,.18-.76,.33-1.26,.46-1.5l-.55-2.55c0-.42-.05-.83-.14-1.23-.09-.39-.38-.83-.86-1.32,0-.36-.05-.91-.14-1.64-.09-.73-.38-1.27-.86-1.64-.18,0-.62-.09-1.32-.27s-1.46-.39-2.27-.64c-.82-.24-1.64-.46-2.46-.64-.82-.18-1.41-.27-1.77-.27Z"/> -->
        </g>
    </g>
</svg>