<?xml version="1.0" encoding="UTF-8"?>
<svg id="Layer_2" data-name="Layer 2" xmlns="http://www.w3.org/2000/svg" xmlns:xlink="http://www.w3.org/1999/xlink" viewBox="0 0 168.37 123.83">
  <defs>
    <style>
      .cls-1 {
        fill: url(#linear-gradient);
      }

      .cls-2 {
        fill: #f291bd;
      }

      .cls-3 {
        fill: #90cdc2;
      }

      .cls-4 {
        fill: #90ccc0;
      }

      .cls-5 {
        fill: #7fb1a7;
      }

      .cls-6 {
        fill: #80b2a8;
      }

      .cls-7 {
        fill: #7eb0a6;
      }

      .cls-8 {
        fill: #7eafa5;
      }

      .cls-9 {
        fill: #95d5c9;
      }

      .cls-10 {
        fill: #98dacd;
      }

      .cls-11 {
        fill: #7dada4;
      }

      .cls-12 {
        fill: #97d8cc;
      }

      .cls-13 {
        fill: #97d7cb;
      }

      .cls-14 {
        fill: #96d6ca;
      }

      .cls-15 {
        fill: #7caca3;
      }

      .cls-16 {
        fill: #7caba2;
      }

      .cls-17 {
        fill: #8ac3b8;
      }

      .cls-18 {
        fill: #91cec3;
      }

      .cls-19 {
        fill: #9ee4d7;
      }

      .cls-20 {
        fill: #9fe5d8;
      }

      .cls-21 {
        fill: #9fe6d9;
      }

      .cls-22 {
        fill: #a0e7da;
      }

      .cls-23 {
        fill: #9de3d5;
      }

      .cls-24 {
        fill: #83b8ae;
      }

      .cls-25 {
        fill: #84b9af;
      }

      .cls-26 {
        fill: #89c1b6;
      }

      .cls-27 {
        fill: #89c2b7;
      }

      .cls-28 {
        fill: #9ce0d3;
      }

      .cls-29 {
        fill: #9de1d4;
      }

      .cls-30 {
        fill: #9bdfd2;
      }

      .cls-31 {
        fill: #9bded1;
      }

      .cls-32 {
        fill: #8ecabe;
      }

      .cls-33 {
        fill: #8ec9bd;
      }

      .cls-34 {
        fill: #8fcbbf;
      }

      .cls-35 {
        fill: #8cc6bb;
      }

      .cls-36 {
        fill: #8cc5ba;
      }

      .cls-37 {
        fill: #8dc7bc;
      }

      .cls-38 {
        fill: #8bc4b9;
      }

      .cls-39 {
        fill: #92d0c5;
      }

      .cls-40 {
        fill: #92cfc4;
      }

      .cls-41 {
        fill: #a3ecde;
      }

      .cls-42 {
        fill: #a5efe1;
      }

      .cls-43 {
        fill: #a4eddf;
      }

      .cls-44 {
        fill: #a4eee0;
      }

      .cls-45 {
        fill: #a2eadd;
      }

      .cls-46 {
        fill: #a2e9dc;
      }

      .cls-47 {
        fill: #93d2c6;
      }

      .cls-48 {
        fill: #81b3a9;
      }

      .cls-49 {
        fill: #81b4aa;
      }

      .cls-50 {
        fill: #9addd0;
      }

      .cls-51 {
        fill: #a348c1;
      }

      .cls-52 {
        fill: #94d3c7;
      }

      .cls-53 {
        fill: #a1e8db;
      }

      .cls-54 {
        fill: #94d4c8;
      }

      .cls-55 {
        fill: #86bcb2;
      }

      .cls-56 {
        fill: #99dccf;
      }

      .cls-57 {
        fill: #99dbce;
      }

      .cls-58 {
        fill: #88bfb5;
      }

      .cls-59 {
        fill: #87beb4;
      }

      .cls-60 {
        fill: #87bdb3;
      }

      .cls-61 {
        fill: #85bab0;
      }

      .cls-62 {
        fill: #85bbb1;
      }

      .cls-63 {
        fill: #83b6ad;
      }

      .cls-64 {
        fill: #82b5ab;
      }

      .cls-65 {
        fill: #7baaa1;
      }
    </style>
    <linearGradient id="linear-gradient" x1="106.22" y1="51.87" x2="155.08" y2="51.87" gradientUnits="userSpaceOnUse">
      <stop offset="0" stop-color="#a348c1"/>
      <stop offset="1" stop-color="#fff"/>
    </linearGradient>
  </defs>
  <g id="Layer_12" data-name="Layer 12">
    <path d="M47.61,91.51c-5.44,1.29-10.66,3.58-15.27,6.73-1.08,.74-1.66,2.23-.9,3.42,.69,1.07,2.27,1.68,3.42,.9,4.5-3.07,8.85-4.98,14.08-6.22,1.27-.3,2.15-1.82,1.75-3.08-.43-1.33-1.71-2.07-3.08-1.75h0Z"/>
    <path d="M63.89,99.56c-3.94,5.17-7.89,10.33-11.83,15.5-.8,1.04-.2,2.84,.9,3.42,1.32,.7,2.57,.22,3.42-.9,3.94-5.17,7.89-10.33,11.83-15.5,.8-1.04,.2-2.84-.9-3.42-1.32-.7-2.57-.22-3.42,.9h0Z"/>
    <path d="M123.72,51.92l24.61,.2c3.63,.03,7.32,.27,10.94-.06,3.18-.28,6.33-1.15,8.56-3.57,1.74-1.89-1.08-4.73-2.83-2.83-1.85,2.02-4.62,2.4-7.23,2.49-3.64,.13-7.29-.02-10.93-.05l-23.12-.18c-2.57-.02-2.58,3.98,0,4h0Z"/>
    <path d="M28.87,103.85l1.9,3.5c.29,.54,.91,.99,1.49,1.15,.33,.1,.66,.12,1,.04,.33-.02,.64-.11,.93-.3,.53-.34,1-.86,1.15-1.49s.08-1.32-.25-1.93l-1.9-3.5c-.29-.54-.91-.99-1.49-1.15-.33-.1-.66-.12-1-.04-.33,.02-.64,.11-.93,.3-.53,.34-1,.86-1.15,1.49s-.08,1.32,.25,1.93h0Z"/>
    <path d="M52.53,120.24c.74,.95,1.48,1.91,2.23,2.86,.23,.24,.49,.42,.8,.52,.3,.16,.62,.23,.96,.22,.34,.01,.67-.06,.96-.22,.31-.1,.58-.27,.8-.52,.44-.48,.76-1.1,.73-1.77l-.09-.66c-.12-.42-.33-.79-.64-1.1-.74-.95-1.48-1.91-2.23-2.86-.23-.24-.49-.42-.8-.52-.3-.16-.62-.23-.96-.22-.34-.01-.67,.06-.96,.22-.31,.1-.58,.27-.8,.52-.44,.48-.76,1.1-.73,1.77l.09,.66c.12,.42,.33,.79,.64,1.1h0Z"/>
    <path d="M23.3,48.11C10.69,50.98,1.47,61.65,0,74.41c-.12,1.07,1.01,2,2,2,1.18,0,1.88-.92,2-2,1.26-11.03,9.62-20.01,20.36-22.45,2.51-.57,1.45-4.43-1.06-3.86h0Z"/>
    <g>
      <circle class="cls-65" cx="78.01" cy="53.32" r="53.32"/>
      <circle class="cls-16" cx="77.98" cy="53.28" r="53.26"/>
      <ellipse class="cls-15" cx="77.95" cy="53.24" rx="53.2" ry="53.21"/>
      <ellipse class="cls-11" cx="77.92" cy="53.19" rx="53.14" ry="53.15"/>
      <ellipse class="cls-8" cx="77.89" cy="53.15" rx="53.08" ry="53.09"/>
      <ellipse class="cls-7" cx="77.86" cy="53.11" rx="53.02" ry="53.03"/>
      <ellipse class="cls-5" cx="77.83" cy="53.07" rx="52.96" ry="52.98"/>
      <ellipse class="cls-6" cx="77.79" cy="53.02" rx="52.9" ry="52.92"/>
      <ellipse class="cls-48" cx="77.76" cy="52.98" rx="52.84" ry="52.86"/>
      <ellipse class="cls-49" cx="77.73" cy="52.94" rx="52.78" ry="52.8"/>
      <ellipse class="cls-64" cx="77.7" cy="52.89" rx="52.72" ry="52.74"/>
      <ellipse class="cls-63" cx="77.67" cy="52.85" rx="52.66" ry="52.69"/>
      <ellipse class="cls-24" cx="77.64" cy="52.81" rx="52.6" ry="52.63"/>
      <ellipse class="cls-25" cx="77.61" cy="52.77" rx="52.54" ry="52.57"/>
      <ellipse class="cls-61" cx="77.58" cy="52.72" rx="52.48" ry="52.51"/>
      <ellipse class="cls-62" cx="77.55" cy="52.68" rx="52.42" ry="52.46"/>
      <ellipse class="cls-55" cx="77.52" cy="52.64" rx="52.36" ry="52.4"/>
      <ellipse class="cls-60" cx="77.49" cy="52.59" rx="52.3" ry="52.34"/>
      <ellipse class="cls-59" cx="77.46" cy="52.55" rx="52.24" ry="52.28"/>
      <ellipse class="cls-58" cx="77.43" cy="52.51" rx="52.18" ry="52.22"/>
      <ellipse class="cls-26" cx="77.4" cy="52.47" rx="52.11" ry="52.17"/>
      <ellipse class="cls-27" cx="77.37" cy="52.42" rx="52.05" ry="52.11"/>
      <ellipse class="cls-17" cx="77.34" cy="52.38" rx="51.99" ry="52.05"/>
      <ellipse class="cls-38" cx="77.31" cy="52.34" rx="51.93" ry="51.99"/>
      <ellipse class="cls-36" cx="77.28" cy="52.29" rx="51.87" ry="51.93"/>
      <ellipse class="cls-35" cx="77.25" cy="52.25" rx="51.81" ry="51.88"/>
      <ellipse class="cls-37" cx="77.22" cy="52.21" rx="51.75" ry="51.82"/>
      <ellipse class="cls-33" cx="77.19" cy="52.17" rx="51.69" ry="51.76"/>
      <ellipse class="cls-32" cx="77.16" cy="52.12" rx="51.63" ry="51.7"/>
      <ellipse class="cls-34" cx="77.13" cy="52.08" rx="51.57" ry="51.65"/>
      <ellipse class="cls-4" cx="77.1" cy="52.04" rx="51.51" ry="51.59"/>
      <ellipse class="cls-3" cx="77.07" cy="51.99" rx="51.45" ry="51.53"/>
      <ellipse class="cls-18" cx="77.04" cy="51.95" rx="51.39" ry="51.47"/>
      <ellipse class="cls-40" cx="77.01" cy="51.91" rx="51.33" ry="51.41"/>
      <ellipse class="cls-39" cx="76.98" cy="51.86" rx="51.27" ry="51.36"/>
      <ellipse class="cls-47" cx="76.95" cy="51.82" rx="51.21" ry="51.3"/>
      <ellipse class="cls-52" cx="76.92" cy="51.78" rx="51.15" ry="51.24"/>
      <ellipse class="cls-54" cx="76.89" cy="51.74" rx="51.09" ry="51.18"/>
      <ellipse class="cls-9" cx="76.86" cy="51.69" rx="51.03" ry="51.12"/>
      <ellipse class="cls-14" cx="76.83" cy="51.65" rx="50.97" ry="51.07"/>
      <ellipse class="cls-13" cx="76.8" cy="51.61" rx="50.91" ry="51.01"/>
      <ellipse class="cls-12" cx="76.77" cy="51.56" rx="50.85" ry="50.95"/>
      <ellipse class="cls-10" cx="76.74" cy="51.52" rx="50.78" ry="50.89"/>
      <ellipse class="cls-57" cx="76.71" cy="51.48" rx="50.72" ry="50.84"/>
      <ellipse class="cls-56" cx="76.68" cy="51.44" rx="50.66" ry="50.78"/>
      <ellipse class="cls-50" cx="76.65" cy="51.39" rx="50.6" ry="50.72"/>
      <ellipse class="cls-31" cx="76.62" cy="51.35" rx="50.54" ry="50.66"/>
      <ellipse class="cls-30" cx="76.59" cy="51.31" rx="50.48" ry="50.6"/>
      <ellipse class="cls-28" cx="76.56" cy="51.26" rx="50.42" ry="50.55"/>
      <ellipse class="cls-29" cx="76.53" cy="51.22" rx="50.36" ry="50.49"/>
      <ellipse class="cls-23" cx="76.5" cy="51.18" rx="50.3" ry="50.43"/>
      <ellipse class="cls-19" cx="76.47" cy="51.14" rx="50.24" ry="50.37"/>
      <ellipse class="cls-20" cx="76.44" cy="51.09" rx="50.18" ry="50.31"/>
      <ellipse class="cls-21" cx="76.41" cy="51.05" rx="50.12" ry="50.26"/>
      <ellipse class="cls-22" cx="76.37" cy="51.01" rx="50.06" ry="50.2"/>
      <ellipse class="cls-53" cx="76.34" cy="50.96" rx="50" ry="50.14"/>
      <ellipse class="cls-46" cx="76.31" cy="50.92" rx="49.94" ry="50.08"/>
      <ellipse class="cls-45" cx="76.28" cy="50.88" rx="49.88" ry="50.03"/>
      <ellipse class="cls-41" cx="76.25" cy="50.84" rx="49.82" ry="49.97"/>
      <ellipse class="cls-43" cx="76.22" cy="50.79" rx="49.76" ry="49.91"/>
      <ellipse class="cls-44" cx="76.19" cy="50.75" rx="49.7" ry="49.85"/>
      <ellipse class="cls-42" cx="76.16" cy="50.71" rx="49.64" ry="49.79"/>
    </g>
    <path d="M65.3,45.31c-1.78-3.98-5.14-8.07-9.97-7.59-4.56,.45-8,4.24-10.19,7.97-.82,1.39,1.34,2.65,2.16,1.26,1.72-2.92,4.42-6.27,8.03-6.73,3.93-.51,6.42,3.23,7.81,6.35,.66,1.47,2.81,.2,2.16-1.26h0Z"/>
    <path class="cls-51" d="M86.29,68.58h13.93c1.31,0,2.56-1.15,2.5-2.5s-1.1-2.5-2.5-2.5h-13.93c-1.31,0-2.56,1.15-2.5,2.5s1.1,2.5,2.5,2.5h0Z"/>
    <path d="M81.85,57.74c3,1.5,6,3,9,4.5v-1.3c-3,1.5-6,3-9,4.5-.49,.24-.49,1.05,0,1.3,3,1.5,6,3,9,4.5v-1.3c-3,1.5-6,3-9,4.5-.86,.43-.1,1.73,.76,1.3,3-1.5,6-3,9-4.5,.49-.24,.49-1.05,0-1.3-3-1.5-6-3-9-4.5v1.3c3-1.5,6-3,9-4.5,.49-.24,.49-1.05,0-1.3-3-1.5-6-3-9-4.5-.86-.43-1.62,.86-.76,1.3h0Z"/>
    <path d="M92.45,46.81c1.4-3.12,3.88-6.85,7.81-6.35,3.61,.46,6.31,3.81,8.03,6.73,.81,1.39,2.98,.13,2.16-1.26-2.19-3.73-5.63-7.52-10.19-7.97-4.83-.48-8.19,3.6-9.97,7.59-.65,1.46,1.5,2.73,2.16,1.26h0Z"/>
    <path class="cls-51" d="M100.28,63.61v4.4c0,.64,.28,1.31,.73,1.77s1.15,.76,1.77,.73,1.32-.24,1.77-.73,.73-1.09,.73-1.77v-4.4c0-.64-.28-1.31-.73-1.77s-1.15-.76-1.77-.73-1.32,.24-1.77,.73-.73,1.09-.73,1.77h0Z"/>
    <path class="cls-1" d="M138.83,48.53c.87,.08,1.81,.42,2.38,1.09,.44,.51,.5,.85,.1,1.46-.98,1.48-2.95,1.94-4.4,1.27-1.85-.86-3.28-2.99-3.41-5.01-.12-1.86,1.1-3.55,2.57-4.7,3.48-2.72,7.7-2.55,11.24,0s5.48,6.95,4.5,11.05-4.29,7.53-8.34,8.86c-.58,.19-1.18,.35-1.78,.47-.24,.05-.91,.1-.28,.08-.14,0-.28,0-.42,0-.71-.01-1.42,0-2.12,0h-32.65c-3.22,0-3.22,5,0,5h34.57c4.19,0,8.53-2.34,11.41-5.26,3.98-4.05,5.94-10.07,4.25-15.6s-6.81-10.53-12.74-11.44-12.4,2.39-14.61,8.03c-2.58,6.59,3.76,15.26,10.99,13.65,3.29-.73,6.53-3.65,6.48-7.21-.06-4.11-4.12-6.41-7.75-6.73-1.35-.12-2.5,1.23-2.5,2.5,0,1.45,1.15,2.38,2.5,2.5h0Z"/>
    <path class="cls-2" d="M31.94,60.2l5.29,5.29c.45,.45,1.13,.73,1.77,.73s1.35-.27,1.77-.73,.76-1.1,.73-1.77-.25-1.29-.73-1.77l-5.29-5.29c-.45-.45-1.13-.73-1.77-.73s-1.35,.27-1.77,.73-.76,1.1-.73,1.77,.25,1.29,.73,1.77h0Z"/>
    <path class="cls-2" d="M44.07,58.65c1.61,1.98,3.23,3.95,4.84,5.93,.38,.47,1.19,.73,1.77,.73,.61,0,1.35-.27,1.77-.73s.76-1.1,.73-1.77l-.09-.66c-.12-.42-.33-.79-.64-1.1-1.61-1.98-3.23-3.95-4.84-5.93-.38-.47-1.19-.73-1.77-.73-.61,0-1.35,.27-1.77,.73s-.76,1.1-.73,1.77l.09,.66c.12,.42,.33,.79,.64,1.1h0Z"/>
    <path class="cls-2" d="M110.07,57.44c.55,.29,1.07,.63,1.56,1.01l-.51-.39c.73,.57,1.38,1.22,1.94,1.95l-.39-.51c.14,.19,.28,.38,.41,.57,.37,.54,.85,.97,1.49,1.15,.6,.16,1.4,.09,1.93-.25s1-.86,1.15-1.49,.12-1.37-.25-1.93c-1.23-1.83-2.86-3.39-4.82-4.42-.59-.31-1.27-.43-1.93-.25-.58,.16-1.21,.61-1.49,1.15-.31,.58-.46,1.28-.25,1.93,.2,.61,.57,1.19,1.15,1.49h0Z"/>
    <path class="cls-2" d="M119.56,54.39c.91,1.44,1.83,2.87,2.74,4.31,.35,.54,.86,.98,1.49,1.15s1.4,.09,1.93-.25,1-.86,1.15-1.49,.11-1.35-.25-1.93c-.91-1.44-1.83-2.87-2.74-4.31-.35-.54-.86-.98-1.49-1.15s-1.4-.09-1.93,.25-1,.86-1.15,1.49-.11,1.35,.25,1.93h0Z"/>
  </g>
</svg>