<?xml version="1.0" encoding="UTF-8"?>
<svg id="Layer_2" data-name="Layer 2" xmlns="http://www.w3.org/2000/svg" viewBox="0 0 168.37 123.83">
  <defs>
    <style>
      .cls-1 {
        fill: #00cae7;
      }

      .cls-2 {
        fill: #90cdc2;
      }

      .cls-3 {
        fill: #90ccc0;
      }

      .cls-4 {
        fill: #7fb1a7;
      }

      .cls-5 {
        fill: #80b2a8;
      }

      .cls-6 {
        fill: #7eb0a6;
      }

      .cls-7 {
        fill: #7eafa5;
      }

      .cls-8 {
        fill: #95d5c9;
      }

      .cls-9 {
        fill: #98dacd;
      }

      .cls-10 {
        fill: #7dada4;
      }

      .cls-11 {
        fill: #97d8cc;
      }

      .cls-12 {
        fill: #97d7cb;
      }

      .cls-13 {
        fill: #96d6ca;
      }

      .cls-14 {
        fill: #7caca3;
      }

      .cls-15 {
        fill: #7caba2;
      }

      .cls-16 {
        fill: #8ac3b8;
      }

      .cls-17 {
        fill: #91cec3;
      }

      .cls-18 {
        fill: #9ee4d7;
      }

      .cls-19 {
        fill: #9fe5d8;
      }

      .cls-20 {
        fill: #9fe6d9;
      }

      .cls-21 {
        fill: #a0e7da;
      }

      .cls-22 {
        fill: #9de3d5;
      }

      .cls-23 {
        fill: #83b8ae;
      }

      .cls-24 {
        fill: #84b9af;
      }

      .cls-25 {
        fill: #89c1b6;
      }

      .cls-26 {
        fill: #89c2b7;
      }

      .cls-27 {
        fill: #9ce0d3;
      }

      .cls-28 {
        fill: #9de1d4;
      }

      .cls-29 {
        fill: #9bdfd2;
      }

      .cls-30 {
        fill: #9bded1;
      }

      .cls-31 {
        fill: #8ecabe;
      }

      .cls-32 {
        fill: #8ec9bd;
      }

      .cls-33 {
        fill: #8fcbbf;
      }

      .cls-34 {
        fill: #8cc6bb;
      }

      .cls-35 {
        fill: #8cc5ba;
      }

      .cls-36 {
        fill: #8dc7bc;
      }

      .cls-37 {
        fill: #8bc4b9;
      }

      .cls-38 {
        fill: #92d0c5;
      }

      .cls-39 {
        fill: #92cfc4;
      }

      .cls-40 {
        fill: #a3ecde;
      }

      .cls-41 {
        fill: #a5efe1;
      }

      .cls-42 {
        fill: #a4eddf;
      }

      .cls-43 {
        fill: #a4eee0;
      }

      .cls-44 {
        fill: #a2eadd;
      }

      .cls-45 {
        fill: #a2e9dc;
      }

      .cls-46 {
        fill: #93d2c6;
      }

      .cls-47 {
        fill: #81b3a9;
      }

      .cls-48 {
        fill: #81b4aa;
      }

      .cls-49 {
        fill: #9addd0;
      }

      .cls-50 {
        fill: #94d3c7;
      }

      .cls-51 {
        fill: #a1e8db;
      }

      .cls-52 {
        fill: #94d4c8;
      }

      .cls-53 {
        fill: #86bcb2;
      }

      .cls-54 {
        fill: #99dccf;
      }

      .cls-55 {
        fill: #99dbce;
      }

      .cls-56 {
        fill: #88bfb5;
      }

      .cls-57 {
        fill: #87beb4;
      }

      .cls-58 {
        fill: #87bdb3;
      }

      .cls-59 {
        fill: #85bab0;
      }

      .cls-60 {
        fill: #85bbb1;
      }

      .cls-61 {
        fill: #83b6ad;
      }

      .cls-62 {
        fill: #82b5ab;
      }

      .cls-63 {
        fill: #7baaa1;
      }
    </style>
  </defs>
  <g id="Layer_12" data-name="Layer 12">
    <path d="M47.61,91.51c-5.44,1.29-10.66,3.58-15.27,6.73-1.08,.74-1.66,2.23-.9,3.42,.69,1.07,2.27,1.68,3.42,.9,4.5-3.07,8.85-4.98,14.08-6.22,1.27-.3,2.15-1.82,1.75-3.08-.43-1.33-1.71-2.07-3.08-1.75h0Z"/>
    <path d="M63.89,99.56c-3.94,5.17-7.89,10.33-11.83,15.5-.8,1.04-.2,2.84,.9,3.42,1.32,.7,2.57,.22,3.42-.9,3.94-5.17,7.89-10.33,11.83-15.5,.8-1.04,.2-2.84-.9-3.42-1.32-.7-2.57-.22-3.42,.9h0Z"/>
    <path d="M123.72,51.92c8.2,.07,16.41,.13,24.61,.2,3.63,.03,7.32,.27,10.94-.06,3.18-.28,6.33-1.15,8.56-3.57,1.74-1.89-1.08-4.73-2.83-2.83-1.85,2.02-4.62,2.4-7.23,2.49-3.64,.13-7.29-.02-10.93-.05-7.71-.06-15.41-.12-23.12-.18-2.57-.02-2.58,3.98,0,4h0Z"/>
    <path d="M28.87,103.85c.63,1.17,1.27,2.34,1.9,3.5,.29,.54,.91,.99,1.49,1.15,.33,.1,.66,.12,1,.04,.33-.02,.64-.11,.93-.3,.53-.34,1-.86,1.15-1.49s.08-1.32-.25-1.93c-.63-1.17-1.27-2.34-1.9-3.5-.29-.54-.91-.99-1.49-1.15-.33-.1-.66-.12-1-.04-.33,.02-.64,.11-.93,.3-.53,.34-1,.86-1.15,1.49s-.08,1.32,.25,1.93h0Z"/>
    <path d="M52.53,120.24c.74,.95,1.48,1.91,2.23,2.86,.23,.24,.49,.42,.8,.52,.3,.16,.62,.23,.96,.22,.34,.01,.67-.06,.96-.22,.31-.1,.58-.27,.8-.52,.44-.48,.76-1.1,.73-1.77l-.09-.66c-.12-.42-.33-.79-.64-1.1-.74-.95-1.48-1.91-2.23-2.86-.23-.24-.49-.42-.8-.52-.3-.16-.62-.23-.96-.22-.34-.01-.67,.06-.96,.22-.31,.1-.58,.27-.8,.52-.44,.48-.76,1.1-.73,1.77l.09,.66c.12,.42,.33,.79,.64,1.1h0Z"/>
    <path d="M23.3,48.11C10.69,50.98,1.47,61.65,0,74.41c-.12,1.07,1.01,2,2,2,1.18,0,1.88-.92,2-2,1.26-11.03,9.62-20.01,20.36-22.45,2.51-.57,1.45-4.43-1.06-3.86h0Z"/>
    <g>
      <circle class="cls-63" cx="78.01" cy="53.32" r="53.32"/>
      <circle class="cls-15" cx="77.98" cy="53.28" r="53.26"/>
      <ellipse class="cls-14" cx="77.95" cy="53.24" rx="53.2" ry="53.21"/>
      <ellipse class="cls-10" cx="77.92" cy="53.19" rx="53.14" ry="53.15"/>
      <ellipse class="cls-7" cx="77.89" cy="53.15" rx="53.08" ry="53.09"/>
      <ellipse class="cls-6" cx="77.86" cy="53.11" rx="53.02" ry="53.03"/>
      <ellipse class="cls-4" cx="77.83" cy="53.07" rx="52.96" ry="52.98"/>
      <ellipse class="cls-5" cx="77.79" cy="53.02" rx="52.9" ry="52.92"/>
      <ellipse class="cls-47" cx="77.76" cy="52.98" rx="52.84" ry="52.86"/>
      <ellipse class="cls-48" cx="77.73" cy="52.94" rx="52.78" ry="52.8"/>
      <ellipse class="cls-62" cx="77.7" cy="52.89" rx="52.72" ry="52.74"/>
      <ellipse class="cls-61" cx="77.67" cy="52.85" rx="52.66" ry="52.69"/>
      <ellipse class="cls-23" cx="77.64" cy="52.81" rx="52.6" ry="52.63"/>
      <ellipse class="cls-24" cx="77.61" cy="52.77" rx="52.54" ry="52.57"/>
      <ellipse class="cls-59" cx="77.58" cy="52.72" rx="52.48" ry="52.51"/>
      <ellipse class="cls-60" cx="77.55" cy="52.68" rx="52.42" ry="52.46"/>
      <ellipse class="cls-53" cx="77.52" cy="52.64" rx="52.36" ry="52.4"/>
      <ellipse class="cls-58" cx="77.49" cy="52.59" rx="52.3" ry="52.34"/>
      <ellipse class="cls-57" cx="77.46" cy="52.55" rx="52.24" ry="52.28"/>
      <ellipse class="cls-56" cx="77.43" cy="52.51" rx="52.18" ry="52.22"/>
      <ellipse class="cls-25" cx="77.4" cy="52.47" rx="52.11" ry="52.17"/>
      <ellipse class="cls-26" cx="77.37" cy="52.42" rx="52.05" ry="52.11"/>
      <ellipse class="cls-16" cx="77.34" cy="52.38" rx="51.99" ry="52.05"/>
      <ellipse class="cls-37" cx="77.31" cy="52.34" rx="51.93" ry="51.99"/>
      <ellipse class="cls-35" cx="77.28" cy="52.29" rx="51.87" ry="51.93"/>
      <ellipse class="cls-34" cx="77.25" cy="52.25" rx="51.81" ry="51.88"/>
      <ellipse class="cls-36" cx="77.22" cy="52.21" rx="51.75" ry="51.82"/>
      <ellipse class="cls-32" cx="77.19" cy="52.17" rx="51.69" ry="51.76"/>
      <ellipse class="cls-31" cx="77.16" cy="52.12" rx="51.63" ry="51.7"/>
      <ellipse class="cls-33" cx="77.13" cy="52.08" rx="51.57" ry="51.65"/>
      <ellipse class="cls-3" cx="77.1" cy="52.04" rx="51.51" ry="51.59"/>
      <ellipse class="cls-2" cx="77.07" cy="51.99" rx="51.45" ry="51.53"/>
      <ellipse class="cls-17" cx="77.04" cy="51.95" rx="51.39" ry="51.47"/>
      <ellipse class="cls-39" cx="77.01" cy="51.91" rx="51.33" ry="51.41"/>
      <ellipse class="cls-38" cx="76.98" cy="51.86" rx="51.27" ry="51.36"/>
      <ellipse class="cls-46" cx="76.95" cy="51.82" rx="51.21" ry="51.3"/>
      <ellipse class="cls-50" cx="76.92" cy="51.78" rx="51.15" ry="51.24"/>
      <ellipse class="cls-52" cx="76.89" cy="51.74" rx="51.09" ry="51.18"/>
      <ellipse class="cls-8" cx="76.86" cy="51.69" rx="51.03" ry="51.12"/>
      <ellipse class="cls-13" cx="76.83" cy="51.65" rx="50.97" ry="51.07"/>
      <ellipse class="cls-12" cx="76.8" cy="51.61" rx="50.91" ry="51.01"/>
      <ellipse class="cls-11" cx="76.77" cy="51.56" rx="50.85" ry="50.95"/>
      <ellipse class="cls-9" cx="76.74" cy="51.52" rx="50.78" ry="50.89"/>
      <ellipse class="cls-55" cx="76.71" cy="51.48" rx="50.72" ry="50.84"/>
      <ellipse class="cls-54" cx="76.68" cy="51.44" rx="50.66" ry="50.78"/>
      <ellipse class="cls-49" cx="76.65" cy="51.39" rx="50.6" ry="50.72"/>
      <ellipse class="cls-30" cx="76.62" cy="51.35" rx="50.54" ry="50.66"/>
      <ellipse class="cls-29" cx="76.59" cy="51.31" rx="50.48" ry="50.6"/>
      <ellipse class="cls-27" cx="76.56" cy="51.26" rx="50.42" ry="50.55"/>
      <ellipse class="cls-28" cx="76.53" cy="51.22" rx="50.36" ry="50.49"/>
      <ellipse class="cls-22" cx="76.5" cy="51.18" rx="50.3" ry="50.43"/>
      <ellipse class="cls-18" cx="76.47" cy="51.14" rx="50.24" ry="50.37"/>
      <ellipse class="cls-19" cx="76.44" cy="51.09" rx="50.18" ry="50.31"/>
      <ellipse class="cls-20" cx="76.41" cy="51.05" rx="50.12" ry="50.26"/>
      <ellipse class="cls-21" cx="76.37" cy="51.01" rx="50.06" ry="50.2"/>
      <ellipse class="cls-51" cx="76.34" cy="50.96" rx="50" ry="50.14"/>
      <ellipse class="cls-45" cx="76.31" cy="50.92" rx="49.94" ry="50.08"/>
      <ellipse class="cls-44" cx="76.28" cy="50.88" rx="49.88" ry="50.03"/>
      <ellipse class="cls-40" cx="76.25" cy="50.84" rx="49.82" ry="49.97"/>
      <ellipse class="cls-42" cx="76.22" cy="50.79" rx="49.76" ry="49.91"/>
      <ellipse class="cls-43" cx="76.19" cy="50.75" rx="49.7" ry="49.85"/>
      <ellipse class="cls-41" cx="76.16" cy="50.71" rx="49.64" ry="49.79"/>
    </g>
    <path d="M45.92,37.21c.82,4.37,5.39,7.45,9.74,7.08,4.67-.39,8.4-4.01,9.83-8.33,.46-1.38-1.72-1.97-2.17-.6-1.1,3.33-4.04,6.35-7.66,6.68-3.42,.32-6.92-1.99-7.57-5.43-.27-1.42-2.44-.82-2.17,.6h0Z"/>
    <path d="M85.27,34.6c1.86,3.26,5.58,5.42,9.36,5.19s7.14-2.55,8.67-5.93c.59-1.31-1.35-2.45-1.94-1.14-1.2,2.64-3.78,4.64-6.73,4.81s-5.93-1.46-7.42-4.08c-.72-1.26-2.66-.13-1.94,1.14h0Z"/>
    <path d="M62.72,65.95c3.74-4.33,9.3-6.86,15.04-6.65s10.98,3.12,14.29,7.6c.85,1.15,2.81,.03,1.94-1.14-3.74-5.05-9.55-8.34-15.85-8.7s-12.83,2.45-17.01,7.29c-.94,1.09,.64,2.69,1.59,1.59h0Z"/>
    <path class="cls-1" d="M45.39,43.91c-.89,1.53-1.79,3.07-2.68,4.6-.3,.51-.13,1.26,.4,1.54s1.22,.14,1.54-.4c.89-1.53,1.79-3.07,2.68-4.6,.3-.51,.13-1.26-.4-1.54s-1.22-.14-1.54,.4h0Z"/>
    <path class="cls-1" d="M40.76,52.53v5.03c0,.59,.52,1.15,1.12,1.12s1.12-.49,1.12-1.12v-5.03c0-.59-.52-1.15-1.12-1.12s-1.12,.49-1.12,1.12h0Z"/>
    <path class="cls-1" d="M40.67,61.94c0,1.55,0,3.11,0,4.66,0,.59,.52,1.15,1.12,1.12s1.13-.49,1.12-1.12c0-1.55,0-3.11,0-4.66,0-.59-.52-1.15-1.12-1.12s-1.13,.49-1.12,1.12h0Z"/>
    <path class="cls-1" d="M105.85,36.45c.89,1.53,1.79,3.07,2.68,4.6,.3,.51,1.03,.73,1.54,.4s.72-.99,.4-1.54c-.89-1.53-1.79-3.07-2.68-4.6-.3-.51-1.03-.73-1.54-.4s-.72,.99-.4,1.54h0Z"/>
    <path class="cls-1" d="M110.16,43.94c0,1.68,0,3.35,0,5.03,0,.59,.52,1.15,1.12,1.12s1.12-.49,1.12-1.12c0-1.68,0-3.35,0-5.03,0-.59-.52-1.15-1.12-1.12s-1.12,.49-1.12,1.12h0Z"/>
    <path class="cls-1" d="M110.25,53.35c0,1.55,0,3.11,0,4.66,0,.59,.52,1.15,1.12,1.12s1.12-.49,1.12-1.12c0-1.55,0-3.11,0-4.66,0-.59-.52-1.15-1.12-1.12s-1.12,.49-1.12,1.12h0Z"/>
  </g>
</svg>