<?xml version="1.0" encoding="UTF-8"?>
<svg id="Layer_2" data-name="Layer 2" xmlns="http://www.w3.org/2000/svg" viewBox="0 0 291.58 114.23">
  <defs>
    <style>
      .cls-1 {
        fill: #fff;
      }

      .cls-2 {
        fill: #90cdc2;
      }

      .cls-3 {
        fill: #90ccc0;
      }

      .cls-4 {
        fill: #7fb1a7;
      }

      .cls-5 {
        fill: #80b2a8;
      }

      .cls-6 {
        fill: #7eb0a6;
      }

      .cls-7 {
        fill: #7eafa5;
      }

      .cls-8 {
        fill: #95d5c9;
      }

      .cls-9 {
        fill: #98dacd;
      }

      .cls-10 {
        fill: #7dada4;
      }

      .cls-11 {
        fill: #97d8cc;
      }

      .cls-12 {
        fill: #97d7cb;
      }

      .cls-13 {
        fill: #96d6ca;
      }

      .cls-14 {
        fill: #7caca3;
      }

      .cls-15 {
        fill: #7caba2;
      }

      .cls-16 {
        fill: #8ac3b8;
      }

      .cls-17 {
        fill: #91cec3;
      }

      .cls-18 {
        fill: #9ee4d7;
      }

      .cls-19 {
        fill: #9fe5d8;
      }

      .cls-20 {
        fill: #9fe6d9;
      }

      .cls-21 {
        fill: #a0e7da;
      }

      .cls-22 {
        fill: #9de3d5;
      }

      .cls-23 {
        fill: #83b8ae;
      }

      .cls-24 {
        fill: #84b9af;
      }

      .cls-25 {
        fill: #89c1b6;
      }

      .cls-26 {
        fill: #89c2b7;
      }

      .cls-27 {
        fill: #9ce0d3;
      }

      .cls-28 {
        fill: #9de1d4;
      }

      .cls-29 {
        fill: #9bdfd2;
      }

      .cls-30 {
        fill: #9bded1;
      }

      .cls-31 {
        fill: #8ecabe;
      }

      .cls-32 {
        fill: #8ec9bd;
      }

      .cls-33 {
        fill: #8fcbbf;
      }

      .cls-34 {
        fill: #8cc6bb;
      }

      .cls-35 {
        fill: #8cc5ba;
      }

      .cls-36 {
        fill: #8dc7bc;
      }

      .cls-37 {
        fill: #8bc4b9;
      }

      .cls-38 {
        fill: #92d0c5;
      }

      .cls-39 {
        fill: #92cfc4;
      }

      .cls-40 {
        fill: #a3ecde;
      }

      .cls-41 {
        fill: #a5efe1;
      }

      .cls-42 {
        fill: #a4eddf;
      }

      .cls-43 {
        fill: #a4eee0;
      }

      .cls-44 {
        fill: #a2eadd;
      }

      .cls-45 {
        fill: #a2e9dc;
      }

      .cls-46 {
        fill: #93d2c6;
      }

      .cls-47 {
        fill: #81b3a9;
      }

      .cls-48 {
        fill: #81b4aa;
      }

      .cls-49 {
        fill: #9addd0;
      }

      .cls-50 {
        fill: #94d3c7;
      }

      .cls-51 {
        fill: #a1e8db;
      }

      .cls-52 {
        fill: #94d4c8;
      }

      .cls-53 {
        fill: #86bcb2;
      }

      .cls-54 {
        fill: #99dccf;
      }

      .cls-55 {
        fill: #99dbce;
      }

      .cls-56 {
        fill: #88bfb5;
      }

      .cls-57 {
        fill: #87beb4;
      }

      .cls-58 {
        fill: #87bdb3;
      }

      .cls-59 {
        fill: #85bab0;
      }

      .cls-60 {
        fill: #85bbb1;
      }

      .cls-61 {
        fill: #83b6ad;
      }

      .cls-62 {
        fill: #82b5ab;
      }

      .cls-63 {
        fill: #7baaa1;
      }

      .cls-64 {
        fill: #534741;
        stroke: #998675;
        stroke-miterlimit: 10;
      }
    </style>
  </defs>
  <g id="Layer_12" data-name="Layer 12">
    <path d="M135.84,54.28c10.88-2.13,21.99,2.99,27.58,12.5,1.3,2.22,4.76,.21,3.45-2.02-6.54-11.13-19.46-16.82-32.1-14.34-2.52,.49-1.46,4.35,1.06,3.86h0Z"/>
    <path d="M.29,46.6c2.82,4.84,8.63,4.96,13.59,5,5.91,.04,11.83,.08,17.74,.13,2.57,.02,2.58-3.98,0-4-5.25-.04-10.5-.08-15.74-.11-3.77-.03-9.87,.86-12.14-3.03-1.3-2.22-4.75-.21-3.45,2.02H.29Z"/>
    <g>
      <path d="M39.83,79.13c-7.58,3.15-14.36,7.93-19.69,14.2-.87,1.03-1.01,2.53,0,3.54,.9,.9,2.66,1.03,3.54,0,4.75-5.58,10.78-10.12,17.49-12.91,1.25-.52,2.14-1.66,1.75-3.08-.32-1.18-1.82-2.27-3.08-1.75h0Z"/>
      <path d="M18.04,97.68c.44,.63,.87,1.26,1.31,1.88,.16,.29,.37,.53,.64,.7,.24,.22,.52,.37,.85,.45,.33,.1,.66,.12,1,.04,.33-.02,.64-.11,.93-.3l.51-.39c.31-.31,.52-.68,.64-1.1l.09-.66c0-.45-.12-.87-.34-1.26-.44-.63-.87-1.26-1.31-1.88-.16-.29-.37-.53-.64-.7-.24-.22-.52-.37-.85-.45-.33-.1-.66-.12-1-.04-.33,.02-.64,.11-.93,.3l-.51,.39c-.31,.31-.52,.68-.64,1.1l-.09,.66c0,.45,.12,.87,.34,1.26h0Z"/>
    </g>
    <path d="M47.11,92.75c-3.82,3.34-7.65,6.67-11.47,10.01-1.71,1.49-3.73,3.01-4.32,5.32-.66,2.57,.59,5.08,3.05,6.03,1.26,.49,2.74-.54,3.08-1.75,.39-1.41-.48-2.59-1.75-3.08,.21,.08,.33,.16,.48,.33,.22,.23-.09-.26,0,.04,.1,.33-.05-.23-.07-.3,.07,.27,.13,.21,.04,.03,.02-.25,.02-.29,0-.09-.02,.16-.01,.16,.02,.02,.04-.12,.04-.13,0-.05-.06,.13-.03,.07,.1-.18,.14-.26,.16-.29,.52-.66,1.36-1.41,2.94-2.63,4.41-3.91,3.14-2.74,6.29-5.48,9.43-8.23,1.02-.89,.91-2.63,0-3.54-1.01-1.01-2.52-.89-3.54,0h0Z"/>
    <g>
      <circle class="cls-63" cx="84.84" cy="53.32" r="53.32"/>
      <circle class="cls-15" cx="84.81" cy="53.28" r="53.26"/>
      <ellipse class="cls-14" cx="84.78" cy="53.24" rx="53.2" ry="53.21"/>
      <ellipse class="cls-10" cx="84.75" cy="53.19" rx="53.14" ry="53.15"/>
      <ellipse class="cls-7" cx="84.72" cy="53.15" rx="53.08" ry="53.09"/>
      <ellipse class="cls-6" cx="84.69" cy="53.11" rx="53.02" ry="53.03"/>
      <ellipse class="cls-4" cx="84.66" cy="53.07" rx="52.96" ry="52.98"/>
      <ellipse class="cls-5" cx="84.63" cy="53.02" rx="52.9" ry="52.92"/>
      <ellipse class="cls-47" cx="84.6" cy="52.98" rx="52.84" ry="52.86"/>
      <ellipse class="cls-48" cx="84.57" cy="52.94" rx="52.78" ry="52.8"/>
      <ellipse class="cls-62" cx="84.54" cy="52.89" rx="52.72" ry="52.74"/>
      <ellipse class="cls-61" cx="84.51" cy="52.85" rx="52.66" ry="52.69"/>
      <ellipse class="cls-23" cx="84.48" cy="52.81" rx="52.6" ry="52.63"/>
      <ellipse class="cls-24" cx="84.45" cy="52.77" rx="52.54" ry="52.57"/>
      <ellipse class="cls-59" cx="84.42" cy="52.72" rx="52.48" ry="52.51"/>
      <ellipse class="cls-60" cx="84.39" cy="52.68" rx="52.42" ry="52.46"/>
      <ellipse class="cls-53" cx="84.36" cy="52.64" rx="52.36" ry="52.4"/>
      <ellipse class="cls-58" cx="84.33" cy="52.59" rx="52.3" ry="52.34"/>
      <ellipse class="cls-57" cx="84.3" cy="52.55" rx="52.24" ry="52.28"/>
      <ellipse class="cls-56" cx="84.27" cy="52.51" rx="52.18" ry="52.22"/>
      <ellipse class="cls-25" cx="84.24" cy="52.47" rx="52.11" ry="52.17"/>
      <ellipse class="cls-26" cx="84.21" cy="52.42" rx="52.05" ry="52.11"/>
      <ellipse class="cls-16" cx="84.18" cy="52.38" rx="51.99" ry="52.05"/>
      <ellipse class="cls-37" cx="84.15" cy="52.34" rx="51.93" ry="51.99"/>
      <ellipse class="cls-35" cx="84.12" cy="52.29" rx="51.87" ry="51.93"/>
      <ellipse class="cls-34" cx="84.09" cy="52.25" rx="51.81" ry="51.88"/>
      <ellipse class="cls-36" cx="84.06" cy="52.21" rx="51.75" ry="51.82"/>
      <ellipse class="cls-32" cx="84.03" cy="52.17" rx="51.69" ry="51.76"/>
      <ellipse class="cls-31" cx="84" cy="52.12" rx="51.63" ry="51.7"/>
      <ellipse class="cls-33" cx="83.96" cy="52.08" rx="51.57" ry="51.65"/>
      <ellipse class="cls-3" cx="83.93" cy="52.04" rx="51.51" ry="51.59"/>
      <ellipse class="cls-2" cx="83.9" cy="51.99" rx="51.45" ry="51.53"/>
      <ellipse class="cls-17" cx="83.87" cy="51.95" rx="51.39" ry="51.47"/>
      <ellipse class="cls-39" cx="83.84" cy="51.91" rx="51.33" ry="51.41"/>
      <ellipse class="cls-38" cx="83.81" cy="51.86" rx="51.27" ry="51.36"/>
      <ellipse class="cls-46" cx="83.78" cy="51.82" rx="51.21" ry="51.3"/>
      <ellipse class="cls-50" cx="83.75" cy="51.78" rx="51.15" ry="51.24"/>
      <ellipse class="cls-52" cx="83.72" cy="51.74" rx="51.09" ry="51.18"/>
      <ellipse class="cls-8" cx="83.69" cy="51.69" rx="51.03" ry="51.12"/>
      <ellipse class="cls-13" cx="83.66" cy="51.65" rx="50.97" ry="51.07"/>
      <ellipse class="cls-12" cx="83.63" cy="51.61" rx="50.91" ry="51.01"/>
      <ellipse class="cls-11" cx="83.6" cy="51.56" rx="50.85" ry="50.95"/>
      <ellipse class="cls-9" cx="83.57" cy="51.52" rx="50.78" ry="50.89"/>
      <ellipse class="cls-55" cx="83.54" cy="51.48" rx="50.72" ry="50.84"/>
      <ellipse class="cls-54" cx="83.51" cy="51.44" rx="50.66" ry="50.78"/>
      <ellipse class="cls-49" cx="83.48" cy="51.39" rx="50.6" ry="50.72"/>
      <ellipse class="cls-30" cx="83.45" cy="51.35" rx="50.54" ry="50.66"/>
      <ellipse class="cls-29" cx="83.42" cy="51.31" rx="50.48" ry="50.6"/>
      <ellipse class="cls-27" cx="83.39" cy="51.26" rx="50.42" ry="50.55"/>
      <ellipse class="cls-28" cx="83.36" cy="51.22" rx="50.36" ry="50.49"/>
      <ellipse class="cls-22" cx="83.33" cy="51.18" rx="50.3" ry="50.43"/>
      <ellipse class="cls-18" cx="83.3" cy="51.14" rx="50.24" ry="50.37"/>
      <ellipse class="cls-19" cx="83.27" cy="51.09" rx="50.18" ry="50.31"/>
      <ellipse class="cls-20" cx="83.24" cy="51.05" rx="50.12" ry="50.26"/>
      <ellipse class="cls-21" cx="83.21" cy="51.01" rx="50.06" ry="50.2"/>
      <ellipse class="cls-51" cx="83.18" cy="50.96" rx="50" ry="50.14"/>
      <ellipse class="cls-45" cx="83.15" cy="50.92" rx="49.94" ry="50.08"/>
      <ellipse class="cls-44" cx="83.12" cy="50.88" rx="49.88" ry="50.03"/>
      <ellipse class="cls-40" cx="83.09" cy="50.84" rx="49.82" ry="49.97"/>
      <ellipse class="cls-42" cx="83.06" cy="50.79" rx="49.76" ry="49.91"/>
      <ellipse class="cls-43" cx="83.03" cy="50.75" rx="49.7" ry="49.85"/>
      <ellipse class="cls-41" cx="83" cy="50.71" rx="49.64" ry="49.79"/>
    </g>
    <g>
      <ellipse cx="67.01" cy="48.11" rx="5" ry="9.12"/>
      <path d="M67.01,39.49c2.44,0,4.5,3.95,4.5,8.62s-2.06,8.62-4.5,8.62-4.5-3.95-4.5-8.62,2.06-8.62,4.5-8.62m0-1c-3.04,0-5.5,4.31-5.5,9.62s2.46,9.62,5.5,9.62,5.5-4.31,5.5-9.62-2.46-9.62-5.5-9.62h0Z"/>
    </g>
    <g>
      <path d="M105.46,58.23c-3.03,0-5.5-4.48-5.5-10s2.47-10,5.5-10,5.5,4.48,5.5,10-2.47,10-5.5,10Z"/>
      <path d="M105.46,38.74c2.71,0,5,4.35,5,9.5s-2.29,9.5-5,9.5-5-4.35-5-9.5,2.29-9.5,5-9.5m0-1c-3.31,0-6,4.7-6,10.5s2.69,10.5,6,10.5,6-4.7,6-10.5-2.69-10.5-6-10.5h0Z"/>
    </g>
    <path class="cls-1" d="M67.95,44.61c.9,.69,1.64,1.58,2.14,2.59,0-.07,.01-.14,0-.22,0-.17,0-.34,0-.52,0-.59,0-1.18,0-1.77s0-1.18,0-1.77v-.39c0-.11,0-.23-.02-.34-.5-1.02-1.24-1.91-2.14-2.59,0,.07-.01,.14,0,.22,0,.17,0,.34,0,.52,0,.59,0,1.18,0,1.77s0,1.18,0,1.77v.39c0,.11,0,.23,.02,.34h0Z"/>
    <path class="cls-1" d="M106.83,43.55c1.02,.89,1.84,2,2.38,3.25,0-.07,.01-.14,0-.22,0-.17,0-.34,0-.52,0-.59,0-1.18,0-1.77s0-1.18,0-1.77v-.39c0-.11,0-.23-.02-.34-.54-1.24-1.36-2.36-2.38-3.25,0,.07-.01,.14,0,.22,0,.17,0,.34,0,.52,0,.59,0,1.18,0,1.77s0,1.18,0,1.77v.39c0,.11,0,.23,.02,.34h0Z"/>
    <path class="cls-1" d="M63.14,53.57c.53,.84,1.27,1.55,2.14,2.04,0,0,0-.17,0-.15,0-.12,0-.24,0-.35s0-.24,0-.35c0-.02,0-.14,0-.15-.87-.49-1.61-1.2-2.14-2.04,0,.01,0,.15,0,.15,0,.12,0,.24,0,.35s0,.24,0,.35c0,.03-.01,.12,0,.15h0Z"/>
    <path class="cls-1" d="M102.22,54.57c.95,1.26,2.26,2.22,3.74,2.74-.02,0,0-.46,0-.5,0-.05,.03-.49,0-.5-1.49-.52-2.79-1.48-3.74-2.74,0,.01,0,.15,0,.15,0,.12,0,.24,0,.35s0,.24,0,.35c0,.03-.01,.12,0,.15h0Z"/>
    <path d="M73.16,72.48c7.08,5.12,16.89,4.99,23.81-.35,1.26-.97,.01-3.14-1.26-2.16-6.29,4.86-14.84,5.02-21.29,.35-1.31-.94-2.55,1.22-1.26,2.16h0Z"/>
    <path d="M68.93,27.82c1.24,.54,2.45,1.17,3.6,1.89,.57,.35,1.12,.73,1.65,1.13,.13,.1,.26,.19,.39,.29-.1-.08-.02-.02,.03,.03,.06,.05,.13,.1,.19,.15,.28,.23,.56,.46,.84,.7,.49,.43,1.29,.52,1.77,0,.43-.47,.53-1.31,0-1.77-2.16-1.88-4.58-3.44-7.21-4.58-.6-.26-1.37-.2-1.71,.45-.28,.54-.19,1.43,.45,1.71h0Z"/>
    <path d="M103.27,25.79c-2.63,1.14-5.05,2.7-7.21,4.58-.49,.43-.47,1.33,0,1.77,.53,.48,1.24,.46,1.77,0,.26-.23,.52-.45,.79-.66,.06-.05,.13-.1,.19-.15,.02-.01,.2-.16,.11-.09s.1-.07,.11-.09c.06-.05,.13-.1,.19-.15,.55-.41,1.12-.8,1.7-1.16,1.15-.72,2.35-1.35,3.6-1.89,.6-.26,.78-1.19,.45-1.71-.4-.63-1.07-.73-1.71-.45h0Z"/>
    <path class="cls-64" d="M134.16,73.62s68.83-14.63,77.92-16.22c9.09-1.59,29.13-4.7,29.13-4.7l.64-2.74,2.05,1.9,9.09-1.59,.83-.9s20.87-4.02,22.73-3.96,11.97-.58,11.97-.58l-9.26,3.73-2.33,.47-21.69,4.97-1.02-.95-9.92,2.51s-.83,.9,.19,1.85-2.05-1.9-2.05-1.9c0,0-24.57,3.97-28.08,5.72-3.52,1.75-79.91,14.52-79.91,14.52l-.19-1.85"/>
  </g>
</svg>